<?xml version="1.0" encoding="UTF-8"?>
<svg id="Layer_2" data-name="Layer 2" xmlns="http://www.w3.org/2000/svg" width="451.9" height="332.09" viewBox="0 0 451.9 332.09">
  <g id="Layer_1-2" data-name="Layer 1">
    <g>
      <path d="M195.69,332.09c-15.27,0-27.76-.44-39.3-1.39-.27-.02-.55-.03-.82-.03,0,0-59.51,0-59.51,0-4.27,0-8.54,0-12.82-.01h-3.19c-4.3-.01-8.59-.02-12.89-.02-4.72,0-9.44,0-14.16.03h-2c-1.94,0-3.9,0-5.86-.02-1.89-.01-3.78-.02-5.67-.02-1.74,0-3.48,0-5.21.04-.02,0-.22,0-.22,0h.11c-.3,0-.61,0-.91,0-.64,0-1.29-.01-1.94-.03-.06,0-.13,0-.19,0-.81,0-1.62.1-2.42.3-2.56.64-4.88.95-7.11.95-6.76,0-12.97-2.92-17.02-8-4.02-5.04-5.47-11.63-3.99-18.08,2.03-8.84,6.45-18.29,10.72-27.43,2.6-5.56,5.28-11.29,6.77-15.64.15-.44.32-.89.51-1.31.05-.11.09-.22.13-.33.62-1.61,1.16-3.99,2.13-8.72,2.11-10.24,5.01-24.27,16.4-33.2,1.69-1.33,3.58-2.37,5.6-3.09,1.38-.49,2.64-1.29,3.68-2.32.66-.65,1.37-1.27,2.11-1.82,2.96-2.22,4.46-5.9,3.88-9.55-1.03-6.56-3.02-13.95-4.78-20.46-3.54-13.14-7.2-26.73-6.33-40.38.06-.96.19-1.93.39-2.87,1.25-5.9,3.78-11.45,6.23-16.82,1.97-4.33,3.42-7.57,4.03-9.94.87-3.38,1.71-7.51,2.24-11.06.34-2.29-.12-4.62-1.3-6.6-5.05-8.46-9.52-18.62-4.43-29.76,3.44-7.52,10.59-12.7,19.61-14.2.28-.05.56-.09.83-.12,2.32-.29,4.59-.43,6.77-.43,11.82,0,22.23,4.45,29.31,12.54,6.79,7.75,10.35,18.3,10.89,32.25.19,4.91,3.92,8.96,8.8,9.54,5.75.69,10.82,2.88,15.04,6.51,1.83,1.57,4.15,2.41,6.52,2.41.81,0,1.62-.1,2.42-.3,3.15-.79,5.72-3.05,6.89-6.07.66-1.68,1.54-3.27,2.62-4.72,2.62-3.5,6.04-6.11,9.89-7.55,1.26-.47,2.42-1.2,3.39-2.12,5.89-5.61,12.32-9.23,17.27-11.76,2.97-1.52,4.99-4.41,5.38-7.72.39-3.31-.89-6.6-3.42-8.77-16.31-14.01-23.48-29-21.92-45.82.96-10.34,9.52-18.15,19.91-18.15h1c5.91,0,11.48,2.59,15.29,7.11,1.74,2.07,4.25,3.34,6.95,3.53.23.02.47.02.7.02,2.46,0,4.83-.9,6.67-2.55,1.57-1.41,3.35-2.56,5.29-3.41,2.56-1.13,5.27-1.7,8.06-1.7,3.38,0,6.73.86,9.69,2.5,1.48.82,3.15,1.25,4.84,1.25.11,0,.21,0,.32,0,.23,0,.47-.01.7-.01,3.1,0,5.86.56,8.42,1.73,1.31.59,2.72.89,4.13.89,1.25,0,2.5-.23,3.69-.71,10.6-4.21,21.83-6.34,33.4-6.34,21.02,0,40.46,6.66,59.26,13.09,7.57,2.59,14.72,5.04,21.87,7.04.68.19,1.39.31,2.1.35,18.97,1.13,27.51,12.12,29.18,22.02,1.64,9.76-2.77,22.85-20.08,30.31-2.16.93-3.92,2.59-4.98,4.69-.62,1.23-1.36,2.46-2.21,3.65-1.43,2.01-2.07,4.47-1.79,6.92.04.38.07.76.09,1.14.08,1.56.54,3.08,1.32,4.44.38.66.78,1.38,1.22,2.18.59,1.09,1.08,2.24,1.46,3.42.76,2.36,1.35,4.87,1.81,7.65.34,2.05,1.31,3.95,2.77,5.42,1.11,1.12,2.08,2.33,2.96,3.71,1.85,2.88,5.04,4.59,8.41,4.59.38,0,.76-.02,1.15-.07,1.62-.19,3.2-.28,4.71-.28,15.03,0,26.21,8,28.48,20.37.53,2.88.46,5.98-.21,8.96-.92,4.14.87,8.42,4.48,10.66,1.84,1.15,3.52,2.52,4.99,4.07,4.5,4.76,6.98,10.93,6.97,17.39,0,10.96-7.2,20.23-17.91,23.07-2.28.6-4.27,1.99-5.62,3.91-4.25,6.04-11.39,9.51-19.6,9.51-3.88,0-8.08-.77-12.48-2.29-1.08-.37-2.18-.55-3.27-.55-3.97,0-7.72,2.39-9.28,6.27-2.3,5.72-5.79,11.38-10.38,16.83-3.46,4.12-7.53,8.11-12.44,12.22-3.3,2.76-4.47,7.33-2.88,11.34,2.73,6.91,6.29,13.8,10.06,21.1,2.57,4.98,5.22,10.09,7.64,15.32.4.86.74,1.76,1.01,2.67,1.95,6.51.78,13.33-3.21,18.69-2.96,3.98-8.56,8.71-18.47,8.71-1.21,0-2.27-.07-3.15-.13-.25-.02-.5-.03-.75-.03-.08,0-.15,0-.22,0-2.11.05-4.29.07-6.67.07-2.74,0-5.49-.03-8.23-.06-2.6-.03-5.21-.06-7.8-.06-1.12,0-2.25,0-3.37.02h-.23c-.83,0-1.56.01-2.29.01-.99,0-1.97,0-2.96,0-.96,0-1.89,0-2.82,0-.42,0-1.24,0-1.69,0-.73,0-1.47,0-2.21,0h-14.4s-4.39-.02-4.39-.02c-.68,0-1.35,0-2.01,0h-.76c-.28,0-1.37-.01-1.41-.01-.83,0-1.66.1-2.47.31-2.14.54-4.21.81-6.35.81-.6,0-1.28-.04-2.13-.11-.29-.03-.58-.04-.87-.04-.35,0-.69.02-1.04.05-.73.08-1.47.12-2.18.12-.56,0-1.13-.02-1.7-.07-.15-.01-.29-.02-.44-.03-5.85-.2-12.14-.3-19.22-.3-9.38,0-19.06.17-28.43.34-9.58.17-19.44.35-29.17.35Z" fill="#fff"/>
      <g>
        <path d="M189.78,20c9.69,13.99,34.06,28.31,50.95,20.45-2.56-5.87-8.85-10.39-7.99-17.45l20.96,14.98-5.98-10.98c2.06-2.04,4.71,8.4,8.49,8.73,41.76-28.95,80.21-3.63,121.16,6.97,16.25-.19,18.21,9.57,2.48,15.02-6.31,2.63-13.6,4.22-20.11,6.36l-.14,4.86c.71.75,9.14-1.53,7.98,1.48-1.39,3.6-9.07,8.83-12.98,9.53-.38,4.74,6.05,10,6.79,12.67.11,9.49.24,6.42,4.92,15.06,1.77,5.5,1.84,12.39,2.32,18.16,27.63,5.57-26.51,22.2-14.09,62.53,2.59,1.87,11.45-1.91,12.89,3.15.93,3.24-1.32,5.33-1.38,7.75,6.32,21.55-16.84,38.44-32.44,49.16,1.79,21.91,14.91,41.2,23.97,60.75.74,2.47-4.37,1.43-5.98,1.48-8.92-19.76-20.2-37.79-22.98-59.93l-5.04,1.62c2.72,31.11,2.66,30.14-8.93,58.32-2.3.02-4.97,0-6.99,0,7.96-15.3,12.88-33.47,11.99-50.94-.04-1.37.51-5.84-.57-6.01l-11.41.02c2.32,7.55-1.1,16.06-1.99,23.48-.98,11.04-.67,22.41-2.01,33.45-1.53,0-3.59,0-5,0,2.27-14.96,5.02-30.97-4.5-43.93-3.83,3.66-7.74,4.1-11.48-.02-1.09,1.13-5.03,28.43-4.62,30.98.74,4.58,5.01,8.78,6.6,12.97-1.86.91-5.41,2.36-6.99-1-9.29-18.43-13.84-38.52-20.51-57.91-3.13-7.42-6.82-15.81-8-23.97-17.07-15.88-33.18-29-33.44-55.97l-7.05,4.68c1.62,17.77,9.79,46.35,17.16,61.63,2.96,3.85,13.99-2.9,17.77,3.28l-8.72,27.64c11.35,14.51,23.65,28.21,36.79,41.11-2.33.95-5.44.46-7.99.49l-34.84-37.63c-1.16-3.39,1.6-5.26,2.66-8.03,2.39-6.28,4.76-12.67,6.2-19.26-5.44-.02-11.37.76-16.06-2.68-6.35-21.14-15.37-42-16.91-64.25-8.82,3.42-18.45,5.11-27.97,3.99-1.69-.2-15.15-4.08-12.98-6.98,10.83-2.32,22.24-5.71,29.97-13.98-3.37,1.14-9.76-1.53-12.26-.86-5.83,4.7-16.28,8.17-23.71,10.84-6.15,2.56-2.98,1.62-5.99,5.99-5.66,10.71-7.08,9.7-15.04,16.43-.64.96-8.3,15.55-8.51,16.46-2.47,15.97,3,40.13,1.56,57-8.32-2.45-4.94-40.12-6-48.93-1.92.73-1.24,3.92-2.57,5.91-7.01,7.78-11.32,3.95-11.38,15.02l4.97,1.06-2.03,8.39c.08.88,4.71,2.12,5.52,3.59,2.41,15.02-12.64,41.55-13.48,57.92-1.72,0-4.32,0-5.99,0l14.98-54.93c-26.9,6.7-36.16,13.97-58.93-7-.58-.55-2.83-7.94-4.48-4.98l-23.49,66.91c-.83.05-7.65,2.96-6.89-.38,2.71-11.81,12.58-28.48,16.91-41.04,4.36-10.25,3.86-27.49,12.6-34.34l5.34,2.84,5.71-9.81,9.19.74c11.6-26.74-10.1-60.15-8.46-85.87,1.56-7.38,7.84-17.28,10.06-25.9,1.49-5.79,4.42-19.75,3.01-25.02-1.53-5.73-15.28-19.82-2.97-21.88,34.05-4.21,23.54,40.19,21.41,60.86,6.95,2.47,12.32-3.56,19.02-5.46,14.75-4.19,16.89-.2,21.08,13.33,17.36-3.36,21.99,17.61,14.85,29.09l28.97-7.99c.64-.86-10.89-7.1-7.02-9.51,5.7-.62,24.71-2.42,25.01-9.45-12.96-2.86-24.01-12.59-20.5-26.99,1.29-1.72,1.44-.34,2.51.51,4.17,3.3,7.73,8.49,13.55,9.42,9.32,1.49,21.58-3.39,24.41-12.91l-12.99,3.98,5.99-6.97c-9.09-2-16.16.09-24.97,1.49,9.87-11.65,25.93-14.16,37.46-23.47,2.49-5.1-3.84-18.62,1.39-24.5-14.15-8.95-34.64-22.31-32.86-41.44h1ZM275.7,29.99c-3.22.48-16.37,6.1-15.86,9.31,1.58,2.78,4.4,5.55,6.87,7.67,3.88,3.25,2.68,3.07,7.99,4l9.99,4.98c-18.31.47-30.58-16.58-45.46-24.95-3.19,2.55,22.39,26.69,17.49,27.96-2.18-1.48-3.89-3.39-5.99-4.99-3.5-2.67-2.15-.47-5.43-.97-10.77-1.63-29.18-8.88-38.83-14.21-2.82-1.55-7.21-5.77-9.35-6.63-5.14-2.07-.59,2.65.66,3.83,16.66,26.03,57.95,29.76,86.45,30.01,16.71-1.08,100.66-1.95,102.33-18.49-2.37-1.87-13.95-2.53-17.95-3.53-29.72-9.22-61.6-27.38-92.91-13.98ZM248.72,50.95c-3.78-9.13-9.34-5.04-16.98-4.97,4.29,3.47,11.47,4.75,16.98,4.97ZM198.77,102.9c-.42.24-3.22-.5-1.5,1l13.78-.21c10.91-12.64,27.68-9.6,42.66-13.78,2.84.28,21.8-11.19,16.98-4.99-15.49,15.62-44.91,4.9-57.94,21.96,18.23-10.43,67,6.67,64.94-25.96.05-2.42.18-5.12,0-7.5-.11-1.49.78-2.89-1.49-2.48-6.24,7.57-16.41,9.58-25.49,11.97,5.16-5.76,15.37-5.51,19.98-11.97-13.47-.54-26.44-4.19-39.37-7.04-17.64-1.01-2.2,16.09-6.53,23.57-1.9,3.28-21.21,12.72-26.02,15.43ZM356.61,67.94c0-1,.03-2,0-3-2.69-1.08-6.92,1-8.5,1h-29.97c-.91,0-3.63,1.81-5.5,1-.7,3.89,1.89,7.15,2.01,10.98,3.67.76,1.76-5.18,4.98-5.99.43,3.39-4.46,10.03.68,11.83,6.73,2.36,6.16-3.64,9.32-5.84.55,8.69-3.2,8.69-9.99,8.99-2.85-3.61-7.84-4.1-11.34-6.14-5.19-3.02-2.27-5.94-10.63-3.85-1.78.44-9.03,3.9-9.99,2.99l3.99-11.97c-15.3-.37-6.61,17.99-12.53,26.91-3.23,4.86-8.36,4.77-11.39,7.59-3.16,7.04-10.23,11.03-17.95,11.51-2.46,35.66-45.55,47.3-21.08,85.35,13.33,20.73,45.17,45.29,69.93,48.93-22.31-12.97-37-33.09-46.93-56.44,23.57,31.62,55.21,84.21,96.9,37.97-19.03-.12-45.3-19.99-40.96-40.96,1.96,13.16,20.95,31.77,33.58,34.85,7.39.91,11.26,1.21,16.37-3.89.83-.82,5.14-4.92,3.99-5.99-11.17,5.96-17.66-4.87-26.45-10l2.48-.99c.9,1.12,10.61,8.12,11.94,8.53,5.33,1.62,4.67-.44,7.04-1.54,4.22-1.96,7.14-2.92,8.99-7.98-28.25,12.38-28.5-35.51-16.42-49.89,3.68-5.17,20.78-16.76,21.3-18.73,1.23-4.7-5.62-3.74-7.87-4.31-2.76-.7-8.98-2.37-10.99-4-1.4-1.13-2.55-4.27-4.07-5.42-.42-.32-7.08-3.53-7.49-3.59-4.15-.6-7.67,6.03-13.4,3.01l-2.5,18.99c-.6-5.27-2.38-13.6-.5-18.99.09-6.88.7-12.18,8.99-12.99,5.59,2.62-2.74,2.77-3.87,5.62-.47,1.4.08,4.3,1.37,4.34,1.88.06,5.04-6.2,10.73-4.76,2.28.58,7.99,6.88,10.3,1.8,1.18-2.6-5.65-5.5-7.54-7.51s-4.84-6.99-6.4-9.58c-1.83-3.03-2.74-3.1,1.4-2.9,3.42,9.65,24.39,14.3,12.03,25.47,2.69,3.88,7.55,4.34,11.47,6.42,4.72-5.57,2.07-16.64-2.52-21.9-.25-.35.57-2.05-.52-2.02-7.72,4.27-12.44,2.09-15.46-5.97,2.94,3.94,10.07,5.77,13.98,2.5,3.92-3.28-6.77-11.38-5.02-16.46-4.35-.89-6.85,1.55-8.96,4.97-2.65,1.16-4.26,1.73-6.66,2.86l-2.22-1.51,1.9-9.34c4.93-.82-1,7.09-.01,7.98,7.05,1.54,4.41-14.04,19.93-15.03.2-.97.04-1.96.05-2.94ZM299.67,66.96c-6.26-.4-7.83,6.6-9.99,10.97,2.53.93,7.89-8.95,9.99-10.97ZM308.62,67c-6.49-1.95-8.75,5.01-12.94,8.93,2.8-.14,4.23-2.49,7.44-2.02,2.91.43,4.94,5.47,8.54,5.02l-3.04-11.92ZM360.61,72.95c-3.86-.87-9.82,1.02-10.99,4.97,4.47.74,8.56-1.15,10.99-4.97ZM77.89,76.93c.93,1.69,2.06,3.27,3,4.99-3.94,6.24-1.47,11.24-2.12,18.36-1.57,15.56-7.59,31.85-13.62,46.31,1.72,27.35,21.78,56.47,7.75,84.15,7.49.16,35.85,15.38,32.96-.98l-14.98-4.01c4.12-6.8,21.88,5.71,25.97-6.99,6.75-21.36-7.99-39.47,9.99-38.95,10.07,3.59,2.76,5.89-4,4.99v6s9.3.84,9.3.84c16.16-13.46,10.9-4.29,10.69-21.83-12.92-1.67-25.53.13-38.46.01-1.84-1.47,1.39-.86,1.5-1,13.36-3.82,27.15-4.26,40.96-4.99.63-26.51-10.93-21.06-29.98-13.99-3.92.8-12.68,7.03-14.98,3.99,6.81-8.5,25.61-9.09,24.98-17.98-.16-2.37-1.06-2.53-2-4-.4-.62.21-2.26-1.62-2.86-11.43-3.23-34.6,19.34-46.32,11.35l11.84-3.63c1.44-7.89,2.05-15.84,2.13-23.84,1.83-9.9,4.58-25.09-3-32.96-2.96-3.7-5.87-5.99-10.99-5.99-7.53,0-2.92,10.47-.51,9.98,3.93-.79-3.12-6.02,1.51-6.99ZM221.75,107.9c-.77.23-2.13-.24-3.02.44l-3.98,17.54c-10.21,12.24-20.28,27.34-37.96,26.98,2.3,3.89,6.83,1.95,10.42,4.04,15.67,4.83,42.34-33.26,42.53-24.02-15.52,16.5-30.19,32.41-49.95,43.95-.7.45-2.66-1.11-1.99,1.99,12.21-.43,25.7-3.07,34.97-11.47,6.83-7.08,26.21-27.8,27.96-37.46-5.39.87-8.6-4.45-12.99-5.57-5.52,6.43-14.83,15.14-21.98,19.55,2.25-11.46,25.99-16.65,17.47-29.44-.1-1.73,1.84-7.19,1.51-7.52-1.31-.37-2.14.74-2.99.99ZM234.74,106.9c-21.73-.64,6,25.81,8.77,14.26,2-8.95-2.85-7.36-9.76-7.28-1.14-2.24,1.91-2.13,1.99-2.99l12.98,2v-6c-4.63.15-9.35-.2-13.98,0ZM180.79,127.88c2.77,3.52,4.52,5.4,8.95,7.53,9.12,4.38,7.27,2.64,13.02-2.54,3.02-2.72,7.55-5.48,7.99-9.98-14.62,6.59-20.63,6.74-33.95-4-.64,4.35,1.78,6.19,3.99,8.99ZM361.61,192.81l-10.98-1c-.81,5.05,2.11,8.65,7.33,8.04l3.65-7.04ZM130.84,195.8h-7.99s1.01,10.98,1.01,10.98l6.02-7.45.96-3.53ZM91.88,255.73c.89-.18,2.76.5,3-1,7.41-1.85,15.57.37,14.91-9.88-8.87-4.96-18.2-1-26.89-6.1-10.17-3.93-24.12-13.23-24.48,5.05,11.93,9.02,16.99,18,33.47,11.93ZM256.71,239.75c.64,1.93,5.43,14.97,6.49,14.96,2.47-1.74,4.45-5.13,6.49-6.97.51-.46,4.72-1.92,3.99-2.98l-18.49-11.99c-1.27,1.99.84,4.99,1.5,6.99ZM279.69,255.73c1.33,1.24,7.64,8.97,8.49,8.97,2.94-1.98,3.26-5.22,4.5-7.97.5-1.11,2.61-1.97,2-3.99-4.49.99-14.6-5.98-17.5-4.09-6.24,4.06.94,5.61,2.51,7.08ZM266.7,265.72c.11,1.07-.43,2.61,1,3l6.49,19.99c1.8-.66,2.35-19.25,4.5-20.99.93-6.78-4.28-9.69-8.63-13.91-7.72,3.75-4.82,6.14-3.36,11.91ZM303.66,253.72c-11.26-2.27-2.53,24.7-1.02,15.48.33-2.27,1.67-14.87,1.02-15.48Z" fill="#1d1813"/>
        <path d="M155.82,183.81c6.96,12.59,8.83,25,12,38.96,3.89,2.83,1.27-9.58.99-10.99,17.64,22.92,7.82,72.28-2,98.89-3.66,0-7.33,0-10.99,0,6.9-20.38,13.09-44.59,9.48-65.93l-21.47,65.93c-7.98,0-16,0-23.98,0-.51-3.18,3.96-23.95,5.01-24.97,1.6-1.56,1.75.64,2.21,1.3,1.09,1.57,4.91,8.39,6.28,8.68l2.32-1.66c7-24.68-6.21-50.3,1.98-74.93,2.41-6.46,7.48-12.37,10.55-18.42,2.8-5.52,4.26-11.78,7.62-16.86Z" fill="#383c59"/>
        <path d="M69.9,259.72c13.42,7.99,29.92-1.64,43.95-3.99l-14.98,54.93c-15.3,0-30.65-.07-45.95,0l16.98-50.94Z" fill="#383c59"/>
        <path d="M155.82,183.81c-3.35,5.08-4.82,11.33-7.62,16.86-3.07,6.05-8.14,11.96-10.55,18.42-8.19,24.62,5.01,50.24-1.98,74.93l-2.32,1.66c-1.37-.29-5.19-7.11-6.28-8.68-.46-.66-.61-2.86-2.21-1.3-1.05,1.02-5.52,21.79-5.01,24.97-4.98,0-10,0-14.99,0,.82-16.29,15.9-42.97,13.48-57.92-.81-1.47-5.45-2.71-5.52-3.59l2.03-8.39-4.97-1.06c.08-11.09,4.37-7.23,11.38-15.02,1.33-1.99.65-5.18,2.57-5.91,1.06,8.74-2.32,46.49,6,48.93,1.44-16.84-4.05-41.04-1.57-57,.22-.91,7.88-15.5,8.51-16.46,7.96-6.75,9.36-5.7,15.04-16.43,3.16.99,2.95,4.11,4,5.99Z" fill="#272b40"/>
        <path d="M69.9,259.72l-16.98,50.94c-6.31.03-12.67-.1-18.98,0l20.98-61.93c1.56,1.47,12.78,9.67,14.99,10.99Z" fill="#272b40"/>
        <path d="M250.72,235.75c10.86,24.19,15.19,50.16,26.97,73.91-.32-.12-1.92-.06-2,0-8.89-13.34-25-23.56-32.44-38-1.95-4.79,6.18-21.73,6.41-28.54.32-9.43-15.82-5.94-21.7-8.6-1.64-7.95-7.34-16.71-6.22-24.75,6.83,9.22,18.18,21.62,28.97,25.97Z" fill="#383c59"/>
        <path d="M209.76,184.81c2.64-.59,1.9,1.38,2.53,2.91,2.94,7.13,5.31,15.62,9.46,22.06-1.12,8.05,4.58,16.79,6.22,24.75,5.87,2.66,22.01-.83,21.7,8.6-.23,6.81-8.36,23.75-6.41,28.54,7.46,14.45,23.53,24.64,32.45,38,.04.73.19,2.41-1.42,2.08-38.88-1.43-79.29,2.21-117.46-1.08,38.22-.5,76.8.99,114.88-.49-13.14-12.89-25.44-26.6-36.79-41.11l8.72-27.64c-3.78-6.19-14.81.56-17.77-3.28-5.86-11.9-14.19-39.11-16.09-53.33Z" fill="#535672"/>
        <path d="M143.83,310.66l21.47-65.93c3.61,21.35-2.57,45.54-9.48,65.93-3.99,0-8,0-11.99,0Z" fill="#535672"/>
        <path d="M351.62,310.66c-8.96.25-18.01-.1-26.97,0,6.56-15.54,7.87-29.17,6.99-45.95,4.88,17.22,12.86,29.95,19.98,45.95Z" fill="#383c59"/>
        <path d="M314.66,310.66c11.61-28.19,11.65-27.28,8.93-58.32l5.04-1.62c.43,4.72,1.72,9.46,3,13.99l.04,19.52c-.46,9.34-4.23,17.69-7.03,26.43-3.32.04-6.67-.03-9.99,0Z" fill="#272b40"/>
        <path d="M291.68,268.71c4.26,6.19,7.06,16.98-3.61,9.07l-2.33,1.51,5.94,31.37c-2.32.02-4.68-.11-6.99,0-1.59-4.19-5.87-8.39-6.6-12.97-.41-2.55,3.52-29.86,4.62-30.98,3.68,3.3,4.32,3.63,8.98,2Z" fill="#a12822"/>
        <path d="M54.92,248.73l-20.98,61.93c-2.32.04-4.68-.13-6.99,0l23.49-66.91c1.65-2.97,3.9,4.43,4.48,4.98Z" fill="#535672"/>
        <path d="M298.67,310.66c-2.33,0-4.67-.02-6.99,0l-5.94-31.37,2.33-1.51c10.67,7.91,7.86-2.88,3.61-9.07.9-.32,1.76-1.33,2.5-1.98,9.52,12.97,6.77,28.96,4.5,43.93Z" fill="#ca3428"/>
        <path d="M315.66,259.72c.54,17.64-4.76,34.39-9.99,50.94-.67,0-1.33,0-2,0,1.37-17.07,1.39-34.1,5-50.94h6.99Z" fill="#383c59"/>
        <path d="M319.65,259.72c.88,17.48-4.03,35.62-11.99,50.94-.67,0-1.33,0-2,0,5.23-16.55,10.53-33.3,9.99-50.94h4Z" fill="#535672"/>
        <path d="M391.08,152.85c-.56.04-2.61,2.79-2.49-.49,13.2-18.01,40.16-7.01,20.47.49-5.84,0-12.24-.39-17.98,0ZM412.55,145.87c-3.13-1.91-13.57-.11-14.98,2.98,1.46,0,18.06,1.1,14.98-2.98Z" fill="#2d2b27"/>
        <path d="M387.11,184.81c.8-.15,13.52,4.74,15.33,5.63,18.97,9.33,7.24,14.72-7.79,4.79-1.24-.82-12.84-9.41-7.54-10.42ZM408.55,198.79c2.58-2.51-12.78-9.04-14.98-7.98,3.67,4.25,10.2,5.32,14.98,7.98Z" fill="#2d2b27"/>
        <path d="M424.26,178.98c8.44-2.45,11.45,10.83.82,8.8-4.79-.91-4.71-7.67-.82-8.8Z" fill="#2d2b27"/>
        <path d="M295.68,100.91c-2.11,1.26-8.15,5.56-8.98,7.51s2.75,2.19,3.99,2.48c.18.04.59,1.02,1.49,1.01l5.01-4.99c4.29,5.8,11.05,13.13,15.49,2.98,6.1-.63,10.14-7.85,13.99-2-3.29,2.47-2.54,7.64-3,10.99-2.01,1.38-.67,4.85-1,6.99-.14,3.89-1.75,14.54,3.49,14.04,3.57-.34,2.19-8.62,4.3-12.75,7.4-14.43,12.42,8.13,21.18-2.3,2.01,1.62,8.23,3.3,10.99,4,.53,2.42-1.24,2.07-2.63,2.82-28.67,13.54-51.41,40.03-22.94,67.18l.6,1.92c6.37,3,11.73,8.15,18.98,8.99-2.37,1.1-1.71,3.16-7.04,1.54-1.33-.41-11.04-7.41-11.94-8.53-.19-.24.12-1.43,0-2-4.54,2.55-3.32-1.5-6.49-1-4.11,1.54,20.71,25.67,26.47,19.98-15.15,14.79-39.21-9.46-47.13-22.3-1.39-2.68-1.87-6.69-2.82-8.66-.23-.48-4.12-5.98-4.5-5.97l-1.36,1.62c-1.12,12.55,3.65,24.33,9.68,34.99,2.02,3.57,11.68,15.94,11.24,18.67-20.39,15.92-45.23-17.91-55.84-33.01-4.47-5.34-14.78-33.48-20.16-31.28-.64,5.67.99,13.65,4.99,17.98.48,4.65,7.93,12.97,5.5,16.98-11.12-11.83-23.19-10.35-21.36-30.34.47-5.18,4.57-22.8,6.66-27.3.98-2.11,9.57-13.65,11.59-13.23,7.38,4.55,8.96,20.36,13.15,24.87,5.74,6.19,11.46-2.33,13.16-7.72,3.51-11.19-.46-16.79-2.46-26.94-1.22-6.21-.73-12.62-4.1-18.58l4.58-5.63c6.13,1.56,11.95-5.26,17.25-3ZM303.32,132.22c-.91-.91-13.53-9.92-14.38-10.14-5.74-1.46-4.82,5.08-2.28,8.32.88,1.13,7.46,5.33,9.02,5.96,5.35,2.17,14.18,2.37,7.64-4.14Z" fill="#f8c89d"/>
        <path d="M157.81,171.82c7.38-2.64,17.93-6.18,23.7-10.84,2.5-.67,8.89,2.01,12.26.86-7.73,8.27-19.14,11.66-29.97,13.98-2.17,2.9,11.29,6.78,12.98,6.98,3.28,11.03,14.86,12.86,24.97,9.98l13.88,60.36,14.1-.42c1.27,9.38-12.44,18.04-9.54,27.02,7.15,7.18,14.03,14.62,21.04,21.92,2.4,2.5,7.92,4.26,7.49,9-17.3.07-34.65-.01-51.95,0,1.65-12.18,19.58-94.3-1-91.89-.27-1.85.53-6.27-1.99-6.99.79,9.25-2.14,18.05-4.01,26.96-1.85-1.03-1.66-2.77-1.98-4.52-2.57-17.49-10.2-34.78-24-45.42-1.67-5.79-3.73-11.4-5.99-16.98Z" fill="#383c59"/>
        <path d="M87.88,79.93c3.92,18.61,3.98,38.07.87,56.8l-11.84,3.63c15.31,7.16,32.12-9.24,47.93-8.49.94,1.47,1.83,1.63,2,4-7.16-1.7-33.47,8.83-24.98,17.98,2.26,3.04,11.1-3.2,14.98-3.99,14.23-1.08,14.96-5.74,26.97,5.99-6.5.65-39.1,4.91-37.96,12.98-.11.14-3.33-.46-1.49,1.01,12.94.12,25.54-1.68,38.46-.01.17,1.95-.24,4.1,0,6-5.08,2.14-10.65,2.83-15.98,4-2.58.57-7.58-.37-8.8,3.69-1.53,5.1.96,14,.85,19.82-.06,3.15-1.11,12.71-2.04,15.44-32.8.91-8.44-26.62-11.18-39.23-1.97-9.11-14.3-6.56-18.79-13.21-2.48-3.67-2.16-7.27-3-11.49.69-.89,1.57-1.98,2-2.99-.45-.34-4.23.62-4.99.99-7.24,1.77-11.97-6.98-12.99-12.98,1.46-4.41,3.76-8.97,5-12.98,2.69.58,1.92-1.37,2.48-2.96,9.74-23.05,13.46-27.72,1.51-49.98,5.12,0,8.03,2.29,10.99,5.99Z" fill="#f8c89d"/>
        <path d="M240.73,34.98c6.43,2.07,27.39,26.86,31.97,18.98,3.52,1.33,8.18,2.12,11.99,1.99l-9.99-4.98c10.49,2.58,24.89-5.62,35.95-7.5,11.04-1.53,26.27-9.35,35.97-2.49-6.56,2.86-47.42,3.74-44.95,8.99,14.08-1.25,27.92-2.91,41.79-5.65,7.45-3.4,9.78-2.13,17.15.66-1.61.09-32.27,6.24-33.96,5.99-11.41.96-22.98,2.63-34.35,4.11-1.08.14-4.67.39-4.6,1.87,17.8,2.23,38.07-1.04,55.94-3.99,8.36-1.25,16.95-1.89,24.83-5.17.48-1.23-.02-2.54.14-3.82,5.21,1.34,28.41,1.86,14.19,8.7-42.5,14.94-108.61,18.86-153.06,5.28,38.73,4.57,30.39,3.92,10.99-22.97Z" fill="#ecb734"/>
        <path d="M80.89,152.85c-9.56,4.64.44,19.34,2.5,25.96,1.24,4,2.99,22.93,5.99,22.96,6.65-5.22-1.3-21.06-3.01-27.93-3.07-8.17-8.99-10.57-2.48-19,.84,4.22.52,7.82,3,11.49,4.49,6.65,16.82,4.1,18.79,13.21,2.73,12.6-21.62,40.14,11.18,39.23-3.86,11.33-19.61,2.61-25.02,5.49-2.35,2.48-1.91,7.42-3.95,10.49-4.99-1.31-9.88-3.16-14.99-4,17.16-33.12-16.26-72.26-4.99-90.89,1.02,6.01,5.75,14.76,12.99,12.98Z" fill="#da8d2d"/>
        <path d="M176.79,182.81c9.51,1.11,19.14-.57,27.97-3.99,1.54,22.25,10.57,43.11,16.91,64.25,4.68,3.43,10.62,2.66,16.06,2.68-1.44,6.59-3.81,12.98-6.2,19.26-1.05,2.77-3.82,4.64-2.66,8.03l34.84,37.63c-4.98.06-10-.02-14.99,0,.43-4.74-5.09-6.5-7.49-9-7.01-7.3-13.89-14.74-21.04-21.92-2.89-8.98,10.82-17.64,9.54-27.02l-14.1.42-13.88-60.36c-10.11,2.88-21.68,1.05-24.97-9.98Z" fill="#272b40"/>
        <path d="M251.72,191.8c-4-4.33-5.63-12.31-4.99-17.98,5.32-2.28,15.74,26,20.16,31.28,10.65,15.12,35.39,48.91,55.84,33.01.44-2.73-9.22-15.1-11.24-18.67-6.03-10.66-10.8-22.44-9.68-34.99l1.36-1.62c.37,0,4.26,5.49,4.5,5.97-4.34,20.98,21.93,40.84,40.96,40.96-41.73,46.26-73.33-6.37-96.9-37.97Z" fill="#da8d2d"/>
        <path d="M362.61,128.87c21.88.79-8.21,14.73-13.42,23.04-12.08,14.38-11.82,62.27,16.42,49.89-1.85,5.06-4.77,6.02-8.99,7.98-7.25-.83-12.61-5.99-18.98-8.99l-.6-1.92c-28.48-27.2-5.7-53.64,22.95-67.18,1.39-.75,3.16-.4,2.62-2.82Z" fill="#f9ecdc"/>
        <path d="M275.7,29.99c14.49-2.17,29.55-.87,43.95,1.01l-24.97,5c-.29,2.58,0,1.59,1.45,2.01,9.39,2.75,17.33,2.08,26.89.85,5.2-.67,10.46-4.62,14.61-.87-6.06.39-20.24,4-26.98,5.48-13.92,2.25-32.23,14.62-43.95,3.51,6.24-2.6,13.1-3.8,19.5-5.98,1.11-.38,3.62-.57,3.47-2l-26.97,3.99c-.76-.98-2.71-2.66-2.88-3.68-.51-3.21,12.65-8.82,15.86-9.31Z" fill="#f7d03b"/>
        <path d="M356.61,67.94c0,.98.15,1.97-.05,2.94-15.55,1.01-12.83,16.53-19.93,15.03-.99-.89,4.94-8.8.01-7.98l-1.9,9.34,2.22,1.51c.59-.02,1.18-.72,1.67-.86.24,1.49-.34,3.7,0,4.99-4.14-.21-3.23-.13-1.4,2.9,1.56,2.59,4.51,7.57,6.4,9.58s8.73,4.91,7.54,7.51c-2.32,5.08-8.02-1.23-10.3-1.8-5.69-1.44-8.86,4.83-10.73,4.76-1.29-.04-1.84-2.94-1.37-4.34.66-1.97,5.76-2.79,5.85-4.13.03-.52-1.91-1.27-1.98-1.49-.34-1.11-3.03-15.6-2.97-16.44.13-1.73,4.01-11.44,2.96-12.53-6.35-.4-4.12,9.77-12.32,6.83-5.14-1.8-.25-8.44-.68-11.83-3.21.82-1.31,6.76-4.98,5.99.13-2.8-1.77-5.35-2.01-7.99,14.66-.52,29.61,1.51,43.96-2Z" fill="#f1c298"/>
        <path d="M230.74,125.88c3.2,1.9,5.87,4.48,9.99,4-1.72,9.62-21.15,30.42-27.96,37.46-4.71,4.04-10.64,7.82-17,8.48,10.36-4.92,19.25-19.85,25.57-28.88,2-3.65,11.88-10.77,8.4-14.07-.22-9.66-29.72,32.87-44.96,22.97,9.42-1.12,14.21-7.24,20.98-11.99,7.71-6.96,17.95-10.26,24.98-17.98Z" fill="#da8e2b"/>
        <path d="M368.6,43.97v1h-7.99c-2.38-.75-7.9-3.02-9.99-3l1-1.99c-1.66.28-3.34.64-4.99.99-2.14-1.51-6.46-3.16-8.99-3-4.15-3.75-9.41.2-14.61.87-9.56,1.24-17.5,1.9-26.89-.85-1.45-.43-1.74.57-1.45-2.01l24.97-5c-14.4-1.88-29.46-3.18-43.95-1.01,31.33-13.4,63.16,4.76,92.91,13.98Z" fill="#f2e5d4"/>
        <path d="M319.65,86.92c-6.12.69-13.68,1.4-14.98,8.99l8.41-4.07,1.05,2.08c2.3-1.75,4.61-2.87,7.51-3,.63,4.57-1.22,8.39-3.11,12.37-2.17,3.73-9.26,3.89-13.24,3.47l-2.13-5.85-1.5,4.99c-.73-.69-3.02-1.75-3-3,0-.53,1.08-1.13,1.03-2.5-.03-.81-1.94-.39-2.03-.5-.25-.32-.65-2.67-1.07-3.41l2.08-1.07c-5.45-5.09-.56-12.03-1.01-18.5,8.36-2.09,5.44.83,10.63,3.85,3.5,2.04,8.49,2.52,11.34,6.14Z" fill="#f9ecdc"/>
        <path d="M234.74,64.95c5.04,5.75,11.58,6.98,18.62,8.87,1.35.36,2.79-.68,2.35,1.61l-22.97,13.49c10.96-.82,21.87-3.64,31.96-7.97l-10.99,8.98c-14.98,4.18-31.76,1.14-42.66,13.78l-13.78.21c-1.73-1.5,1.08-.77,1.5-1,8.91-.81,29.62-9.37,31.76-18.69,1.36-5.91-1.11-13.25,3.2-19.27.33.04.67-.05,1,0Z" fill="#f7d03b"/>
        <path d="M250.72,235.75c-10.78-4.34-22.15-16.76-28.97-25.97-4.15-6.44-6.52-14.93-9.46-22.06-.63-1.53.11-3.5-2.53-2.91-.37-2.73-.37-5.57-1.07-8.3l7.05-4.68c2.11,44.73,34.1,43.69,34.97,63.93Z" fill="#272b40"/>
        <path d="M82.89,238.75c-3.68-.4-3.39,5.96-2.48,7.97,1.73,3.81,9.2,5.33,11.47,9.01-16.47,6.07-21.53-2.91-33.47-11.93.35-18.28,14.3-8.99,24.48-5.05Z" fill="#dadad9"/>
        <path d="M234.74,64.95c12.06,1.74,23.66,5.94,35.96,6-4.61,6.46-14.82,6.21-19.98,11.97,9.08-2.38,19.25-4.39,25.49-11.97,2.26-.42,1.37.99,1.49,2.48.18,2.39.05,5.08,0,7.5-1.62,1.23-3.68,2.46-5,4-.61.12-1.55-.18-2,0,4.83-6.2-14.15,5.28-16.98,4.99l10.99-8.98c-10.1,4.33-21.01,7.15-31.96,7.97l22.97-13.49c.44-2.29-1-1.25-2.35-1.61-7.04-1.88-13.58-3.11-18.62-8.87Z" fill="#da8e2b"/>
        <path d="M277.69,80.93c2.05,32.63-46.66,15.53-64.93,25.96,12.05-17.6,43.7-2.26,58.98-19.47,1.05-3.38,3.21-4.59,5.95-6.49Z" fill="#ecb734"/>
        <path d="M82.89,238.75c8.7,5.1,18.02,1.14,26.89,6.1.9,11.78-9.61,6.56-15.9,10.88-.62.13-1.53-.17-2,0-2.27-3.68-9.74-5.2-11.47-9.01-.91-2.01-1.2-8.37,2.48-7.97Z" fill="#f6f5f5"/>
        <path d="M221.75,107.9c.85-.25,1.69-1.36,2.99-.99.33.33-1.61,5.79-1.51,7.51,8.52,12.79-15.22,17.98-17.47,29.44-7.33,5.35-19.61,17.87-28.97,9,17.69.35,27.74-14.73,37.96-26.98,5.44-5.97,8.28-8.53,6.99-17.98Z" fill="#efc837"/>
        <path d="M195.78,175.82c-4.96,2.35-12.54,2.78-17.98,2.99-.67-3.1,1.29-1.55,1.99-1.99,25.7-2.42,32.24-29.62,49.95-43.95,3.48,3.3-6.4,10.43-8.4,14.08-6.31,9.03-15.21,23.96-25.57,28.88Z" fill="#f7d03b"/>
        <path d="M233.74,64.95c-4.31,6.02-1.85,13.36-3.2,19.27-2.14,9.32-22.86,17.88-31.76,18.69,4.81-2.7,24.13-12.15,26.02-15.43,3.88-7.5-11.49-28.42,8.94-22.53Z" fill="#f2e5d4"/>
        <path d="M250.72,53.96c2.1,1.6,3.82,3.52,5.99,4.99-5.49,2.91-20.56-.53-26.97-1-13.25-2.58-24.76-10.69-31.97-21.98,15.24,14.41,32.07,18.45,52.95,17.98Z" fill="#f7d03b"/>
        <path d="M143.83,155.84c.91.75,2.05,1.29,3,2,.2,1.94-.13,4.04,0,6-13.81.73-27.6,1.17-40.96,4.99-1.16-8.07,31.48-12.34,37.96-12.98Z" fill="#da8d2d"/>
        <path d="M351.62,124.88c-8.76,10.43-13.78-12.14-21.18,2.3-2.12,4.12-.73,12.4-4.3,12.75-5.24.5-3.63-10.15-3.49-14.04l1.5,12,2.5-18.99c5.73,3.02,9.25-3.61,13.4-3.01.41.06,7.07,3.27,7.49,3.59,1.53,1.15,2.68,4.29,4.07,5.42Z" fill="#d2892d"/>
        <path d="M157.81,171.82c2.44,3.23,17.57,54.84,10,50.94-3.17-13.96-5.03-26.37-12-38.96-1.04-1.88-.84-5-4-5.99,3.01-4.38-.15-3.43,5.99-5.99Z" fill="#535672"/>
        <path d="M343.63,85.92c2.12-3.42,4.61-5.86,8.96-4.97-1.75,5.08,8.94,13.18,5.02,16.46-3.9,3.27-11.04,1.44-13.98-2.5l1.99,4-1,1c-4.27-3.3-6.94-5.88-5.99-11.99.96-.27,1.89-.72,3-1-2.18,5.39,3.51,1.34,4.49,1.33,1.93-.02,3.26,3.1,5.49,2.66.45-5.14-4.09-5.45-7.99-4.99Z" fill="#f2e5d4"/>
        <path d="M250.72,53.96c-20.88.47-37.71-3.57-52.95-17.98-1.25-1.19-5.8-5.9-.66-3.83,11.95,9.63,32.98,18.15,48.19,20.84,3.27.5,1.92-1.7,5.43.97Z" fill="#f2e5d4"/>
        <path d="M126.84,135.87c.71,8.82-18.25,9.54-24.98,17.98-8.48-9.15,17.77-19.67,24.98-17.98Z" fill="#da8d2d"/>
        <path d="M329.64,77.93c.97-.67,1.71-1.24,2.99-.99,1.05,1.09-2.83,10.8-2.96,12.53-.06.84,2.63,15.32,2.97,16.44-1.75.5-4.59.95-5.99,2-.59-2.09-3.2-2.37-5-2,.72-3.34,2.52-6.43,1.99-9.99h-1.99c.35-1.27-.24-3.51,0-4.99,1.55-.07,2.63.43,3.99,1,.77-3.55-1.71-3.38-3.99-4.99,6.55-.9,8.1-1.07,7.99-8.99Z" fill="#d88d2f"/>
        <path d="M142.83,175.82c.24,1.96,2.19,3.51.5,7.01l-11.19,8.82-9.3-.84v-6c6.76.9,14.07-1.4,4-4.99,5.33-1.17,10.91-1.86,15.98-4Z" fill="#d88d2f"/>
        <path d="M180.79,127.88c-2.21-2.8-4.62-4.64-3.99-8.99,13.36,10.77,19.34,10.57,33.95,4-.44,4.5-4.96,7.26-7.99,9.98-8.08.73-15.1-.73-21.98-4.99Z" fill="#efc837"/>
        <path d="M80.89,81.93c8.07,14.9.53,27.04-5.51,41.99-.56,1.59.21,3.54-2.48,2.96,2.04-6.64,5.26-19.88,5.87-26.59.64-7.12-1.82-12.12,2.12-18.36Z" fill="#d88d2f"/>
        <path d="M234.74,106.9c-.5,1.21,1.04,3.56,1,4-.08.86-3.13.75-1.99,2.99,6.91-.09,11.76-1.67,9.76,7.28-2.76,11.55-30.5-14.9-8.77-14.26Z" fill="#f7c69c"/>
        <path d="M278.69,265.72c0,.65.06,1.35,0,2l-1,1c-.29,2.17-2.31,19.98-3.5,19.99l-6.49-19.99c-1.31-.93-.97-1.62-1-3l4.59-3.94,7.4,3.94Z" fill="#f6f5f5"/>
        <path d="M312.66,69.94c-.09-.98.02-2.01,0-2.99,1.86.81,4.59-1,5.5-1h29.97c1.57,0,5.81-2.08,8.5-1,.03.99,0,2,0,3-14.34,3.5-29.3,1.48-43.96,2Z" fill="#d2892d"/>
        <path d="M345.63,98.91c5.3,9.99,15.12-1.96,13.99,4-3.09.72-1.43,11.35-.84,13.33,1.25,4.22,3.92-.14,5.84-.34.06,1.73-.89,8.77-2.48,8.92-3.92-2.08-8.77-2.54-11.47-6.42,9.33-8.11-.15-12.44-6.03-18.48l1-1Z" fill="#f1c298"/>
        <path d="M357.61,219.77c-5.76,5.68-30.56-18.42-26.47-19.98,3.17-.5,1.95,3.56,6.49,1,.12.57-.19,1.76,0,2l-2.48.99c8.8,5.14,15.28,15.96,26.45,10,1.15,1.07-3.16,5.16-3.99,5.99Z" fill="#d88d2f"/>
        <path d="M90.88,225.76l14.98,4.01c2.9,11.16-12.54,7.29-17.97,4.98,1.61-2.38,1.8-6.83,3-8.99Z" fill="#f7c69c"/>
        <path d="M179.79,176.82c13.02-8.22,23.12-16.02,33.97-26.97-6.86,14.01-17.91,24.93-33.97,26.97Z" fill="#f2e5d4"/>
        <path d="M146.82,157.84c-16.12-12.36-10.4-10.47-29.97-7.99,5.51-1.89,22.62-9.66,26.89-3.41.87,1.28,2.88,9.48,3.08,11.4Z" fill="#f2e5d4"/>
        <path d="M272.7,53.96c-4.53,7.9-25.55-16.91-31.97-18.98-.63-1.04-2.99-2.91-1.5-3.99,11.33,6.9,21.58,17.3,33.47,22.97Z" fill="#f2e5d4"/>
        <path d="M272.7,84.92c-7.44,13.97-31.1,12.12-44.96,12.98,14.15-3.5,31.7-2.5,42.96-12.99.44-.18,1.39.12,2,0Z" fill="#f2e5d4"/>
        <path d="M279.69,255.73c-1.58-1.47-8.75-3.02-2.51-7.08,2.9-1.89,13.01,5.07,17.5,4.09.61,2.02-1.5,2.88-2,3.99-5.02.99-9.1-5.23-12.99-1Z" fill="#a12822"/>
        <path d="M124.85,131.87c-13.66-.3-24.23,9.33-37.96,9.99,7.38-.68,35.36-20.63,37.96-9.99Z" fill="#f2e5d4"/>
        <path d="M278.69,265.72l-7.4-3.94-4.59,3.94c-1.46-5.77-4.36-8.16,3.36-11.91,3.72,3.97,8.57,5.96,8.63,11.91Z" fill="#dadad9"/>
        <path d="M269.7,247.74c-2.04,1.84-4.02,5.23-6.49,6.97-1.06.01-5.85-13.04-6.49-14.96l12.99,7.99Z" fill="#ebeae9"/>
        <path d="M308.62,67l3.04,11.92c-3.61.45-5.63-4.59-8.54-5.02-3.21-.47-4.64,1.87-7.44,2.02,4.19-3.92,6.45-10.88,12.94-8.93Z" fill="#ecb734"/>
        <path d="M319.65,86.92c.65-.07,1.36.09,2,0,2.27,1.61,4.75,1.44,3.99,4.99-3.83-2.08-8.26-.56-11.5,2.01l-1.05-2.08-8.41,4.07c1.29-7.59,8.85-8.3,14.98-8.99Z" fill="#312316"/>
        <path d="M256.71,239.75c-.67-1.99-2.78-4.99-1.5-6.99l18.49,11.99c.72,1.06-3.48,2.52-3.99,2.98l-12.99-7.99Z" fill="#dadad9"/>
        <path d="M262.71,42.97l26.97-3.99c.15,1.44-2.36,1.62-3.47,2-6.4,2.18-13.26,3.38-19.5,5.98-1.85-1.55-2.45-2.02-4-4Z" fill="#da8e2b"/>
        <path d="M303.66,253.72c.65.61-.69,13.2-1.02,15.48-.2,1.36-.39,3.02-1.96,1.5-2.79-5.38-5.64-17.74,2.98-16.98Z" fill="#dadad9"/>
        <path d="M202.77,132.87c-5.76,5.18-3.9,6.92-13.02,2.54-4.44-2.13-6.18-4.01-8.95-7.53,6.88,4.26,13.89,5.72,21.98,4.99Z" fill="#d88d2f"/>
        <path d="M292.68,256.73c-1.23,2.75-1.56,5.99-4.5,7.97-.85,0-7.16-7.73-8.49-8.97,3.88-4.24,7.97,1.99,12.99,1Z" fill="#ca3428"/>
        <path d="M308.66,259.72c.07-2.06-1.13-3.91-.99-5.99l11.41-.02c1.08.17.54,4.64.58,6.01h-10.99Z" fill="#272b40"/>
        <path d="M364.61,115.89c-1.92.2-4.59,4.57-5.84.34-.59-1.98-2.25-12.61.84-13.33,2.9,3.96,4.82,7.74,5,12.98Z" fill="#f9ecdc"/>
        <path d="M234.74,106.9c4.64-.2,9.35.15,13.99,0v6s-12.99-2-12.99-2c.04-.44-1.49-2.78-1-4Z" fill="#d2892d"/>
        <path d="M361.61,192.81l-3.65,7.04c-5.22.61-8.15-3-7.33-8.04l10.98,1Z" fill="#f2e5d4"/>
        <path d="M90.88,112.89c.11-11-.54-22.2-3-32.96,7.58,7.88,4.83,23.05,3,32.96Z" fill="#dadad9"/>
        <path d="M248.72,50.95c-5.5-.22-12.69-1.51-16.98-4.97,7.64-.07,13.2-4.15,16.98,4.97Z" fill="#d2892d"/>
        <path d="M221.75,107.9c1.29,9.45-1.55,12.01-6.99,17.98l3.98-17.54c.88-.69,2.25-.22,3.02-.44Z" fill="#f2e5d4"/>
        <polygon points="130.84 195.8 129.88 199.33 123.86 206.78 122.85 195.8 130.84 195.8" fill="#ebeae9"/>
        <path d="M230.74,125.88c-3.27,4.86-9.58,6.95-13.99,9.99l10.99-11.56c1-.46,2.18,1.08,3,1.57Z" fill="#efc837"/>
        <path d="M76.89,73.94c.13,1.08.48,2.05,1,3-4.63.97,2.42,6.19-1.51,6.99-2.41.48-7.02-9.99.51-9.98Z" fill="#d2892d"/>
        <path d="M343.63,85.92c3.89-.46,8.44-.15,7.99,4.99-2.23.44-3.56-2.68-5.49-2.66-.98.01-6.67,4.06-4.49-1.33.34-.08.91-.87,2-1Z" fill="#2d2b27"/>
        <path d="M299.67,66.96c-2.07,1.99-7.5,11.93-9.99,10.97,2.16-4.37,3.73-11.37,9.99-10.97Z" fill="#efc837"/>
        <path d="M360.61,72.95c-2.42,3.82-6.51,5.71-10.99,4.97,1.16-3.95,7.12-5.85,10.99-4.97Z" fill="#da8e2b"/>
        <path d="M254.72,198.79c10.85,20.55,23.34,37.74,43.94,49.45-24.77-3.64-56.6-28.2-69.93-48.93-24.47-38.05,18.61-49.69,21.08-85.35,7.73-.49,14.78-4.47,17.95-11.52,3.04-2.82,8.17-2.73,11.39-7.59,5.93-8.92-2.76-27.28,12.53-26.91l-3.99,11.97c.96.91,8.21-2.55,9.99-2.99.44,6.47-4.44,13.41,1.01,18.5l-2.08,1.07c.43.74.82,3.09,1.07,3.41-.65.36-1.36.62-2,1-5.3-2.26-11.11,4.56-17.25,3l-4.58,5.63c3.37,5.96,2.88,12.37,4.1,18.58,2,10.16,5.97,15.75,2.46,26.94-1.69,5.39-7.42,13.91-13.16,7.72-4.18-4.52-5.77-20.32-13.15-24.87-2.02-.42-10.61,11.12-11.59,13.23-2.09,4.5-6.18,22.12-6.66,27.3-1.83,19.99,10.24,18.51,21.36,30.34,1.98-2.52-1.65-7-2.5-9.98ZM290.68,94.91c-1.78-2.39,2.13-15.06-2.49-13.97-3.54,2.64-1.89,6.85-2.73,10.26-.6,2.44-2.82,4.15-2.76,6.72l7.98-3ZM261.7,118.89c-1.22-1.63-1.81.02-2,1.48-1.4,11.07,2.42,18.23,7.49,27.48,7.77-3.95-7.97-14.03-5.49-28.96Z" fill="#da8d2d"/>
        <path d="M322.65,123.88c.06-1.6-.62-4.14,1-4.99-.21,1.54-.98,4.73-1,4.99Z" fill="#d2892d"/>
        <path d="M93.88,255.73c.2-.41.57-.89,1-1-.13.54-.45.89-1,1Z" fill="#dadad9"/>
        <path d="M267.7,268.71c-.47-.15-.87-.53-1-1l1,1Z" fill="#dadad9"/>
        <path d="M277.69,268.71l1-1c-.07.69-.99.93-1,1Z" fill="#dadad9"/>
        <path d="M167.8,192.8c11.71,31.47,17.84,32.53,15.98,68.92,1.42.23,1.46-1.76,1.71-2.78,2.69-15.66,8.61-31.15,8.29-47.16,8.64,21.85-6.71,76.01-15.99,98.88-3.66,0-7.33,0-10.99,0,9.81-26.53,19.64-76.01,2-98.89-.97-7.1-3.01-16.09-5-22.97,1.71,1.11,2.26,2.65,4,4Z" fill="#080707"/>
        <path d="M196.77,310.66c-6.32,0-12.67,0-18.98,0,10.54-25.95,20.16-64.5,17.98-91.89,20.55-2.39,2.68,79.51,1,91.89Z" fill="#272b40"/>
        <path d="M412.55,145.87c3.09,4.08-13.52,2.98-14.98,2.98,1.42-3.08,11.81-4.88,14.98-2.98Z" fill="#dadad9"/>
        <path d="M408.55,198.79c-4.77-2.66-11.3-3.73-14.98-7.98,2.19-1.06,17.55,5.47,14.98,7.98Z" fill="#dadad9"/>
        <path d="M303.32,132.22c6.54,6.51-2.29,6.32-7.64,4.14-1.56-.63-8.14-4.84-9.02-5.96-2.55-3.24-3.47-9.78,2.28-8.32.85.22,13.47,9.23,14.38,10.14Z" fill="#f9ecdc"/>
        <path d="M301.67,105.9c3.77,3.6,5.23,4.54,10.99,4-4.44,10.15-11.2,2.82-15.49-2.98l-5.01,4.99c-.89,0-1.3-.96-1.49-1.01,2.52-2.79,4.25-6.76,7.99-7.99-.02,1.24,2.27,2.3,3,3Z" fill="#d88d2f"/>
        <path d="M321.65,95.91h1.99c.53,3.56-1.27,6.65-1.99,9.99-5.4,3.55-14.62,7.05-19.98,0l1.5-4.99,2.13,5.85c10.28.96,13.39-1.38,16.35-10.84Z" fill="#312316"/>
        <path d="M297.67,99.91c3.36-.41,1.67,1.66,1,3-3.74,1.23-5.48,5.2-7.99,7.99-10.65-.94,3.68-9.23,6.99-10.99Z" fill="#3e2b13"/>
        <path d="M261.7,118.89c-2.47,14.94,13.27,24.97,5.49,28.96-5.07-9.25-8.89-16.41-7.49-27.48.19-1.46.78-3.11,2-1.48Z" fill="#312316"/>
        <path d="M290.68,94.91l-7.98,3c-.05-2.56,2.16-4.28,2.76-6.72.84-3.41-.8-7.62,2.73-10.26,4.62-1.08.71,11.58,2.49,13.97Z" fill="#f1c298"/>
        <path d="M189.78,238.75c-1.52,4.15-2.98,21.92-5.99,22.97,1.87-36.33-4.31-37.56-15.98-68.92,12.05,9.33,17.32,26.49,20,41.43.31,1.74.13,3.48,1.98,4.52Z" fill="#272b40"/>
        <path d="M80.89,152.85c.76-.37,4.55-1.33,4.99-.99-8.17,10.27-4.39,11.72.48,21.98,1.71,6.89,9.66,22.68,3.01,27.93-3-.03-4.75-18.96-5.99-22.96-2.06-6.62-12.06-21.33-2.5-25.96Z" fill="#1d1813"/>
        <path d="M326.64,50.96c4.99,3.13,11.39,1.7,16.98,2-17.89,2.95-38.11,6.21-55.94,3.99-.07-1.49,3.53-1.73,4.6-1.87,11.37-1.48,22.95-3.15,34.35-4.11Z" fill="#da8e2b"/>
        <path d="M346.62,40.98c1.65-.35,3.33-.71,4.99-.99l-1,1.99c-15.5,5.17-32.63,6.26-48.94,7.99-2.45-5.25,38.37-6.13,44.95-8.99Z" fill="#3e2b13"/>
        <path d="M360.61,44.97h7.99c-.06.32.07.69,0,1-13.04,4.7-27.47,4.42-40.96,4.99l32.97-5.99Z" fill="#da8e2b"/>
        <path d="M368.6,45.97c.12,6-37.55,9.36-41.96,4.99,13.82-.52,28.59-.22,41.96-4.99Z" fill="#3e2b13"/>
      </g>
    </g>
  </g>
</svg>