<?xml version="1.0" encoding="UTF-8"?>
<svg id="Layer_2" data-name="Layer 2" xmlns="http://www.w3.org/2000/svg" viewBox="0 0 716.95 226.61">
  <g id="Layer_2-2" data-name="Layer 2">
    <path d="M.77,214.6c11.86,11.24,29.02,13.98,44.62,10.73,16.95-3.54,31.02-14.42,41.54-27.85,11.5-14.69,18.99-31.75,26.15-48.84,3.81-9.09,7.57-18.21,11.96-27.05,2.2-4.43,4.55-8.78,7.13-13,2.4-3.93,4.95-7.83,8.04-11.26s6.4-6.1,10.48-7.89c3.81-1.67,8.01-2.4,12.15-2.43,8.83-.05,17.18,3.1,24.4,8.05s13.54,11.9,18.9,19.03c2.79,3.71,5.41,7.69,9.01,10.69s7.6,4.68,12.13,5.19c8.78,1,17.57-3.05,24.84-7.56,3.98-2.47,7.7-5.3,11.37-8.2,4.31-3.41,8.61-6.81,12.92-10.22,17.23-13.62,34.46-27.25,51.69-40.87,8.61-6.81,17.23-13.62,25.84-20.43,8.09-6.39,16.08-12.93,24.34-19.1,14.05-10.49,30.16-19.94,48.33-18.45,7.4.61,14.95,3.15,20.59,8.09,6.01,5.26,9.41,12.73,10.4,20.59,2.34,18.66-7.06,35.51-15.55,51.36-4.79,8.93-9.18,18.01-12.49,27.61s-5.59,19.43-6.93,29.45c-2.11,15.78-2.94,34.01,5.62,48.2,3.83,6.35,9.82,11.33,17.21,12.81,9.79,1.97,20.02-1.42,29.31-4.28,17.41-5.35,34.36-12.85,49.25-23.42,7.41-5.26,14.33-11.24,20.41-18,6.48-7.19,12.05-15.16,17.22-23.33,9.91-15.64,18.49-32.27,30.59-46.4,11.14-13,25.18-23.84,42.39-26.9,18.28-3.25,36.86,1.3,55.23.76,8.94-.26,17.75-1.8,25.89-5.6,1.22-.57,1.53-2.33.9-3.42-.73-1.25-2.19-1.47-3.42-.9-16.71,7.8-36,4.49-53.7,3.42-9.22-.56-18.54-.65-27.64,1.19-8.52,1.71-16.59,5.34-23.76,10.22-14.69,9.99-25.62,24.39-34.99,39.26-10.17,16.14-19.03,33.34-31.79,47.67-11.96,13.43-27.03,23.64-43.25,31.23-8.16,3.82-16.62,6.95-25.23,9.58-4.56,1.39-9.16,2.73-13.84,3.66s-9.82,1.32-14.55-.16c-13.55-4.25-17.62-21.17-18.12-33.82-.37-9.33.62-18.84,2.3-28.01,1.82-9.9,4.62-19.62,8.38-28.96,7.22-17.95,19.55-33.92,24.14-52.92,3.96-16.36,1.64-35.38-12.56-46.15-13.3-10.1-32.07-9.73-47.01-3.85-8.88,3.5-16.95,8.6-24.61,14.24-8.32,6.12-16.32,12.68-24.42,19.08-17.16,13.57-34.33,27.14-51.49,40.71-8.61,6.81-17.23,13.62-25.84,20.43-4.31,3.41-8.61,6.81-12.92,10.22-3.68,2.91-7.35,5.82-11.3,8.38-6.83,4.43-15.13,8.78-23.55,7.8-9.12-1.06-13.77-9.32-18.89-15.9-11.07-14.21-26.2-26.91-45.12-27.09-9.21-.09-17.94,3.15-24.61,9.54s-11.72,15.22-16.07,23.51c-9.08,17.29-15.31,35.88-23.89,53.39-7.63,15.57-17.34,30.97-31.47,41.44-12.42,9.2-28.57,13.97-43.94,10.83-7.14-1.46-13.82-4.63-19.14-9.67-2.34-2.21-5.88,1.32-3.54,3.54h0Z"/>
  </g>
</svg>