<?xml version="1.0" encoding="UTF-8"?>
<svg id="Layer_2" data-name="Layer 2" xmlns="http://www.w3.org/2000/svg" viewBox="0 0 719.36 261.27">
  <g id="Layer_3" data-name="Layer 3">
    <path d="M3.15,27.96c25.09-4.31,53.12-8.77,75.95,5.62,4.51,2.84,8.61,6.4,11.9,10.61,3.09,3.97,5.27,8.57,7.34,13.13,3.85,8.47,7.6,18.27,15.94,23.35,4.78,2.91,10.55,3.68,15.95,2.34,5.82-1.44,10.98-5.05,15.23-9.18,8.19-7.95,12.7-18.78,20.68-26.91,3.47-3.53,7.6-6.44,12.42-7.56,4.13-.96,8.48-.57,12.6.78,8.24,2.69,15.41,9.53,17.14,18.17,2.14,10.66-4.33,21.23-11.69,28.54-8.66,8.6-19.79,13.99-29.87,20.68-5.12,3.4-10.17,7.14-14.34,11.69-3.91,4.27-7.01,9.23-9.09,14.64-3.95,10.3-3.03,22.44,5.17,30.44,7.48,7.3,18.83,9.74,28.97,8.44,12.85-1.65,24.16-8.58,35.14-14.98,10.26-5.98,21.09-11.22,32.88-13.34,10.37-1.87,21.63-.66,30,6.16,14.4,11.73,14.83,32.63,16.85,49.79,1.14,9.63,2.51,19.42,6.25,28.44,4.18,10.09,11.3,18.29,20.73,23.85,20.15,11.87,45.74,10.82,66.44.98,10.31-4.9,19.65-12.13,26.76-21.07,7.24-9.1,12.33-19.65,15.47-30.83,6.48-23.05,5.16-47.55,1.95-71.01-3.8-27.78-10.07-55.72-7.51-83.91.6-6.63,1.63-13.34,3.62-19.71,1.77-5.65,4.63-10.94,9.32-14.68,8.62-6.87,20.89-7.97,31.49-7.23s21.99,4.12,30.51,11.02c8.52,6.91,13.52,16.69,15.46,27.38,1.98,10.92.97,22.31-.96,33.16-1.86,10.47-5.24,20.65-6.34,31.26-.95,9.15-.4,19.51,5.74,26.89,3.31,3.97,8.17,6.41,13.26,7.02,5.73.69,11.63-1.06,16.55-3.96,10.83-6.39,16.2-18.31,21.6-29.1,2.29-4.57,4.89-9.89,9.72-12.25,2.67-1.31,5.78-1.25,8.67-.87,3.41.44,6.78,1.24,10.16,1.84,28.13,4.98,56.83,6.72,85.36,5.13,13.73-.77,27.41-2.31,40.98-4.58,1.33-.22,2.08-1.87,1.75-3.08-.39-1.41-1.74-1.97-3.08-1.75-28.05,4.7-56.65,6.06-85.03,4.15-14.08-.95-28.1-2.71-41.97-5.3-6.51-1.21-13.47-3-19.67.31-5.08,2.71-8.21,7.98-10.72,12.95-5.28,10.43-10.2,22.64-20.94,28.61-4.5,2.5-9.95,3.87-15.03,2.53-4.24-1.12-7.54-3.88-9.59-7.5-4.3-7.61-3.49-17.82-1.98-26.37.91-5.14,2.34-10.16,3.49-15.24,1.31-5.75,2.38-11.54,3.13-17.39,1.41-11.04,1.54-22.54-1.54-33.33s-9.65-20.32-19.01-26.7S476.14.52,464.72.06s-23.79,1.44-32.9,8.81c-10.15,8.21-12.63,22.37-14.06,34.61-1.63,13.94-.93,28.04.63,41.95,2.96,26.26,9.07,52.19,9.17,78.72.08,22.62-4.09,46.52-18.47,64.71-14.02,17.74-36.55,28.21-59.16,27.4-10.93-.39-21.88-3.58-30.97-9.75-8.49-5.78-14.23-14.16-17.32-23.83-5.84-18.22-3.93-37.98-9.97-56.15-2.95-8.89-8.11-16.8-16.04-22-9.79-6.41-21.87-6.96-33.04-4.66-11.75,2.41-22.62,7.77-32.91,13.77-10.46,6.1-21.59,13.2-33.96,14.26-9.4.81-20.47-1.78-26.12-9.98-6.15-8.93-3.62-20.42,1.73-29.07,6.31-10.22,16.95-16.57,26.95-22.68s20.76-12.95,28.03-23c6.46-8.93,9.72-20.68,5.21-31.18-3.72-8.63-12.07-15.05-21.11-17.27-4.59-1.13-9.49-1.22-14.07.05-5.16,1.43-9.72,4.6-13.47,8.36-8.14,8.15-12.68,19.15-20.94,27.17-3.99,3.87-8.9,7.3-14.5,8.2-4.56.73-9.29-.73-12.64-3.58s-5.72-6.74-7.76-10.74c-2.23-4.37-4.07-8.91-6.22-13.32-2.33-4.78-5.15-9.24-8.81-13.13-3.88-4.13-8.53-7.58-13.49-10.29-10.77-5.88-22.95-8.42-35.14-8.71-13.97-.34-27.84,2.05-41.56,4.41-1.33.23-2.08,1.87-1.75,3.08.39,1.41,1.74,1.98,3.08,1.75h0Z"/>
  </g>
</svg>