<?xml version="1.0" encoding="UTF-8"?>
<svg id="Layer_2" data-name="Layer 2" xmlns="http://www.w3.org/2000/svg" viewBox="0 0 749.78 292.79">
  <g id="Layer_4" data-name="Layer 4">
    <path d="M.71,265.61c10.39,11.88,24.6,20.17,39.79,24.25s31.74,4.06,46.7-1.04c16.54-5.64,31.95-16.51,41.92-30.96,2.69-3.9,4.81-8.15,6.78-12.44.99-2.15,1.94-4.32,2.91-6.48,1.02-2.27,2.19-4.5,2.94-6.88s1.14-4.83,2.07-7.12,2.17-4.28,3.48-6.24c2.41-3.63,5.39-6.85,8.69-9.69,6.45-5.56,14.24-9.51,22.23-12.38,9.12-3.27,18.66-5.34,28.32-6.06s20.19-.19,30.16,1.24c9.2,1.32,17.96,4.12,26.29,8.22s16.05,9.1,23.65,14.33,14.46,9.98,23.47,10.63c9.98.72,19.66-3.25,28.68-7.01,6.54-2.72,13.15-5.53,18.99-9.58s10.69-9.26,13.2-15.99c2.75-7.37,2.33-15.94-.15-23.32-5.11-15.2-18.06-25.83-26.95-38.7-5.29-7.66-9.93-16.27-10.02-25.8-.08-8.43,2.6-17.56,7.75-24.3,4.33-5.66,10.6-9.8,17.41-11.81,7.24-2.13,14.8-1.75,21.82,1.02,3.69,1.46,7.2,3.63,10.03,6.41,3,2.94,4.95,6.62,6.29,10.57,2.78,8.16,3.37,16.96,7.09,24.81,1.59,3.36,3.83,6.37,6.81,8.6,3.43,2.57,7.42,3.24,11.58,3.67,10.16,1.05,20.47.64,30.57-.84,18.1-2.65,36.54-9.5,50.71-21.31,12.68-10.57,21.02-25.5,24.84-41.45,3.64-15.22,4.41-32.49,14.31-45.35,2.37-3.07,5.19-5.88,8.71-7.57,3.26-1.56,6.96-1.91,10.52-1.99,10.18-.23,20.45.49,30.59,1.31,20.88,1.68,41.69,4.38,62.36,7.78,20.63,3.4,41.12,7.56,61.46,12.41,9.94,2.37,19.88,4.76,29.92,6.71,1.32.26,2.7-.37,3.08-1.75.34-1.23-.41-2.82-1.75-3.08-10.36-2.01-20.6-4.5-30.87-6.93s-20.45-4.67-30.73-6.74c-20.56-4.13-41.27-7.52-62.09-10.13-10.43-1.31-20.9-2.44-31.38-3.28s-20.28-1.52-30.4-1.32c-3.89.08-7.88.47-11.52,1.94-3.96,1.6-7.24,4.21-10.04,7.41-5.44,6.21-8.81,13.81-11.05,21.7s-3.4,15.72-5.06,23.58-4.06,15.54-7.86,22.68c-3.75,7.06-8.64,13.42-14.58,18.78-6.5,5.86-14.26,10.3-22.24,13.81-17.7,7.78-37.83,10.55-57.02,8.66-3.65-.36-7.19-.94-10.01-3.45-2.44-2.17-4.11-5.08-5.28-8.1-3.2-8.28-3.71-17.32-7.25-25.5-6.73-15.58-25.75-22.29-41.56-18.27-7.41,1.89-14.35,5.98-19.46,11.68-5.87,6.54-9.19,15.13-10.32,23.77-.61,4.67-.49,9.41.58,14.01s3.09,9.15,5.44,13.33c4.25,7.58,9.78,14.31,15.37,20.92,9.49,11.21,19.92,24.38,16.66,40.12-2.88,13.91-16.64,20.49-28.63,25.53-8.62,3.63-17.75,7.63-27.29,7.4-8.75-.21-15.82-5.62-22.74-10.36-15.37-10.53-31.67-19.95-50.38-22.66-19.97-2.9-40.23-2.37-59.47,4.12-8.29,2.8-16.37,6.57-23.34,11.91-3.49,2.68-6.72,5.66-9.49,9.09-3.08,3.81-5.93,8.11-7.43,12.81-.75,2.35-1.16,4.82-2.06,7.12-.84,2.17-1.94,4.26-2.88,6.38-1.92,4.32-3.84,8.65-6.19,12.76-4.39,7.66-10.53,14.19-17.43,19.64-12.73,10.04-28.42,16.35-44.67,16.91s-30.99-3.52-44.19-11.54c-6.31-3.83-11.99-8.57-16.84-14.13-.89-1.02-2.63-.91-3.54,0-1.01,1.01-.89,2.52,0,3.54h0Z"/>
  </g>
</svg>