<?xml version="1.0" encoding="UTF-8"?>
<svg id="Layer_2" data-name="Layer 2" xmlns="http://www.w3.org/2000/svg" viewBox="0 0 683.46 300.35">
  <g id="Layer_5" data-name="Layer 5">
    <path d="M5.01,227.03c1.71-20.63,9.6-40.49,21.76-57.17s29.16-30.5,48.53-38.05c11.49-4.48,24.25-6.95,36.49-4.39,9.59,2,18.26,7.18,24.97,14.26,6.75,7.12,11.43,16.16,13.03,25.86,1.72,10.39-.6,21.06-3.56,31-5.9,19.83-16.79,41.18-10.49,62.27s26.73,32.03,46.92,33.35c12.3.8,24.7-2.08,36.08-6.58,11.22-4.44,22.05-10.27,32.02-17.07,9.09-6.2,17.62-13.6,23.56-22.97,6.27-9.9,8.72-21.61,7.5-33.23-2.57-24.57-17.3-45.51-25.02-68.51-6.91-20.58-10.03-43.42-4.47-64.69,2.75-10.53,7.72-20.39,14.83-28.65,7.66-8.91,17.18-15.95,27.11-22.14,20.2-12.61,43.05-23.61,67.17-25.15,11.3-.72,22.93.76,33.35,5.37,9.31,4.11,17.52,10.37,24.12,18.09,6.52,7.63,11.35,16.74,13.89,26.45,3.17,12.14,2.4,24.94-.07,37.13-5.27,25.99-17.86,50.2-19.86,76.89-1.54,20.58,4.83,43.73,22.67,55.89,16.06,10.94,36.27,8.65,54.29,5.14,9.45-1.84,18.82-4.1,28.34-5.5,8.7-1.28,17.84-1.82,26.38.07,4.29.95,8.35,2.46,12.14,4.65,4.67,2.7,8.67,6.33,12.27,10.34,7.47,8.3,13.21,17.98,20.42,26.5,15.12,17.86,35.66,31.86,59.46,33.93,11.44,1,23.11-.97,33.37-6.2,2.87-1.46.34-5.78-2.52-4.32-10.39,5.3-22.46,6.78-33.95,5.17-11.46-1.6-22.21-6.23-31.73-12.73s-17.49-14.58-24.44-23.51c-6.87-8.82-12.71-18.56-20.88-26.3-7.21-6.84-16.07-11.39-25.9-12.94-9.36-1.48-18.82-.65-28.12.85s-19,3.84-28.53,5.61c-8.95,1.66-18.1,2.89-27.22,2.09s-17.54-3.92-24.29-9.84c-7.51-6.59-12.29-15.69-14.81-25.27-6.36-24.19,2.53-48.73,10.01-71.57,7.78-23.77,14.9-49.91,5.58-74.33-7.45-19.52-23.33-35.58-43.07-42.63-23.34-8.33-48.79-3.22-70.97,6.17-11.19,4.74-21.9,10.62-32.11,17.19s-19.58,13.83-27.1,23.11c-7.04,8.69-12.03,18.81-14.78,29.65s-3.35,21.74-2.49,32.66,3.26,22.44,6.8,33.19c3.78,11.49,9.14,22.32,14.09,33.34s9.8,22.64,11.07,34.79c1.2,11.44-1.27,22.57-7.75,32.13-6.03,8.89-14.66,15.81-23.61,21.6-10.08,6.52-20.9,12.3-32.25,16.29-11.06,3.88-23.17,6.18-34.88,4.38-9.64-1.48-19.14-5.38-26.49-11.89-7.37-6.53-11.99-15.42-12.81-25.26-.88-10.51,1.96-20.87,5.16-30.78,6.46-20.06,15.74-41.45,8.34-62.6-3.38-9.67-9.5-18.39-17.47-24.84-8.41-6.8-18.4-10.9-29.19-11.75-12.85-1.01-25.69,2.44-37.32,7.68-9.65,4.35-18.59,10.16-26.65,17-15.99,13.58-28.28,31.43-35.44,51.13C3.01,206.92.84,216.91,0,227.03c-.11,1.35,1.23,2.5,2.5,2.5,1.45,0,2.39-1.15,2.5-2.5h0Z"/>
  </g>
</svg>