<?xml version="1.0" encoding="UTF-8"?>
<svg id="Layer_2" data-name="Layer 2" xmlns="http://www.w3.org/2000/svg" width="867.02" height="830.12" viewBox="0 0 867.02 830.12">
  <g id="Layer_1-2" data-name="Layer 1">
    <g>
      <path d="M437.73,801.82c-.75-.45-1.54-1.06-2.08-1.71-1.25-1.52-1.86-4.84-2.4-7.77-3.82-20.7-16.04-22.16-20.06-22.64-.79-.09-1.58-.14-2.38-.14-2.89,0-5.75.62-8.39,1.84-3.99,1.84-6.92,4.38-9.11,6.83-1.31-.26-2.64-.4-3.98-.4-.69,0-1.37.04-2.06.11-.95.1-1.8.15-2.52.15-.38,0-.66-.01-.86-.03-.41-.31-1-.8-1.47-1.18-2.49-2.05-6.25-5.15-11.79-7.69-1.92-.88-3.96-1.45-6.05-1.69-1.02-.12-2.04-.18-3.06-.18-11.11,0-17.96,6.82-21.25,10.09-.34.34-.73.73-1.1,1.08-.04-.01-.09-.03-.13-.04-3.26-1.04-8.19-2.61-14.56-2.61-2.81,0-5.68.31-8.51.93-12.08,2.64-18.98,9.52-23.34,14.67-4.46-3.17-10.97-6.86-20.65-8.34-2.57-.39-5.14-.59-7.65-.59s-4.85.2-6.85.48c-2.03-5.2-5.9-12.13-14.37-16.59-4.29-2.26-8.9-3.41-13.71-3.41-3.23,0-6.04.52-8.27,1.07-.64-1.52-1.23-3.44-1.49-5.02-.43-2.58-.04-4.45.54-7.28,1.01-4.9,3.39-16.38-5.46-26.13-3.49-3.84-9.75-8.43-19.71-8.43-2.9,0-5.53.39-7.63.71-.78.12-1.57.23-2.25.31-2.05-3.85-5.48-9.79-12.98-15.42-10.71-8.03-20.65-8.64-26.58-9.01-.25-.02-.51-.03-.79-.05-.02-.1-.04-.19-.05-.28-1.05-5.44-2.79-14.55-11.08-24.29-7.25-8.53-14.38-11.48-18.63-13.24-.21-.09-.45-.19-.68-.28-1.19-2.79-1.4-4.43-1.69-6.68-1.78-13.91-7.1-21.86-23.63-35.16-.53-.47-1.08-.97-1.64-1.47.37-.54.73-1.05,1.06-1.52,6.86-9.83,19.63-28.13,8.46-50.14-.29-.57-.6-1.12-.95-1.66-5.76-9.08-13.72-11.73-18.47-13.31-2.44-.81-4.21-1.4-6.74-3.08-.92-.61-1.22-.89-1.22-.89-.08-.09-.4-.47-.62-.75-2.15-2.65-4.68-5.55-9.76-9.34-.3-.22-.6-.44-.91-.64-6.53-4.33-11.89-6.83-15.86-8.52,0-.75.01-1.61.04-2.6,1.73-21.06-4.23-31.19-10.97-38.26,4.89-4.93,11.02-12.97,10.36-24.79-.41-7.37-3.28-12.92-6.34-16.99,6.56-2.05,15.21-5.46,22.41-14.24,2.53-3.09,4.08-6.87,4.45-10.85.66-7.18-1.28-12.91-3.25-17.11,2-.45,4.83-.97,8.83-1.51,15.69-2.11,18.58-13.25,19.1-17.94.17-1.55,1.45-5.74,2.21-8.25,2.01-6.59,3.6-11.79,2.9-17.62-1.02-8.48-5.22-14.27-8.44-17.85.76-7.07.45-15.34-1.85-21.68-2.93-9.81-7.99-15.82-11.42-19.61.03-.05.07-.1.1-.14,3.64-5.38,10.4-15.4,8.46-29.84-.24-1.78-.58-3.42-1-4.92,7.01-3.41,15.47-9.02,19.97-20.04,2.69-6.59,2.6-11.93,2.55-15.12,0-.22,0-.48,0-.71.59-1.08,1.62-2.1,3.04-3.04.84-.55,1.11-.62,2.34-.62.77,0,1.72.05,2.73.11,1.34.08,2.86.16,4.53.16,3.21,0,12.99,0,21.95-8,10.11-9.02,11.76-20.82,12.75-27.87.1-.71.21-1.53.33-2.29,4.15-1.45,11.48-4.64,16.15-13.08,4.72-8.53,3.35-16.19,2.7-19.87-.07-.39-.16-.9-.2-1.18.32-1.06,2.29-3.89,6.01-6.57q1.11-.8,3.3-1.23c4.17-.81,11.15-2.16,18.83-8.71,9.04-7.7,11.45-16.16,12.74-20.7.04-.13.08-.27.12-.41.87-.04,1.98-.05,2.89-.06,7.14-.06,19.08-.15,30.17-10.37.38-.35.75-.72,1.11-1.1,4.25-4.58,6.92-9.24,9.06-12.99.02-.04.05-.09.07-.13,4.04,4.28,10.4,10.37,20.63,13.73,2.64.87,8.12,2.68,14.61,2.67,6.45,0,12.47-1.83,17.41-5.28,10.7-7.47,11.76-18.72,12.27-24.12.06-.66.14-1.49.23-2.21,4.7-1.63,13.23-5.02,18.7-15.17,3.42-6.35,3.71-11.71,3.82-14.75,3.57,1,8.39,2.3,14.22,2.3,4.01,0,7.96-.63,11.75-1.88.72-.24,1.42-.51,2.1-.83,5.06-2.33,8.59-5.39,11.08-8.27,5.84,3.43,14.46,7.7,25.85,7.71,7.27,0,13.22-1.67,17.99-3.73,2.33,8.02,6.98,18,18.84,22.24,2.97,1.06,6.07,1.6,9.22,1.6,6.7,0,12.1-2.38,16.17-4.64,2.15,2.51,5.04,5.32,9.03,8.14,3.54,2.5,14.32,10.09,28.77,10.09.99,0,2-.04,2.99-.11,10-.73,15.82-4.75,19.3-7.15,1.53-1.06,1.67-1.15,2.38-1.33.35.09.84.23,1.24.34,2.47.69,6.19,1.75,10.91,1.75,4,0,8.02-.77,11.95-2.29,7.51-2.9,11.26-7.19,13.5-9.75,1.08-1.23,1.45-1.65,3.1-2.69,1.73-1.08,4.02-2.52,5.69-2.9.29.14.6.3.87.43,3.1,1.56,7.8,3.92,15.24,5.81,5.23,1.33,9.84,1.95,14.52,1.95.55,0,1.06,0,1.55-.02.08.16.15.31.22.46,2.35,4.91,6.74,14.05,18.23,19.23,4.37,1.97,8.95,2.96,13.63,2.96,2.97,0,5.43-.39,7.28-.7.56.7,1.41,2.02,2.3,4.38.82,2.18.73,3.64.44,7.03-.47,5.37-1.44,16.55,7.71,25.81,5.43,5.5,12.48,8.28,20.95,8.28.94,0,1.91-.03,2.9-.07,1.74,4.09,4.95,10.82,12.69,16.36,6.05,4.33,12.9,6.52,20.36,6.52,2.68,0,5.01-.27,6.92-.5.11.36.22.71.32,1.04,2.07,6.74,5.2,16.93,15.34,27.32,7.26,7.44,13.48,10.09,17.19,11.68.14.06.29.12.44.19.89,1.39,1.25,2.84,1.99,6.32,1.38,6.53,3.46,16.4,13.34,25.49.35.32.71.63,1.08.93.78.62,1.58,1.24,2.39,1.88,3.11,2.43,5.96,4.66,8.44,7.27-4.54,4.15-9.17,10.17-11.91,19.1-12.79,31.84,9.7,41.64,17.15,44.88,3.34,1.46,6.25,2.72,9.2,5.1.02.03.04.05.06.07.1.17.18.32.26.48,1.89,3.5,4.36,7.29,9.57,11.28,8.73,6.7,16.79,7.7,21.61,8.29.55.07,1.25.15,1.73.23.19.19.39.43.56.68-1.78,3.39-4.35,9.29-3.41,17.5,1.23,10.77,7.57,16.75,10.62,19.62,1.54,1.45,1.67,1.62,1.97,2.25.04.09.09.19.13.28-5.03,2.84-8.51,6.98-10.39,12.36-4.53,12.97,3.38,22.76,7.98,27.71-2.2,1.09-4.78,2.15-6.53,2.87-8.05,3.33-20.19,8.35-22.42,21.89-1.39,8.19,1.66,14.57,4.34,18.56-4.03,3.15-12.39,7.03-19.98,8.49-3.49.67-6.74,2.27-9.41,4.62-6.36,5.59-12.56,15.74-5.97,32.27.13.32.29.72.4,1.01.05.28.11.56.17.84.33,1.44.61,4.37.85,6.95.54,5.61,1.14,11.95,3.19,17.72,3.01,8.9,7.77,13.6,10.63,16.41,1.58,1.56,1.71,1.69,2.28,3,.6,1.38,1.05,2.51.96,3.5-.02.27-.04.54-.05.81-.24.97-1.8,3.44-2.74,4.93-1.37,2.17-2.92,4.62-4.2,7.48-.4.91-.74,1.84-1,2.8-2.29,8.28-.57,14.78.51,18.27-1.03.55-2.62,1.25-3.77,1.75l-.57.25c-.58.26-1.15.54-1.7.85-14.69,8.21-17.25,22.84-18.62,30.7-.26,1.47-.61,3.49-.96,4.83-.31.01-.68.02-1.14.02h0c-1,0-1.99-.03-2.97-.06-1.35-.04-2.68-.08-3.98-.08-4.56,0-18.45,0-27.87,12.49-6.54,8.68-6.35,17.43-6.24,22.12,0,.37.02.8.02,1.19-.08.05-.16.1-.24.15-3.01,1.87-8.04,5.01-13.03,11.92-4.42,6.13-5.68,10.87-6.68,15.58-.4,1.89-.75,3.52-1.94,6.54-5.17,11.66-8.17,13.51-9.95,14.01-.14,0-.28,0-.43,0-3.08.09-8.81.25-16.35,4.38-10.75,5.89-15.2,13.8-18.15,19.04-1.94,3.45-2.37,4.08-3.92,5.07-.24.15-.4.25-.5.3-.23.04-.6.1-.9.15-3.5.57-10.03,1.63-17.7,7.62-7.88,6.16-11.2,12.89-13.18,16.91-.23.46-.41.83-.56,1.14-2.21-3.19-5.32-6.75-9.85-9.96-7.51-5.33-17.15-8.51-25.79-8.51-6.3,0-12.25,1.64-17.2,4.75-10.13,6.35-12.28,15.97-13.31,20.59-.16.72-.37,1.67-.52,2.11-.2.09-.42.18-.61.27-3.4,1.47-9.73,4.2-15.2,11.97-5.21,7.38-5.82,13.81-6.19,17.65-.17,1.77-.18,1.91-.6,2.83-.72,1.58-1.52,2.76-2.18,3.55-2.84-.73-6.77-1.58-11.84-1.58-1.98,0-4.01.13-6.05.4-11.76,1.53-19.61,6.25-24.6,9.54-3.87-3.91-10.72-9.71-21.58-9.71-.45,0-.91.01-1.38.03-11.28.53-17.88,7.03-21.33,10.78Z" fill="#6aab44" stroke="#519040" stroke-linecap="round" stroke-linejoin="round" stroke-width="37"/>
      <g>
        <path d="M453.81,647.89c-11.31,21.39-42.53-.74-34.37-19.85,3.91-9.45,16.55-10.6,15.19-.87-.35,2.52-2.3,3.64-2.76,5.32-1.71,6.25,6.62,16.51,13.55,12.02,5.53-22.54,15.19-.03,26.71-.76,8.08-.92,6.85-13.63,10.52-16.49,5.86-4.58,9.67,2.86,13.95,1.02,3.46-1.49,2.32-7.54,6.51-10.52,2.84-2.03,12.16-2.93,7.63-8.6-2.17-2.71-11.31-2.55-9.09-10.4,10.81-2.09,21.75,1.7,21.08,14.52-.48,9.03-8.56,8.99-13.59,13.46-8.49,12.85-6.69,8.56-19.51,10.49-5.77,10.95-9.57,19.44-26,15.04-2.61-.86-7.65-5.63-9.82-4.37Z" fill="#519040"/>
        <path d="M669.99,605.09c-9.31,11.4-16.25,11-29.31,13.18-1.76.81-8.08,9.66-12.77,12.23-7,3.83-11.96.81-17.54,2.46-3.05.9-5.1,6.89-10.26,7.73-2.92.48-10.74,0-12.96-1.9-4.03-3.47-12.33-21.09-6.5-24.54,9.8-5.81,9.81,16.73,16.36,15.32,2.01-.43,5.66-6.53,9.08-7.89,6.78-2.68,14.03,1.57,20.59-4.41,2.49-2.27,5.82-9.66,9-11,12.21-2.3,14.55,1.9,27.07-7.93,3.25-4.03-6.44-15.9-1.45-17.5,8.13-2.04,19.91,20.49,8.69,24.25Z" fill="#519040"/>
        <path d="M573.93,508.5c6.25,7.03,6.52,3.7,13.68.64,8.37-1.75,12.19,10.8,23,7.06,14.28-10.79,9.05-11.15,27.51-7.41,3.98.29,8.97.1,13.02-.05,1.96-.07,9.87-2.69,10.51.54.67,3.41-11.79,8.42-14.76,9.21-4.62,1.21-19.27.34-20.21.73-6.67,7.87-18.65,12.97-29.07,9.08-2.5-.89-7.32-6.2-8.6-6.42-1.82-.31-7.76,4.88-15.83,1.85-13.04-5.73-14.74-28.29-4.09-37.04,4.43-2.7,8.79.24,7.36,5.31-.47,1.68-2.32,2.71-2.75,5.3-.32,1.98-.42,9.66.23,11.2Z" fill="#519040"/>
        <path d="M669.37,478.04c3.29,2.74,4.12,9.54,2.59,13.49-.29.74-5.28,5.51-6.28,5.81-8.03,2.45-15.09-7.9-5.07-12.08-9.73-8.91,2.22-12.68,8.76-7.22Z" fill="#519040"/>
      </g>
      <g>
        <path d="M254.18,627.21c-12.71,12.76,34.52,14.18,7.62,30.12-6.07,5.16-4.35,16.58,3.78,18.36,6.48,1.42,10.74-2.62,13.99,6.01,2.81,7.46.48,11.89,7.82,18.19,13.33,11.44,14.68-3.44,22.93-3.85,5.08-.26,11.65,7.09,15.6,6.47,5.09-.8,8.5-9.54,12.31-13.26,11.07-10.79,12.93-3.29,8.71,8.21-1.21,3.29-10.22,14.49-13.11,15.89-3.12,1.51-9.89,1.19-13.22.32-3.06-.8-6.79-4.09-10.19-3.75-17.04,13.55-41.3.07-42.61-20.94-21.49-1.03-29.06-22.12-18.1-39.42-27.02-18-3.62-42.98,23.67-39.65,5.59.63,10.63,2.71,8.33,9.35-1.97,5.66-20.68,1.78-27.53,7.97Z" fill="#519040"/>
        <path d="M172.1,431.63c-2.02-5.21-17.51-.47-20.45,3.26-10.55,9.68,6.85,14.9,6.01,20.29-2.54,13.15-17.81,7.94-18.55,21.98.14,3.32,5.67,7.62,6.56,11.45,1.44,6.25-4.61,16.69,3.26,21.73,6.14,3.94,12.42-1.27,17.73.18,6.07,1.66,7.67,10.75,13.87,11.08,4.8.26,19.43-12.31,19.4.79-.02,10.07-14.98,15.02-23.34,13.27-7.16-1.49-14.48-10.41-15.4-10.64-18.74,4.22-30.84-9.39-29.37-27.68.05-1.85,1.29-4.65.95-5.81-13.31-9.38-5.23-30.28,7.16-37.28-15.47-21.78,14.87-45.44,34.44-33.36,7.27,5.86,1.79,12.92-2.26,10.72Z" fill="#519040"/>
        <path d="M327.48,448.15c-.71-11.84-23.73-24.98-44.27-15.21-2.39,1.23-11.58,6.12-13.86,15.21-1.51,6.01,1.57,7.67-.15,13.12-2.21,7.03-8.14,6.84-15.5,15.56-14.12,13.74-8.34,28.49,10.36,33.22,7.18,1.65,11.25-.74,13.94,2.34,3.36,3.84-1.51,9.25,1.64,14.46,3.97,6.56,16.6,6.03,18.19,5.96,9.3-.39,13.02-4.81,18.78-2.24,3.79,1.7,3.22,4.08,6.86,5.43,8.45,3.16,24.14-6.01,17.74-15.57-3.24-2.25-8.54,5.03-15.06,3.73-5.27-1.05-4.63-6.38-10.29-8.94-8.89-4.04-18.56,5.45-22.45,1.79-2.98-2.8,2.35-8.68-.21-13.86-4.82-9.77-30.09-1.79-33.39-9.39-2.34-5.38,6.58-17.98,16.84-20.12,7.9-.81,17.13,1.1,15.35-8.65-.71-2.35-2.5-2.55-5.07-5.37-5.44-4.94-6.15-12.91,2.98-15.95,10.03-4.21,26.76,16.35,37.56,4.47Z" fill="#519040"/>
      </g>
      <g>
        <path d="M598.05,178.82c.42.82,1.11,1.44,1.83,2,4.85,3.74,6.63,6.19,8.37,12.85.43,1.48,1.17,2.94,2.1,4.13,8.56,9.95,4.27,25.39-9.5,24.55-3.65-.11-8.01-1.79-10.04-4.82-.83-1.37-.66-3.09.37-4.12,1.91-2.02,6.86-1.27,8.65-3.87,1.07-1.44-.09-3.01-1.14-4.09-3.26-3.69-3.86-11-5.43-13.42-1.24-1.62-3.39-1.96-5.32-2.84-5.52-1.87-7.71-6.12-5.72-11.6.51-1.98,1.42-4,.93-6.04-.41-1.59-2.7-1.88-4.64-3.15-3.84-1.99-7.56-7.76-12.28-5.28-7,3.06-15.74,9.29-24.05,7.05-8.66-3.93-10.37-15.25-18.82-7.39-2.78,2.46-4.82,5.13-7.08,8.13-.52.69-1,1.27-1.59,1.48-.97.39-2.55-.55-3.64-1.41-.82-.66-1.22-1.54-1.3-2.62-1.05-10.98,12.44-20.33,23.17-18.3,3.15.48,5.64,2.27,8.03,4.35,1.86,1.52,4.3,3.91,6.53,3.56,6.86-1.33,18.58-11.17,28.09-8.1,3.24.93,4.23,3.1,6.88,5.05,4.07,2.81,9.82,4.81,12.56,8.8,1.76,2.58,2.17,5.83,2.35,11.44.03,1.18.09,2.38.58,3.46l.09.19Z" fill="#519040"/>
        <path d="M713.7,340.58c.61.46,1.42.6,2.19.7,8.93,1.22,20.98,4.71,24.69,13.81,1.64,4.26-.05,9.68.83,13.63.73,3.42,4.13,4.81,5.83,7.75,9.96,19.97-15.25,33.52-27.83,23-1.77-1.57-3.64-4.65-2.5-6.87,2.27-3.55,10.84-2.62,15.43-4.79,3.36-1.42,1.16-5.45-.69-7.39-1.99-2.24-4.31-4.32-4.91-7.38-1.31-5.38,1.4-10.23-1.62-13.68-5.92-5.86-16.64-2.13-22.09-9.52-1.51-1.73-2.67-4.63-4.19-6.43-2-2.42-5.21-4.32-8.24-4.31-6.05-.26-13.58,5.96-19.23,1.83-2.12-3.04,5.28-7.97,7.68-9.78,12.14-8.83,27.68-2.8,34.52,9.33l.13.1Z" fill="#519040"/>
        <path d="M563.51,329.24c10.4.23,17.42-28.81,22.41-19.81,1.11,2.74,1.11,8.24,4.67,12.57,5.72,7.59,14.03,2.56,18.21,8.79,3.48,5.43-1.19,13.62.75,19.21.41,1.25,1.3,2.46,2.49,3.26,1.45,1.04,3.09,1.13,4.61,1.98,5.71,3.46,2.2,8.61,3.25,15.52.16,1.1.4,2.2.73,3.24.6,1.92,1.6,3.75,2.74,5.4,1.79,2.56,4.51,4.93,2.36,7.89-2.64,3.43-9.99,3.92-10.18,9.85.1,8.41,6.98,8.76,12.93,5.33,3.75-1.86,7.75-4.03,9.62-8.06,3.29-5.91,2.01-12.65-1.47-18.21-3.5-4.95-7.04-7.99-5.02-13.92,1.18-5.08,3.31-12.96-2.33-16.01-2.1-1.02-4.67-1.17-6.64-2.57-7.88-5.25,2.43-20.8-8.91-26.66-2.36-1.09-4.75-1.26-7.34-2.19-3.02-1-6.39-3.26-8.64-5.8-4.99-5.15-5.86-12.58-8.68-14.91-7.12-5.62-18.59,12.1-22.61,17.62-.6.86-1.41,1.2-2.11.53-11.74-18.43-40.2-9.87-40.35,12.13-.09,2.75,2.54,7.45,5.55,5.44,4.35-3.61,5.94-12.06,12.08-13.91,8.42-2.29,12.72,13.64,21.69,13.32h.18Z" fill="#519040"/>
      </g>
      <g>
        <path d="M417.8,130.68c.92.49,1.72,1.12,2.52,1.78,3.15,2.74,7.48,4.6,9.31,8.39,1.56,3.7,4.13,11.11.23,14.32-.51.32-1.05.4-1.56.25-3.05-.97-7.02-9.41-12.79-12.15-2.95-1.44-6.9-1.27-9.39.93-3.42,2.73-4.49,8.36-9.51,8.67-3.86.34-6.47-2.82-9.11-5.1-1.89-1.53-4.72-2.29-7.31-2.46-4.08-.24-8.39.89-11.98,3.06-1.61,1.13-2.22,2.69-3.21,4.53-1.4,2.59-2.88,5.78-5.6,6.92-3.91,1.67-11.66,1.49-14.58,5.47-1.19,1.53-1.48,3.6-.17,5.16,4.01,4.76,12.11,7.12,16.82,10.55.95,1.08,1.22,3.21-.1,4.55-.85.8-1.96,1-3.13,1.17-28.92,3.27-43.49-25.56-15.16-38.4,3.77-1.26,8.2-1.82,10.75-4.97,1.25-1.62,2.16-3.49,3.79-4.78,5.39-4.35,13.44-7.88,20.32-8.25,4.23-.22,8.5,1.72,12.45,3.04,2.33.9,4.48.55,6.67-.41,6.17-2.68,13.38-5.58,20.56-2.36l.17.09Z" fill="#519040"/>
        <path d="M193.67,345.81c-5.22,3.35-13.74-1.65-17.41-5.9-5.03-5.28-3.19-13.82,1.4-18.83,1.35-1.52,2.95-2.8,4.69-3.69,1.3-.63,2.59-1.1,3.15-2.09.48-.76.54-1.82.57-2.76,0-10.34,6.59-21.06,17.49-20.29,1.02.06,2.06.19,3.07.31,5.11.65,7.33-.4,12.09-1.02,5.66-1,9.61,3,12.67,7.04,2.43,3.17,6.46,2.64,10.05,2.8,2.63.14,5.4,1,7.69,2.49,7.74,4.49,15.05,24.92,3.32,25.4-.99-.04-1.96-.32-2.71-.96-2.97-2.53-3.39-11.22-7.7-13.4-2.9-1.63-5.72.9-8.31,1.86-1.89.68-4.31.62-6.21-.24-3.57-1.52-4.14-5.85-5.43-7.92-.43-.77-1.27-1.01-2.07-.74-1.31.42-2.75,1.38-4.16,1.68-2.01.58-3.68-.85-5.77-1.78-2.25-1.07-5.77-2.22-7.94-.89-2.93,1.98-.56,8.73-.03,12.7.38,2.45-.36,4.93-2.08,6.82-2.72,3.11-7.34,2.27-10.69,3.75-3.89,3.16,8.25,10.71,4.43,15.53l-.11.12Z" fill="#519040"/>
        <path d="M323.74,329.93c-24.74-.24-25.54-33.78-8.17-46.83,2.24-1.84,4.72-3.35,6.3-5.83,3.02-4.21.2-9.23,1.29-13.82,1.08-4.8,4.91-9.18,9.38-12.36,9.29-7.15,21.49-5.46,32.43-6.23,5.89-.15,11.48-3.82,17.43-4.61,10.15-1.46,8.37,4.19,16.82,6.7,1.89.51,4.12.94,5.63,2.17,3.11,2.68,3.11,8.28,7.06,10.57,2.32,1.5,4.66.93,7.2.54,2.1-.32,4.71-.18,6.77.64,8.99,3.61,15.11,20.71,11.54,27.49-1.3,2.57-4.7,3.35-7.19,2.02-5.95-2.93-3.1-16.66-10.77-16.86-4.06.44-8.06,5.67-12.34,4.14-3.61-1.7-5.11-6.38-7.59-9.82-2.87-4.5-6.63-9.22-12.38-11.07-5.54-2.26-10.54,1.19-16.03,1.98-4.51.79-6.94.05-10.87-.22-6.14-.04-13.04,1.03-18.21,4.52-8.66,6.15,3.67,20.36-8.46,24.83-10.5,4.59-19.17,16.19-11.41,27.03,1.93,2.89,5.46,4.41,8.74,4.71,3.14.23,6.77,1.91,7,5.31.19,4.67-9.26,5.44-13.96,4.99h-.21Z" fill="#519040"/>
      </g>
      <path d="M847.17,376.7c1.11-3.17,5.8-1.58,9.39-5.81,4.61-5.42,3.22-15.44,0-22.12-4.15-8.59-9.97-8.82-10.73-15.45-.68-5.97,3.87-7.32,4.02-14.31.15-6.91-4.11-13.96-9.39-17.89-8.06-6-14.22-1.5-22.81-8.09-4.93-3.78-3.11-5.43-8.5-10.69-16.04-13.71-30.25-6.69-21.02-28.62,5.87-21.2,28.51-12.17,13.86-31.33-5.77-9.24-13.17-14.37-19.23-19.2-9.42-8.66-5.12-17.81-12.52-28.62-6.08-8.87-10.44-4.85-19.68-14.31-13.49-13.81-8.17-26.46-19.23-32.65-9.77-5.47-17.08,2.63-26.39-4.02-7.62-5.45-4.98-12.5-12.97-17.56-8.73-5.52-15.86.38-20.98-4.81-5.32-5.38,1.18-12.92-3.61-25.71-.86-2.28-4.52-12.28-13.42-16.32-8.5-3.87-12.5,1.91-20.33-1.62-9.67-4.36-7.02-14.71-17.23-20.07-6.57-3.45-8.13.47-20.57-2.68-11.83-3-13.17-7.29-21.24-6.93-6.96.31-12.51,3.78-16.1,6.04-8.33,5.22-7.39,8.48-13.19,10.73-8.31,3.21-11.38-3.01-21.31-.65-9.6,2.28-10.01,7.39-18.72,8.03-8.79.64-16.08-4.49-18.77-6.39-9.19-6.48-8.01-12.08-14.17-14.14-9.78-3.27-16.95,9.45-25.04,6.56-9.77-3.49-5.37-24.4-15.39-28.62-8.03-3.39-13.43,8.97-28.14,8.94-15.69-.03-22.52-14.11-32.71-10.2-6.68,2.56-5.07,9.12-12.6,12.59-14.93,4.91-24.28-13.49-38.01,10.06-3,6.3-.42,8.75-3.13,13.79-4.1,7.62-12.06,4.28-17.29,11.93-6.35,9.27-1.6,18.36-7.75,22.66-4.58,3.2-11.29.99-14.31,0-13.22-4.35-14.77-16.36-25.64-17.29-16.1-.66-16.36,12.71-25.04,22.06-10.81,9.96-22.76.19-33.39,10.14-7.5,7.02-3.41,13.62-11.93,20.87-7.4,6.3-11.53,2.21-20.87,8.94-1.86,1.34-13.89,10.02-14.31,22.06-.19,5.44,2.11,8.27,0,12.09-2.36,4.27-6.81,3.59-11.33,6.4-11.01,6.84-4.03,22.96-13.71,31.6-7.72,6.89-16.58-1.74-29.22,6.56-1.68,1.1-6.78,4.54-9.99,10.88-3.89,7.69-.58,10.89-3.13,17.14-5.2,12.75-24.53,10.86-25.64,20.87-.62,5.63,4.31,6.46,5.37,14.31,1.8,13.39-11.66,18.2-9.99,29.96,1.31,9.21,10.25,10.65,13.71,23.4,1.63,3.11,1.61,13.48-.15,18.78,0,7.18,8.59,8.82,9.54,16.7.39,3.26-4.39,14.45-5.14,21.3-.03.29-19.53,1.68-25.02,7.7-12.91,14.12,1.23,19.1.3,29.22-10.43,12.72-28.15,4.52-32.2,24.45-.49,9.15,11.13,11.55,11.63,20.57.58,10.46-14.72,13.44-14.31,23.85,3.64,15.58,17.37,9.21,14.91,36.97-.7,24.49,4.53,15.52,24.75,28.92,7.27,5.43,5.46,6.95,12.52,11.63,10.24,6.79,15.75,4.71,19.38,10.43,9.21,18.14-13.1,31.27-15.21,45.61.34,3.02,4.3,6.63,12.22,13.71,24.45,19.59,11.42,17.87,21.46,37.86,6.35,9.37,12.5,5.36,20.87,15.2,9.64,11.34,3.91,19.52,12.52,27.13,9.08,8.02,17.59.82,29.22,9.54,9.14,6.85,6.72,13.43,15.2,17.59,10.65,5.22,19.87-2.48,24.56,2.68,3.99,4.39-2.11,10.61,0,23.25.28,1.66,3.13,17.54,13.6,21.76,8.2,3.31,13.3-3.67,20.27,0,7.66,4.04,4.42,14.01,12.22,18.78,6.61,4.05,11.03-1.82,22.96,0,14.5,2.22,15.92,12.11,25.64,11.33,11.46-.92,11.75-14.85,25.64-17.89,11.2-2.45,15.63,5.6,25.64,1.49,8.37-3.44,10.33-11.14,16.4-10.43,9.83,4.51,10.08,12.23,27.04,10.47,14.95,8.85,14.91-5.24,21.48-8.27,3.74.45,1.38,13.51,9.39,23.26,5.02,6.11,14.28,11.1,22.36,9.39,9.06-1.92,9.88-10.83,17.44-11.18,8.01-.38,9.29,9.53,18.78,11.35,10.53,2.02,13.96-9.21,30.41-11.35,10.9-1.42,13.93,4.25,21.91.89,8.72-3.67,13.03-13.17,13.79-14.83,3.76-8.3.81-11.39,4.92-17.22,4.31-6.11,8.45-3.95,14.09-10.06,7.46-8.09,3.64-15.57,9.84-19.45,5.8-3.64,15.17-.86,20.8,3.13,8.54,6.06,6.89,13.82,13.94,16.4,7.71,2.82,16.73-3.88,18.14-4.92,8.88-6.59,6.73-13.35,15.4-20.12,7.06-5.52,9.44-1.77,17.59-7.01,11.81-7.58,9.52-17.19,20.87-23.4,4.74-2.59,6.5-1.59,10.34-2.15,9.92-1.93,17.27-7.97,25.22-26.02,4.3-10.65,2.17-12.31,6.41-18.19,5.26-7.3,9.47-6.03,13.86-12.52,6.29-9.3.36-15.86,5.37-22.51,7.25-9.62,22.33.64,33.24-8.8,10.96-9.48,3.85-26.84,16.1-33.69,6.88-3.03,14.23-5.98,16.4-16.84,1.42-7.77-3.11-10.04-1.34-16.4,2.25-5.06,8.32-11.2,8.65-19.68.5-5.95-1.44-10.6-2.53-13.12-4.27-9.89-9.43-9.14-12.37-18.04-2.16-5.91-1.98-16.12-3.43-22.51-.67-5.13-5.78-10.4-.89-14.7,9.51-1.84,36.48-10.45,38.27-28.17.08-7.91-7.58-10.37-6.71-15.2,1.07-6.92,30.57-8.43,32.44-26.83.45-10.36-14.3-16.66-12.31-22.36Z" fill="none" stroke="#000" stroke-miterlimit="10" stroke-width="15"/>
    </g>
  </g>
</svg>