<?xml version="1.0" encoding="UTF-8"?>
<svg id="Layer_2" data-name="Layer 2" xmlns="http://www.w3.org/2000/svg" viewBox="0 0 414.15 390.94">
  <defs>
    <style>
      .cls-1 {
        fill: #efc837;
      }

      .cls-2 {
        fill: #383c59;
      }

      .cls-3 {
        fill: #f7c69c;
      }

      .cls-4 {
        fill: #080707;
      }

      .cls-5 {
        fill: #535672;
      }

      .cls-6 {
        fill: #f8c89d;
      }

      .cls-7 {
        fill: #fff;
      }

      .cls-8 {
        fill: #3e2b13;
      }

      .cls-9 {
        fill: #f9ecdc;
      }

      .cls-10 {
        fill: #ca3428;
      }

      .cls-11 {
        fill: #d88d2f;
      }

      .cls-12 {
        fill: #312316;
      }

      .cls-13 {
        fill: #da8d2d;
      }

      .cls-14 {
        fill: #dadad9;
      }

      .cls-15 {
        fill: #f6f5f5;
      }

      .cls-16 {
        fill: #da8e2b;
      }

      .cls-17 {
        fill: #f7d03b;
      }

      .cls-18 {
        fill: #ecb734;
      }

      .cls-19 {
        fill: #f1c298;
      }

      .cls-20 {
        fill: #2d2b27;
      }

      .cls-21 {
        fill: #a12822;
      }

      .cls-22 {
        fill: #ebeae9;
      }

      .cls-23 {
        fill: #261e15;
      }

      .cls-24 {
        fill: #f2e5d4;
      }

      .cls-25 {
        fill: #d2892d;
      }

      .cls-26 {
        fill: #272b40;
      }

      .cls-27 {
        fill: #1d1813;
      }
    </style>
  </defs>
  <g id="Layer_1-2" data-name="Layer 1">
    <g>
      <path class="cls-7" d="M413.24,371.67c-2.81-6.11-5.14-12.44-7.6-19.13-2.35-6.38-4.78-12.97-7.68-19.42-5.07-11.3-10.96-22.74-16.65-33.8-11.35-22.06-23.1-44.88-29.21-68.08-.88-3.34-1.33-7.04-1.8-10.96-.55-4.56-1.12-9.28-2.44-13.97-7.98-28.3-43.69-28.3-58.95-28.3-2.39,0-4.73.02-6.97.05-1.39.02-2.74.03-4.04.04.02-1.59,0-3.25-.16-4.92-.2-2.23-.78-3.97-1.32-5.21-.84-5.09-2.09-9.02-3.32-12.81-.4-1.25-.82-2.54-1.24-3.94-.3-1.01-.65-2.03-1-3.03.14-.1.27-.19.41-.3,4.54-1.55,10.33-4.37,13.83-11.71,1.23-1.43,2.1-3.14,2.49-5.06,0,0,0,0,0,0,0,0,0,0,0,0,.03-.15.05-.33.08-.5.02-.1.04-.2.05-.3.02-.17.04-.34.06-.52.86-.07,1.96-.28,3.14-.77,2.38-.11,5.82-.46,9.29-2.58.1-.06.21-.13.31-.2l14.74-9.73c3.68-2.43,5.34-6.99,4.07-11.22-1.27-4.23-5.16-7.12-9.58-7.12h-1.76c.17-.48.33-.97.46-1.48.76-2.97.12-6.12-1.74-8.56-1.86-2.44-4.73-3.88-7.8-3.93-.81-.01-1.63-.02-2.45-.02s-3.97.02-4.74.02c-.61,0-1.22,0-1.83,0h0s-.08,0-.12,0c0,0,0,0,0,0-.87-.01-1.75-.01-2.63-.01-1.08,0-2.16,0-3.25.01-1.05,0-2.09.01-3.14.01-.23,0-.56,0-.87,0-.55-.13-.97-.25-1.27-.36-.09-1.31,0-3.54.07-5.27.02-.43.03-.88.05-1.32.53-1.51,1.01-3.46,1.06-5.83h0c.02-1.18.1-2.49.19-3.88.04-.66.08-1.34.12-2.04,1.93,1.13,4.06,1.87,6.29,1.87,2.68,0,5.22-.99,7.17-2.79,3.08-2.85,4.05-7.3,2.46-11.35-.03-.08-2.38-5.75-7.01-9.28-1.27-1.9-3.16-3.34-5.42-4.09-3.28-1.82-7.21-2.78-11.76-2.83-.59-4.75-2.76-9.3-6.48-12.95-2.61-2.56-10.36-8.32-11.83-9.37-9.28-6.6-16.81-10.7-28.65-12.88-1.25-.67-2.65-1.13-4.16-1.37-.31-.06-.61-.1-.93-.13-2.69-.26-5.77-.31-7.89-.31-2.99,0-6.19.11-8.76.29,0,0,0,0,0,0-.28.02-.55.05-.8.09-.07.01-.14.02-.22.04-.2.03-.39.07-.57.11-.04.01-.09.02-.14.03-.2.05-.4.1-.58.15l-2.18.55c-.37-.02-.75-.04-1.11-.04-.48,0-.94.03-1.4.07-.24.02-.47.04-.71.08-.02,0-.04,0-.06,0,0,0,0,0,0,0-1.94.29-3.5.86-4.55,1.3-16.12,3.22-29.96,9.06-43.35,14.71-10.2,4.31-19.84,8.38-30.16,11.2-.18.05-.35.1-.52.16l-.08.03c-.44.13-.9.28-1.38.44-.28-.01-.55-.02-.82-.02-.44,0-.86.03-1.27.06-.17.01-.35.04-.53.06-.08,0-.15.01-.23.02-.02,0-.03,0-.05,0-1.31.2-2.53.56-3.65,1.06-.79.03-1.63.05-2.49.05-.76,0-1.49-.02-2.15-.04-1.06-.48-2.22-.83-3.47-1.04,0,0,0,0,0,0-6.95-1.2-12.38-3.25-16.13-6.1-.6-.45-1.42-1.36-2.3-2.32-1.29-1.42-2.82-3.1-4.78-4.65-2.35-3.02-5.8-4.17-8.67-4.17-1.16,0-2.36.18-3.56.52-2.78.81-5.08,2.78-6.29,5.41-1.68,3.62-1.5,7.43.47,11.32,4.65,25.72,21.13,37.54,39.65,45.35-.02.23-.04.47-.05.71,0,0,0,0,0,.01-.14,1.93-.1,3.03-.05,4.08,0,.13.02.25.02.39v.27s0,0,0,0c-.02,1.98.05,3.81.13,5.58.08,1.93.15,3.67.08,5.33-.39.87-.71,1.79-.94,2.8,0,.02-.01.04-.02.06-.05.22-.1.44-.14.65-.53-.14-1.07-.26-1.64-.34-1.17-.17-2.23-.23-3.15-.29-.59-.04-1.4-.08-1.71-.15-1.16-.44-2.37-.66-3.58-.66-1.94,0-3.86.56-5.52,1.66-2.72,1.8-4.39,4.8-4.48,8.06-.17,5.97,1.6,11.26,5.28,15.83l-2.7,2.25c-4.1,3.42-4.78,9.47-1.55,13.72,2.11,2.78,4.86,3.93,6.9,4.5.89.61,1.87,1.1,2.91,1.44.32.11.65.19.98.27.02,0,.05.01.07.02,0,0,0,0,0,0,1,.21,2.1.31,3.45.31.52,0,1.43-.02,2.37-.11,1.65,5.42,4.46,10.66,11.23,12.45v.06c.02.61.04,1.21.04,1.77l-.52,1.55c-.1.29-.18.58-.25.88-.02.1-.04.21-.06.31-.04.19-.07.38-.1.57-.02.12-.03.25-.05.37-.02.18-.03.36-.04.54,0,.12-.02.24-.02.37,0,0,0,.01,0,.02-.02,1.93,0,3.86,0,5.8,0,1.09.01,2.18.01,3.27-1.38,3.25-1.16,6.59-1.05,8.23.01.23.03.45.04.65v.47c-.04,1.94-.07,3.94,0,6.03h0c.03.83.12,1.6.24,2.33-3.99,1.14-8.12,2.32-11.82,3.88-11.17,4.73-51.34,31.08-59.02,43.36-9.12,14.58-14.43,46.26-19.11,74.22-1.9,11.37-3.7,22.1-5.42,29.37-1.21,5.1-2.65,10.09-4.18,15.37-1.94,6.71-3.95,13.65-5.43,20.82-.19.91-.25,1.84-.18,2.77l.37,4.91c.39,5.21,4.74,9.24,9.97,9.25,0,0,393.69.22,393.7.22,5.46,0,9.91-4.37,10-9.83l.09-5.09c.03-1.5-.29-2.98-.91-4.34Z"/>
      <g>
        <path class="cls-27" d="M286.76,57.2c-1.19,1.09-7.09-4.9-5.99-5.98,2.32-.91,6.31,5.68,5.99,5.98Z"/>
        <path class="cls-27" d="M289.76,94.17c-3.08,2.48-7.67.66-10.99,0,3.65.03,7.34-.04,10.99,0Z"/>
        <path class="cls-27" d="M114.94,178.07c.03-1.89-.68-4.9,1-5.99-.03,1.89.68,4.91-1,5.99Z"/>
        <path class="cls-27" d="M69.98,23.25l-1,3c-.12-.74-1.79-2.27-.99-3.99,1.89-.55,1.69.81,1.99.99Z"/>
        <path class="cls-27" d="M115.94,188.06c-.03-.29-.92-1.83-1-4l1,4Z"/>
        <path class="cls-27" d="M268.78,75.19l1-4c-.04,2.28-.99,3.79-1,4Z"/>
        <path class="cls-27" d="M108.94,80.18c.02-1.34-.17-1.74,0-4v4Z"/>
        <path class="cls-27" d="M203.85,10.26c-.33.02-2.33.8-4,1l4-1Z"/>
        <path class="cls-27" d="M272.78,188.06c-.32,1.49-3.58,1.56-4,0,1.33.02,2.66-.03,4,0Z"/>
        <path class="cls-27" d="M102.95,128.13c.25-.12.14-1.55,1.99-.99.66,1.51-.94,2.62-.99,2.99l-1-2Z"/>
        <path class="cls-27" d="M116.93,149.1c.14-2.04.96-2.8,1-3l-1,3Z"/>
        <path class="cls-27" d="M115.94,160.09l1-3-1,3Z"/>
        <path class="cls-27" d="M196.85,11.26l-3,1c.17-.03,1.31-.74,3-1Z"/>
        <path class="cls-27" d="M104.95,137.12c-.23-.85-.89-1.15-1-3l1,3Z"/>
        <path class="cls-27" d="M258.79,49.22c-.17.05-.2,1.55-2,.99-.1-1.2,1.56-1.45,2-1.99v1Z"/>
        <path class="cls-27" d="M267.78,174.07l-1-3c.02.16.82,1,1,3Z"/>
        <path class="cls-27" d="M119.93,38.23l-3,1c.18-.04,2.01-.73,3-1Z"/>
        <path class="cls-27" d="M100.95,40.23l-2-1c1.68.29,1.89.99,2,1Z"/>
        <path class="cls-27" d="M113.94,39.23l-2,1c.11-.01.29-.74,2-1Z"/>
        <path class="cls-27" d="M266.78,49.22c-.11.01-.39.66-2,1l2-1Z"/>
        <path class="cls-27" d="M220.83,11.26l-2-1c1.76.17,1.89.98,2,1Z"/>
        <path class="cls-27" d="M107.94,96.17c.36-1.57.99-1.89,1-2l-1,2Z"/>
        <path class="cls-27" d="M96.95,105.15l-2-1c1.74.26,1.89.99,2,1Z"/>
        <path class="cls-27" d="M287.76,119.14c-.21.02-.44.66-.8.67-.79.02-1.08-.66-1.2-.67h2Z"/>
        <polygon class="cls-27" points="267.78 188.06 266.8 187.56 267.78 187.06 267.78 188.06"/>
        <polygon class="cls-27" points="259.79 52.22 258.81 51.72 259.79 51.22 259.79 52.22"/>
        <path class="cls-27" d="M279.77,50.22v-1c.12.09.95-.15.98.5l-.98.5Z"/>
        <path class="cls-27" d="M94.96,131.12l1-1c-.07.02-.25.89-1,1Z"/>
        <path class="cls-27" d="M91.96,131.12c-.78-.17-.93-.98-1-1l1,1Z"/>
        <path class="cls-27" d="M276.77,130.13l1-1c-.16.79-.98.93-1,1Z"/>
        <path class="cls-27" d="M264.79,140.11l1-1c-.07.02-.19.81-1,1Z"/>
        <path class="cls-27" d="M277.77,123.13l-1-1c.03.07.85.22,1,1Z"/>
        <path class="cls-2" d="M270.78,193.05c.03,2.03,1.13,2.82,2.65,3.84,11.48,7.75,43.92,1.31,51.56,11.37,3.47,4.57,3.26,13.34,4.8,19.17,8.05,30.47,21.25,65.26,33.41,94.45,5.13,12.31,11.54,21.35,17.18,32.76,3.15,6.36,6.64,14.13,7.28,21.19-8.29.1-16.69.16-24.98,0-2.22-16.88-7.47-33.36-11.5-49.93-5.3-21.82-9.66-41.63-16.77-63.14-.54-1.63-1.22-6.36-3.7-5.79-.21-1.2.17-2.74,0-4-.29-2.14-.1-5.62-3-4.99-.48-2.71-.26-5.91-1-8.99-1.01-4.21-5.74-23.11-7.14-25.32-2.79-4.39-5.71-2.06-6.64,2.06-1.14,5.08,1.98,14.4,2.66,19.89,1.13,9.14,1.41,19.49,3.13,28.33-4.58-9.7-9.67-19.41-12-29.96-1.81-.4-.65,1.61-.99,1.99-.1.12-1.72-.42-2.01.66-2.49,9.11,9.09,35.55,10.75,46.05,3.34,21.16,8.76,38.68,12.78,59.14,2.21,11.22,3.16,22.65,4.46,33.99-1.66.02-3.33,0-5,0-1.5-7.23-12.46-60.93-15.5-61.93-2.45-.43-1.4,1.94-1.49,3.49-1.07,19.25,6.4,39.37,7.99,58.44-26.96.12-53.96-.09-80.92,0,2.93-4.35,6.59-7.48,9.39-12.09,1.32-2.18,1.97-5.12,3.43-7.55,12.18-20.34,28.22-44.61,38.33-65.56,2.81-5.83,2.52-8.82-2.16-13.26-1.11-1.05-2.77-1.18-3.03-1.42-1.99-1.84-3.6-4-5.99-5.99l-4.05-6.54c-.32-3.31,3.18-3.93,3.89-6.17.85-2.68-.64-3.25-.84-4.26-1.36-6.96-4.8-12.51-6.54-18.93-1.41-5.23-6.11-26.33-6.17-30.7-.04-2.7,3.55-6.75,2.76-10.26,1.63-.24,3.32.09,4.95-.04Z"/>
        <path class="cls-2" d="M71.98,226.01c6.09-1.33,18.26-4.78,23.52-5.01,5.26-.23,9.3,2.18,14.44,2.02,1.41,15.35-2.72,30.32-3.98,45.45-.39,4.71-.95,11.34-1.05,15.93-.09,4.14-.52,17.18,2.6,19.45,6.47,2.41,13.73.51,20.42.57-1.12,2.99-2.59,6.04-4.2,8.79-3.2,5.47-13.41,16.56-11.47,22.4.73,2.2,12.86,7.02,15.41,8,24.87,9.58,53.14,13.13,73.17,32.22-32.61.23-65.29.09-97.9,0,.53-8.42-5.26-15.62-6.89-23.57-4.8-23.3-1.62-51.12-8.35-75.55-.95-3.43-2.21-8.02-6.73-6.76-.14-1.76-.61-3.3-1.01-4.99l-2.82,1.66c.5,4.93-1.61,9.23-2.16,13.82-.45,3.82-.52,7.53-1.01,11.48-5.04-4.29-7.25-12.16-10.61-17.86-.81-1.38-2.36-4.48-4.37-4.11-.25-1.01-3.66-14.66-5.99-11.98-1.99,12.58,5.31,24.94,4.99,36.95-.12,4.42-1.88,9.96-2.04,14.44-.82,22.2.89,44.41-2.96,66.46-8.3.06-16.68.16-24.98,0,.1-39.59,14.74-77.48,19.95-116.39.41-3.06,1.46-8.75.03-11.46,3.86-8.42,14.9-19.99,23.98-21.97Z"/>
        <path class="cls-13" d="M261.79,169.08l1,2c.44,3.92.2,9.91,0,13.98v2c-1.94,15.88-12.21,28.02-27.97,30.96-.98.18-2.81-.55-3,.51v1.48c1,.06,2.01-.06,3,0,5.92.4,9.94.12,14.49-3.99.68-.22.68.81.48,1.47-2.67,8.67-22.26,26.57-30.58,30.36-12.3,5.61-29.07,3.64-41.32-1.39-15.08-6.19-50.64-37.37-56.44-52.44-5.35-13.9.35-37.96,1.47-53.43.27-3.8-.17-7.68.02-11.47,2.31-.58,1.65.45,2.28,1.26,2.66,3.39,9.76,17.65,12.21,18.7l1.52-1.51-8.85-20.13c-3.53-8.03-7.34-11.14-6.2-21.82.56-5.21,4.93-10.22,5.76-16.21.69-5.03.03-10.18.27-15.22,2.61,1.04,5.3.72,7.99,1l2,1c18.66,2.04,38.5,1.39,56.94-2l3-1c12.25-2.53,25.39-8.95,35.71-10.77,8.65-1.53,3.67,6.16,3.27,11.29-.49,6.21-.01,11.56,2.79,17.15,1.69,3.36,7.5,8.41,7.97,10.01.83,2.79-.18,6.55.33,9.66,1.78,11,2.16,22.62,4.13,32.83,1.68,8.69,6.11,16.39,7.73,25.73ZM164.89,80.18c-.13,0-1.12-1.02-2.42-1.04-8.67-.15-17.25-.07-25.89-.79-3.75,1.28-2.49,9.64-2.66,12.82-3.2,3.6-.89,5.83-1,6.99-.27,2.77-1.11,4.7-1,7.99.07,2,0,4.03,1.25,5.76,1.53.57,3.16.86,4.75,1.23l-7,2c.94,2.1.82,7.95,4,7.98-.04.81-.41,2.78.49,2.99,1.83-1.69,2.26-4.26,3.95-6.07,1.45-1.55,2.98-1.46,3.55-1.92-8.7,13.66.65,25.59,0,39.95l-9.97-3.99c1.05,13.08-1.53,29.69,5.19,41.25,3.78,6.5,15.3,20.34,23.78,16.68.9,1.97,7.41,12.91,8.62,13.85,4.02,3.15,12.89,3.83,17.79,3.06s9.82-7.18,14.3-7.79c2.08-.28,4.88,2.41,7.9,2.52,7.09.25,17.21-6.39,18.89-13.57.9-3.85-1.34-20.17-5.07-21.05-4.05-.95-1.47,6.73-1.45,8.44.2,12.36-3.99,20-17.02,21.52,1.93-5.69,2.19-9.98,1.99-15.98,11.96,11.04,10.6-3.89,12.44-12.03.46-2.05,1.84-3.78,2.31-5.68.86-3.44-.61-14.15,5.7-10.23,1.76,11.65,6.27,23,5.52,34.93,3.02.51,4.76-2.08,6.4-4.08,5.78-7.07,8.9-17.84,14.8-25.15l.53-6.98c-4.75-7.54-6.64-26.65-11.32-32.64-.78-1-1.02-1.34-2.42-1.06-.79,2.61-4.1,11.46-6.53,11.98-3.25-.13-2.09-3.22-2.48-4.99,2.64-5.02,3.27-10.83,5.23-16.24.9-2.47,5.8-10.89,5.67-12.27-.1-1.09-2.82-1.32-2.91-1.46-.44-.62,1.09-3.76-1.49-3-.92.27-.53,1.78-1.54,2.47s-2.79.4-2.96.55c-.63.56,5.73,13.6-7.99-1.02-.04-1,.03-2,0-3,.61-.12,1.55.18,2,0,3.78,4.57,12.21.95,13.6-3.96.46-1.63-1.48-1.69-1.61-2.03-.63-1.69-1.16-3.07-1.06-4.95l-2.94-.05c.57-3.64-1.71-7.05-3-3-1.07-2.63-3.26-3.36-5.99-3-.32-4.83-.52-2.06-2-3-1.3-.83-2.08-1.08-2-3,6.17.01,11.86,7.16,16.93,1.51l-5.59-8.4c-1.03-.38-4.25-5.7-4.35-6.1-.67-2.62,2.92-6.36-1.48-7.02-12.47,2.3-24.52,6.22-37.15,7.85-8.28,1.07-19.06,2.2-27.31,2.16ZM241.81,223.03c-3.69.97-8.21-1.31-11.4-1-3,.28-5.33,3.57-8.19,4.88-10.87,5.01-22.94-2.28-31.36,8.09,6.43,1.35,17.01,8.03,23.24,6.8,3.64-.72,16.67-8.36,20.05-10.95,2.86-2.19,5.54-4.91,7.66-7.81Z"/>
        <path class="cls-17" d="M198.85,15.26c-6.83,4.13-15.03,5.59-22,9.47-4.16,2.32-6.81,5.73-10.27,7.71-9.61,5.5-23.86,6.72-33.67,11.33-1.48.7-2.48-.16-1.99,2.45,10.02-2.03,20.93-4.31,30.48-7.97s17.26-10.41,27.26-12.7c14.57-3.34,32.28-.29,47.15-4.29,4.04,2.4,8.37,4.96,10.99,8.99-1.83-.08-5.22-.04-7.47-.06-7.96-.06-6.45,1.23-8.51,8.05-1.89-.67-6.06-2.02-7.99-1.5,2.54,3.19,5.36,4.85,8.99,6.5,0,2.71.9,3.28-2.38,2.89-10.07-1.21-21.99-3.53-31.1-7.88l.51,3.99c-5.61-1.39-13.37-3.98-18.98-4-3.65,0-11.41.63-15.49.99-6.15.54-5.3,4-1.99,4h14.99c3.24,0,20.55,4.95,24.69,6.29,1.06.34,3.01.25,2.79,1.7h-23.48c-2.04,0-1.85,6.45-.49,7.98-6.05-.94-10.44,4.71-14.25,6.25-4,1.62-24.64,1.07-29.94.48-15.06-1.69-28.71-13.36-44.73-12.71-8.68-5.87-12.93-8.64-16.98-18.98v-1c8.56,6.81,14.32,8.5,24.98,9.99l4,1h6.99l4-1c17.29-2.52,28.95-10.67,44.69-16.75,10.73-4.14,22.99-7.88,34.23-10.22.9-.19,1.71-.95,2-1,.92-.16,2.05.13,3,0Z"/>
        <path class="cls-26" d="M71.98,226.01c-.09-2.27,1.39-2.66,2.68-3.81,12.02-10.68,28.18-17.06,43.27-22.15-3.49,15.95-1.31,32.29-1.95,48.48-.3,7.52-.63,15.34-1.05,22.92-.2,3.59-4.41,24.48.51,24.48h27.47c-1.94,9.62-20.69,23.05-8.68,31.16,18.71,12.63,44.9,19.91,64.76,33.14,1.49.99,19.19,13.58,16.85,15.61-4.98.04-10-.03-14.98,0-20.04-19.09-48.3-22.64-73.17-32.22-2.55-.98-14.68-5.8-15.41-8-1.94-5.84,8.27-16.93,11.47-22.4,1.6-2.75,3.08-5.8,4.2-8.79-6.7-.07-13.95,1.84-20.42-.57-3.13-2.27-2.7-15.31-2.6-19.45.1-4.59.66-11.22,1.05-15.93,1.26-15.13,5.39-30.1,3.98-45.45-5.14.16-9.18-2.24-14.44-2.02-5.26.23-17.43,3.67-23.52,5.01Z"/>
        <path class="cls-2" d="M132.92,237c2.75,2.29,13.77,23.79,17.35,29.1,17.24,25.53,37.08,48.68,55.99,72.87,2.7,3.45,26.51,34.35,23.56,36.87-6.1.95-4.79-.28-7.44-3-9.34-9.57-16.85-16.18-28.52-22.97,2.13-.58-.19-2.88-.78-3.72-10.42-14.88-27.76-24.29-44.18-31.25-1.36-1.82,18.36-21.1,11.46-28.93-4.37-4.96-26.39-2.89-32.93-7.02-3.91-4.53,1.7-36.24.49-43.94,1.07.66,4.25,1.38,5,2Z"/>
        <path class="cls-16" d="M246.8,30.24c4.22.17,8.38,3.02,9.99,6.99v5.99c-7.35,18.44-48.69,22.42-65.93,26.97l-2,1c-1.92.18-4.14-.26-5.99,0l-2,1c-1.89.22-4.05-.15-5.99,0l-2,1c-6.86.4-16.15.46-22.98,0l-2-1c-21.99-1.98-37.77-6.67-55.94-18.98,16.02-.65,29.68,11.01,44.73,12.71,5.29.6,25.94,1.14,29.94-.48s8.19-7.18,14.25-6.25c-1.36-1.53-1.55-7.98.49-7.98h23.48c.23-1.45-1.73-1.36-2.79-1.7-4.14-1.34-21.45-6.29-24.69-6.29h-14.99c-3.31,0-4.16-3.46,1.99-4,4.08-.36,11.85-1,15.49-.99l42.69,15.74c2.65.3,7,1.31,8.26-1.74-10.59-3.78-21.02-7.28-31.97-10l-.51-3.99c9.11,4.35,21.03,6.67,31.1,7.88,3.27.39,2.37-.18,2.38-2.89,3.98,1.81,8.29,2.78,12.47,4.01l.53-2.51c-4.43-1.9-9.56-4.91-14.01-6.49,2.06-6.82.55-8.11,8.51-8.05,2.26.02,5.64-.02,7.47.06Z"/>
        <path class="cls-5" d="M270.78,193.05c14.78-1.22,39.8-1.89,53,5.44,10.71,5.95,10.36,25.89,13.23,36.72,8.62,32.53,30.8,70.01,44.84,101,4.33,9.56,13.59,28.88,15.7,38.25.43,1.9,0,1.22-1.37,1.38-2.58.3-5.8-.03-8.51,0-.64-7.05-4.13-14.82-7.28-21.19-5.64-11.42-12.05-20.45-17.18-32.76-12.16-29.19-25.35-63.98-33.41-94.45-1.54-5.83-1.33-14.6-4.8-19.17-7.65-10.06-40.08-3.63-51.56-11.37-1.52-1.03-2.62-1.81-2.65-3.84Z"/>
        <path class="cls-26" d="M80.97,269.96c4.53-1.26,5.79,3.32,6.73,6.76,6.73,24.43,3.56,52.25,8.35,75.55,1.64,7.95,7.43,15.16,6.89,23.57-9.31-.03-18.66.02-27.98,0-.16-3.8.25-7.68,0-11.48-.39-5.66-2.08-13.5-2.03-18.94.25-25.19,10.24-48.19,8.03-75.46Z"/>
        <path class="cls-5" d="M127.92,235c1.2,7.71-4.41,39.42-.49,43.94,6.54,4.13,28.56,2.06,32.93,7.02,6.9,7.83-12.82,27.11-11.46,28.93,16.42,6.97,33.76,16.37,44.18,31.25.59.84,2.91,3.15.78,3.72-7.53-4.38-54.97-26-56.52-28.97-1.08-2.06,10.18-17.45,11.75-21.28,1.21-2.96,2.22-5.71,1.86-9.01-5.4-4.99-27.21,2.44-30.56-2.63l.54-56.97c3.2-.56,4.74,2.6,6.99,4Z"/>
        <path class="cls-26" d="M330.72,256.98c2.48-.57,3.16,4.16,3.7,5.79,7.11,21.51,11.47,41.32,16.77,63.14,4.03,16.57,9.28,33.05,11.5,49.93-4.65-.09-9.43.48-14.03-.46-2.51-1.66-8.43-34.88-8.94-40-1.07-10.78.43-21.82-.02-31.93-.6-13.75-6.51-32.33-8.99-46.47Z"/>
        <path class="cls-2" d="M255.8,317.91c-2.11,5.41-8.85,14.96-12.17,21.3-.54,1.02-2.35,4.64-3.83,4.16,2.56-13.28,6.72-26.45,7.99-39.95,2.62-27.9-2.72-58.78,7-85.39,4.56,7.02,2.81,16.74,5.93,24.54-.14,2.33-6.47,7.66-7.45,11.39-3.6,13.56,8.74,21.56,13.29,32.66-4.66,9.79-6.94,21.48-10.77,31.3Z"/>
        <path class="cls-10" d="M216.83,295.93c3.11-.83,4.69-6.23,6.98-7.99,1.52,14.97,9.17,31.06,10.72,45.72.75,7.12-1.2,17.13-3.45,23.99-.43,1.31.4,2.65-1.75,2.2-4.41-5.56-16.89-18.51-17.5-24.96l2.01-28.97,7.98,1.99-4.99-11.98Z"/>
        <path class="cls-26" d="M57.99,294.93c2.71-.58,1.91,1.38,2.48,2.96,5.09,14.17,7.17,37.07,8.5,52.48.72,8.35.84,17.08,1.01,25.47-5.65.02-11.34-.04-16.99,0,3.85-22.06,2.14-44.27,2.96-66.46.16-4.48,1.92-10.03,2.04-14.44Z"/>
        <path class="cls-26" d="M305.75,236c1.54,22.22,14.01,42.91,20.26,64.14,2.32,7.88,5.11,19.46,6.42,27.54,2.59,16,1.64,33.04,8.28,48.14-2.99.05-6-.03-8.99,0-1.3-11.34-2.26-22.77-4.46-33.99-4.02-20.46-9.44-37.98-12.78-59.14-1.66-10.49-13.24-36.94-10.75-46.05.3-1.08,1.91-.54,2.01-.66Z"/>
        <path class="cls-26" d="M282.77,275.96c.26.24,1.92.37,3.03,1.42,4.69,4.44,4.98,7.43,2.16,13.26-10.11,20.95-26.15,45.21-38.33,65.56-1.46,2.43-2.11,5.38-3.43,7.55-2.8,4.62-6.46,7.74-9.39,12.09-1.92-.65-.93-4.59-.57-6.07,5.85-23.7,30.43-55.2,42.05-77.81,2.43-4.74,6.63-10.72,4.47-16Z"/>
        <path class="cls-5" d="M28.02,375.84c-2.99-.06-6.01.05-8.99,0,7.03-30.34,11.3-61.55,18.47-91.9,2.6-11,5.87-25.85,10.5-35.94,1.43,2.71.38,8.4-.03,11.46-5.21,38.91-19.85,76.81-19.95,116.39Z"/>
        <path class="cls-15" d="M185.87,264.97c-4.51,6.93-8.29,14.47-13.48,20.97-10.29-13.07-20.22-26.48-28.48-40.95.6-2.01,2.99,0,4.01.49,12.77,6.15,25.31,13.07,37.95,19.49Z"/>
        <path class="cls-5" d="M254.8,218.02c1.02-2.8.52-6.72,3.99-7.99,3.68,13.06,3.56,27.32,10.03,39.42.04,1.37-15.12,2.97-13.58,9.53,2.02,8.62,21.4,16.13,21.52,21.44l-20.96,37.49c3.83-9.82,6.1-21.51,10.77-31.3-4.56-11.09-16.89-19.1-13.29-32.66.99-3.73,7.31-9.06,7.45-11.39-3.12-7.8-1.37-17.52-5.93-24.54Z"/>
        <path class="cls-14" d="M143.91,244.99c-4.99-8.75-9.8-17.74-13.19-27.27-.32-.9-1.83-2.85.19-2.69l17.98,17.49c12.84,10.57,26.27,19.82,42.99,22.94,1.66,1.31.53,1.06-.03,2-1.48,2.47-4.58,5.35-5.99,7.51-12.64-6.42-25.18-13.34-37.95-19.49-1.02-.49-3.41-2.5-4.01-.49Z"/>
        <path class="cls-26" d="M326.72,239c-3.16,8.41.76,17.43,1.73,25.74.2,1.68-.84,3.28-.67,4.65.15,1.24,6.2,25.27-.06,20.55-2.36-8.77-7.25-17-9-25.97s-2.01-19.19-3.13-28.33c-.68-5.5-3.79-14.81-2.66-19.89.92-4.12,3.85-6.45,6.64-2.06,1.41,2.21,6.13,21.11,7.14,25.32Z"/>
        <path class="cls-9" d="M235.82,21.25c-14.88,4-32.59.95-47.15,4.29-10,2.29-17.7,9.03-27.26,12.7s-20.46,5.95-30.48,7.97c-.49-2.61.5-1.76,1.99-2.45,9.81-4.61,24.06-5.83,33.67-11.33,3.46-1.98,6.11-5.39,10.27-7.71,6.96-3.88,15.17-5.35,22-9.47.33-.05.67.04,1,0,1.7-.2,1.89-.99,2-1,13.68-1.1,22.29.06,33.97,6.99Z"/>
        <path class="cls-15" d="M242.81,280.95c.61,13.75-1.34,27.6-4.49,40.95-1.4-.98-1.51-2.54-2.01-3.99-2.17-6.32-10.86-39.5-10.46-44.34.07-.82.94-1.39.97-1.61l15.98,8.99Z"/>
        <path class="cls-16" d="M245.81,60.21c8.32,2.46,7.74,12.4,11.15,18.32l8.83,9.65c-.03.33.02.67,0,1h-1c-4.62-1.97-8.69-6.36-11.68-10.32-.47-.63-.18-1.47-.31-1.67-.51-.74-.8-1.99-1.99-2-.63,1.62.78,2.29.99,3,.37,1.22.52,3.01,1,4-5.36-3.35-2.27,3.23-.83,5.32,5.49,7.93,17.39,9.99,24.8,15.65-13.99,1.51-32.09-7.26-33.99-22.45-.43-3.49.41-14.36,1.03-18.03.36-2.11,1.42-1.8,1.99-2.47Z"/>
        <path class="cls-5" d="M317.73,375.84c-1.59-19.08-9.06-39.19-7.99-58.44.09-1.56-.96-3.93,1.49-3.49,3.03,1,14,54.7,15.5,61.93-2.99.02-6-.01-8.99,0Z"/>
        <path class="cls-21" d="M216.83,295.93l4.99,11.98-7.98-1.99-2.01,28.97c-2.96-.87-8.47-8-8.94-10.53-.7-3.73,2.1-23.94,2.95-28.91.2-1.18.49-1.79,1.49-2.48,2.55,2.17,6.04,3.9,9.5,2.97Z"/>
        <path class="cls-21" d="M211.84,254.98l-5.84,18.28c2.65,3.51,5.96,7.3,10.84,6.69-.73,2.29-1.37,4.67-2.02,6.98-.77.07-1.55.11-2.31-.14-2.89-.98-15.66-15.74-19.5-18.47l6-12.18c4.26-.18,8.65-.3,12.83-1.16Z"/>
        <path class="cls-15" d="M181.87,299.93l9.01-13.98,2.05.6c1.37,5.77,5.54,6.25,5.93,12.37.16,2.56-1.36,18.98-3.5,18.96-5.14-5.5-9.38-11.69-13.49-17.96Z"/>
        <path class="cls-22" d="M242.8,265.96l-12.04-8.43-2.49-10.52,17.04-14.98c-1.76,11.23-3.02,22.53-2.51,33.94Z"/>
        <path class="cls-10" d="M211.84,254.98c2.76-.57,5.95-2.8,8.98-3,3.73,2.66-2.58,23.54-3.98,27.97-4.88.61-8.19-3.18-10.84-6.69l5.84-18.28Z"/>
        <path class="cls-14" d="M198.85,298.93c-.39-6.12-4.56-6.61-5.93-12.37l-2.05-.6-9.01,13.98c-1.13-1.73-5.89-7.42-5.57-9.05,2.3-2.56,8.37-14.76,11.09-15s12.03,7.99,12.99,10.1c.81,1.78-.55,10.54-1.52,12.95Z"/>
        <path class="cls-25" d="M119.93,85.18l5.51-5.98c2.17-.9,1.54,2.28,1.47,3.46-1.05,16.29-12.78,39.77-29.95,43.47,5.31-7.28,14.21-11.93,16.98-20.98.33-.08.84.13,1,0,2.06-1.71,5.91-14.47,6-17.49.03-1.06.38-2.58-1.01-2.48Z"/>
        <path class="cls-26" d="M58.99,269.96c2.01-.37,3.56,2.73,4.37,4.11,3.36,5.71,5.57,13.58,10.61,17.86-.75,6.13-.89,12.33-2.03,18.46-.3,1.62.68,1.74-1.95,1.52-1.7-9.61-6.01-18.58-8.55-27.92-1.11-4.06-1.34-9.58-2.45-14.03Z"/>
        <path class="cls-1" d="M118.93,71.19c-.19,4.76-4.37,8.39-2,12.98.16.31.68.76,1,1,.2.16.25,1.04,1,1l1-1c1.39-.1,1.04,1.43,1.01,2.48-.09,3.02-3.95,15.79-6,17.49v-1.99c-2.19-.31-2.21,0-2,1.99-3.9.9-7,8.75-10.44,8.94s-8.36-3.78-10.54-6.45c1.05-.97,3.52-.48,4.99-.49,1.01,1.56,4.2,1.13,5.99,1,.66-.05,1.4.11,2,0l2-1c5.05-2.34,3.8-5.78,4-10.99,1.26-.45,1.03-1.91,1-3-.1-3.69-.61-22.78,1.05-23.94,2.43-.74,4.35,1.45,5.94,1.96ZM117.93,87.19h-1.99s0,2.98,0,2.98h.98s1.01-2.98,1.01-2.98Z"/>
        <path class="cls-17" d="M265.79,74.19c.03,4.5.34,9.58,0,13.98l-8.83-9.65c-3.41-5.91-2.84-15.86-11.15-18.32.7-.83.79-1.39,2-2,3.62,2.27,8.35,2.78,11.49,5.99,2.9,2.96,3.02,7.62,6.49,9.99Z"/>
        <path class="cls-26" d="M132.92,237c-.75-.62-3.92-1.33-5-2-2.25-1.4-3.79-4.55-6.99-4l.49-21.97,11.49,27.96Z"/>
        <path class="cls-1" d="M252.8,82.18c1.69,3.48,4.91,7.21,8.28,9.2,5.34,3.14,13.8,5.44,19.69,6.78l2,1c1.38.22,4.98-.96,4.99.99-3.57.73-7.38,2.62-10.98,3.01-7.41-5.66-19.31-7.72-24.8-15.65-1.45-2.09-4.53-8.67.83-5.32Z"/>
        <path class="cls-9" d="M265.79,74.19c-3.47-2.37-3.59-7.03-6.49-9.99-3.14-3.21-7.87-3.72-11.49-5.99,4.86-2.45,11.75-2.46,17.05-1.56,1.67,1.16.92,14.5.94,17.54Z"/>
        <path class="cls-19" d="M111.94,124.13l-1,1.99c1.31-.07,2.69.14,4,0,.46-.05.89-.53,1-1,.89-.14,2.01,0,2.94.07.33.9-.15,2.19.06,2.93,0,.67,0,1.33,0,2,.02,1.76.52,5.52-.94,6.56h-9.12c-2.14-4.54-1.29-8.45,1.06-12.55.66-.06,1.35.08,2,0Z"/>
        <path class="cls-25" d="M267.78,132.12c.33-3.26.13-5.47-2-7.99-.28-.33-.64-.8-1-1-3.66-2.08-5.41.65-8.98.99l.67-3.01,6.82-2.97,4.48-6c-.4,9.48,11.93,12.97.01,19.97Z"/>
        <path class="cls-14" d="M242.81,280.95l-15.98-8.99c.23-1.65.5-4.62,1-5.99l1-1,13.48,10c1,1.65.42,4.1.5,5.99Z"/>
        <path class="cls-26" d="M276.77,269.96c-.28-.23-1.61-.22-2.5-.95-1.51-1.24-10.32-8.83-10.48-9.55-.66-2.95,10.23-3.44,11.98-6.48.2,1.02,1.69,1.58.84,4.26-.71,2.25-4.21,2.86-3.89,6.17l4.05,6.54Z"/>
        <path class="cls-3" d="M267.78,132.12c-2.33,1.37-1.82,1.5-5,2h-5.99c-.17-.82.02-2.05,0-3-.03-1.33.02-2.66,0-4,2.02-1.14,6.32-.44,7.99-3h1c2.12,2.52,2.33,4.73,2,7.99Z"/>
        <path class="cls-25" d="M279.77,107.15c-1.92,2.91-.73,1.49,1.18,2.28,3.41,1.4,6.3,1.91,9.8,2.72,1.61.37,4.26-.72,4.99,1.99-8.64,2.6-16.3.3-22.97-5.49,2.26-.41,4.72-1.2,6.99-1.49Z"/>
        <path class="cls-25" d="M259.79,106.15c-2.12,2.81-.21,7.5-2,10.99-.94.36-1.73,1.27-2.99,1-.14-.96.17-2.12,0-3v-1c-.52-3.66-1.63-7.06-.99-10.98,1.04-1.17,5.21,2.74,5.99,2.99Z"/>
        <path class="cls-13" d="M125.93,74.19l-1,2c-4.24,2.08-6.03,2.14-6.99,7.99h-1c-2.37-4.59,1.8-8.23,2-12.98,2.7.87,4.99-.13,6.99,3Z"/>
        <path class="cls-25" d="M109.94,124.13c.14-.24-.2-1.11.28-1.69.39-.47,9.27-7.73,9.7-7.3l1.01,6.99c-3.23-.42-5.99,1.62-9,2-.65.08-1.34-.06-2,0Z"/>
        <path class="cls-1" d="M259.79,106.15c.96.31,2.82-.23,4,0,.45,5.68-.63,8.92-6,10.99,1.79-3.49-.13-8.18,2-10.99Z"/>
        <path class="cls-1" d="M279.77,107.15c5.31-.69,8.18-.95,10.99,4.99-3.5-.8-6.4-1.31-9.8-2.72-1.91-.79-3.1.63-1.18-2.28Z"/>
        <path class="cls-26" d="M327.72,247.99c2.9-.62,2.71,2.85,3,4.99l-1.85-.12c-.32-1.62-.86-3.25-1.15-4.87Z"/>
        <path class="cls-27" d="M234.82,218.02v2c-.99-.07-2,.05-2.99,0v-1.48c.18-1.05,2.01-.33,2.99-.51Z"/>
        <path class="cls-27" d="M102.95,108.15c-1.8.13-4.99.56-5.99-1,1.87-.02,4.93-.64,5.99,1Z"/>
        <path class="cls-27" d="M256.79,43.23v-5.99c.48,1.19,1.24,1.35,1.11,3.5-.09,1.57-.85,1.84-1.11,2.49Z"/>
        <path class="cls-27" d="M112.94,105.15c-.22-1.99-.19-2.3,1.99-1.99v1.99c-.15.13-.66-.08-.99,0h-1Z"/>
        <path class="cls-27" d="M114.94,43.23l-4,1c.71-1.61,2.75-.82,4-1Z"/>
        <path class="cls-27" d="M256.79,131.12c-1.21-1.31-1.82-2.97,0-4,.02,1.33-.03,2.67,0,4Z"/>
        <path class="cls-27" d="M103.95,44.23l-4-1c1.25.17,3.29-.61,4,1Z"/>
        <path class="cls-27" d="M252.8,77.19l-1,1c-.21-.71-1.62-1.38-.99-3,1.18,0,1.48,1.26,1.99,2Z"/>
        <path class="cls-27" d="M110.94,96.17c.04-1.09-.3-2.52,1-3,.03,1.09.26,2.55-1,3Z"/>
        <path class="cls-27" d="M199.85,73.19l-3,1c.16-.03,1.62-.71,3-1Z"/>
        <path class="cls-27" d="M74.98,33.24v1c-.11-.27-1.69-.35-1.01-1.49l1.01.49Z"/>
        <path class="cls-27" d="M195.86,15.26c-.29.05-1.09.81-2,1l2-1Z"/>
        <path class="cls-27" d="M201.85,14.26c-.11,0-.29.8-2,1l2-1Z"/>
        <path class="cls-27" d="M190.86,70.2l-2,1,2-1Z"/>
        <path class="cls-27" d="M182.87,71.19c-.11.02-.25.8-2,1l2-1Z"/>
        <path class="cls-27" d="M149.9,73.19c-1.78-.12-1.89-.99-2-1l2,1Z"/>
        <path class="cls-27" d="M174.88,72.19c-.11,0-.22.89-2,1l2-1Z"/>
        <path class="cls-27" d="M139.91,76.19l-2-1c1.78.18,1.89.99,2,1Z"/>
        <path class="cls-27" d="M282.77,99.16l-2-1c1.55.35,1.89.98,2,1Z"/>
        <path class="cls-27" d="M106.94,107.15l-2,1c.11-.02,1.36-.7,2-1Z"/>
        <path class="cls-27" d="M96.95,126.13l-1.99.99,1.99-.99Z"/>
        <path class="cls-27" d="M118.93,130.13c0-.67,0-1.33,0-2,.15.52,1.45.94,0,2Z"/>
        <path class="cls-27" d="M262.79,171.08l-1-2c.02.11.81.26,1,2Z"/>
        <path class="cls-27" d="M262.79,187.06v-2c-.02.4.19.44,0,2Z"/>
        <path class="cls-27" d="M261.79,134.12h1c-.19.03-.47.73-1,0Z"/>
        <polygon class="cls-27" points="264.79 89.17 265.79 89.17 265.29 90.15 264.79 89.17"/>
        <path class="cls-27" d="M256.79,134.12h1l-.49.98c-.61-.16-.42-.56-.51-.98Z"/>
        <path class="cls-27" d="M118.93,86.18l1-1-1,1Z"/>
        <path class="cls-27" d="M117.93,85.18c-.32-.24-.84-.69-1-1h1v1Z"/>
        <path class="cls-27" d="M227.82,265.97l1-1-1,1Z"/>
        <path class="cls-27" d="M124.93,76.19l1-2s1.04-.04.98.49c-.48.77-1.2,1.12-1.98,1.51Z"/>
        <path class="cls-27" d="M114.94,126.13c.11-.48.52-.92,1-1-.1.47-.54.95-1,1Z"/>
        <path class="cls-27" d="M265.79,124.13h-1v-1c.35.2.72.67,1,1Z"/>
        <path class="cls-27" d="M254.8,115.14c-.14-.73,0-.95,0-1v1Z"/>
        <path class="cls-6" d="M230.82,77.19c-4.03.31-8.54-.45-12.49,0-11.12,1.26-21.82,20.32-25.11,20.9-2.29.41-4.64-5.05-4.93-6.87-.13-.78,1.41-7.73-1.41-5.04-1.79,1.71-.44,11.12-1.01,11.98-.06.09-1.73-.4-2.01.66-.94,3.52.81,18.12,4.54,19.3,4.18,1.31,3.14-4.19,3.72-6.22,1.03-3.66,2.67-6.34,1.75-10.73.42-.01,2.01-.8,3-1-.48,4.92.19,9.4,1,13.98,1.26,7.16,1.33,10.1,9.46,11.02,6.13.69,12.44-.91,18.54-.45,1.52-1.05,1.06-6.48.97-8.57,13.72,14.62,7.36,1.58,7.99,1.02.17-.15,1.96.13,2.96-.55s.62-2.2,1.54-2.47c2.57-.75,1.05,2.38,1.49,3-5.58,5.6-8.96,17.79-9.08,25.51-.04,2.57.78,3.05,1.09,4.45.39,1.77-.77,4.85,2.48,4.99,2.43-.52,5.74-9.36,6.53-11.98,1.4-.28,1.64.06,2.42,1.06,4.68,5.99,6.57,25.1,11.32,32.64l-.53,6.98c-5.9,7.31-9.03,18.07-14.8,25.15-1.64,2-3.38,4.59-6.4,4.08.74-11.93-3.77-23.28-5.52-34.93-6.31-3.92-4.84,6.79-5.7,10.23-.48,1.9-1.85,3.63-2.31,5.68-1.84,8.15-.48,23.07-12.44,12.03-.16-5.02-.2-14.33-5.99-15.97.72,1.5,1.13,2.7,1.05,4.43-.19,3.74-1.05,14.94-2.31,17.77-.33.74-10.12,11.68-10.8,12.18-4.15,3.01-12.66,1.93-16.84-1-5.51-3.86-4.51-7.9-7.21-12.77-1.38-2.49-5.04-5.5-6.36-8.63-1.4,3.86.85,9.37,2.5,12.98-8.48,3.66-20-10.18-23.78-16.68-6.72-11.56-4.14-28.17-5.19-41.25l9.97,3.99c.65-14.36-8.69-26.29,0-39.95.17-.14.97-.93,1-1l2,2c-.2.9-.89,2.24-.5,3.03,7.49,5.25,25.49,5.11,25.47-7.03,1.19-2.6,1.79-13.72,1-15.98,5.89.89,8.96-11.74,5-13.98l-3.49,9.97c-3.37-.91-9.59-10.53-11.51-13.97l3-1c8.25.03,19.02-1.1,27.31-2.16,12.63-1.63,24.68-5.55,37.15-7.85,4.4.66.81,4.4,1.48,7.02ZM168.88,143.11l1,5.99c-12.89-2.59-13.56-.49-5.99,8.99-2.81,7.01.08,14.28,2,20.98-5.53,3.54-4.47,10.43,3,10.99.59,6.13,7.28,10.91,13.32,8.83,3.13-1.08,3.87-11.66,4.66-14.82,4.42-4,3.29-6.17,4-10.99.04-.29.94-1.09,1.04-2.42.33-4.56.24-20.7-7.03-19.56v-1c5.12-1.28,5.61-3.88,7.99-6.99.51-.66,2.02-1.09,2.87-2.6,4.04-7.23-4.51-8.26-4.88-14.38-1.69-.05-2.17-.53-1.95,1.44.6,5.29,7.13,9.62-.02,11.54l-2.03-4.58c-1.19-.78-2.79.63-2.99.58-1.15-.29-2.36-.9-5.02-1.46-2.24-.47-4.36-2.04-6.96-1.54,4.5-7.1,6.33-14.11,5.99-22.49-.05-1.21.76-3.71-.98-3.47-1.51,6.97-2.56,13.8-6.6,19.88-2.67,4.02-8.88,6.85-6.29,11.42.38.67,4.34,5.24,4.88,5.66ZM216.84,146.1c6.95-1.29,16.19-8.77,13.04-16.54-5.45-3.83-11.5,12.9-13.04,16.54ZM152.89,143.11c1.59-6.54-4.29-10.3-9.98-10.99-1.62,1.57,6.13,13.29,9.98,10.99Z"/>
        <path class="cls-27" d="M207.84,203.04c.2,6-.07,10.28-1.99,15.98,13.02-1.51,17.22-9.16,17.02-21.52-.03-1.71-2.61-9.39,1.45-8.44,3.73.88,5.97,17.2,5.07,21.05-1.68,7.18-11.8,13.81-18.89,13.57-3.02-.11-5.82-2.8-7.9-2.52-4.48.61-9.29,7.01-14.3,7.79s-13.77.09-17.79-3.06c-1.21-.95-7.72-11.88-8.62-13.85-1.65-3.61-3.9-9.12-2.5-12.98,1.32,3.13,4.98,6.14,6.36,8.63,2.69,4.87,1.7,8.91,7.21,12.77,4.18,2.93,12.69,4.01,16.84,1,.68-.49,10.47-11.43,10.8-12.18,1.26-2.83,2.13-14.02,2.31-17.77.09-1.73-.33-2.94-1.05-4.43,5.79,1.64,5.83,10.95,5.99,15.97Z"/>
        <path class="cls-3" d="M241.81,223.03c-2.12,2.9-4.81,5.62-7.66,7.81-3.38,2.59-16.4,10.23-20.05,10.95-6.23,1.23-16.81-5.44-23.24-6.8,8.42-10.37,20.49-3.08,31.36-8.09,2.86-1.32,5.18-4.6,8.19-4.88,3.19-.3,7.71,1.98,11.4,1Z"/>
        <path class="cls-23" d="M230.82,77.19c.1.39,3.32,5.71,4.35,6.1l5.59,8.4c-5.07,5.65-10.77-1.5-16.93-1.51-3.31,0-3.11,1.03-5,2-9.33,4.77-11.2,5.82-21.98,7.99-.99.2-2.58.98-3,1-2.67.09-6.68-.38-7.99-3,.57-.86-.78-10.27,1.01-11.98,2.82-2.69,1.29,4.25,1.41,5.04.29,1.82,2.64,7.28,4.93,6.87,3.29-.58,13.99-19.64,25.11-20.9,3.95-.45,8.46.31,12.49,0ZM214.84,86.18c-1.85-.16,1.42-3.94-1.48-2.98s-5.48,4.78-7.51,6.98c-.99,1.07-3.12,1.96-3.99,3.51-.87,2.11,2.34,1.65,3.5,1.51,5.58-.68,10.8-7.26,18.08-7.97,4.45-.43,6.97,2.65,11.37,1.95,1.86-1.61-7.01-7.49-8.96-7.05l.98-1.93c-.9-.62-10.05,4.89-11.99,5.98Z"/>
        <path class="cls-12" d="M161.89,81.18c1.92,3.43,8.14,13.05,11.51,13.97l3.49-9.97c3.96,2.25.89,14.87-5,13.98-1.22-3.49-7.91-2.58-10.27-3.21-9.16-2.46-7.09-4.43-17.7-.78-3.57,1.23-7.04,3.12-10.99,3,.11-1.16-2.2-3.39,1-6.99.82-.92,3.22-1.47,3.72-2.27.95-1.52-.02-4.59,2.01-5.73,3.58-2,7.02.03,9.58-.31,3.13-.4,8.3-5.08,12.65-1.69ZM164.89,92.16c.89-3.36-8.57-10.38-9.99-8.98v3.01c-4.58-1.96-9.21-2.82-13.99-.99l.48,1.96,3.51,1.01c-3.96.02-7.44,3.21-9.99,5.99,7.64-.88,12-5.18,20.25-3.74,3.59.62,5.89,3.7,9.72,1.75Z"/>
        <path class="cls-23" d="M225.83,93.17c1.47.94,1.68-1.83,2,3,.43,6.5-1.21,10.87-1,16.98.03,1-.04,2,0,3,.09,2.09.55,7.52-.97,8.57-6.1-.46-12.41,1.14-18.54.45-8.13-.91-8.2-3.86-9.46-11.02.5-5.88,4.62,3.16,5.45,4.04,3.24,3.45,6.59,3.19,11.02,2.93,10.01-.6,9.99-3.53,7.37-12.83-5.59.16-8.33-3-14.3-2.07-1.71.26-2.83,1.32-4.25,1.74-5.72,1.68,1.06-6.04,4.43-6.64,8.91-1.59,9.31,9.4,16.25,1.84,3.56-3.87,3.27-4.83,2-9.99Z"/>
        <path class="cls-6" d="M143.91,95.17c.7,3.94-.65,7.93-.84,11.55-.06,1.16.79,1.94.84,2.43.03.29.06.73,0,1-.04.2-.82.6-1,1-2.77-1.4-4.99-.85-7.86-1.13l-1.14-5.35-1.99,1.49c-.12-3.3.73-5.22,1-7.99,3.95.13,7.42-1.77,10.99-3Z"/>
        <path class="cls-19" d="M233.82,99.16c-.8,2.51-.55,6.3-1.51,8.97,1.52-1.46,4.18-3.86,4.51-5.97l2.94.05c-.1,1.88.43,3.26,1.06,4.95-4.22,1.01-7.4,4.18-11.99,5.99-.45.18-1.39-.12-2,0-.21-6.12,1.43-10.48,1-16.98,2.73-.37,4.92.36,5.99,3Z"/>
        <path class="cls-23" d="M232.82,147.11c-.31-1.41-1.13-1.88-1.09-4.45.12-7.72,3.51-19.91,9.08-25.51.09.13,2.81.36,2.91,1.46.13,1.38-4.78,9.8-5.67,12.27-1.96,5.41-2.59,11.22-5.23,16.24Z"/>
        <path class="cls-19" d="M164.89,80.18l-3,1c-4.35-3.39-9.52,1.28-12.65,1.69-2.56.33-6.01-1.7-9.58.31-2.03,1.14-1.06,4.21-2.01,5.73-.5.79-2.9,1.34-3.72,2.27.17-3.18-1.09-11.53,2.66-12.82,8.64.72,17.22.64,25.89.79,1.29.02,2.29,1.04,2.42,1.04Z"/>
        <path class="cls-23" d="M240.81,107.15c.13.34,2.07.41,1.61,2.03-1.39,4.9-9.82,8.53-13.6,3.96,4.58-1.82,7.76-4.98,11.99-5.99Z"/>
        <path class="cls-6" d="M143.91,114.14c-.01.62.14,1.6,0,2-4.79-1.88-8.72,1.98-8.99,6.99-3.18-.04-3.06-5.88-4-7.98l7-2c1.98.47,3.9,1.19,5.99,1Z"/>
        <path class="cls-3" d="M223.83,90.17c-.08,1.91.7,2.17,2,3,1.27,5.16,1.56,6.12-2,9.99-1.36-3.08-1.1-11-5-10.99,1.89-.96,1.68-2,5-2Z"/>
        <path class="cls-12" d="M131.92,106.15l1.99-1.49,1.14,5.35c2.87.28,5.09-.27,7.86,1.13.71.36,1.52.53,1.71,1.47.09.65-.7,1.25-.71,1.53-2.1.19-4.01-.53-5.99-1-1.59-.37-3.22-.66-4.75-1.23-1.24-1.73-1.17-3.76-1.25-5.76Z"/>
        <path class="cls-12" d="M143.91,116.14c-.11.3.12.73,0,1-.03.06-.83.86-1,1-.57.46-2.09.37-3.55,1.92-1.69,1.8-2.12,4.37-3.95,6.07-.91-.21-.54-2.18-.49-2.99.27-5.01,4.2-8.88,8.99-6.99Z"/>
        <path class="cls-8" d="M236.81,102.16c-.33,2.11-2.99,4.51-4.51,5.97.96-2.67.71-6.46,1.51-8.97,1.29-4.05,3.56-.64,3,3Z"/>
        <path class="cls-23" d="M198.85,42.23c10.95,2.71,21.38,6.22,31.97,10-1.25,3.05-5.6,2.04-8.26,1.74l-42.69-15.74c5.61.01,13.37,2.6,18.98,4Z"/>
        <path class="cls-23" d="M230.82,38.23c4.45,1.58,9.58,4.59,14.01,6.49l-.53,2.51c-4.19-1.23-8.49-2.2-12.47-4.01-3.63-1.65-6.45-3.31-8.99-6.5,1.93-.52,6.09.83,7.99,1.5Z"/>
        <polygon class="cls-27" points="117.93 87.19 116.92 90.17 115.95 90.17 115.94 87.18 117.93 87.19"/>
        <path class="cls-9" d="M171.88,99.16c.79,2.26.19,13.38-1,15.98,0-3.2.28-6.77-3.99-6.99,3.28,13.13-7.01,12.54-16.99,11.98-.15-2.68.9-5.99-1.5-7.99-.8,2.29-1.97,4.6-2.49,6.99l-2-2c.12-.27-.11-.7,0-1,.14-.39-.01-1.38,0-2,0-.27.8-.88.71-1.53-.19-.94-1-1.11-1.71-1.47.17-.4.95-.8,1-1,5.78,4.31,10.54-5.13,13.43-5.58,1.99-.32,9.15,3.14,8.56.08-.5-2.57-6.06-4.87-8.3-4.34-4.47,1.08-8.59,9.81-13.69,8.84-.05-.49-.9-1.27-.84-2.43.19-3.62,1.54-7.61.84-11.55,10.6-3.65,8.54-1.68,17.7.78,2.36.64,9.06-.27,10.27,3.21Z"/>
        <path class="cls-9" d="M218.83,92.17c3.89-.02,3.63,7.9,5,10.99-6.94,7.56-7.34-3.43-16.25-1.84-3.37.6-10.15,8.32-4.43,6.64,1.42-.42,2.54-1.47,4.25-1.74,5.97-.93,8.71,2.23,14.3,2.07,2.62,9.3,2.64,12.23-7.37,12.83-4.43.27-7.78.52-11.02-2.93-.83-.88-4.95-9.92-5.45-4.04-.81-4.58-1.48-9.06-1-13.98,10.78-2.17,12.64-3.23,21.98-7.99Z"/>
        <path class="cls-27" d="M169.88,149.1c1.69.34,2.95,2.22,6.49,2.06,3.71-.17,4.95-3.29,8.49-3.05v1.99s0,1,0,1c-1.21.19-2.75,2.63-4.25,3.24-4.85,1.97-9.42.08-13.72-2.24,1.89,9.11,17.04,12.4,11.42,23.92-1.56,3.19-6.85,4.37-7.43,8.04,9.91,1.46,14.13-4.58,19.98-10.98-.7,4.81.42,6.99-4,10.99-3.79,3.43-12.86,6.37-17.98,5.99-7.47-.55-8.53-7.44-3-10.99,1.26-.81,3.23-.76,4.47-2.01,3.4-3.44-.94-13.04-3.47-16.49-.89-1.21-2.46-1.8-3-2.47-7.57-9.48-6.9-11.58,5.99-8.99Z"/>
        <path class="cls-9" d="M184.87,151.1c7.27-1.14,7.37,15,7.03,19.56-.1,1.33-1,2.13-1.04,2.42-5.84,6.4-10.06,12.44-19.98,10.98.58-3.66,5.87-4.84,7.43-8.04,5.62-11.52-9.53-14.81-11.42-23.92,4.31,2.32,8.88,4.22,13.72,2.24,1.5-.61,3.04-3.05,4.25-3.24Z"/>
        <path class="cls-23" d="M171.88,132.12c-.37.58-2.61,1.35-2.99,2.56-.37,1.67,1.55,1.9,1.99,2.43,2.48,3.06,5.33,5.71,9.44,2.9,1.56-1.07,1.12-2.25,1.55-2.9.3-.44,1.82-.94,2-2,.2.05,1.8-1.36,2.99-.58l2.03,4.58c7.15-1.93.62-6.25.02-11.54-.22-1.97.25-1.5,1.95-1.44.36,6.12,8.92,7.16,4.88,14.38-.84,1.51-2.36,1.94-2.87,2.6-3.61,2.38-7.55-.74-8.51-.77-1.15-.04-3.34,4.52-6.01,4.79-1.4.14-8.28-3.13-9.45-4.02-.54-.41-4.5-4.99-4.88-5.66-2.59-4.56,3.62-7.4,6.29-11.42,4.04-6.08,5.08-12.9,6.6-19.88,1.74-.24.93,2.27.98,3.47.34,8.38-1.49,15.39-5.99,22.49Z"/>
        <path class="cls-23" d="M170.88,115.14c.02,12.14-17.98,12.28-25.47,7.03-.39-.79.3-2.13.5-3.03.52-2.39,1.69-4.7,2.49-6.99,2.4,2,1.35,5.31,1.5,7.99,9.98.56,20.27,1.15,16.99-11.98,4.27.22,3.99,3.79,3.99,6.99Z"/>
        <path class="cls-13" d="M186.86,184.06c-.79,3.17-1.53,13.75-4.66,14.82-6.04,2.08-12.73-2.7-13.32-8.83,5.12.38,14.19-2.56,17.98-5.99Z"/>
        <path class="cls-13" d="M185.87,98.16c1.32,2.61,5.33,3.09,7.99,3,.92,4.39-.72,7.07-1.75,10.73-.58,2.04.46,7.54-3.72,6.22-3.73-1.17-5.48-15.77-4.54-19.3.28-1.05,1.96-.57,2.01-.66Z"/>
        <path class="cls-24" d="M165.89,179.07c-1.92-6.7-4.81-13.97-2-20.98.54.67,2.11,1.26,3,2.47,2.54,3.45,6.87,13.06,3.47,16.49-1.24,1.25-3.21,1.2-4.47,2.01Z"/>
        <path class="cls-9" d="M216.84,146.1c1.55-3.64,7.59-20.37,13.04-16.54,3.15,7.77-6.09,15.25-13.04,16.54Z"/>
        <path class="cls-11" d="M192.86,143.11c-2.38,3.11-2.87,5.71-7.99,6.99v-1.99c-3.55-.23-4.79,2.89-8.5,3.05s-4.8-1.72-6.49-2.06l-1-5.99c1.17.9,8.05,4.17,9.45,4.02,2.67-.27,4.86-4.83,6.01-4.79.96.03,4.91,3.15,8.51.77Z"/>
        <path class="cls-9" d="M152.89,143.11c-3.85,2.31-11.6-9.42-9.98-10.99,5.69.68,11.57,4.45,9.98,10.99Z"/>
        <path class="cls-24" d="M183.87,135.12c-.18,1.06-1.7,1.56-2,2-3.66,1.06-8.34-2.23-10.99,0-.44-.54-2.36-.76-1.99-2.43.38-1.21,2.62-1.98,2.99-2.56,2.6-.5,4.72,1.07,6.96,1.54,2.67.56,3.87,1.17,5.02,1.46Z"/>
        <path class="cls-16" d="M214.84,86.18c1.94-1.09,11.1-6.61,11.99-5.98l-.98,1.93c1.96-.44,10.82,5.44,8.96,7.05-4.39.7-6.91-2.38-11.37-1.95-7.28.71-12.5,7.29-18.08,7.97-1.17.14-4.37.61-3.5-1.51.87-1.55,3-2.44,3.99-3.51l.49.98c2.94-1.43,5.68-3.38,8.5-4.97Z"/>
        <path class="cls-1" d="M205.85,90.17c2.03-2.2,4.51-5.99,7.51-6.98s-.37,2.83,1.48,2.98c-2.82,1.59-5.56,3.54-8.5,4.97l-.49-.98Z"/>
        <path class="cls-18" d="M164.89,92.16c-3.83,1.96-6.13-1.12-9.72-1.75-8.25-1.43-12.6,2.87-20.25,3.74,2.55-2.78,6.03-5.97,9.99-5.99l-3.51-1.01-.48-1.96c4.78-1.82,9.41-.97,13.97.99v-3.01c1.42-1.4,10.88,5.62,10,8.98Z"/>
        <path class="cls-20" d="M143.91,109.15c5.11.98,9.23-7.76,13.69-8.84,2.23-.54,7.8,1.77,8.3,4.34.6,3.05-6.57-.4-8.56-.08-2.89.46-7.66,9.9-13.43,5.58.06-.27.03-.71,0-1Z"/>
        <path class="cls-11" d="M181.87,137.12c-.44.65,0,1.83-1.55,2.9-4.1,2.81-6.95.16-9.44-2.9,2.65-2.23,7.33,1.06,10.99,0Z"/>
        <path class="cls-4" d="M404.06,380.94l.09-5.09c-5.77-12.58-9.65-26.01-15.31-38.63-15.05-33.52-36.86-67.22-46.41-103.42-2.15-8.15-2.01-17.02-4.2-24.77-7.04-24.98-45.4-20.52-65.45-20.96-.32,1.49-3.58,1.56-4,0h-1l-.98-.5.98-.5c-.27-4.22.38-8.83,0-12.98l-1-3c-.92-6.74-2.68-10.96-4.5-16.99-1.14-3.78-3.3-8.62-3.5-12.48-.15-2.92,3.97-1.02,6.01-1.49l1-1c5.51-1.66,8.99-3.15,10.99-8.99l1-1c.22-1.08.21-4.9,0-5.99l-1-1c-1.57-3.86-4.08-4.42-4.99-7.99,3.65-.76,6.19,3.99,8.72,4.78,1.74.54,3.52.09,5.26.21h2c2.48-.23,4.94.14,7.24-1.26l14.74-9.73h-16.48c-.69,0-5.48-4.02-5.48-4.5,1.76-.73,3.46-4.73,4.25-5.22,1.69-1.04,5.74-.45,6.72-4.26-2.99-.05-6,.03-8.99-.01-3.08,2.48-7.67.66-10.99,0-11.76-2.33-10.29-8.15-9.99-18.98l1-4c.18-9.31,3.24-21.51-9.99-18.98l-.98-.5.98-.5c1.52-1.22,3.48-.68,4.99-1l2-1c2.33-.22,6.18-.28,8.45.04,1.8.26,4.04,3.25,4.54.96v-1c-5.23-3.93-15.09-1.81-20.98,0-.17.05-.2,1.55-2,.99-.1-1.2,1.56-1.45,2-1.99,4.19-5.12,4.43-12.25-.45-17.03-1.76-1.73-8.32-6.72-10.62-8.36-9.22-6.56-15.64-9.85-26.89-11.57l-2-1c-4.19-.4-10.73-.3-14.98,0-.33.02-2.33.8-4,1-.96.11-2.06-.14-3,0l-3,1c-27.55,5.25-48.67,19.06-73.93,25.97l-3,1c-.88.18-2.06-.14-3,0l-2,1c-2.9.29-8.12.32-10.99,0l-2-1c-7.1-1.22-14.62-3.54-20.48-7.99-2.99-2.27-5.1-5.87-8.49-7.99l-1,3c3.84,24.24,19.08,34,40.93,42-.48,2.67-.77,5.23-.97,7.94v4c-.06,4.79.56,9.21,0,13.98l-1,2c-1.83,8.08-.24,9.86-10.99,8.99l-2-1c-2.23-.33-4.66-.08-6.99-1-.21,7.5,4.87,12.15,10.96,15.48l-11.96,9.99c.78,1.03,2.77,1.07,3.99,1.49l1,1c.65.14,2.28.11,3,0l1-1c2.69-.61,4.32-.78,6.99-2,.25-.12.14-1.55,1.99-.99.66,1.51-.94,2.62-.99,2.99-.15,1.14-.07,2.8,0,4l1,3c2.32,8.5,4.32,6.99,12.99,6.99-.05.64.11,1.39,0,2l-1,3c-.18,2.64.12,5.35,0,7.99l-1,3c-.04,3.99.06,8,0,11.99-.03,1.89.68,4.91-1,5.99-.03,1.99-.07,4.01,0,5.99l1,4c.11,1.11.22,5.51-.1,5.9-5.72,2.03-13.13,3.59-18.57,5.9-11.09,4.7-48.53,30-54.45,39.45-11.66,18.64-17.45,75.99-23.27,100.59-2.86,12.08-7.04,23.75-9.54,35.9l.37,4.91,393.69.22ZM229.82,375.83c-6.1.95-4.79-.28-7.44-3-9.34-9.57-16.85-16.18-28.52-22.97-7.53-4.38-54.97-26-56.52-28.97-1.08-2.06,10.18-17.45,11.75-21.28,1.21-2.96,2.22-5.71,1.86-9.01-5.4-4.99-27.21,2.44-30.56-2.63l.54-56.97.49-21.97,11.49,27.96c2.75,2.29,13.77,23.79,17.35,29.1,17.24,25.53,37.08,48.68,55.99,72.87,2.7,3.45,26.51,34.35,23.56,36.87ZM200.37,285.98c.81,1.78-.55,10.54-1.52,12.95.16,2.56-1.36,18.98-3.5,18.96-5.14-5.5-9.38-11.69-13.49-17.96-1.13-1.73-5.89-7.42-5.57-9.05,2.3-2.56,8.37-14.76,11.09-15,2.66-.24,12.03,7.99,12.99,10.1ZM193.01,268.32l6-12.18c4.26-.18,8.65-.3,12.83-1.16,2.76-.57,5.95-2.8,8.98-3,3.73,2.66-2.58,23.54-3.98,27.97-.73,2.29-1.37,4.67-2.02,6.98-.77.07-1.55.11-2.31-.14-2.89-.98-15.66-15.74-19.5-18.47ZM191.85,257.46c-1.48,2.47-4.58,5.35-5.99,7.51-4.51,6.93-8.29,14.47-13.48,20.97-10.29-13.07-20.22-26.48-28.48-40.95-4.99-8.75-9.8-17.74-13.19-27.27-.32-.9-1.83-2.85.19-2.69l17.98,17.49c12.84,10.57,26.27,19.82,42.99,22.94,1.66,1.31.53,1.06-.03,2ZM231.08,357.65c-.43,1.31.4,2.65-1.75,2.2-4.41-5.56-16.89-18.51-17.5-24.96-2.96-.87-8.47-8-8.94-10.53-.7-3.73,2.1-23.94,2.95-28.91.2-1.18.49-1.79,1.49-2.48,2.55,2.17,6.04,3.9,9.5,2.97,3.11-.83,4.69-6.23,6.98-7.99,1.52,14.97,9.17,31.06,10.72,45.72.75,7.12-1.2,17.13-3.45,23.99ZM254.8,218.02c1.02-2.8.52-6.72,3.99-7.99,3.68,13.06,3.56,27.32,10.03,39.42.04,1.37-15.12,2.97-13.58,9.53,2.02,8.62,21.4,16.13,21.52,21.44l-20.96,37.49c-2.11,5.41-8.85,14.96-12.17,21.3-.54,1.02-2.35,4.64-3.83,4.16,2.56-13.28,6.72-26.45,7.99-39.95,2.62-27.9-2.72-58.78,7-85.39ZM242.8,265.96l-12.04-8.43-2.49-10.52,17.04-14.98c-1.76,11.23-3.02,22.53-2.51,33.94ZM228.82,264.97l13.48,10c1,1.65.42,4.1.5,5.99.61,13.75-1.34,27.6-4.49,40.95-1.4-.98-1.51-2.54-2.01-3.99-2.17-6.32-10.86-39.5-10.46-44.34.07-.82.94-1.39.97-1.61.23-1.65.5-4.62,1-5.99l1-1ZM265.83,193.1c1.63-.24,3.32.09,4.95-.04,14.78-1.22,39.8-1.89,53,5.44,10.71,5.95,10.36,25.89,13.23,36.72,8.62,32.53,30.8,70.01,44.84,101,4.33,9.56,13.59,28.88,15.7,38.25.43,1.9,0,1.22-1.37,1.38-2.58.3-5.8-.03-8.51,0-8.29.1-16.69.16-24.98,0-4.65-.09-9.43.48-14.03-.46-2.51-1.66-8.43-34.88-8.94-40-1.07-10.78.43-21.82-.02-31.93-.6-13.75-6.51-32.33-8.99-46.47-.21-1.2.17-2.74,0-4l-1.85-.12c-.32-1.62-.86-3.25-1.15-4.87-.48-2.71-.26-5.91-1-8.99-3.16,8.41.77,17.43,1.73,25.74.2,1.68-.84,3.28-.67,4.65.15,1.24,6.2,25.27-.06,20.55-2.36-8.77-7.25-17-9-25.97-4.58-9.7-9.67-19.41-12-29.96-1.81-.4-.65,1.61-.99,1.99,1.54,22.22,14.01,42.91,20.26,64.14,2.32,7.88,5.11,19.46,6.42,27.54,2.59,16,1.64,33.04,8.28,48.14-2.99.05-6-.03-8.99,0-1.66.02-3.33,0-5,0-2.99.02-6-.01-8.99,0-26.96.12-53.96-.09-80.92,0-1.92-.65-.93-4.59-.57-6.07,5.85-23.7,30.43-55.2,42.05-77.81,2.43-4.74,6.63-10.72,4.47-16-1.99-1.84-3.6-4-5.99-5.99-.28-.23-1.61-.22-2.5-.95-1.51-1.24-10.32-8.83-10.48-9.55-.66-2.95,10.23-3.44,11.98-6.48-1.36-6.96-4.8-12.51-6.54-18.93-1.41-5.23-6.11-26.33-6.17-30.7-.04-2.7,3.55-6.75,2.76-10.26ZM261.79,169.08c.02.11.81.26,1,2,.44,3.92.2,9.91,0,13.98-.02.4.19.44,0,2-1.94,15.88-12.21,28.02-27.97,30.96v2c5.92.4,9.94.12,14.49-3.99.68-.22.68.81.48,1.47-2.67,8.67-22.26,26.57-30.58,30.36-12.3,5.61-29.07,3.64-41.32-1.39-15.08-6.19-50.64-37.37-56.44-52.44-5.35-13.9.35-37.96,1.47-53.43.27-3.8-.17-7.68.02-11.47,2.31-.58,1.65.45,2.28,1.26,2.66,3.39,9.76,17.65,12.21,18.7l1.52-1.51-8.85-20.13c-3.53-8.03-7.34-11.14-6.2-21.82.56-5.21,4.93-10.22,5.76-16.21.69-5.03.03-10.18.27-15.22,2.61,1.04,5.3.72,7.99,1,1.78.18,1.89.99,2,1,18.66,2.04,38.5,1.39,56.94-2,.16-.03,1.62-.71,3-1,12.25-2.53,25.39-8.95,35.71-10.77,8.65-1.53,3.67,6.16,3.27,11.29-.49,6.21-.01,11.56,2.79,17.15,1.69,3.36,7.5,8.41,7.97,10.01.83,2.79-.18,6.55.33,9.66,1.78,11,2.16,22.62,4.13,32.83,1.68,8.69,6.11,16.39,7.73,25.73ZM254.8,115.14c-.14-.73,0-.95,0-1-.52-3.66-1.63-7.06-.99-10.98,1.04-1.17,5.21,2.74,5.99,2.99.96.31,2.82-.23,4,0,.45,5.68-.63,8.92-6,10.99-.94.36-1.73,1.27-2.99,1-.14-.96.17-2.12,0-3ZM267.78,132.12c-2.33,1.37-1.82,1.5-4.99,2-.19.03-.47.73-1,0h-4l-.49.98c-.61-.16-.42-.56-.51-.98-.17-.82.02-2.05,0-3-1.21-1.31-1.82-2.97,0-4,2.02-1.14,6.32-.44,7.99-3v-1c-3.66-2.08-5.41.65-8.98.99l.67-3.01,6.82-2.97,4.48-6c-.4,9.48,11.93,12.97.01,19.97ZM290.76,112.15c1.61.37,4.26-.71,4.99,1.99-8.64,2.6-16.3.3-22.97-5.49,2.26-.41,4.72-1.2,6.99-1.49,5.31-.69,8.18-.95,10.99,4.99ZM264.85,56.65c1.67,1.16.92,14.5.94,17.54.03,4.5.34,9.58,0,13.98-.03.33.02.67,0,1l-.5.98-.5-.98c-4.62-1.97-8.69-6.36-11.68-10.32-.47-.63-.18-1.47-.31-1.67l-1,1c.37,1.22.52,3.01,1,4,1.69,3.48,4.91,7.21,8.28,9.2,5.34,3.14,13.8,5.44,19.69,6.78,1.55.35,1.89.98,2,1,1.38.22,4.98-.96,4.99.99-3.57.73-7.38,2.62-10.98,3.01-13.99,1.51-32.09-7.26-33.99-22.45-.43-3.49.41-14.36,1.03-18.03.36-2.11,1.42-1.8,1.99-2.47.7-.83.79-1.39,2-2,4.86-2.45,11.75-2.46,17.05-1.56ZM91.96,53.21c-8.68-5.87-12.93-8.64-16.98-18.98-.11-.27-1.69-.35-1.01-1.49l1.01.49c8.56,6.81,14.32,8.5,24.98,9.99,1.25.17,3.29-.61,4,1h6.99c.71-1.61,2.75-.82,4-1,17.29-2.52,28.95-10.67,44.69-16.75,10.73-4.14,22.99-7.88,34.23-10.22l2-1c.92-.16,2.05.13,3,0,.33-.05.67.04,1,0l2-1c13.68-1.1,22.29.06,33.97,6.99,4.04,2.4,8.37,4.96,10.99,8.99,4.22.17,8.38,3.02,9.99,6.99.48,1.19,1.24,1.35,1.11,3.5-.09,1.57-.85,1.84-1.11,2.49-7.35,18.44-48.69,22.42-65.93,26.97l-2,1c-1.92.18-4.14-.26-5.99,0-.11.02-.25.8-2,1-1.89.22-4.05-.15-5.99,0-.11,0-.22.89-2,1-6.86.4-16.15.46-22.98,0-1.78-.12-1.89-.99-2-1-21.99-1.98-37.77-6.67-55.94-18.98ZM96.95,126.13c5.31-7.28,14.21-11.93,16.98-20.98h-1c-3.9.9-7,8.75-10.44,8.94-3.56.19-8.36-3.78-10.54-6.45,1.05-.97,3.52-.48,4.99-.49,1.87-.02,4.93-.64,5.99,1,.66-.05,1.4.11,2,0,.11-.02,1.36-.7,2-1,5.05-2.34,3.8-5.78,4-10.99.04-1.09-.3-2.52,1-3-.1-3.69-.61-22.78,1.05-23.94,2.43-.74,4.35,1.45,5.94,1.96,2.7.87,4.99-.13,6.99,3,.03.05,1.04-.04.98.49-.48.77-1.2,1.12-1.98,1.51-4.24,2.08-6.03,2.14-6.99,7.99v1c.2.16.25,1.04,1,1l1-1,5.51-5.98c2.17-.9,1.54,2.28,1.47,3.46-1.05,16.29-12.78,39.77-29.95,43.47ZM108.88,136.68c-2.14-4.53-1.29-8.45,1.06-12.55.14-.24-.2-1.11.28-1.69.39-.47,9.27-7.73,9.7-7.3l1.01,6.99c-3.23-.42-5.99,1.62-9,2l-1,1.99c1.31-.07,2.69.14,4,.01.11-.48.52-.92,1-1,.89-.15,2.01,0,2.94.07.33.9-.15,2.19.06,2.93.15.52,1.45.94,0,2,.02,1.76.52,5.52-.94,6.56h-9.12ZM19.03,375.84c7.03-30.34,11.3-61.55,18.47-91.9,2.6-11,5.87-25.85,10.5-35.94,3.86-8.42,14.9-19.99,23.98-21.97-.09-2.27,1.39-2.66,2.68-3.81,12.02-10.68,28.18-17.06,43.27-22.15-3.49,15.95-1.31,32.29-1.95,48.48-.3,7.52-.63,15.34-1.05,22.92-.2,3.59-4.41,24.48.51,24.48h27.47c-1.94,9.62-20.69,23.05-8.68,31.16,18.71,12.63,44.9,19.91,64.76,33.14,1.49.99,19.19,13.58,16.85,15.61-4.98.04-10-.03-14.98,0-32.61.23-65.29.09-97.9,0-9.31-.03-18.66.02-27.98,0-.16-3.8.25-7.68,0-11.48-.39-5.66-2.08-13.5-2.03-18.94.25-25.19,10.24-48.19,8.03-75.46-.14-1.76-.61-3.3-1.01-4.99l-2.82,1.66c.5,4.93-1.61,9.23-2.16,13.82-.45,3.82-.52,7.53-1.01,11.48-.75,6.13-.89,12.33-2.03,18.46-.3,1.62.68,1.74-1.95,1.52-1.7-9.61-6.01-18.58-8.55-27.92-1.11-4.06-1.34-9.58-2.45-14.03-.25-1.01-3.66-14.66-5.99-11.98-1.99,12.58,5.31,24.94,4.99,36.95,2.71-.58,1.91,1.38,2.48,2.96,5.09,14.17,7.17,37.07,8.5,52.48.72,8.35.84,17.08,1.01,25.47-5.65.02-11.34-.04-16.99,0-8.3.06-16.68.16-24.98,0-2.99-.06-6.01.05-8.99,0Z"/>
      </g>
    </g>
  </g>
</svg>