<?xml version="1.0" encoding="UTF-8"?>
<svg id="Layer_2" data-name="Layer 2" xmlns="http://www.w3.org/2000/svg" viewBox="0 0 476.65 309.16">
  <defs>
    <style>
      .cls-1 {
        fill: #efc837;
      }

      .cls-2 {
        fill: #383c59;
      }

      .cls-3 {
        fill: #f7c69c;
      }

      .cls-4 {
        fill: #535672;
      }

      .cls-5 {
        fill: #fff;
      }

      .cls-6 {
        fill: #3e2b13;
      }

      .cls-7 {
        fill: #f9ecdc;
      }

      .cls-8 {
        fill: #ca3428;
      }

      .cls-9 {
        fill: #e5e3e3;
      }

      .cls-10 {
        fill: #d88d2f;
      }

      .cls-11 {
        fill: #312316;
      }

      .cls-12 {
        fill: #e27082;
      }

      .cls-13 {
        fill: #da8d2d;
      }

      .cls-14 {
        fill: #dadad9;
      }

      .cls-15 {
        fill: #f6f5f5;
      }

      .cls-16 {
        fill: #da8e2b;
      }

      .cls-17 {
        fill: #f7d03b;
      }

      .cls-18 {
        fill: #ecb734;
      }

      .cls-19 {
        fill: #f1c298;
      }

      .cls-20 {
        fill: #2d2b27;
      }

      .cls-21 {
        fill: #a12822;
      }

      .cls-22 {
        fill: #ebeae9;
      }

      .cls-23 {
        fill: #261e15;
      }

      .cls-24 {
        fill: #d2892d;
      }

      .cls-25 {
        fill: #272b40;
      }

      .cls-26 {
        fill: #1d1813;
      }
    </style>
  </defs>
  <g id="Layer_1-2" data-name="Layer 1">
    <g>
      <path class="cls-5" d="M467.34,160.59c-13.15-15.26-23.45-16.5-34.36-17.81-3.56-.43-7.25-.87-11.55-1.84-1.29-.29-3.31-1.34-5.1-2.27-3.51-1.83-7.48-3.89-12.1-3.89-2.43,0-7.24.65-11.02,5.19-.45-.26-1.05-.63-1.49-.9-1.38-.86-2.94-1.82-4.69-2.55.86-1.42,1.67-2.67,2.3-3.53,1.71-.4,5.04-.61,7.16-.74,7.69-.48,18.21-1.13,21.18-10.83,1.95-6.39.8-14.18-4.67-17.99,3.05-2.85,5.24-6.52,5.34-11.5.12-5.64-2.21-9.22-4.18-11.23-1.67-1.7-4.45-3.67-8.76-4.35.48-1.83.61-3.77.27-5.83-1.35-8.18-9.67-15.09-18.15-15.09-.43,0-.85.02-1.28.05-3.22.27-6.44,1.52-9.53,3.36-.32-1.96-1.04-3.87-2.28-5.67-1.57-2.27-5.32-6.08-12.8-6.08-1.29,0-2.7.11-4.18.33-12.2,1.83-17,11.38-19.17,21.52-.59-3.5-2.51-6.57-5.49-8.75-1.55-1.13-3.32-1.75-5.12-1.89,1.9-6.45,3.11-13.63-.74-19.71-.16-.26-.36-.54-.58-.83.32-3.25-.98-6.52-3.57-8.66-3.09-2.56-6.73-3.92-10.51-3.92-1.53,0-2.97.21-4.32.58-7.79-16.37-28.3-25.75-57.96-25.75-2.93,0-5.87.1-8.73.29-26.32,1.78-41.35,11.75-57.26,22.31-5.17,3.43-10.52,6.98-16.52,10.43-2.59,1.49-4.85,2.25-6.72,2.25-2.28,0-6.05-1.09-12.38-10.55-1.88-2.8-5.01-4.43-8.31-4.43-.6,0-1.21.05-1.81.17-2.45.45-4.59,1.79-6.06,3.67-.92-.57-1.87-1.12-2.83-1.64-1.49-.81-3.13-1.21-4.76-1.21-1.99,0-3.98.59-5.68,1.77-3.1,2.14-4.73,5.83-4.23,9.56.42,3.12,1.07,6.15,1.92,9.08-3.76.39-8.47,1.97-11.53,5.46-2.62,2.98-3.64,6.31-3.69,9.73-3.21-1.16-6.5-1.83-9.53-1.83-9.7,0-16.61,6.49-17.19,16.16-.06.98-.02,1.93.09,2.83-6.52.92-11.44,5.29-13.14,11.86-1.57,6.06.34,10.73,3.54,14.36-1.52.75-2.87,1.73-4.04,2.92-2.02,2.05-4.41,5.7-4.32,11.45.01.7.1,1.4.25,2.08,2.4,10.4,13.65,11.72,21.87,12.68,2.71.32,7.11.83,8.84,1.54.54.75,1.18,1.89,1.82,3.18-2.99.47-5.5,1.85-7.6,3-.45.25-1.1.6-1.47.78-.35-.47-.75-.93-1.19-1.37-2.39-2.4-5.62-3.71-9.08-3.71-5.49,0-10.19,3.15-14.74,6.2-1.35.9-3.38,2.27-4.13,2.57-3.55,1.36-7.16,2.17-10.99,3.02-8.72,1.95-18.6,4.17-28.12,13.25-9.62,9.18-13.96,22.95-11.62,36.84,2.24,13.3,10.14,23.95,21.68,29.21,16.96,7.74,46.5,9.14,70.24,10.28,5.83.28,11.33.54,15.81.87,3.25.24,6.71.98,10.37,1.77,1.28.28,2.58.55,3.89.82-2.43,18.93-7.56,38.09-15.27,57.09-1.83,4.5-.16,9.66,3.95,12.23,3.38,2.12,6.97,2.12,8.16,2.12.69,0,1.4-.03,2.08-.07.3-.02.59-.04.87-.04.07,0,.13,0,.2,0,0,0,0,0,0,0,1.22.02,2.44.03,3.66.03,1.33,0,2.65,0,3.98-.02,1.28,0,2.56-.02,3.83-.02,0,0,1.15,0,1.44,0,0,0,0,0,0,0,9.18.06,19.21.09,30.67.09,10.29,0,20.59-.02,30.88-.04,10.28-.02,20.55-.04,30.83-.04,0,0,4.5,0,4.59,0h2.27s6.65,0,6.72,0h10c.1,0,5.38,0,5.38,0h1.61c.11,0,3.09,0,3.09,0,10.4,0,21,.05,31.25.09,10.28.04,20.91.09,31.37.09,11.71,0,21.95-.06,31.32-.18.26,0,.84,0,1.14,0,.85,0,1.7,0,2.55.02.92,0,1.85.02,2.77.02.8,0,1.6-.01,2.39-.03,0,0,0,0,0,0,.06,0,.12,0,.19,0h.56c.08,0,.16,0,.24,0,0,0,0,0,0,0,.04,0,.09,0,.13,0,.14,0,.28.02.43.04.64.06,1.51.13,2.47.13,5.17,0,8.12-2.36,9.68-4.34,2.11-2.67,2.85-6.19,2.02-9.64-.06-.27-.14-.53-.23-.8-2.49-7.58-5.95-15.11-9.3-22.39-3.98-8.65-7.74-16.82-9.8-24.7-.19-.74-.39-1.46-.58-2.17-.4-1.48-.94-3.48-1.21-4.94.12-.03.24-.06.38-.09,7.69-1.74,19.05-3,31.08-4.33,27.88-3.09,56.71-6.28,71.66-17.16,7.81-5.68,13.01-15.19,14.27-26.07,1.37-11.86-2-23.8-9.01-31.94ZM146.87,92.93c-.76.48-1.43.98-2.02,1.46-.49-2.5-.77-5.76-.94-7.68-.21-2.4-.4-4.66-.8-6.68-.34-1.69-.68-3.36-1.05-5.02,2.12,1.23,4.32,2.31,6.58,3.22-.49,1.94-.54,4.47.73,7.42.46,1.07,1.51,2.68,2.99,4.5-1.88.73-3.73,1.66-5.49,2.78ZM335.24,94.03c-1.24-1.26-2.77-2.63-4.7-3.77.49-.44.89-.85,1.2-1.19,1.9-.9,3.36-1.96,4.45-3.09-.23,2.75-.54,5.84-.96,8.05Z"/>
      <g>
        <path class="cls-26" d="M122.59,298.98c-1.84-.04-4.46.47-5.98-.49,8.99-22.13,15.02-45.65,16.96-69.42-8.25-.41-16.26-3.39-24.48-3.99-21.84-1.61-63.36-1.48-82.63-10.27-18.75-8.56-21.84-35.85-7.31-49.72,11.24-10.72,23.04-9.29,35.78-14.17,6.53-2.49,18.74-15.83,18.71-1.77,3.14-.68,6.79-.76,9.81-1.68,3.75-1.15,10.03-7.13,10.68-.3l8.03-3c2.06-3.31-4.61-18.33-8.02-21.01-6.63-5.23-25.86-2.18-27.35-8.68-.21-13.08,25.28-.83,27.82-3.29-.14-9.96-25.99-12.45-23.32-22.78,3.06-11.81,24.52,2.64,29.79,6.84,3.31,2.63,6.13,6.39,9.51,8.95-1.77-7.62-5.55-13.97-11.5-18.95-4-3.35-14.79-7.79-14.45-13.43.73-12.12,18.13-5.51,22.95.93l12.98,17.47c.08-4.41-.85-9.21-2.04-13.42-1.62-5.72-10.19-18.21-5.95-23.04,1.32-1.5,4.96-2.49,7-2.05,8.03,1.71,12.26,23.02,13.71,30.31,1.28,6.43.19,22.53,8.8,24.18,6.17,1.19,6.26-2.36,10.12-4.82,7.76-4.93,18.56-4.93,19.37,6.34,1.02,14.15-15.36,5.22-22.02,10-7.47,5.37,3.02,15.6-3.02,22.44,10.69-2.78,20.56-8.57,31.83-9.11l4.2-20.24c-9.19-2.54-12.12-9.62-9.06-18.58-3.92,2.19-13.92-8.04-14.98-10.51-1.42-3.31,4,.19,4.71.32,3.74.71,8.19-.6,10.27-3.8-2.53.17-7.97-1.04-8.98-3.52-1.14-2.81,6.88-.94,6.98-3.47-24.81,3.39-43.84-16.9-46.94-39.96,9.08,4.92,17.37,13.73,27.96,14.97l-7.96-6.5c-1.5-2.68-5.28-6.17-4.52-9.46,8.26,12.33,17.76,19.81,32.39,11.4,24.74-14.23,37.75-29.28,69.47-31.42,21.87-1.48,58.92,2.36,59.49,31,4.16-2.87,9.51-9.02,14.97-4.49-5.09.2-9.4,1.78-11.98,6.48,3.42.3,11.85-2.82,14.06.67,4.35,6.87-7.45,24.3-2.92,27.16,4.18.56,8.44.61,11.34-2.83,2.74,1.99,1.47,5.3-.55,7.41-.49.51-1.67.33-1.95.56.17-.11,1.19-3.73.99-3.99-3.09,1.64-6.62.89-9.98,1-.79,4.63,7.29,4.12,8.99,2.99-.91.74-2.75,2-2.99,2.99l7.98-1.98c.58,2.69-2.42,2.55-3.99,3.99-10.62.39-12.67-2.54-13.99-11.99-.08-.55.3-1.43-.12-1.85-.89-.89-9.5-1.57-8.87-6.13,3.08.61,4.98,3.06,8.51,3.02,2.61-.03.99-.81,1.47-2.03.82-2.07,1.41-3.83,2-5.99,1.04-3.81,3.22-7.02,2-11.99-2.49.07-5.02-.17-7.52.03-1.6.13-1.39.96-1.48.97-1.87.24-4.06-.17-5.99,0-2.97-5.24-2.54-4.68-4-10.99-3.76-16.28-17.89-17.8-31.97-19.98-3.18-.49-7.2-1.8-10.5-1.99-27.09-1.52-52.94,10.28-73.42,26.96-11.71,5.78-11.07,10.06-26.97,10.99-2.37.14-4.86.26-6.99-1-5.93-4.2-14.06-7.4-19.49-12.98-.75-.16-.64.96-.48,1.47,4.78,15.22,19.25,29.04,35.47,30.47,1.16.1,5.47.83,5.47-.97l-14.19-4.3-12.77-8.69c5.1,1.03,8.41,5.13,13.29,7.18,8.11,3.4,12,2.89,20.12,3.85,2.08.24,3.5,2.01,5.94,1.92,1.93-.07,5.89-1.73,7.6-2.97,15.67-1.58,29.34-12.87,48.95-13.98,5.23-.3,12.28-.39,17.47.01,9.95.76,25.59,7.22,34.45,1.45,2.47-1.61,1.04-3.97,3.02-4.46,0,10.02,1.8,16.08,10,21.97.83.6,3.03.75,3.01,1.5l-3.01.5-8.99-5.99c.28,9.93,2.58,14.46,12.2,17.25,4.13,1.2,10.82,2.99,14.76.72.99.05,2-.03,3,0-3.65,2.78-4.48,3.76-9.99,3.01,1.97,2.16,3.12,8.33,4.5,9.97,1.15,1.37,5.2,1.35,7.41,2.58,5.27,2.94,7.09,11.68,16.04,4.9,9.01-6.84-.2-43.72,17.57-46.38,19.79-2.97-4.27,24.42,2.93,31.91,4.04-7,16.93-23.08,25.22-23.78,3.56-.3,8.14,3.22,8.72,6.71.91,5.51-11.46,12.73-15.12,16.43-1.42,1.43-12.11,14.88-11.34,15.62l22.75-15.7c5.04-2.17,16.42-5.3,16.24,3.23-.19,9.08-22.75,10.67-25,20.47l23.33-.85c2.22.73,2.05,5.16,1.44,7.16-1.71,5.59-18.57,2.13-24.75,6.22-2.66,1.76-12.28,19-11.58,20.47l7.54,3.97c.3-8.11,6.67-1,11.01.49,2.53.87,5.73,1.12,8.4,1.58,3.24-13.11,11.8-2.47,20.51-.52,18.26,4.1,26.12-.29,40.52,16.42,10.14,11.76,9.19,34.11-3.57,43.4-19.13,13.92-74.13,14.19-99.06,19.82-11.53,2.61-8.53,10.03-6.06,19.48,4.14,15.81,14.13,31.97,19.27,47.67.6,2.5-3.34,1.42-5.01,1.49v-1c-8.45-26.47-22.71-52.52-25.87-80.51-1.58-14.06,2.89-21,6.89-33.36h1c1.72.97,1.07,3.68.77,5.25-1.6,8.48-4.71,13.49-3.65,23.1.2,1.82,1.56,9.28,3.68,4.92,2.02-4.15,2.99-10.63,5.13-14.85.73-1.44.93-2.84,3.05-2.43l-3.99,23.97c2.13,2.15,53.07-5.01,60.19-6.25,10-1.73,36.37-6.38,43.2-12.74,9.13-8.51,8.54-27.4.16-36.59-14.43-15.83-24.1-10.34-41.03-14.41-3.01-.72-8.08-4.97-10.1-4.93-3.33.06-5.47,12.89-6.46,15.99-2.08,6.54-3.66,13.25-5.69,19.78-1.23,3.95-4.19,7.1-4.3,11.18,9.65,2.07,19.6,2.59,29.52,2.05,7.92-.44,17.87-3.43,25.43-3.04,2.02.1,3.53-.88,2.99,1.98-15.42,6.4-35.79,6.13-52.43,4.99-5.52-.38-12.84-2.84-18.5-2.98-1.98-4.19.02-9.84-1.66-13.76-.95-2.22-4.69-1.76-5.24-3.87-.35-1.36,1.11-3.12.76-4.65-.29-1.25-2.44-2.44-3.1-3.94-.82-1.86-.42-4.34-1.25-5.74-.43-.73-12.69-6.16-15.22-7.64-1.37-.8-1.66-2.36-3.26-3.34l-5.62-8.87-29.84-12.12c-1.31.1,2.2,19.16,2.49,20.99,2.17,13.81,4.86,25.06,5,38.95-5.79,5.18-13.17,2.49-18.98,5.53.67,5.65,9.32,9.26,6.48,15.43-.89,1.94-9.46,8.67-11.92,12.07-11.49,15.89-18.88,38.19-29.72,54.18-3.39,4.99-7.31,7.88-10.84,12.14-1.23,1.48-2.33,2.27-1.96,4.53-3.32,0-6.67,0-9.99,0,.02-1.96-1.34-2.78-2.48-4.01-6.5-7.04-13.54-13.97-19.47-21.49-8.48-10.75-14.15-23.47-23.03-33.9-4.38-5.14-23.18-21.15-24.53-25.46-1.76-5.65,8.79-11.38,9.58-17.49-3.34-3.63-17.43-3.77-18.8-8.22-1.75-5.71,6.67-26.32,8.52-33.05,1.84-6.69,1.87-14.02,5.28-20.18-3.65-.44-6.75.38-10.2,1.28-4.09,1.06-30.16,10.45-31.78,12.17-1.81,1.92-2.53,5.45-4.73,7.54-6.06,5.73-16.89,6.37-22.62,9.88-1.11.68-.4,1.36-.59,2.09-.28,1.06.27,2.29-.52,3.94-3.33,7.04-8.93,3.86-10.47,17.04-.38,3.25.98,7.67-2.6,9.89-1.33.82-15.42,3.39-18.2,3.78-10.34,1.46-26.37,2.52-36.67,1.33-2.5-.29-5.38-.83-5.48-4.01,15.53,1.44,31.64-2.63,46.99-4.46,1.29-.9.77-1.43.56-2.57-.68-3.74-4.47-9.59-5.86-14.19-1.31-4.34-3.13-11.39-3.74-15.74-.59-4.24,1.02-9.72-.75-13.74-.46-1.04.13-1.6-1.73-1.26-14.82,12.1-45.55,7.76-52.53,28.41-5.84,17.25,1.07,30.74,18.25,35.83,24.94,7.38,54.55,6.82,80.26,7.65,4.55.15,9.54,1.92,14.44,1.04,3.34-3.22-15.96-19.13-16.97-21.48-1.75-4.08,7.63,2.85,8.46,3.53,2.65,2.16,5.49,6.32,8.01,7.97,3.81,2.49,1.83-3.75,1.22-5.22-2.66-6.42-8.31-12.72-11.71-19.75,4.56-.19,7.43,3.91,9.99,6.99,5.91,7.12,13.22,19.99,13.06,29.46-.15,8.8-5.1,29.28-7.34,38.69-3.03,12.72-7.97,24.94-10.72,37.73ZM257.45,54.26c-14-3.64-28.53-2.03-41.96,3.01l6.5,5.98-1.5-5.98c.67-.7,3.3,1.41,3.99,1.99,2.31,1.95,3.94,6.72,7.99,5.99v-7.99c3.54,2.26,2.01,6.95,1.12,10.41-.83,1.14-4.71.63-6.11.58-1.3-.04-5.11-.66-6.25-1.2-2.88-1.37-4.8-5.26-8.74-5.79-5.35-.71-10.24,3.23-14.49,5.99l.5-2.98-6.02,1.67c-1.84,7.06-.12,14.87-1.06,21.71-.54,3.9-3.87,7.27-3.86,9.93.02,8.18,5.99,15.04,7.95,22.62-.35.04-.73-.08-1,0l-3.64-3.85-5.34-10.12c-.02,20.38-14.78,40.39-3.48,59.97l12.45-2.03c1.25,3.69-2.75,3.61-2.99,3.99-.42-2.01-2.55-.63-3.7-.2-6.11,2.32-15.56,8.68-14.28,16.18,6.46.99,6.31-4.87,8.97-8.5,2.12-2.89,5.97-5.56,9-7.48-.18.28.41,1.78-.28,2.67-1.21,1.57-5.25,3.1-4.34,6.34,1.09,3.92,12.05,13.71,15.69,16.38,14.57,10.68,37.08,15.07,54.11,9.32,19.07-6.44,44.16-22.07,50.74-42.16,6.33-19.3-9.99-49.86-12.02-70.98-.28-2.86.98-6.21.72-7.82-.21-1.31-2.96-4-3.77-6.08-2.44-6.32-2.6-15.03-.95-21.52-2.55.71-4.27,1.46-6.99,1.99-10.44,2.04-16.82-1.28-26.97-2ZM114.6,57.26c-.67,3.2,7.61,19.31,8.74,24.72,1.51,7.28,1.27,14.83,1.25,22.22-.49.2-1.49-.19-2,0-.25-1.52-1.46-2.77-2-4-4.9-11.18-16.89-35.54-31.53-31.01-.56.77-.65,3.06-.44,4.04.69,3.2,7.56,4.68,9.65,6.33,1.74,1.37,9.31,10.54,10.76,12.72,3,4.53,6.45,10.33,3.57,15.91-.31.02-.7.05-1,0-1.35-.23-2.91-1.98-5-2-3.25-4.25-7.76-8.28-12.08-11.4-3.54-2.55-17.9-12.74-20.74-5.91-1.83,4.39,4.38,4.83,6.85,6.32,4.22,2.54,23.77,12.07,15.92,17.42-3.65,2.49-5.08.85-7.93.56-3.84-.39-15.47-3.32-17.49-1.01-1.58,1.59,0,1.47.51,2.01,2.6,2.7,13.89,2.74,18.42,4.06,18.55,5.37,9.74,33.61,31.53,33.91l-4,1.99c-1.02-.52-2.97-.45-4-1-3.62-1.94-6.36-2.74-9.02-6.54-1.31-.65-9.83,3.48-10.47,4.53-2.13,3.47.78,6.52,1.51,9,.3,1.03.09,5.87,1.58,6.02,8.08-2.53,15.84-5.24,23.4-9.02s8.92-4.55,12.99-12.98c2.07-.13,9.05-3.28,10.3-5.28,5.04-8.09-4.91-14.31,3.14-22.73,6.21-6.5,26.93,1.99,20.52-10.94-2.78-5.62-9.36-4.16-13.72-1.24-3.04,2.03-3.33,5.14-8.21,5.79-4.04.54-6.89-2.38-9.04-2.56-5.61-8.16-7.5-47.28-15.97-51.45-1.92-.94-5.48-1.03-6,1.51ZM337.37,139.16c2.64,3.7,4.69,3.79,7,6.48,3.56,4.13,2.19,6.68,7.98,11.5,3.38,2.81,16.68,9.59,20.68,9.83,2.93.18,3.79-5.73,4.29-7.84.47-1.99,2.01-4.15.83-6.84l-8.34-4.17c-4.88,3.53-9.83,8.24-16.46,6.51,2.21-1.87,5.07-1.82,7.7-3.29,13-7.27,9.53-29.23,29.02-31.92,4.4-.61,12.19.89,15.23-2.26.52-.54,2.09-.42.51-2.01-2.94-3.39-18.82,1.26-23.49,1.01-.93-.73-2.54-1.24-2.8-2.61,1.92-11.83,16.92-12.93,24.16-18.49,1.12-.86,1.8-1.25,1.62-2.87-.08-.74-1.29-2.16-2-2.48-8.76-3.97-25.6,13.1-31.97,18.46-1.82-.65-5,1.54-5.03-1.51-.08-6.96,10.8-19.31,16.01-23.98,2.62-2.35,10.96-6.79,11-9.48.16-9.7-10.38-3.21-14.46.02-9.74,7.71-15.28,19.56-21.5,29.94-1.7-1.16,1.07-6.76,1.08-9.49,0-3.55-1.39-6.65-1.06-10.97s2.64-8.19,2.99-12.49c2.56-4.33,7.95-13.81-2.74-9.23-12.19,5.22-5.54,38.68-14.88,46.05-10.38,8.19-15.78-5.1-22.81-5.91-5.57-.65-10.12,2.4-8.33,8.34,1.69,5.6,16.95-.52,22.24,7.74,3.65,5.7-.35,11.29.6,17.38.51,3.26,1.83,3.01,2.94,4.55ZM170.54,88.22c9.79,4.06,19.55-11.99,18.98-20.97l-7.79,3.23c-.62.86.02,2.38-.19,2.76-2.72,4.9-8.25,11.26-13.99,12-.42,2.66,1.48,2.36,3,2.99ZM178.53,71.25c-1.15-1.03-8.46,2.13-7.98,4.98,4.37.55,7.69.03,7.98-4.98ZM187.54,81.23l-3.91,5.63,3.4,5.34c1.56.07,4.52-10.23.51-10.97ZM298.41,88.22c.01,6.64.86,10.38,5,3,1.01-1.81,2.88-2.96,1.94-5.94l-6.93-2.05c-.01,1.66,0,3.33,0,4.99ZM312.4,91.22c-.4-.9-2.36-6.68-3.99-5-.45,4.32-2.87,8.61-6,11.49l6.99.49c-1.34,3.32-5.99,3.14-9,3l1.96,8.58c6.18.9,7.42-5.16,9.72-9.34,1.17-2.14,3.53-.79,2.1-6.57-.39-1.6-1.53-2.07-1.79-2.66ZM180.52,91.22l-4.51.98c-2.82,6.43-1.3,11.6,5.99,13.07l2.37-1.72.15-8.33-5.99.99,1.99-4.98ZM333.38,140.15c-6.31-7.96,5.7-20.17-5.74-23.71-4.14-1.28-8.82-.14-12.66-1.28-4.47-1.33-5.85-4.47-11.51-1.92-.82.95,3.64,15.02,4.97,16.4.94.97,23.89,11.35,24.95,10.5ZM90.62,160.14c-.46-3.73.34-8.15,0-11.99l-16.02,5.65c.75,7.78,1.27,19.83,5.22,26.63,2.13,3.67,4.58.45,6.82-.32,2.58-.89,5.98-1.47,7.88-3.57.36-1.38-3.54-13.67-3.88-16.41ZM381.33,160.14c-1.09,4.09-7.59,15.07-7.84,17.67-.22,2.25,4.22,4.03,5.84,5.31,1.26.99,6.8,6.21,7.99,4.99l9-33.96-13.99-3.99c-.63.64-.62,8.54-1,9.99ZM170.54,168.13c-1.15,4.36-5.39,13.86-3.84,18.32.96,2.76,9.99,4.2,12.83,4.66,2.57,1.57,3.48,1.85,5.99,4,2.7,6.88-10.01,13.81-8.86,18.27.52,1.99,18.28,18.14,21.36,21.67,5.79,6.64,11.23,14.81,16.47,21.99,7.19,9.85,12.15,19.1,20.96,28.52.18.19,4.92,5.11,3.89,2.08-15.96-23.12-20.03-50.69-32.84-75.06l-19.95-29.99c-4.99-2.52-5.04,4.7-10.03,5.53-.47-.24-2.48.27-3.96-.5-4.22-2.2-2.23-7.66-2.04-11.49,2.27-.27,7.87-7.2,8.01-8.52l-4-15.45c-1.24,5.33-2.61,10.69-4.01,15.98ZM277.43,248.04c4.37-7.74,10.98-19.38,16.15-26.3,2.3-3.08,5.44-5.28,7.72-8.37.7-2.74-9.17-13.03-5.45-18.34,2.13-3.04,15.62,3.14,19.05-2.92,1.64-3.31-1.51-19.44-2.51-23.99-.14-.65-.63-5.76-2.01-4.51-2.08,4.14-4.2,8.27-7.01,11.97-8.05,10.63-19.4,15.38-25.14,27.8-13.11,28.39-17.76,58.81-27.76,88.1,1.15.52,2.78-1.72,3.49-2.5,10.64-11.76,15.79-27.37,23.47-40.96ZM91.61,184.11c-7.64,1.31-9.02,5.61-3.48,10.98,3.18.67,3-8.88,3.48-10.98ZM378.34,195.1c2.64.37,4.43-.36,5.97-2.5-.66-1.1-5.12-4.42-5.97-3.49v5.99ZM206.5,205.09c1.85,3.14,3.81,6.49,5.04,9.95,3.79.66,5.77-3.18,7.94-4.95.73-.59,3.79-.72,3.99-2.98-7.17-2.06-14.47-4.48-20.48-9-1.35,2.41,2.46,5.22,3.5,6.99ZM262.45,210.08c1.41.8,6.78,3.83,7.95,2.97.82-3.02,1.9-6.06,3.04-8.96.64-1.64,2.09-3.87,2.99-5.5.22-.68-.82-.68-1.47-.48-1.95.61-16.51,8.48-16.48,9.47.99,1.38,2.61,1.72,3.98,2.5ZM232.48,213.08c9.34,10.73,6.67,19.38,16.98,2,.92-1.56,3.33-2.72,2.99-4.99-8.29.98-15.88-.04-23.97-2-.46,2.69,2.81,3.63,3.99,4.99ZM216.49,223.06c1.86,5.22,4,10.49,5.01,15.98,3.73-3.38,5.61-8.73,7.98-12.98.95-1.7,4.18-4.04,3.79-6.31l-7.44-8.52c-1.2-.23-10.29,5.71-10.89,6.85-1.53,2.89,1.12,3.79,1.55,4.99ZM251.46,224.06c1.19,6.09,3.27,12.64,6.49,17.96,1.11,0,6.82-18.6,7.49-20.96.26-.91,1.9-2.17.88-3.89l-9.39-4.86c-.86.08-6,7.41-6.32,8.54-.63,2.21.74,2.63.85,3.2ZM233.48,227.06c-3.86,5.71-7.51,11.66-9.74,18.31,4.31,16.25,13.81,30.08,21.74,44.61,1.97-1.38,2.81-5.69,3.48-7.99,2.95-10.02,5.17-20.32,7.52-30.49-2.34-6.96-5.47-13.57-8.02-20.45-.46-1.25-.72-2.68-1.01-3.99l-7.35,3.86-4.64-6.86c-1.86.1-1.55,2.34-1.99,2.99Z"/>
        <path class="cls-2" d="M346.36,156.14c1.6.98,1.89,2.54,3.26,3.34,2.53,1.48,14.79,6.91,15.22,7.64.83,1.4.43,3.88,1.25,5.74.66,1.51,2.81,2.69,3.1,3.94.35,1.53-1.11,3.28-.76,4.65.55,2.11,4.29,1.65,5.24,3.87,1.68,3.92-.32,9.57,1.66,13.76-2.12-.05-12.75,2.25-13.99,1,1.02-12.65-.19-18.18-13.98-15.99h-1c1.04-3.22,4.88-13.21,4.93-15.36.03-1.14-.51-4.96-2.45-4.65-2.06.33-4.16,3.04-5.31,4.69-17.76,25.41-15.47,41.01-8.1,69.69,2.63,10.23,5.85,23.04,8.99,32.97,3,9.52,9.16,17.63,10.93,27.52-32.27.42-64.63-.03-96.9,0,3.66-7.06,9.48-13.14,13.88-19.8,8.65-13.08,15.73-27.28,24.27-40.44,3.5-5.38,17.01-20.91,16.74-26.08-.14-2.64-2.63-5.49-1.95-8.56,6.98.28,8.42.82,8.04-6.57-.07-1.28-1.04-2.3-1.05-2.43-.14-13.9-2.83-25.14-5-38.95,10.04-1.85,23.53-5.8,32.97,0Z"/>
        <path class="cls-2" d="M106.6,168.13c8.94-1.14,18.93-7.83,27.55-8.91,3.32-.41,27.25-.16,28.39.92-1.99,9.52-7.2,20.48-8.54,29.91-2.12,14.92,4.67,7.66,13.14,10.94,1.09.42,1.67-.57,1.4,1.58-.79,6.23-12.98,16.75-10.26,23.21,3.93,9.33,25.53,14.21,33.27,21.73,5.49,5.33,9.75,15.09,14.54,21.42,7.12,9.39,15.97,17.42,23.91,26.04,1.13,1.23,2.5,2.05,2.48,4.01-32.28-.02-64.62.21-96.9,0,3.08-12.11,9.61-23.28,11.73-35.71,3.31-19.34,2.21-57.39-7.91-74.49-2.97-5.02-7.99-11.13-13.81-12.65l1.99,16.98c-2.56-3.08-5.43-7.19-9.99-6.99-.18-.37.38-.91-.66-2.05-6.62-7.35-13.47-4.21-9.33,6.04l-11.98-.99c1.54-13.18,7.14-9.99,10.47-17.04.78-1.65.24-2.88.52-3.94Z"/>
        <path class="cls-25" d="M106.6,168.13c.19-.73-.52-1.41.59-2.09,5.73-3.51,16.56-4.15,22.62-9.88,2.2-2.08,2.92-5.62,4.73-7.54,1.63-1.72,27.69-11.11,31.78-12.17,3.45-.9,6.55-1.71,10.2-1.28-3.41,6.16-3.44,13.5-5.28,20.18-1.85,6.73-10.27,27.34-8.52,33.05,1.36,4.45,15.46,4.58,18.8,8.22-.79,6.11-11.34,11.84-9.58,17.49,1.34,4.31,20.15,20.32,24.53,25.46,8.89,10.44,14.55,23.15,23.03,33.9,5.93,7.52,12.98,14.44,19.47,21.49,1.14,1.23,2.5,2.05,2.48,4.01-2.99,0-6,0-8.99,0,.02-1.96-1.34-2.78-2.48-4.01-7.93-8.63-16.79-16.65-23.91-26.04-4.79-6.32-9.06-16.08-14.54-21.42-7.74-7.53-29.34-12.4-33.27-21.73-2.72-6.46,9.48-16.98,10.26-23.21.27-2.15-.3-1.16-1.4-1.58-8.47-3.28-15.25,3.99-13.14-10.94,1.34-9.43,6.55-20.39,8.54-29.91-1.14-1.08-25.08-1.33-28.39-.92-8.63,1.07-18.61,7.77-27.55,8.91Z"/>
        <path class="cls-25" d="M127.58,193.1l-1.99-16.98c5.82,1.52,10.84,7.64,13.81,12.65,10.12,17.1,11.22,55.15,7.91,74.49-2.13,12.43-8.65,23.6-11.73,35.71-4.32-.03-8.67.08-12.99,0,2.74-12.79,7.69-25,10.72-37.73,2.24-9.4,7.2-29.89,7.34-38.69.16-9.47-7.15-22.34-13.06-29.46Z"/>
        <path class="cls-25" d="M355.35,298.98c-1.77-9.89-7.93-18-10.93-27.52-3.13-9.93-6.36-22.73-8.99-32.97-7.37-28.68-9.66-44.29,8.1-69.69,1.15-1.65,3.25-4.35,5.31-4.69,1.94-.31,2.48,3.5,2.45,4.65-.06,2.15-3.89,12.13-4.93,15.36-4,12.36-8.47,19.29-6.89,33.36,3.15,28,17.41,54.05,25.87,80.51l-1,1c-2.99.09-6-.04-8.99,0Z"/>
        <path class="cls-25" d="M318.39,195.1c0,.13.98,1.15,1.05,2.43.38,7.38-1.07,6.85-8.04,6.57-.69,3.07,1.81,5.92,1.95,8.56.27,5.18-13.24,20.7-16.74,26.08-8.54,13.15-15.62,27.35-24.27,40.44-4.41,6.66-10.22,12.74-13.88,19.8-2.33,0-4.66,0-6.99,0-.37-2.27.73-3.05,1.96-4.53,3.53-4.26,7.45-7.15,10.84-12.14,10.84-15.99,18.23-38.29,29.72-54.18,2.46-3.4,11.02-10.13,11.92-12.07,2.84-6.16-5.82-9.78-6.48-15.43,5.8-3.03,13.19-.35,18.98-5.53Z"/>
        <path class="cls-1" d="M311.4,69.24c1.32,9.44,3.37,12.37,13.99,11.99-.66.61-1.01,1.24-2,2-1-.03-2,.05-3,0-6.84-.36-16.92-4.49-17.98-11.99l3.01-.5c.02-.74-2.18-.9-3.01-1.5l.51-2.01,8.48,2.01Z"/>
        <path class="cls-2" d="M365.34,298.98c-.33.02-.67,0-1,0l1-1v1Z"/>
        <path class="cls-3" d="M194.52,79.23c3.48,5.35,6.83,2.82,10.99,4,.81.23.76,1.7,1,2v4c-.59-.25-10.08-2.27-8.98.49,3.6,5.72,6.86,2.68,10.98,2.51,7.06-.29,19.64,1.81,20.98-7.99l4-1c-.48,2.53-.72,6.59-1.67,8.75-.73,1.65-3.07,1.88-4.22,3.84-1.24,2.11-.74,4.69-1.1,5.39-4.08,7.88-7.41,12.22-9.99,19.98-1.17,3.52-3,7.12-3.76,10.73-.21,1-1.12,4.43.75,4.25,2.2-9.8,8.27-16.99,15-23.96,1.06-.4,2.52-1.69,3.47-1.62,1.02.08,2.73,2.23,4.53,1.62-11.12,3.08-21.39,27.71-8.99,35.96.3,2.59.4,3.43,1,5.99.2.86-.25,2.33,0,3-1.14-3.01-9.6-3.43-8.69,4.37s10.47.3,8.69-4.37c1.86,4.83,9.33,9.9,14.53,10.04,10.47.28,16.94-15.39,13.44-24.03.04-.66,0-1.34,0-2,2.52,2.36,2.51-1.09,2.71-2.78.73-6.24-.39-8.81-3.34-14.06-.99-1.76-7.14-10.33-8.36-11.12,6.11-6.21,7.78,8.31,12.99,9.99.74,1.93,2.26,3.62,2.01,5.99,1.87,1.94,1.21-7.25.96-8.29-.15-.62-1.26-.34-1.97-2.7-.37-1.22-.91-1.74-1-2-.11-.3.11-.71,0-1-2.4-6.19-4.85-9.07-6.99-13.98-.32-.74.36-3.05-.51-4.96-1.1-2.4-3.65-3.16-5.48-8.03l2-3c3.99,6.93,23.61,9.25,24.98,0,3.51,2.49,7.63,7.09,11.96,3.43l2.03,1.1c-.8,9.39-7.25,17.43-7.99,26.44-.67,1.06-.94,2.92-2,3.99.83.63,4.18-2.14,4.99-2.99,1.53-.6,3.09-1.06,4.5-1.99,1.12-.74,2.81-4.12,4.01-2.03,3.42,12.6,8.99,26.2,7.54,39.54-.77,7.05-9.69,16.65-17.05,17.42-8.19.85-17.41-6.55-22.54,1.07-5.09-2.34-1.87-2.76-7.43-2.07-.08,0-.57-.9-1.3-.77-1.19.2-7.05,4.54-5.69,5.76l7.99-1.99c.33.66.66,1.34,1,2-13.74,13.94-21.26-5.31-33.47-5.07-3.82.07-6.18,1.6-10.75.84-5.49-.92-17.17-8.07-20.13-12.84-4.66-7.52-3.36-21.19-.55-29.33.64-1.84,3.34-7.02,4.95-7.54.27-.08.65.04,1,0,1.27-.16,6.02.52,6.01-.51-4.9-12.92-7.91-26.53-7.01-40.44ZM202.49,96.22c-10.32,2.92,6.81,19.29,5.84,9.74-.46-4.52-4.88-5.72-5.84-9.74ZM281.36,97.28c-3.8-2.67-14.28,9.77-8.39,13.91,3.04.92,11.65-10.36,8.39-13.91ZM221.23,144.34c-6.72-.12-16.88,4.28-16.59,12.34.44,12.28,10.66-3.88,12.35-5.53.71-.7,11.38-6.68,4.24-6.81ZM260.45,150.15c-.81.74,6.01,15.2,11.05,11.55s-6.3-13.19-11.05-11.55Z"/>
        <path class="cls-25" d="M398.31,165.13c.99-3.1,3.13-15.93,6.46-15.99,2.02-.04,7.08,4.21,10.1,4.93,16.94,4.06,26.6-1.42,41.03,14.41,8.39,9.2,8.97,28.08-.16,36.59-6.83,6.37-33.2,11.01-43.2,12.74-7.12,1.23-58.06,8.4-60.19,6.25l3.99-23.97c-2.13-.41-2.32.99-3.05,2.43-2.14,4.22-3.11,10.7-5.13,14.85-2.12,4.37-3.48-3.09-3.68-4.92-1.06-9.61,2.05-14.62,3.65-23.1.3-1.57.95-4.27-.77-5.25,13.79-2.19,15,3.33,13.98,15.99,1.24,1.24,11.87-1.06,13.99-1,5.66.14,12.98,2.6,18.5,2.98,16.63,1.14,37.01,1.41,52.43-4.99.53-2.86-.97-1.88-2.99-1.98.04-3.83,5.05-2.79,7.49-3.02.88-.09,3.39.65,2.5-1.46-.49-1.14-14.43-17.79-16.03-18.94-6.98-5.02-13.98-2.72-21.41-3.56-5.89-.66-11.66-2.05-17.49-2.99Z"/>
        <path class="cls-13" d="M284.43,56.26c2.72-.53,4.44-1.28,6.99-1.99-1.65,6.49-1.49,15.2.95,21.52.8,2.08,3.55,4.77,3.77,6.08.26,1.62-.99,4.96-.72,7.82,2.04,21.12,18.35,51.68,12.02,70.98-6.58,20.09-31.67,35.72-50.74,42.16-17.03,5.75-39.54,1.36-54.11-9.32-3.64-2.67-14.6-12.46-15.69-16.38-.9-3.24,3.13-4.77,4.34-6.34.69-.89.1-2.39.28-2.67.24-.38,4.24-.3,2.99-3.99l-12.45,2.03c-11.31-19.58,3.46-39.59,3.48-59.97l5.34,10.12,3.64,3.85c-1.62.51-4.32,5.7-4.95,7.54-2.82,8.14-4.11,21.81.55,29.33,2.95,4.77,14.64,11.92,20.13,12.84,4.57.76,6.93-.77,10.75-.84,12.21-.24,19.73,19.02,33.47,5.07.39.77,2.47,1.85,1.54,3.01-6.72,5.38-11.4,8.29-19.86,3.82-3.53-1.87-8.08-7.91-11.37-8.63-5.58-1.23-7.75,2.91-12.76,2.9-3.36,0-5.5-1.84-8.49-3.09-2.59-1.08-5.17-3.1-7.97-3.51,7.91,11.81,17.42,22.17,30.28,28.65,8.14,4.1,9.75,4.51,18.85,2.53,15.63-3.4,30.86-10.87,40.76-23.67l-19.98,3.99c-.17-2.59-3.76-4.89-1.99-7.99,6.72,2.53,14.46,5.67,18.97-2,7.35-.77,16.28-10.37,17.05-17.42,1.45-13.33-4.11-26.94-7.54-39.54-1.21-2.09-2.89,1.29-4.01,2.03-1.41.92-2.96,1.38-4.5,1.99,5.93-6.2,8.74-18.52,8.99-26.96-2.59-.22-1.67-.16-1.96,1.5-2.12,11.78-3.85,14.8-10.02,24.47.74-9.01,7.19-17.04,7.99-26.44l-2.03-1.1c-4.32,3.66-8.45-.94-11.96-3.43.14-.94-.09-2.03,0-3,2.33-.07,4.6,1.32,6.99,1-1.62.81-3.6.71-2.99,2.99,5.34.77,8.59-2.14,10.99-6.5-.2-.96-1.78-.27-2.01-.48-.49-.47,1.41-3.41-4-1l.51-2.98c-1.38.85-3.11,2.4-4.51,2.98-.5-3.27,5.03-2.41,5.99-5.99.69.16,4.01.31,4.01-.51.24-2.66-3.36-5.24-4.01-6.48-.76-1.45-.87-2.4-1-4s.09-3.34,0-4.99Z"/>
        <path class="cls-25" d="M117.59,186.11c3.41,7.03,9.05,13.33,11.71,19.75.61,1.47,2.59,7.71-1.22,5.22-2.53-1.65-5.37-5.82-8.01-7.97-.83-.68-10.21-7.62-8.46-3.53,1.01,2.35,20.31,18.27,16.97,21.48-4.9.89-9.89-.89-14.44-1.04-25.72-.83-55.32-.26-80.26-7.65-17.18-5.09-24.08-18.58-18.25-35.83,6.99-20.65,37.71-16.32,52.53-28.41,1.86-.34,1.27.21,1.73,1.26,1.77,4.02.16,9.49.75,13.74-14.85,3.72-39.18,6.46-50.61,17.33-10.74,10.21,2.15,18.66,12.65,19.63.1,3.18,2.98,3.72,5.48,4.01,10.29,1.19,26.32.13,36.67-1.33,2.77-.39,16.87-2.96,18.2-3.78,3.58-2.22,2.22-6.63,2.6-9.89l11.98.99c-4.14-10.25,2.71-13.39,9.33-6.04,1.04,1.15.48,1.68.66,2.05Z"/>
        <path class="cls-17" d="M265.44,14.31c-.88-.16-6.04-.7-5.99.99l9.98,3c-15.91-.37-32.26.36-47.2,6.25-1.33.53-4.51,1.23-4.74,2.74,21.69-5.47,43.52-9.49,65.92-5.99-.22-1.5-3.42-2.23-4.74-2.74-3.24-1.24-10.11-3.69-13.24-4.25,14.08,2.17,28.2,3.69,31.97,19.98-3.76-2.8-6.5-6.52-10.99-8.49-2.62-1.15-15.09-4.49-17.48-4.49h-15.48c-.22,1.76,2.26.95,3.49,1,2.49.11,5.01-.08,7.5.01l-3.99.99h-4l-3,1c-12.27.68-18.46,1.76-29.97,5.99-6.26,2.3-12.58,5.04-18.65,7.82-1.51.69-4.78,1.65-5.32,3.16,19.39-6.73,37.39-12.58,58.45-10.98l1.48,1.99c-13.01,4.76-27.24,2.9-40.2,7.26-7.35,2.48-16.57,7.18-22.73,11.72,13.49-4.76,24.79-9.99,39.47-10.97,1.62-.11,6.79-.86,7.48.98l-23.97,4.51-19.98,8.48c11.75-2.32,21.32-7.37,33.59-8.85s26.94-2.55,38.84-3.12c4.81-.23,9.67.13,14.47,0l-48.95,7.98c-19.61,1.11-33.28,12.4-48.95,13.98-19.35,1.95-24.6-1.78-39.36-12.13-1.54-1.08-1.47-2.76-1.6-2.85,2.13,1.26,4.63,1.14,6.99,1,12.02,12.9,26.78-4,37.44-11.01,5.06-3.33,10.76-5.64,15.5-9.47-.65-1.32-2.72-.07-3.69.3-6.82,2.66-16.76,6.46-22.28,9.19,20.48-16.68,46.33-28.48,73.42-26.96,3.3.19,7.32,1.5,10.5,1.99ZM195.51,51.27c-1.86-.27-3.46,0-4,1.98,1.86.27,3.46,0,4-1.98ZM190.02,53.26v1c.65-.33.65-.67,0-1Z"/>
        <path class="cls-2" d="M70.64,163.13c.61,4.36,2.42,11.4,3.74,15.74,1.39,4.6,5.17,10.45,5.86,14.19.21,1.14.73,1.67-.56,2.57-15.35,1.83-31.46,5.9-46.99,4.46-10.49-.97-23.38-9.42-12.65-19.63,11.43-10.87,35.76-13.61,50.61-17.33ZM64.65,171.13c-3.3,1.17-5.97-2.11-8.49-2.11-.49,0-8.59,2.32-9.45,2.65-1.73.67-15.79,11.8-14.03,13.43,4.3-1.93,8.69-3.81,13.2-5.28,6.5-2.12,11.75-1.86,17.5-6.42.8-.63,1.84.03,1.27-2.28Z"/>
        <path class="cls-10" d="M357.35,103.2c1.5,1.02,4.52,1.58,6.04.55.82-.56,6.74-14.19,9.41-17.56,4.88-6.14,12.68-11.76,20.51-12.96-.04,2.69-8.38,7.13-11,9.48-5.21,4.66-16.09,17.02-16.01,23.98.03,3.05,3.22.85,5.03,1.51.14.05.59,1.62,1.67,1.89h1.62c9.26-7.36,19.07-14.66,30.68-17.87.19,1.62-.49,2.01-1.62,2.87-7.24,5.55-22.24,6.66-24.16,18.49.26,1.37,1.87,1.88,2.8,2.61.25.2.36,1.19,1,1.49,5,2.33,15.95-4.38,21.97-.49-3.04,3.15-10.82,1.65-15.23,2.26-19.49,2.68-16.01,24.65-29.02,31.92-2.63,1.47-5.49,1.42-7.7,3.29,6.64,1.73,11.59-2.98,16.46-6.51l8.34,4.17c1.18,2.69-.36,4.85-.83,6.84.59-2.71-1.34-1.98-3.13-2.32-6.91-1.3-15-1.5-21.85.32-5.79-4.81-4.43-7.36-7.98-11.5-2.32-2.69-4.36-2.78-7-6.48l8.9,1.91c2.35-7.63,2.39-14.56-.91-21.89,8.11,10.6,4,11.27,6.01,22.5.37,2.06,1.87,2.23,1.98,2.47.5,1.1.57,2.76,1.04,3.97,11.6-1.94,18.39-21.26.96-19.96-.09,1.99.13,4.02,0,6-1.48-3.17-1.27-6.2-2.82-9.66-1.85-4.12-5.64-6.74-8.16-10.32,1.89-.81,4.27-1.94,5-4,2.53,3.16,3.86,6.67,6.97,9.51,1.2,1.1,10.82,7.74,10.03,2.96-.58-3.51-5.88-4.47-8.51-6.48-2-1.54-3.97-3.96-5.5-5.99,2.31-.35,2.97,2.69,4.35,3.6.91.59,8.85,5.01,9.37,5.14,1.67.44,8.14.78,8.23-1.25-2.09-5.39-7.45-4.51-11.53-6.43-3.56-1.67-6.19-6.31-10.43-7.76-2.02-14.07,1.22-21.76,8.01-33.27-.34,4.3-2.66,8.18-2.99,12.49s1.07,7.42,1.06,10.97c0,2.73-2.78,8.33-1.08,9.49Z"/>
        <path class="cls-2" d="M398.31,165.13c5.83.93,11.6,2.33,17.49,2.99,7.44.83,14.43-1.46,21.41,3.56,1.6,1.15,15.54,17.8,16.03,18.94.9,2.11-1.62,1.37-2.5,1.46-2.43.24-7.45-.8-7.49,3.02-7.57-.39-17.51,2.6-25.43,3.04-9.92.55-19.86.03-29.52-2.05.11-4.08,3.07-7.23,4.3-11.18,2.03-6.53,3.61-13.24,5.69-19.78ZM435.27,183.11c.67-8.38-5.68-4.73-9.35-5.27-1.75-.26-3.74-3.47-6.17-3.7-3.38-.32-17.49,4.16-21,5.92-1.52.76-3.44,1.46-3.45,3.54,4.64-.75,5.26,3.33,8.54,3.44,4.76.15,12.69-3.93,15.94-3.93h15.48Z"/>
        <path class="cls-2" d="M176.53,188.1c4.99-.83,5.04-8.05,10.03-5.53l19.95,29.99c12.81,24.37,16.88,51.94,32.84,75.06,1.03,3.03-3.71-1.89-3.89-2.08-8.82-9.42-13.77-18.67-20.96-28.52-3.55-12.13-8.55-23.79-17.97-32.47-3.11-2.87-10.37-6.41-11.59-10.44-1.63-5.38,6.18-14.19,2.32-18.78-.44-.52-1.57-.1-1.72-.23-2.51-2.14-3.43-2.43-5.99-4-.69-.42-1.85-2.4-3-3Z"/>
        <path class="cls-8" d="M233.48,227.06c1.43,7.23-1.47,16.18,4.97,21.5,1.18.98,6.67,4.86,7.01.99-4.21-3.66-6.96-6.84-6.05-12.89l9.05-5.6c2.55,6.88,5.68,13.49,8.02,20.45-2.36,10.17-4.58,20.48-7.52,30.49-.68,2.29-1.52,6.6-3.48,7.99-7.93-14.53-17.43-28.37-21.74-44.61,2.23-6.64,5.87-12.6,9.74-18.31Z"/>
        <path class="cls-19" d="M360.35,70.24c-6.79,11.5-10.03,19.19-8.01,33.27,4.24,1.45,6.87,6.09,10.43,7.76,4.08,1.92,9.44,1.03,11.53,6.43-.09,2.03-6.56,1.69-8.23,1.25-.52-.14-8.46-4.55-9.37-5.14-1.39-.91-2.04-3.95-4.35-3.6-1.12-1.49-.22-3.72-2.99-3-.19.9.24,2.3,0,3-.73,2.06-3.11,3.19-5,4-.53.22-2.03-.51-1.99.49,1.16,1.38,1.9,3.08,2.99,4.5,3.3,7.33,3.26,14.26.91,21.89l-8.9-1.91c-1.11-1.55-2.43-1.29-2.94-4.55-.95-6.09,3.05-11.68-.6-17.38-5.29-8.26-20.56-2.14-22.24-7.74-1.79-5.95,2.76-8.99,8.33-8.34,7.03.82,12.44,14.1,22.81,5.91,9.34-7.37,2.69-40.82,14.88-46.05,10.7-4.58,5.3,4.9,2.74,9.23Z"/>
        <path class="cls-10" d="M106.6,106.2c2.09.02,3.64,1.77,5,2-1.1,3.19-11.53,3.38-11.01,6.46s6.52,8.94,8.2,12.83c3.21,7.46-.52,11.86,8.07,16.9.81.47,2.93,1.69,2.72-.23-7.46-1.26,3.96-17.31,2-19.99l-4.34,1.75c-2.98-.08-2.49-2.6-2.64-2.75,5.91-1.21,14.06-8.42,15.98-13.98,1.68-.57,4.32-2.13,5.99-2,2.15.18,5,3.09,9.04,2.56,4.88-.65,5.16-3.76,8.21-5.79,4.37-2.92,10.94-4.38,13.72,1.24-9.61-5.03-13.23,4.1-19.74,6.73-3.95,1.59-7.15.95-11.23,3.26-.57-2.02-3.07-.07-3.94.56-6.45,4.73-12.54,16.93-11.04,24.9.32,1.71,1.06,2.81,2.98,2.5-.3-5.95,1.19-13.34,3.8-18.72.67-1.39,1.89-1.77,2.2-2.25l-2.06,20.4c.06.32,4.79,1.59,5.06,1.58-4.07,8.44-5.21,9.09-12.99,12.98-1.05-.45-2.44-2.71-3-3l4-1.99c-21.79-.3-12.98-28.54-31.53-33.91-4.53-1.31-15.82-1.35-18.42-4.06,5.42-.57,12.13,1.26,16.98-1,2.84.29,4.28,1.92,7.93-.56,7.85-5.34-11.71-14.88-15.92-17.42,8.23-3.18,17.15,10.88,20.71,11.84,2.11.57,3.76-.87,5.27-.86Z"/>
        <path class="cls-3" d="M136.57,107.2c-1.68-.14-4.31,1.43-5.99,2,.18-.53.53-3.42-.99-2.99-3.27,6.49-10.82,12.49-17.99,13.99-.76,2.8,2.39,2.4,2.99,2.99.15.15-.33,2.67,2.64,2.75l4.34-1.75c1.96,2.68-9.46,18.73-2,19.99.21,1.92-1.92.7-2.72.23-8.59-5.05-4.86-9.44-8.07-16.9-1.68-3.89-7.64-9.61-8.2-12.83s9.91-3.27,11.01-6.46c.3.05.69.02,1,0,3.07-.21,7.08-2.9,9.99-4,.51-.19,1.51.2,2,0,.9-.36,2.83-.82,3.03-1.67-.78-6.4,1.53-12.17.7-18.55-1.11-8.54-7.49-20.81-13.72-26.72.53-2.54,4.09-2.45,6-1.51,8.47,4.17,10.37,43.29,15.97,51.45Z"/>
        <path class="cls-3" d="M167.54,105.2c6.4,12.94-14.31,4.44-20.52,10.94-8.05,8.43,1.9,14.65-3.14,22.73-1.24,2-8.23,5.15-10.3,5.28-.26.02-5-1.26-5.06-1.58l2.06-20.4c1.89-2.91,2.32-4.91,5.99-6.99,4.08-2.31,7.28-1.66,11.23-3.26,6.51-2.63,10.13-11.77,19.74-6.73Z"/>
        <path class="cls-15" d="M333.38,140.15c-1.06.85-24.01-9.53-24.95-10.5-1.33-1.38-5.78-15.45-4.97-16.4,5.66-2.55,7.04.59,11.51,1.92,3.84,1.14,8.52,0,12.66,1.28,11.44,3.54-.57,15.75,5.74,23.71Z"/>
        <path class="cls-10" d="M257.45,54.26c-4,2.53-12.55.26-14.99,4-1.22,1.88-.38,6.93.9,8.59.78,1.01,5.4,2.01,7.09,2.4v10.99l-2.04.58c.79,1.07.68,3.8,1.04,4.42l-2,3c-.82-2.17-1.19-3.73-1.46-6.03l-2.53.04c-1.34-5.91-5.29-17.74-8.99-5.99-1.03,3.28-.51,4.41-1,6.99l-4,1c.33-2.44.68-7.14-2-7.99.1-.63-.08-1.35,0-2s0-1.35,0-2v-4c1.39.05,5.28.55,6.11-.58.89-3.45,2.42-8.15-1.11-10.41-2.97-1.9-6.07-1.12-7.99,2-.69-.58-3.32-2.69-3.99-1.99l1.5,5.98-6.5-5.98c13.42-5.04,27.96-6.64,41.96-3.01Z"/>
        <path class="cls-4" d="M277.43,248.04c.63-5.56,2.36-11.95,4.32-17.15s10.97-18.58,11.51-21.54c.86-4.7-4.32-9.12-2.4-15.29s14.24-4.69,19.54-4.94l1.99-20.98c1,4.55,4.15,20.67,2.51,23.99-3.44,6.06-16.92-.12-19.05,2.92-3.72,5.31,6.15,15.6,5.45,18.34-2.28,3.09-5.42,5.29-7.72,8.37-5.17,6.92-11.78,18.55-16.15,26.3Z"/>
        <path class="cls-22" d="M227.48,68.24v4c-5.61-3.19-13.95-2.97-16.99,3.49,2.69.67,4.41-2.3,7.58-2.42,2.73-.11,6.27,1.74,9.41.93-.08.65.1,1.36,0,2-.16,1.07-2.21,8.83-2.6,9.1l-15.74,3.97c-1.05-1.35-1.48-2.6-2.64-4.08-.23-.3-.19-1.77-1-2,.43-.93.9-1.97,1-3,.36-3.89-.49-7.66-2.61-10.96l2.61-3.03c.32.01.8.08,1,0h2s0-2,0-2c1.2-.89,2.44-1.4,3-3,3.93.52,5.85,4.42,8.74,5.79,1.14.54,4.95,1.16,6.25,1.2Z"/>
        <path class="cls-25" d="M346.36,156.14c-9.44-5.8-22.92-1.85-32.97,0-.29-1.83-3.79-20.88-2.49-20.99l29.84,12.12,5.62,8.87Z"/>
        <path class="cls-24" d="M147.56,49.27c.13.09.06,1.77,1.6,2.85,14.76,10.35,20.01,14.08,39.36,12.13-1.7,1.24-5.66,2.9-7.6,2.97-2.45.09-3.86-1.68-5.94-1.92-8.12-.95-12.02-.44-20.12-3.85-4.88-2.05-8.19-6.15-13.29-7.18l12.77,8.69,14.19,4.3c0,1.8-4.32,1.07-5.47.97-16.21-1.42-30.69-15.25-35.47-30.47-.16-.51-.27-1.63.48-1.47,5.43,5.58,13.55,8.78,19.49,12.98Z"/>
        <path class="cls-4" d="M185.52,195.1c.15.13,1.29-.29,1.72.23,3.86,4.59-3.94,13.4-2.32,18.78,1.22,4.03,8.48,7.58,11.59,10.44,9.42,8.68,14.42,20.34,17.97,32.47-5.24-7.18-10.68-15.35-16.47-21.99-3.08-3.53-20.84-19.67-21.36-21.67-1.16-4.46,11.56-11.39,8.86-18.27Z"/>
        <path class="cls-13" d="M212.5,61.25c-.55,1.59-1.8,2.11-3,3-.92.68-1.87,1.95-2,2-.2.08-.67.01-1,0-1.04-.04-3.48-1.38-3.99-1,.28,1.14-1,3.36-1.01,4l-2.99-.99c.31,2.11,1.09,3.75,1,5.99l-3.51-5.98h-1.48s0,4.98,0,4.98c-3.82-.55-1.31,3.98,0,5.99-.9,13.91,2.11,27.52,7.01,40.44.01,1.04-4.74.35-6.01.51-1.96-7.58-7.93-14.44-7.95-22.62,0-2.66,3.33-6.03,3.86-9.93.94-6.83-.78-14.65,1.06-21.71l6.02-1.67-.5,2.98c4.25-2.75,9.14-6.7,14.49-5.99Z"/>
        <path class="cls-14" d="M90.62,160.14l-8.08,2.59,4.08,17.39c-2.24.77-4.69,3.99-6.82.32-3.95-6.8-4.47-18.85-5.22-26.63l16.02-5.65c.35,3.83-.45,8.26,0,11.99Z"/>
        <path class="cls-14" d="M381.33,160.14c.38-1.44.37-9.35,1-9.99l13.99,3.99-9,33.96c-1.19,1.21-6.73-4-7.99-4.99,4.79-3.55,9.76-14.85,10.01-20.47.13-2.87-5.99-.93-8.02-2.5Z"/>
        <path class="cls-16" d="M181.53,39.28c5.52-2.73,15.46-6.53,22.28-9.19.97-.38,3.04-1.62,3.69-.3-4.74,3.83-10.44,6.15-15.5,9.47-10.66,7.01-25.42,23.91-37.44,11.01,15.9-.93,15.26-5.21,26.97-10.99Z"/>
        <path class="cls-3" d="M120.59,100.21l-4.03,2.59c-4.48-13.11-14.6-24.98-27.94-29.56-.21-.98-.13-3.27.44-4.04,14.64-4.53,26.63,19.83,31.53,31.01Z"/>
        <path class="cls-19" d="M393.32,73.24c-7.83,1.2-15.63,6.82-20.51,12.96-2.68,3.37-8.59,17-9.41,17.56-1.52,1.03-4.55.47-6.04-.55,6.22-10.39,11.76-22.23,21.5-29.94,4.08-3.23,14.62-9.72,14.46-.02Z"/>
        <path class="cls-19" d="M284.43,56.26c.09,1.65-.14,3.35,0,4.99-2.25-4.15-6.27-3.19-10.36-2.86-6.58.52-13.68,2.25-18.6,6.86l2.98-5.5c-6.97-1.12-2.3,6.68-9.46,6.54-5.49-.11-5.3-3.6-6.52-8.03,2.43-3.74,10.98-1.46,14.99-4,10.15.71,16.54,4.04,26.97,2Z"/>
        <path class="cls-15" d="M381.33,160.14c2.02,1.58,8.15-.36,8.02,2.5-.25,5.62-5.22,16.92-10.01,20.47-1.62-1.28-6.06-3.06-5.84-5.31.25-2.59,6.75-13.58,7.84-17.67Z"/>
        <path class="cls-15" d="M265.44,221.07c-.67,2.36-6.38,20.96-7.49,20.96-3.23-5.31-5.31-11.87-6.49-17.96l5.67-6.89c2.33-.76,7.4,1.28,8.32,3.89Z"/>
        <path class="cls-19" d="M106.6,106.2c-1.51-.01-3.16,1.43-5.27.86-3.55-.96-12.47-15.02-20.71-11.84-2.47-1.49-8.67-1.93-6.85-6.32,2.84-6.83,17.21,3.36,20.74,5.91,4.32,3.11,8.82,7.15,12.08,11.4Z"/>
        <path class="cls-21" d="M233.48,227.06c.44-.65.13-2.9,1.99-2.99l4.64,6.86,7.35-3.86c.29,1.31.55,2.74,1.01,3.99l-9.05,5.6c-.91,6.05,1.84,9.23,6.05,12.89-.34,3.88-5.83,0-7.01-.99-6.44-5.32-3.54-14.27-4.97-21.5Z"/>
        <path class="cls-10" d="M114.6,57.26c6.23,5.91,12.61,18.18,13.72,26.72.83,6.39-1.48,12.15-.7,18.55-.2.85-2.13,1.31-3.03,1.67.02-7.39.26-14.94-1.25-22.22-1.12-5.42-9.4-21.52-8.74-24.72Z"/>
        <path class="cls-3" d="M352.36,157.14c6.85-1.82,14.94-1.62,21.85-.32,1.78.34,3.71-.39,3.13,2.32-.5,2.11-1.36,8.01-4.29,7.84-4-.24-17.31-7.03-20.68-9.83Z"/>
        <path class="cls-19" d="M405.3,92.22c-11.61,3.21-21.42,10.51-30.68,17.87h-1.62c-1.08-.26-1.53-1.83-1.67-1.88,6.37-5.36,23.21-22.44,31.97-18.46.7.32,1.91,1.74,2,2.48Z"/>
        <path class="cls-15" d="M90.62,160.14c.34,2.74,4.24,15.03,3.88,16.41-1.9,2.1-5.3,2.68-7.88,3.57l-4.08-17.39,8.08-2.59Z"/>
        <path class="cls-15" d="M229.48,226.06c-2.37,4.25-4.26,9.6-7.98,12.98-1.01-5.49-3.15-10.76-5.01-15.98,6.93-6.08,9.91-7.68,12.99,3Z"/>
        <path class="cls-13" d="M113.6,153.15l-17.98,6.99c-.73-2.48-3.64-5.53-1.51-9,.65-1.06,9.17-5.18,10.47-4.53,2.66,3.8,5.4,4.61,9.02,6.54Z"/>
        <path class="cls-19" d="M117.59,154.14c.56.29,1.95,2.55,3,3-7.55,3.78-15.32,6.5-23.4,9.02-1.49-.15-1.27-4.99-1.58-6.02l17.98-6.99c1.02.55,2.98.48,4,1Z"/>
        <path class="cls-1" d="M307.4,45.27c6.08,2.17,3.38,6.86,6.99,10.99-.59,2.16-1.18,3.92-2,5.99-6.48-2.75-10.12-7.23-12.98-13.49l2.97.02c-1.32-.77-.67-2.97-.98-3.51,1.94-.17,4.12.24,5.99,0Z"/>
        <path class="cls-24" d="M302.41,71.24c1.06,7.5,11.14,11.63,17.98,11.99-3.94,2.27-10.64.48-14.76-.72-9.62-2.8-11.92-7.32-12.2-17.25l8.99,5.99Z"/>
        <path class="cls-14" d="M229.48,226.06c-3.08-10.67-6.06-9.07-12.99-3-.43-1.2-3.08-2.1-1.55-4.99.6-1.14,9.7-7.08,10.89-6.85l7.44,8.52c.39,2.27-2.85,4.61-3.79,6.31Z"/>
        <path class="cls-16" d="M181.53,73.24c.21-.38-.43-1.91.19-2.76l7.79-3.23c.57,8.98-9.18,25.03-18.98,20.97,6.1-1.37,12.65-8.44,10.99-14.98Z"/>
        <path class="cls-19" d="M312.4,91.22c.26.59,1.4,1.06,1.79,2.66,1.42,5.78-.93,4.43-2.1,6.57-2.3,4.19-3.54,10.24-9.72,9.34l-1.96-8.58c3.01.14,7.65.32,9-3,.8-1.97,0-5.91,3-6.99Z"/>
        <path class="cls-8" d="M249.46,215.07c-10.31,17.38-7.64,8.73-16.98-2l16.98,2Z"/>
        <path class="cls-25" d="M170.54,176.12c.14-2.65-.09-5.34,0-7.99,1.4-5.29,2.77-10.65,4.01-15.98l4,15.45c-.14,1.32-5.74,8.25-8.01,8.52Z"/>
        <path class="cls-10" d="M88.62,73.24c13.34,4.57,23.45,16.45,27.94,29.56l4.03-2.59c.54,1.22,1.75,2.47,2,4-2.91,1.1-6.92,3.79-9.99,4,2.88-5.58-.57-11.38-3.57-15.91-1.44-2.18-9.02-11.35-10.76-12.72-2.1-1.65-8.96-3.13-9.65-6.33Z"/>
        <path class="cls-19" d="M180.52,91.22l-1.99,4.98,5.99-.99-.15,8.33-2.37,1.72c-7.29-1.48-8.81-6.65-5.99-13.07l4.51-.98Z"/>
        <path class="cls-22" d="M191.52,168.13c-3.03,1.91-6.89,4.59-9,7.48-2.66,3.63-2.51,9.48-8.97,8.5-1.28-7.49,8.17-13.86,14.28-16.18,1.15-.43,3.27-1.81,3.7.2Z"/>
        <path class="cls-21" d="M232.48,213.08c-1.18-1.36-4.45-2.3-3.99-4.99,8.08,1.96,15.67,2.98,23.97,2,.34,2.27-2.07,3.43-2.99,4.99l-16.98-2Z"/>
        <path class="cls-14" d="M206.5,205.09c-1.05-1.77-4.85-4.57-3.5-6.99,6.02,4.51,13.31,6.94,20.48,9-.21,2.26-3.26,2.39-3.99,2.98l-12.99-4.99Z"/>
        <path class="cls-4" d="M170.54,176.12c-.2,3.83-2.19,9.29,2.04,11.49,1.48.77,3.49.26,3.96.5,1.15.59,2.31,2.57,3,3-2.84-.46-11.87-1.89-12.83-4.66-1.55-4.46,2.69-13.96,3.84-18.32-.09,2.65.14,5.34,0,7.99Z"/>
        <path class="cls-1" d="M170.54,88.22c-1.52-.63-3.42-.33-3-2.99,5.73-.74,11.27-7.1,13.99-12,1.67,6.54-4.89,13.62-10.99,14.98Z"/>
        <path class="cls-14" d="M251.46,224.06c-.11-.57-1.47-.99-.85-3.2.32-1.13,5.46-8.47,6.32-8.54l9.39,4.86c1.02,1.72-.62,2.98-.88,3.89-.91-2.61-5.99-4.65-8.32-3.89l-5.67,6.89Z"/>
        <path class="cls-15" d="M262.45,210.08l8.5-6.99,2.49.99c-1.14,2.9-2.21,5.95-3.04,8.96-1.18.86-6.54-2.17-7.95-2.97Z"/>
        <path class="cls-15" d="M219.49,210.08c-2.18,1.77-4.15,5.61-7.94,4.95-1.23-3.46-3.19-6.81-5.04-9.95l12.99,4.99Z"/>
        <path class="cls-14" d="M262.45,210.08c-1.36-.77-2.98-1.11-3.98-2.5-.03-.99,14.54-8.86,16.48-9.47.65-.21,1.69-.2,1.47.48-.91,1.63-2.35,3.86-2.99,5.5l-2.49-.99-8.5,6.99Z"/>
        <path class="cls-22" d="M307.4,45.27c.09-.01-.12-.84,1.48-.97,2.5-.21,5.03.04,7.52-.03,1.21,4.98-.97,8.18-2,11.99-3.62-4.12-.91-8.82-6.99-10.99Z"/>
        <path class="cls-19" d="M232.48,57.26v7.99c-4.05.73-5.68-4.03-7.99-5.99,1.92-3.11,5.02-3.9,7.99-2Z"/>
        <path class="cls-24" d="M309.4,98.21l-6.99-.49c3.13-2.88,5.55-7.18,6-11.49,1.63-1.68,3.59,4.1,3.99,5-2.99,1.08-2.2,5.02-3,6.99Z"/>
        <path class="cls-25" d="M91.61,184.11c-.48,2.09-.29,11.65-3.48,10.98-5.54-5.37-4.16-9.66,3.48-10.98Z"/>
        <path class="cls-19" d="M405.3,117.19c-6.02-3.89-16.98,2.82-21.97.49-.65-.3-.75-1.29-1-1.49,4.67.25,20.55-4.4,23.49-1.01,1.58,1.59.01,1.47-.51,2.01Z"/>
        <path class="cls-19" d="M88.62,113.19c-4.86,2.26-11.56.43-16.98,1-.52-.54-2.09-.42-.51-2.01,2.02-2.31,13.66.62,17.49,1.01Z"/>
        <path class="cls-24" d="M187.54,81.23c4.01.74,1.04,11.04-.51,10.97l-3.4-5.34,3.91-5.63Z"/>
        <path class="cls-10" d="M298.41,88.22c0-1.66,0-3.33,0-4.99l6.93,2.05c.94,2.97-.93,4.13-1.94,5.94-.86-2-2.98-2.74-5-3Z"/>
        <path class="cls-10" d="M324.39,76.23c-1.7,1.12-9.77,1.64-8.99-2.99,3.36-.12,6.88.63,9.98-1,.2.26-.82,3.88-.99,3.99Z"/>
        <path class="cls-24" d="M178.53,71.25c-.29,5.01-3.61,5.54-7.98,4.98-.48-2.86,6.83-6.01,7.98-4.98Z"/>
        <path class="cls-1" d="M303.41,91.22c-4.13,7.39-4.98,3.64-5-3,2.02.26,4.13,1,5,3Z"/>
        <path class="cls-25" d="M378.34,195.1v-5.99c.85-.93,5.31,2.39,5.97,3.49-1.54,2.14-3.33,2.87-5.97,2.5Z"/>
        <path class="cls-2" d="M312.4,168.13l-1.99,20.98c-5.3.25-17.55-1.42-19.54,4.94s3.26,10.59,2.4,15.29c-.54,2.95-9.47,16.13-11.51,21.54s-3.69,11.59-4.32,17.15c-7.68,13.6-12.82,29.21-23.47,40.96-.7.78-2.34,3.02-3.49,2.5,10-29.29,14.65-59.7,27.76-88.1,5.74-12.42,17.09-17.17,25.14-27.8,2.81-3.71,4.93-7.84,7.01-11.97,1.38-1.25,1.86,3.86,2.01,4.51Z"/>
        <path class="cls-11" d="M282.43,170.13c-4.51,7.67-12.25,4.53-18.97,2-1.77,3.09,1.82,5.4,1.99,7.99.3,4.49-4.07,12.38-8.99,6.99.46-1.3-.32-4.34,0-5.99-6.8,5.82-10.35,9.14-19.29,4.82-3.98-1.92-10.34-8.49-13.64-9.39-2.24-.61-4.65,1.34-7.02,1.58-4.68.46-11.78-.52-12.99-5.99,2.99,1.25,5.13,3.08,8.49,3.09,5.01.01,7.18-4.13,12.76-2.9,3.29.73,7.85,6.77,11.37,8.63,8.46,4.47,13.14,1.56,19.86-3.82.93-1.16-1.15-2.24-1.54-3.01-.33-.66-.67-1.34-1-2-.48-.97-.93-1.89-1-3,5.56-.69,2.35-.27,7.43,2.07,5.12-7.62,14.35-.22,22.54-1.07ZM271.94,170.13v1c.65-.33.65-.67,0-1ZM257.46,173.12c1.32,2.41.73,12.9,3.49,12.96,3.67-4.15.95-10.7-3.49-12.96Z"/>
        <path class="cls-7" d="M238.47,112.19c1.49-.17,4.57-.22,5.99,0,.28.04,2.86.91,3,1,1.21.8,7.36,9.36,8.36,11.12,2.96,5.25,4.07,7.83,3.34,14.06-.2,1.69-.19,5.14-2.71,2.78,0-10.8-5.95-21.25-18.26-18.75-13.44,2.72-11.91,15.5-10.71,25.74-12.39-8.25-2.13-32.87,8.99-35.96.52-.14,1.35.08,2,0Z"/>
        <path class="cls-23" d="M256.45,141.16c0,.66.04,1.34,0,2-1.34,19.65-14.28,26.56-27.97,10.99-.6-2.56-.7-3.41-1-5.99-1.2-10.24-2.72-23.02,10.71-25.74,12.31-2.5,18.25,7.95,18.26,18.75ZM229.48,139.16c-.05,5.76,2.07,18.25,8.7,19.76,14.6,3.33,16.51-12.18,14.28-22.76-1.32-6.28-3.63-10.76-10.98-10.99-.24,5.73,1.66,10.39.74,16.24-.14.89-.42,3-1.73,2.73l-2.5-18.97c-5.55,3.07-8.45,7.52-8.5,13.98Z"/>
        <path class="cls-11" d="M229.48,100.21l1.03,1.45c5.8.22,6.39,6.64,12.41,5.55,3.46-.63,7.79-6.05,8.5-9.43-.36-.91-1.22-1.12-1.96-1.57-.51-.31-1.62-.15-2.53-.92-4.14-3.53-2.59-9.19-3.46-13.06l2.53-.04c.27,2.31.65,3.87,1.46,6.03,1.83,4.86,4.38,5.63,5.48,8.03.88,1.91.19,4.22.51,4.96.13,3.8-3.85,3.31-5.43,5.05-.99,1.09-1.76,4.63-3.56,5.94-1.42-.22-4.5-.17-5.99,0-2.3-1.03-3.59-4.33-5.07-5.42-2.18-1.61-6.8-1.21-6.92-5.56.36-.7-.14-3.28,1.1-5.39,1.15-1.96,3.49-2.19,4.22-3.84.95-2.15,1.18-6.21,1.67-8.75.49-2.58-.04-3.71,1-6.99,2.21,8.75.59,16.97-5,23.97Z"/>
        <path class="cls-10" d="M228.48,157.14c-.25-.66.2-2.14,0-3,13.69,15.58,26.63,8.67,27.97-10.99,3.5,8.64-2.97,24.31-13.44,24.03-5.2-.14-12.67-5.21-14.53-10.04Z"/>
        <path class="cls-10" d="M238.47,112.19c-.65.08-1.48-.14-2,0-1.8.61-3.51-1.54-4.53-1.62-.95-.07-2.4,1.22-3.47,1.62-.93.35-1.88-.09-3.52.94-2.72,1.71-5.21,6.49-8.47,8.05,2.58-7.76,5.91-12.09,9.99-19.98.12,4.36,4.74,3.96,6.92,5.56,1.48,1.09,2.77,4.39,5.07,5.42Z"/>
        <path class="cls-23" d="M229.48,84.23c-1.34,9.8-13.92,7.7-20.98,7.99-.38-.88-1.18-2.65-2-3v-4c1.16,1.48,1.59,2.73,2.64,4.08l15.74-3.97c.39-.27,2.44-8.03,2.6-9.1,2.68.85,2.33,5.55,2,7.99Z"/>
        <path class="cls-10" d="M260.45,115.19l-7-6.48c2.77,5.31,4.85,8.89,7,14.47-5.2-1.67-6.88-16.2-12.99-9.99-.13-.09-2.71-.95-3-1,1.8-1.3,2.57-4.85,3.56-5.94,1.58-1.74,5.56-1.25,5.43-5.05,2.14,4.92,4.59,7.8,6.99,13.98Z"/>
        <path class="cls-20" d="M250.46,80.23c2.48,6.77,12.05,8.62,18.28,6.79,2.38-.7,3.29-4.22,4.7-4.79.21-.09.65,0,1,0-.09.97.14,2.06,0,3-1.37,9.25-20.99,6.93-24.98,0-.36-.62-.25-3.35-1.04-4.42l2.04-.58Z"/>
        <path class="cls-20" d="M221.23,144.34c7.15.13-3.52,6.11-4.24,6.81-1.69,1.65-11.91,17.81-12.35,5.53-.29-8.07,9.87-12.46,16.59-12.34ZM218.49,147.16c-6.6.41-12.01,3.73-10.98,10.98l10.98-10.98Z"/>
        <path class="cls-6" d="M201.51,69.24c-.07,4,3.47,7.15,5,10.99-.09,1.03-.57,2.07-1,3-4.16-1.18-7.5,1.35-10.99-4-1.31-2.01-3.82-6.55,0-5.99l2.51,4.99h1.47c.03-1.34.95-2.7,1.01-3.99.1-2.24-.68-3.88-1-5.99l2.99.99Z"/>
        <path class="cls-7" d="M281.36,97.28c3.25,3.54-5.35,14.83-8.39,13.91-5.89-4.13,4.59-16.58,8.39-13.91Z"/>
        <path class="cls-20" d="M260.45,150.15c4.75-1.63,16.24,7.8,11.05,11.55s-11.86-10.81-11.05-11.55Z"/>
        <path class="cls-6" d="M280.43,116.19c6.17-9.67,7.9-12.68,10.02-24.47.3-1.65-.62-1.71,1.96-1.5-.24,8.45-3.06,20.77-8.99,26.96-.81.85-4.17,3.62-4.99,2.99,1.06-1.06,1.32-2.93,2-3.99Z"/>
        <path class="cls-7" d="M202.49,96.22c.96,4.02,5.37,5.22,5.84,9.74.98,9.55-16.16-6.82-5.84-9.74Z"/>
        <path class="cls-23" d="M228.48,157.14c1.78,4.68-7.81,11.94-8.69,4.37s7.55-7.38,8.69-4.37Z"/>
        <path class="cls-20" d="M228.48,112.19c-6.72,6.97-12.8,14.16-15,23.96-1.87.18-.96-3.24-.75-4.25.76-3.61,2.59-7.21,3.76-10.73,3.26-1.56,5.75-6.34,8.47-8.05,1.64-1.03,2.58-.59,3.52-.94Z"/>
        <path class="cls-11" d="M260.45,115.19c.11.29-.11.7,0,1l1,2c.7,2.36,1.81,2.08,1.97,2.7.25,1.04.91,10.23-.96,8.29.25-2.37-1.27-4.06-2.01-5.99-2.15-5.59-4.23-9.17-7-14.47l7,6.48Z"/>
        <path class="cls-10" d="M206.5,89.22c.82.35,1.62,2.12,2,3-4.12.17-7.38,3.21-10.98-2.51-1.1-2.75,8.39-.73,8.98-.49Z"/>
        <path class="cls-7" d="M252.46,169.13c.07,1.11.52,2.03,1,3l-7.99,1.99c-1.36-1.23,4.49-5.56,5.69-5.76.73-.12,1.23.78,1.3.77Z"/>
        <path class="cls-10" d="M261.45,118.19l-1-2c.09.26.63.77,1,2Z"/>
        <path class="cls-3" d="M203.51,172.12c1.2,5.48,8.31,6.45,12.99,5.99,8.32,8.42,19.68,16.34,32.24,13.75,1.43-.3,7.43-3.94,7.72-4.76,4.92,5.38,9.29-2.5,8.99-6.99l19.98-3.99c-9.9,12.8-25.12,20.27-40.76,23.67-9.11,1.98-10.71,1.57-18.85-2.53-12.86-6.47-22.37-16.84-30.28-28.65,2.8.4,5.38,2.42,7.97,3.51Z"/>
        <path class="cls-11" d="M242.47,58.26c1.21,4.44,1.02,7.93,6.52,8.03,7.16.14,2.49-7.66,9.46-6.54l-2.98,5.5c4.91-4.61,12.02-6.34,18.6-6.86,4.09-.32,8.11-1.29,10.36,2.86.13,1.59.24,2.54,1,4l-7.99-2.01,3.99-2.98c-2.99-.14-6.11.26-8.99.99-3.3-2.07-10.93,1.23-12.99,3.99,1.85-.22,4.23-.51,5.99-.99,7-.22,13.71-.67,19.49,3.99l.49-2.99c.65,1.24,4.24,3.82,4.01,6.48,0,.82-3.32.67-4.01.51-4.56-1.07-7.02-6.25-12.52-6.08-1.31.04-2.32,1.08-2.46,1.09-5.3.18-10.67-.16-15.97.03-.27.86.24,2.39-.01,2.97-1.35-.23-2.66-.69-4-1-1.69-.39-6.31-1.39-7.09-2.4-1.28-1.66-2.12-6.71-.9-8.59Z"/>
        <path class="cls-3" d="M285.42,72.24c-.96,3.59-6.5,2.73-5.99,5.99-3.97,1.63-4.66-1.09-6.99-4-.43-2.42-1.58-4.58-2-6.99.14,0,1.15-1.05,2.46-1.09,5.51-.17,7.96,5.01,12.52,6.08Z"/>
        <path class="cls-19" d="M283.43,78.23c5.4-2.42,3.51.53,4,1-1.06,3.12-3.93,2.96-5.99,4-2.39.32-4.67-1.07-6.99-1-.34,0-.79-.09-1,0-.1-.63.14-1.45,0-2,4.51,2.96,6.73-.54,9.99-2Z"/>
        <path class="cls-11" d="M279.43,78.23c1.4-.58,3.13-2.13,4.51-2.98l-.51,2.98c-3.26,1.46-5.48,4.96-9.99,2-.83-3.2-.68-4.18-1-5.99,2.33,2.9,3.03,5.62,6.99,4Z"/>
        <path class="cls-6" d="M287.42,79.23c.23.22,1.81-.48,2.01.48-2.4,4.37-5.65,7.28-10.99,6.5-.61-2.28,1.37-2.18,2.99-2.99,2.07-1.03,4.93-.87,5.99-4Z"/>
        <path class="cls-7" d="M265.44,14.31c3.12.56,9.99,3,13.24,4.25,1.32.51,4.52,1.24,4.74,2.74-22.4-3.5-44.23.52-65.92,5.99.23-1.51,3.41-2.21,4.74-2.74,14.94-5.9,31.29-6.62,47.2-6.25l-9.98-3c-.05-1.68,5.1-1.15,5.99-.99Z"/>
        <path class="cls-6" d="M260.45,23.3l18.98,2.99c-9.66.48-19.85-.62-29.46.02-8.9.59-17.57,3.54-26.48,3.99,11.51-4.23,17.7-5.31,29.97-5.99,1.17-.06,2.14-.05,3-1h4Z"/>
        <path class="cls-16" d="M195.51,51.27c-.53,1.99-2.13,2.24-4,1.98.53-1.99,2.13-2.24,4-1.98Z"/>
        <path class="cls-16" d="M256.45,23.3c-.85.95-1.83.93-3,1l3-1Z"/>
        <path class="cls-16" d="M297.41,34.28c1.46,6.31,1.02,5.75,4,10.99.31.54-.34,2.74.98,3.51l-2.97-.02c2.86,6.26,6.5,10.74,12.98,13.49-.48,1.21,1.13,2-1.47,2.03-3.54.04-5.43-2.42-8.51-3.02-.63,4.56,7.98,5.24,8.87,6.13.42.42.04,1.3.12,1.85l-8.48-2.01-.51,2.01c-8.2-5.89-10-11.95-10-21.97-1.98.49-.55,2.85-3.02,4.46-8.85,5.77-24.5-.69-34.45-1.45-5.19-.4-12.24-.31-17.47-.01l48.95-7.98c-4.8.13-9.66-.23-14.47,0-11.91.57-27.04,1.7-38.84,3.12s-21.84,6.53-33.59,8.85l19.98-8.48,23.97-4.51c-.69-1.84-5.86-1.09-7.48-.98-14.68.98-25.98,6.21-39.47,10.97,6.17-4.54,15.39-9.24,22.73-11.72,12.96-4.37,27.19-2.51,40.2-7.26l-1.48-1.99c-21.07-1.6-39.06,4.26-58.45,10.98.53-1.51,3.8-2.47,5.32-3.16,6.08-2.78,12.39-5.51,18.65-7.82,8.91-.44,17.58-3.39,26.48-3.99,9.6-.64,19.79.46,29.46-.02l-18.98-2.99,3.99-.99c-2.48-.1-5.01.1-7.5-.01-1.23-.05-3.71.76-3.49-1h15.48c2.39,0,14.87,3.35,17.48,4.49,4.49,1.97,7.23,5.69,10.99,8.49ZM280.43,38.28h-25.47c-1.08,0-4.35,2.01-6.49,1.01v.99s30.46,0,30.46,0c.17,0,1.57-1.35,1.5-2ZM295.9,51.28c.16,4.1,1.74,7.46,5.01,9.95-.4-3.56-2.92-7.09-5.01-9.95Z"/>
        <path class="cls-16" d="M190.02,53.26c.65.33.65.67,0,1v-1Z"/>
        <path class="cls-11" d="M280.43,38.28c.08.65-1.32,2-1.5,2h-30.47v-.99c2.14,1,5.41-1.01,6.49-1.01h25.47Z"/>
        <path class="cls-26" d="M295.9,51.28c2.09,2.86,4.62,6.39,5.01,9.95-3.28-2.49-4.85-5.85-5.01-9.95Z"/>
        <path class="cls-4" d="M64.65,171.13c.57,2.32-.47,1.65-1.27,2.28-5.75,4.56-11,4.3-17.5,6.42-4.5,1.47-8.89,3.34-13.2,5.28-1.76-1.64,12.3-12.77,14.03-13.43.85-.33,8.96-2.65,9.45-2.65,2.53,0,5.2,3.28,8.49,2.11Z"/>
        <path class="cls-3" d="M355.35,134.17c.12-1.98-.1-4.01,0-6,17.43-1.31,10.65,18.01-.96,19.96-.47-1.2-.53-2.87-1.04-3.97,2.65-2.7,1.79-6.65,2-9.99Z"/>
        <path class="cls-11" d="M344.37,114.19c2.52,3.57,6.32,6.19,8.16,10.32,1.55,3.47,1.34,6.49,2.82,9.66-.21,3.34.66,7.29-2,9.99-.11-.24-1.62-.41-1.98-2.47-2.01-11.23,2.1-11.89-6.01-22.5-1.09-1.42-1.83-3.12-2.99-4.5-.04-1.01,1.46-.27,1.99-.49Z"/>
        <path class="cls-23" d="M349.36,110.2c.24-.69-.18-2.1,0-3,2.78-.72,1.87,1.51,2.99,3,1.53,2.03,3.49,4.45,5.5,5.99,2.62,2.02,7.92,2.97,8.51,6.48.79,4.77-8.83-1.87-10.03-2.96-3.11-2.84-4.44-6.35-6.97-9.51Z"/>
        <path class="cls-4" d="M435.27,183.11h-15.48c-3.25,0-11.18,4.08-15.94,3.93-3.29-.11-3.91-4.19-8.54-3.44.01-2.08,1.94-2.78,3.45-3.54,3.51-1.75,17.61-6.23,21-5.92,2.42.23,4.41,3.44,6.17,3.7,3.67.54,10.02-3.11,9.35,5.27Z"/>
        <path class="cls-23" d="M136.57,115.19c-3.68,2.08-4.1,4.08-5.99,6.99-.31.48-1.53.86-2.2,2.25-2.61,5.39-4.1,12.77-3.8,18.72-1.93.31-2.66-.79-2.98-2.5-1.5-7.97,4.59-20.18,11.04-24.9.87-.64,3.36-2.58,3.94-.56Z"/>
        <path class="cls-11" d="M130.58,109.2c-1.93,5.56-10.07,12.77-15.98,13.98-.61-.58-3.75-.18-2.99-2.99,7.17-1.5,14.72-7.49,17.99-13.99,1.52-.43,1.17,2.46.99,2.99Z"/>
        <path class="cls-15" d="M270.44,67.25c.42,2.41,1.57,4.58,2,6.99.32,1.81.16,2.79,1,5.99.14.55-.1,1.36,0,2-1.42.57-2.32,4.09-4.7,4.79-6.22,1.84-15.79-.01-18.28-6.79v-10.99c1.33.31,2.65.77,4,1-.34.79-2.34,2.74-2,2.99,5.96-.56,10.22-1.22,15.98,1-2.95-5.94-9.27-3.19-13.99-3.99.25-.58-.26-2.11.01-2.97,5.3-.18,10.67.16,15.97-.03Z"/>
        <path class="cls-3" d="M243.47,82.23c.87,3.87-.68,9.53,3.46,13.06.91.78,2.02.61,2.53.92-.1,4.18-3.24,3.13-5.19,4.1-.91.45-.86,1.71-1.5,1.86-5.5,1.33-7.19-4.59-13.28-1.97,5.59-7,7.2-15.22,5-23.97,3.7-11.74,7.66.08,8.99,5.99Z"/>
        <path class="cls-20" d="M227.48,72.24c0,.65.07,1.36,0,2-3.15.81-6.68-1.04-9.41-.93-3.17.12-4.89,3.09-7.58,2.42,3.04-6.45,11.38-6.68,16.99-3.49Z"/>
        <path class="cls-10" d="M206.5,66.25l-2.61,3.03c2.11,3.3,2.97,7.07,2.61,10.96-1.52-3.84-5.07-6.99-5-10.99.01-.64,1.29-2.85,1.01-4,.51-.37,2.95.96,3.99,1Z"/>
        <path class="cls-10" d="M209.5,64.25v2s-2,0-2,0c.13-.05,1.07-1.31,2-2Z"/>
        <path class="cls-19" d="M199.51,74.24c-.06,1.29-.98,2.65-1.01,3.99h-1.47s-2.51-4.99-2.51-4.99v-4.99s1.48,0,1.48,0l3.51,5.98Z"/>
        <path class="cls-13" d="M216.49,178.12c2.37-.23,4.78-2.19,7.02-1.58,3.29.9,9.66,7.47,13.64,9.39,8.94,4.32,12.5,1,19.29-4.82-.31,1.65.47,4.69,0,5.99-.29.83-6.29,4.47-7.72,4.76-12.55,2.59-23.92-5.33-32.24-13.75Z"/>
        <path class="cls-9" d="M257.46,173.12c4.43,2.27,7.15,8.82,3.49,12.96-2.75-.06-2.16-10.55-3.49-12.96Z"/>
        <path class="cls-3" d="M271.94,170.13c.65.33.65.67,0,1v-1Z"/>
        <path class="cls-12" d="M229.48,139.16l7.99-4.99c1.46,1.33-.51,12.49,4.49,12.98,1.93-.41,2.18-10.86,2.51-12.99l7.99,2c2.23,10.58.32,26.09-14.28,22.76-6.63-1.51-8.74-14-8.7-19.76Z"/>
        <path class="cls-8" d="M229.48,139.16c.05-6.45,2.95-10.91,8.5-13.98l2.5,18.97c1.31.27,1.59-1.84,1.73-2.73.93-5.85-.97-10.51-.74-16.24,7.35.23,9.66,4.71,10.98,10.99l-7.99-2c-.34,2.13-.58,12.57-2.51,12.99-4.99-.49-3.03-11.64-4.49-12.98l-7.99,4.99Z"/>
        <path class="cls-10" d="M249.46,96.21c.73.44,1.59.65,1.96,1.57-.71,3.38-5.04,8.81-8.5,9.43-6.02,1.09-6.61-5.33-12.41-5.55l-1.03-1.45c6.09-2.63,7.78,3.3,13.28,1.97.65-.16.59-1.41,1.5-1.86,1.95-.96,5.1.08,5.19-4.1Z"/>
        <path class="cls-9" d="M218.49,147.16l-10.98,10.98c-1.04-7.24,4.38-10.56,10.98-10.98Z"/>
        <path class="cls-24" d="M272.44,61.25c2.87-.73,6-1.13,8.99-.99l-3.99,2.98,7.99,2.01-.49,2.99c-5.78-4.66-12.49-4.21-19.49-3.99,1.82-.49,5.45-2.61,6.99-3Z"/>
        <path class="cls-18" d="M272.44,61.25c-1.54.39-5.18,2.5-6.99,3s-4.14.77-5.99.99c2.05-2.75,9.68-6.06,12.99-3.99Z"/>
        <path class="cls-20" d="M254.46,70.24c4.72.79,11.03-1.96,13.99,3.99-5.77-2.22-10.02-1.56-15.98-1-.34-.25,1.65-2.2,2-2.99Z"/>
      </g>
    </g>
  </g>
</svg>