<?xml version="1.0" encoding="UTF-8"?>
<svg id="Layer_2" data-name="Layer 2" xmlns="http://www.w3.org/2000/svg" viewBox="0 0 667.1 516.62">
  <defs>
    <style>
      .cls-1 {
        fill: #f4ecef;
      }

      .cls-2 {
        fill: #ee8994;
      }

      .cls-3 {
        fill: #f9eae7;
      }

      .cls-4 {
        fill: #fff;
      }

      .cls-5 {
        fill: #f8bab7;
      }

      .cls-6 {
        fill: #eb4745;
      }

      .cls-7 {
        fill: #f27374;
      }

      .cls-8 {
        fill: #9e223d;
      }

      .cls-9 {
        fill: #a12039;
      }

      .cls-10 {
        fill: #f49594;
      }

      .cls-11 {
        fill: #f7b7b7;
      }

      .cls-12 {
        fill: #f39293;
      }

      .cls-13 {
        fill: #f2b5b8;
      }

      .cls-14 {
        fill: #f3dbe1;
      }

      .cls-15 {
        fill: #f19295;
      }

      .cls-16 {
        fill: #f59494;
      }

      .cls-17 {
        fill: #992543;
      }

      .cls-18 {
        fill: #9c243d;
      }
    </style>
  </defs>
  <g id="Layer_1-2" data-name="Layer 1">
    <g>
      <path class="cls-4" d="M642.85,214.11c.01-.49,0-.98-.05-1.47-.2-2.2-.79-4.48-1.39-6.71,24.52-34.07,32.06-72.3,20.12-103.26-11.06-28.66-37.71-48.06-75.03-54.63-.39-.07-.79-.12-1.19-.15-3.65-.29-7.61-.44-11.74-.44-12.7,0-27.76,1.42-42.41,3.99-14.52,2.55-25.93,6.92-35.5,10.85-7.23,2.62-14.29,3.94-20.98,3.94-3.24,0-6.45-.31-9.53-.93-12.9-2.57-20.87-9.86-31.91-19.95-9.53-8.71-20.33-18.58-36.66-27.5-13.17-7.19-31.31-15.68-54.93-17.5-3.04-.23-6.1-.35-9.09-.35-43.25,0-72.68,24.21-96.32,43.67-15.48,12.73-28.84,23.73-40.81,23.73-.25,0-.5,0-.75-.01-1.12-.04-2.29-.1-2.51-.11-13.06-.79-22.74-4.33-28.54-6.45l-.85-.31c-.38-.14-1.39-.51-33.91-10.19-7.44-2.22-16.39-3.39-25.9-3.39-32.17,0-76.3,13.46-94.82,51.38-14.46,29.61-9.6,65.71,13.67,101.63.25.38.52.75.8,1.1.29.35.62.76,1,1.21.56.67,1.55,1.87,2.39,2.96-1.94,11.18-5.54,31.96,10.68,40.63.73.39,1.49.71,2.28.95,1.64.5,3.33.76,5.01.76,4.63,0,8.2-1.71,10.97-4.04,1.2.88,2.57,1.72,4.13,2.5,1.18.59,2.44.99,3.74,1.19,1.24.19,2.48.29,3.68.29,2,0,4.28-.26,6.66-1.03,3.69,2.76,7.96,4.26,12.48,4.26,3.3,0,6.56-.8,9.7-2.38,1.25-.63,2.39-1.46,3.37-2.46.12-.12.19-.18.19-.18.1-.04.25-.09.43-.13,2.56,1.61,6.24,3.73,11.04,4.02.41.03.82.04,1.22.04,5.94,0,10.15-2.68,12.39-4.24.53.01,1.14.06,1.84.11,1.09.08,2.33.18,3.72.18,6.09,0,11.43-1.98,16.31-6.04,1.51-1.26,2.12-1.67,2.28-1.76.15-.07.3-.12.46-.18,1.14-.46,2.87-1.14,5.58-2.67,9.94-5.61,11.72-14.45,12.57-18.7.1-.49.22-1.11.32-1.51,1.44-1.82,4.7-3.26,8.43-4.9,2.76-1.21,5.88-2.59,8.97-4.44,3.9-2.33,19.2-16.54,30.79-28.79.42.69.85,1.41,1.31,2.16,6.01,9.91,8.78,14.46,10.39,16.83,7.01,12.73,14.28,24.49,21.6,34.96,2.47,3.54,5.25,7.02,7.95,10.38,3.84,4.8,7.81,9.77,10.17,14.11.17.31.35.61.54.9,3.35,5.11,1.3,11.24-3.84,23.07-1.52,3.5-3.09,7.11-4.36,10.83-.51,1.5-.74,3.09-.67,4.68-.09,1.4-1.21,5.25-1.95,7.81-1.33,4.59-2.71,9.33-3.1,13.94-1.34,16.32,1.62,29.49,4.75,43.45l.16.71c.02.11.05.21.08.32,5.43,21.6,21.03,78.26,28.13,100.92.32,3.66,1.54,6.65,2.41,8.78.29.7.67,1.64.77,2.03,0,.09.02.19.03.28.76,6.04-.19,10.41-1.47,12.06-1.77,2.29-2.71,5.11-2.66,8,.23,13.22,11.77,23.58,26.27,23.58,9.23,0,17.37-4.47,21.91-11.95,4.56,7.53,12.72,12.1,21.94,12.1,5.58,0,11.12-1.77,15.65-4.99,14.78-9.9,9.57-23.14,7.6-28.14-.77-1.95-1.4-3.56-1.62-5.17,3.18-19.75,9.66-39.49,16.51-60.35,11.54-35.16,23.47-71.52,19-109.31-.03-.22-.06-.43-.09-.64-.88-5.16-2.36-9.98-3.8-14.65-.73-2.38-1.42-4.62-2-6.8-.07-.27-.15-.54-.24-.8-1.06-3.15-2.38-6.2-3.66-9.16-2.36-5.44-5.03-11.6-4.13-14.97.36-1.35.49-2.74.39-4.13-.13-1.85,4.03-6.34,6.51-9.02,1.79-1.93,3.64-3.93,5.31-6.11.04-.05.08-.11.12-.16,13.19-17.72,24.48-36.75,35.39-55.15,1.79-3.01,3.59-6.06,5.42-9.11,10.77,12.56,24.07,24.9,40.57,32.38.08,4.66.59,9.39,3.1,13.96,3.37,6.15,8.9,9.17,13.55,10.71,1.71,3.43,4.72,7.65,10.29,9.91,2.74,1.11,5.61,1.67,8.55,1.67,2.56,0,4.77-.42,6.48-.84,2.62,1.72,6.72,4.02,12.02,4.02,5.84,0,10.03-2.72,12.37-4.3.62,0,1.36.03,2.15.07.99.04,2.1.09,3.29.09.77,0,1.95,0,3.4-.14,3.74,3.32,8.66,5.32,14.07,5.32.28,0,.56,0,.85-.02,4.48-.17,8.15-1.91,11.09-4.14,1.32.45,2.72.69,4.14.69.02,0,1.63,0,2.45,0,.88,0,2.63,0,2.64,0,2.55,0,5.04-.77,7.15-2.2.76-.52,1.49-1.06,2.18-1.63,1.87,1.54,3.01,2.27,4.56,2.9,1.28.52,2.64.83,4.03.91.48.03.99.04,1.52.04.41,0,.85,0,1.28-.02.25,0,.51-.01.75-.01h.1c.16,0,.33,0,.49,0,2.26,0,4.47-.6,6.43-1.74,12.46-7.28,11.83-20.66,11.49-27.84-.06-1.37-.13-2.66-.1-3.65ZM160.46,173.03c-.67-.97-1.47-1.95-2.45-2.87-3.81-3.6-8.11-5.01-11.32-5.76-4.03-5.19-9.91-8.05-16.86-8.05-.86,0-1.74.04-2.62.13-4.14-3.81-10.62-6.95-20.71-6.95-4.28,0-9.06.56-14.61,1.71-3.5.72-6.5,1.83-9.15,2.8-1.04.38-2.44.9-3.47,1.21-4.94-10.99-5.35-19.87-1.22-26.4,6.54-10.33,25.54-17,48.41-17,24.02,0,47.79,7.42,57.78,18.04.13.14.21.23.36.36,1.08,1.1,4.5,5.17,6.97,8.3-4.72,13.85-17.93,26.48-31.1,34.49ZM588.37,154.99c-2.33-.13-6.14-1.21-9.83-2.25-6.23-1.76-13.29-3.76-20.79-3.76s-14.21,2.06-19.88,6.13c-.21.15-.42.31-.62.47-1.77,1.44-3.3,3.2-4.91,5.05-.37.42-.82.95-1.29,1.47-1.39-.29-3.02-.52-4.81-.52-3.95,0-7.73,1.07-11.24,3.18-3.75,2.26-6.04,5.51-7.8,8.49-14.45-8.28-25.94-20.95-31.1-34.37,10.87-16.6,37.53-28.25,65.85-28.25,22.49,0,40.42,7.65,48.13,20.5,3.08,7.44,2.18,18.79-1.7,23.86Z"/>
      <g>
        <path class="cls-8" d="M340.67,13.05c20.06,1.55,36.17,8.54,49.8,15.98,34.23,18.69,43.07,42.96,72.19,48.76,15.47,3.08,29.16-.54,37.6-3.62,7.96-3.27,19.13-7.73,33.11-10.18,15.59-2.74,35.04-4.67,50.93-3.4,78.9,13.9,87.79,85.2,43.51,142.29-.22,1.99,2.04,8.01,2.31,10.95-.16,7.01,2.21,16.52-5.08,20.78-1.06-.04-2.39.06-3.4,0-1.07-.43-12.16-10.77-12.72-10.19-.24,4.52-2.3,7.71-5.95,10.19-1.63,0-3.47,0-5.09,0-2.27-1.89-5-2.34-5.1-5.94-.71-.56-4.81,9.17-10.62,9.4-4.97.19-8.77-3.65-8.9-8.55-4.94,5.59-12.17,2.24-18.06,3.57-2.6.59-5.09,3.95-8.67,3.95-3.86,0-6.93-4.04-9.67-4.53-3.24-.57-7.26,2.77-12.61.6-4.39-1.78-4.55-7.93-6.17-9.11-15.07-2.23-12.51-9.94-12.84-22.39-23.24-7.49-40.55-26.83-54.64-45.94-16.41,26.37-31.08,53.96-49.66,78.93-5.29,6.87-15.1,14-14.43,23.77-2.76,10.43,4.71,21.55,8.03,31.44,1.78,6.75,4.39,13.56,5.55,20.34,6.72,56.69-27.16,112.06-35.66,167.62.33,11.4,9.71,16.72-.42,23.38-6.63,4.86-16.6,3.17-20.11-4.5-3.08-6.71.29-14.03-9.59-14.24-2.82-.06-5.38.78-7.86,1.96-1.64,4.43-.93,8.77-3.42,13.14-6.11,10.87-24.6,6.37-24.8-4.85,4.45-5.76,4.91-14.42,4.03-21.43-.41-4.29-3.39-7.75-3.18-11.68-6.92-21.72-23.06-80.46-28.45-101.85-3.13-13.96-5.85-25.69-4.65-40.32.6-7.11,5.4-17.88,5.08-23.36,4.91-14.39,16.44-30.28,6.79-44.99-4.68-8.61-13.01-17.32-18.86-25.7-7.69-11.01-14.75-22.65-21.21-34.42-.5-.4-20.15-32.72-20.62-34.1-3.64,6.87-35.04,37.24-39.21,39.73-7.63,4.55-16.95,6.1-21.86,13.77-2.94,4.6-.63,11.37-8.17,15.62-5.24,2.95-4.56,1.23-10.2,5.92-6.43,5.36-10.59,1.84-17.28,3.09-2.91.54-4.96,4.2-9.26,3.93-3.66-.22-7.27-4.4-9.96-4.41-4.63.47-8.15,1-11.56,4.48-6.87,3.45-11.85-2.48-14.24-8.29-2.41,4.1-5.54,6.72-10.61,5.94-9.35-4.67-3.36-11.03-8.05-13.4-4.89.07-7.07,15.52-14.02,13.4-9.55-5.11-4.59-22.96-3.39-31.77-.63-2.66-4.91-7.51-6.79-9.82-22.14-34.17-24.44-65.52-12.92-89.12,19.94-40.84,77.57-49.74,105.64-41.38,32.15,9.58,33.18,9.95,33.18,9.95,6.04,2.2,17.4,6.58,33.03,7.51,0,0,1.4.08,2.74.13,40.57,1.52,72.17-72.8,146.47-67.06ZM34.22,183.67c1.72,3.01,11.5,17.31,11.68,18.39-2.13,7.63-4.88,17.55-2.33,26.6,4.45-5.22,7.02-15.43,16.17-12.34,6.85,2.18,2.15,14.89,8.22,12.64,3.21-1.19,1.58-13.3,7.44-12.64,4.59.52,3.58,12.84,8.92,15.31,5.77,2.67,3.82-4.54,4.25-7.63.35-2.55,1.28-10.85,3.37-11.9,5.73-2.89,19.21,6.32,21.99,4.58,3.24-6.23-8.71-17.07-6.28-21.98s24.06,3.82,19.56-5.1c-.52-1.03-8.21-6.11-9.85-7.13-3.32-2.07-11.86-3.57-8.34-8.48,2.13-2.98,7-.54,5.84-4.7-18.88-7.75-37.46,17.05-51.6-4.86-7.13-11.02-7.99-28.11-3.11-40.15,17.23-42.48,95.17-34.91,127.15-15.13,26.68,16.51,54.37,79.12,73.57,107.24,5.5,8.06,20.8,24.74,23.79,31.81,8.71,54.58-33.76,41.94.25,142.8,5.57,29.52,31.69,75.6,19.41,102.83,13.86,13.67,16.65-4.62,15.98-16,1.24-35.7-74.77-186.2-20.17-192.89,11.53,1.24,23.19,7.24,35.07,6.59,13.51-.75,37-15.62,45.52.25,19.71,36.68-13.73,105.94-24.34,144.03-2.86,11.34-22.06,71.04,4.1,60.98,4.54-3.29-.46-9.57-1.05-14.81-.38-3.45-.12-7.26.13-10.73,10.76-54.63,43.8-111.33,33.5-167.21-24.53-63.21-10.2-48.21,19.76-97.44,3.79-1.22,2.26-6.5,2.56-6.75,10.71-4.12,21.86-36.23,29.84-47.01,9.5-15.39,21.9-36.23,37.46-45.73,32.33-18.44,104.45-24.1,123.68,15.44,6.23,14.03,5.71,34.53-5.92,46.29-14.21,14.98-35.19-10.4-51.79,1.67,2.96,3.01,9.03.3,9.98,5.23.31,3.68-12.01,8.3-15.49,11.34-12.04,10.51,7.94,5.38,12.73,5.91,12.65,1.39-6.65,17.13-2.61,22.98,3.85,2.66,17.07-6.71,22.58-3.9,3.6,2.39,1.1,18.68,4.74,19.91,7.38,1.12,6.6-14.55,10.95-15.25,6.44-1.04,4.62,10.8,7.71,11.84,5.74,1.93,2.4-7.55,5.77-10.19,4.39-3.43,14.91,8.34,19.17,10.26,1.3-9.05.29-18.01-2.55-26.72,59.06-71.36,16.14-149.95-75.95-134.56-31.94,4.29-69.25,30.83-100.52,10.52-34.87-22.65-55.73-56.16-103.18-58.96-58.73-3.46-76.9,29.82-118.52,58.13-30.31,20.63-64.86-2.57-95.82-8.48C54.19,50.32-14.07,113.32,34.22,183.67ZM193.52,121.15c-33.94-36.07-159.35-31.48-125.2,40.74,7.82,11.81,15.89,3.93,26.15,1.81,8.78-1.81,24.09-3.89,27.21,7.25,7.08-2.74,13.64-3.35,16.67,4.31,2.44,1.5,7.6,1,10.93,4.15,2.94,2.78,2.41,10.36,9.1,9.22,20.44-9.72,42.62-29.47,46.98-52.52-.5-1.79-9.93-13.11-11.83-14.95ZM595.89,165.55c9.93-9,10.79-28.57,5.55-40.19-24.93-43.64-118.18-32.08-139.18,12.16,6.17,22.86,26.05,41.78,47.05,51.05,6.15.54,7.93-10.32,12.23-12.9,5.72-3.43,9.88.79,12.7.01,3.75-1.04,8.35-8.05,11.03-10.23,16.38-11.75,39.91,8.72,50.61.1ZM210.78,142.93c-1.93-.36-1.35.11-1.88,1.08-8.18,21.39-25.71,38.86-46.47,48.6-2.45,2.25.41,3.2,3.13,2.29,18.3-7.21,38.48-28.92,48.51-44.96.57-2.36-3.51-4.12-3.29-7ZM458.66,143.78c-2.03-.46-1.37.37-1.88,1.11-.7,1.01-3.03,4.78-2.82,5.75,11.41,18.03,30.39,38.04,51.4,44.92,1.08-5.07-16.42-10.75-20.56-15.31-11.07-8.89-21.75-22.98-26.13-36.47ZM140.33,181.98c-5.77-1.66-7.33-1.46-9.71-7.4l-12.36,1.46c6.01,4.8,21.41,11.81,12.77,21.44-3.84,4.29-11.24,1.09-16.16,1.47,2.08,4.39,3.4,9.05,5.09,13.58-.67,18.17-14.64,6.3-24.61,5.09l-.85,10.19c2.73.37,5.26-1.14,7.98-.84,3.7.42,6.32,4.86,10.07,4.1,2.27-.46,4.79-3.61,8.07-3.96,9.62.23,9.94,3.46,17.23-5.62,2.46-1.46,4.67-.93,7.59-3.02,5.25-3.76,3.2-7.72,5.77-12.48,1.66-3.08,5.52-4.63,6.1-8.34-1.4-3.98-5.84-4.24-8.47-7.62-2.52-3.86-2.63-8.91-8.49-8.06ZM512.14,194.71c-.17.15-1.53-.47-1.73.54.81,4.63-1.98,19.78,2.58,21.96,12.45,1.47,7.91,3.97,13.27,10.55,2.56,1.72,7.64-.98,10.82-.75,3.5.25,6.8,4.15,9.44,4.15s5.69-3.59,8.71-4.02c3.87-.55,7.45,1.98,11.87.06,2.11-.92,7.04-7.8,5.3-9.55-7.2-.67-19.96,11.1-24.62.85-2.52-5.55,2.72-14.36,5.09-19.52-5.75-.66-14.19,3.75-17.72-3.09-4.68-9.07,4.88-12.99,10.65-17.14,1.06-.76,2.36-.89,1.97-2.69-5.18-2.57-7.43,3.93-11.63,4.91-3.93.91-9.55-1.83-12.15-.25-3.97,6.89-4.19,8.99-11.87,14.01ZM288.04,308.46c-7.67,59.04,34.35,111.4,37.35,169.77,5.91-1.49,10.22-2.35,16.12,0,4.03-57.15,41.28-106.26,39.09-164.29-.48-6.67-2.96-23.74-11.56-24.1-10.4-.44-23.89,7.31-34.71,7.63-10.94.32-30.27-8.32-38.2-6.82-5.37,1.01-7.27,13.24-8.09,17.81Z"/>
        <path class="cls-16" d="M632.69,185.37c20.97-77.86-57.62-115.61-123.27-96.53-50.51,14.99-72.16,60.94-104.23,97.38-3.14,4.77-7.96,8.97-11.89,12.73-32.55,31.26-65.64,27.03-65.64,27.03-18.87-1.51-32.78-10.85-39.42-15.31-8.44-5.67-13.89-11.32-18.35-16.1-28.98-31.02-36.43-46.49-56.31-67.07-14.57-15.08-23.67-24.51-39.56-32.27-36.62-17.89-72.04-8.75-76.73-7.46-3.77,1.03-31.96,9.14-52.77,33.28-2.86,3.32-5.61,6.55-8.16,11.49-11.4,22.09-2.47,46.69,1.34,55.7-3.28-4.01-26.4-33.13-17.69-67.31,8.9-34.91,45.45-53.35,71.83-55.68,25-2.21,57.33,8.56,68.84,12.4,11.36,3.79,25.27,9.41,42.52,5.86,9.5-1.95,17.19-6.11,21.77-8.62,12.89-7.07,18.03-13.59,27.71-22.04,6.64-5.79,25.07-21.61,48.67-29.28,1.74-.56,19.89-5.85,40.63-4.63,47.45,2.8,68.3,36.31,103.18,58.96,31.27,20.31,68.58-6.23,100.52-10.52,75.86-15.23,133.52,48.62,87,117.99ZM298.14,45.38c-1.96-2.33-12.07-.29-13.32,3.92-4.06,13.68,17.67,1.26,13.32-3.92ZM361.04,78.4c-12.24,5.19-21.42,8.59-12.05,22.67,9.05,13.6,22.21.16,33.58-2.12,10,7.66,13.82,24.58,29.13,16.97,14.95-7.43,7.54-14.79.28-25.2.01-1.86,13.03-3.84,14.82-8.08,4.01-9.53-9.01-19.76-17.77-19.53-4.06.11-15.81,4.79-18.54,4.14-9.76-7.65-16.38-17.87-30.5-13.22s-8.47,15.98.53,22.69l.52,1.68ZM267.45,62.49c-11.65,1.86-28.99,17.08-24.45,29.98,12.22,6.29,55.27-34.09,24.45-29.98ZM281.83,121.79c-.91.24-2.15,1.85-2.51,2.72-1.53,3.68,9.24,9.83,10.36,13.63-.41,2.33-17.61,13.23-7.65,15.45,3.23.72,10.92-10.98,13.12-10.6,3.32,1.78,10.45,13.51,14.09,9.7,4.85-5.08-7.98-10.47-9.24-15.16,2.29-3.91,13.16-9.64,9.34-14.62-3.56-4.64-10.88,8.92-14.81,9.77-2.81-1.6-9.93-11.62-12.69-10.89ZM358.72,122.77c-4.37,4.47,8.83,11.17,9.91,15.37-.44,2.5-17.85,13.27-7.65,15.44,3.27.7,10.91-10.98,13.12-10.59,3.97,2.01,10.41,14.53,14.56,9.29,2.86-4.65-7.61-10.5-9.71-14.13-.34-1.94,8.67-8.32,9.69-10.51,1.37-2.96-.46-7.07-3.79-5.53-2.25,1.04-9.05,10.28-10.74,10.58-4.83-1.51-10.1-13.75-15.37-9.91ZM281.03,158.41c-8.22,1.29-16.47,9.22-8.2,16.28,7.37,6.29,27.85,5.73,29.47-5.25,1.5-10.13-14.17-12.15-21.28-11.03ZM367.25,174.08c6.92,7.61,32.45,6.19,30.78-6.57-2.08-15.19-42.17-10.96-30.78,6.57ZM289,200.53c6.37,1.87,6.02-6.65,11.87-6.26,5.72,1.3,6.19,13.51,17.21,12.26,9.1-1.03,10.26-12.39,16.13-11.83,5.37.52,6.68,12.27,17.07,11.96,9.02-.27,10.68-11.29,14.82-12.47,4.42-1.27,7.22,8.42,11.91,6.05,5.41-2.69-5.5-13.58-11.36-13.14-8.41.63-10.53,10.63-14.12,12.29-6.73,3.12-9.12-12.65-19.01-12.28-8.78.33-11.66,13.26-17.02,12.71-3.89-.4-8.42-13.02-16.93-12.71-5.04.19-14,8-10.57,13.42Z"/>
        <path class="cls-12" d="M284.64,248.19c30.59,13.62,69.72,15.22,99.32-1.7-9.96,19.65,4.33,38.27,9.1,57.54,10.32,55.81-22.74,112.61-33.49,167.21-2.66,12.39,6.3,21.89.91,25.54-26.14,10.25-6.95-49.89-4.11-60.98,10.61-38.09,44.05-107.35,24.34-144.03-8.52-15.86-32.01-.99-45.52-.25-11.88.66-23.55-5.34-35.08-6.58-54.56,6.52,21.36,157.17,20.17,192.89.66,11.38-2.12,29.67-15.99,16,12.31-26.91-13.89-73.59-19.42-102.83-34-100.88,8.46-88.17-.24-142.79Z"/>
        <path class="cls-10" d="M344.07,459.56l-17.83-1.7c-.34-.95.37-3.39,1.28-3.39h16.13c8.3-10.67-18.66-4.08-19.08-8.91,2.82-3.53,17.41-1.72,21.21-2.12l-.1-3.3c-1.22-1.5-17.41-1.6-20.26-3.93-1.66-1.35-.51-3.81.41-3.81h20.37c.26,0,3.68-.82,2.96-2.11-2.67-6.06-26.06-.66-26.3-8.07,2.63-3.58,32.67,2.91,25.96-9.43l-30.09-2.59c-.79-4-.15-4.62,3.69-4.97,5.87-.53,25.32,1.68,28.5-2.07,2.97-9.44-25.48-2.28-30.93-3.98-12.37-1.27-11.34-7.85-.02-9.14,5.93-1.54,36.4,3.39,33.06-6.92.7-4.82-53.69,3.67-44.94-8.35,5.58-3.93,29.63-2.6,37.72-3.87,11.1-1.74,13.32-8.17.42-8.98-12.93-.82-26.32,3.58-39.84.79-6.43-1.33-10.5-6.9-3.37-10.83,7.85-4.33,35.05-2.4,45.64-3.6,9.84-1.11,11.66-6.46.93-7.54-12.85-1.29-27.51.94-40.62-.12-20.35-1.58-15.21-11.56,1.7-12.51,11.67-1.07,32.66,1.34,42.95-2.04,17.74-12.14-41.39-11.22-47.19-12.6-6.29-.79-12.96-1.91-18.36-4.99.83-4.57,2.73-16.8,8.09-17.81,7.93-1.5,27.26,7.14,38.2,6.82,10.82-.32,24.31-8.06,34.71-7.63,1.26.06,3.01.33,4.77,1.31,3.19,1.78,9.45,7.63,6.36,39.64-2.31,23.97-7.09,38.72-7.09,38.72-8.6,26.58-18.04,56.26-29.02,90.04Z"/>
        <path class="cls-11" d="M288.04,308.46c5.39,3.08,12.07,4.2,18.36,4.99,5.69,1.32,65,.52,47.2,12.6-10.29,3.38-31.28.98-42.95,2.04-16.81.95-22.15,10.89-1.7,12.51,13.11,1.06,27.77-1.17,40.62.12,10.74,1.08,8.91,6.43-.93,7.54-10.58,1.2-37.78-.73-45.64,3.6-7.13,3.94-3.06,9.51,3.37,10.83,13.52,2.79,26.91-1.6,39.84-.79,12.91.82,10.69,7.24-.42,8.98-8.09,1.27-32.14-.06-37.72,3.87-8.87,11.98,45.81,3.58,44.94,8.35,3.36,10.33-27.14,5.38-33.06,6.93-11.32,1.28-12.35,7.87.02,9.14,5.48,1.74,33.83-5.51,30.93,3.98-3.18,3.75-22.64,1.54-28.5,2.07-3.84.35-4.48.97-3.69,4.97l30.09,2.59c6.71,12.34-23.33,5.85-25.96,9.43.19,7.37,23.7,2.04,26.3,8.07.72,1.29-2.71,2.11-2.96,2.11h-20.37c-.93,0-2.07,2.46-.41,3.81,2.85,2.33,19.04,2.42,20.26,3.93l.1,3.3c-3.88.41-18.31-1.42-21.21,2.12.41,4.83,27.39-1.75,19.08,8.91,0,0-16.13,0-16.13,0-.91,0-1.62,2.45-1.28,3.39l17.83,1.7c-.32,1.47-.49,3.32-.85,5.09-4.47-1.21-11.23.08-15.27,2.13,1.4,4.71,13.44-1.06,13.57,4.65l-9.32,2.13,9.32,2.97c-.09.52.07,1.15,0,1.69-5.9-2.35-10.21-1.49-16.12,0-3-58.37-45.02-110.72-37.35-169.77Z"/>
        <path class="cls-13" d="M140.33,181.98c-11.78,1.17-4.97,8.05,1.58,5.83l.12-5.83c4.98.41,4.23,4.75,6.8,8.06s7.07,3.65,8.47,7.62c-.57,3.71-4.44,5.26-6.1,8.34-2.57,4.76-.52,8.72-5.77,12.48-6.06-3.42-7.55,3.3-13.16,3.21-2.68-.04-8.87-2.62-10.63-4.46-2.39-5.6-4.02-12.61-6.77-18.27,4.93-.38,12.32,2.81,16.16-1.47,8.64-9.63-6.76-16.65-12.77-21.44l12.36-1.46c2.38,5.93,3.93,5.74,9.71,7.4ZM145.98,194.17c-6.09-.11-8.14,6.24-1.64,7.99,10.12,2.3,12.51-8.47,1.64-7.99ZM126.17,208.55c-5.11,5.97,9.68,9.92,11.49,3.38,1.32-4.78-8.51-6.86-11.49-3.38Z"/>
        <path class="cls-13" d="M512.14,194.71c7.74-5.08,7.87-7.09,11.87-14.01,2.59-1.58,8.22,1.16,12.15.25,4.2-.97,6.45-7.48,11.63-4.91.39,1.8-.91,1.93-1.97,2.69-5.77,4.15-15.33,8.07-10.65,17.14,3.53,6.84,11.96,2.43,17.72,3.09-2.38,5.15-7.61,13.97-5.09,19.52-1.69,4.33-12.05,1.16-14.86-.84-5.22-3.71-2.35-9.16-8.92-11.46-6.87-2.4-11.02-1.96-11.88-11.47ZM522.89,192.3c-6.54,4.65,3.53,7.76,6.71,5.01,2.23-5.08-2.8-6.38-6.71-5.01ZM545.99,207.55c-2.49-1.11-8.28-2.01-9.67.73-3.18,6.28,12.3,7.97,9.67-.73Z"/>
        <path class="cls-15" d="M512.14,194.71c.86,9.51,5,9.06,11.88,11.47,6.56,2.3,3.7,7.74,8.92,11.46,2.81,2,13.17,5.17,14.86.84,4.66,10.25,17.41-1.52,24.62-.85,1.73,1.75-3.19,8.63-5.3,9.55-4.43,1.92-8-.61-11.87-.06-3.03.43-6.21,4.02-8.71,4.02-2.64,0-5.93-3.9-9.44-4.15-3.18-.22-8.26,2.47-10.82.75-5.35-6.59-.88-9.09-13.27-10.55-4.56-2.17-1.78-17.33-2.58-21.96.2-1.01,1.56-.39,1.73-.54Z"/>
        <path class="cls-12" d="M119.96,212.54c.72,6.3,6.9,8.29,12.31,9.15,5.61.09,7.09-6.63,13.16-3.21-2.92,2.09-5.13,1.56-7.59,3.02-7.29,9.09-7.63,5.84-17.23,5.62-3.28.36-5.8,3.51-8.07,3.96-3.75.76-6.38-3.69-10.07-4.1-2.72-.31-5.25,1.21-7.98.84l.85-10.19c9.97,1.21,23.94,13.08,24.61-5.09Z"/>
        <path class="cls-2" d="M210.78,142.93c-.22,2.88,3.85,4.64,3.29,7-10.04,16.04-30.21,37.75-48.51,44.96-2.72.91-5.58-.04-3.13-2.29,20.76-9.74,38.29-27.21,46.47-48.6.53-.97-.05-1.44,1.88-1.08Z"/>
        <path class="cls-2" d="M458.66,143.78c4.38,13.49,15.06,27.58,26.13,36.47,4.16,4.57,21.65,10.25,20.56,15.31-21-6.87-40-26.89-51.4-44.92-.21-.97,2.12-4.75,2.82-5.75.51-.74-.14-1.57,1.88-1.11Z"/>
        <path class="cls-10" d="M343.22,464.65c-.78,3.87-.99,8-1.7,11.88l-9.32-2.97,9.32-2.13c-.13-5.71-12.18.06-13.57-4.65,4.05-2.05,10.81-3.34,15.27-2.13Z"/>
        <path class="cls-3" d="M142.03,181.98l-.12,5.83c-7.43,2.36-13.47-5.7.12-5.83Z"/>
        <path class="cls-18" d="M361.04,78.4l-.52-1.68c-8.99-6.72-15.13-17.89-.53-22.69s20.74,5.57,30.5,13.22c2.74.65,14.49-4.03,18.54-4.14,8.76-.23,21.78,10,17.77,19.53-1.79,4.24-14.8,6.22-14.82,8.08,7.26,10.41,14.67,17.77-.28,25.2-15.31,7.61-19.13-9.31-29.13-16.97-11.37,2.28-24.53,15.72-33.58,2.12-9.37-14.09-.2-17.49,12.05-22.67ZM383.96,69.91c-6.51-7.42-12.47-14.59-23.16-10-9.39,4.03,2.18,10.79,5.95,14.98l17.21-4.98ZM393.3,72.47c-12.67,3.85-32.42,9.14-42.05,17.86-.89,2.01,2.06,7.75,3.47,9.26,4.73,5.07,17.52-3.04,23.3-5.05,8.1-2.82,16.45-5.01,24.62-7.64,3.93-1.27,16.07-4.33,18.67-6.37,4.02-3.16-6.45-11.14-10.61-11.49-4.55-.39-12.72,2.24-17.4,3.44ZM389.06,96.25c.04,2.85,7.01,9.28,8.9,11.89,2.79,3,5.23,5.44,9.73,3.78,1.07-.4,6.43-4.2,6.72-5.23.98-3.46-6.08-12.17-8.98-14.55l-16.38,4.12Z"/>
        <path class="cls-9" d="M289,200.53c-3.43-5.41,5.53-13.23,10.57-13.42,8.51-.32,13.05,12.3,16.93,12.71,5.36.56,8.24-12.38,17.02-12.71,9.89-.37,12.28,15.39,19.01,12.28,3.6-1.66,5.72-11.67,14.12-12.29,5.86-.44,16.77,10.45,11.36,13.14-4.69,2.37-7.49-7.32-11.91-6.05-4.14,1.19-5.8,12.2-14.82,12.47-10.39.32-11.7-11.44-17.07-11.96-5.88-.57-7.03,10.8-16.13,11.83-11.02,1.25-11.5-10.96-17.21-12.26-5.85-.39-5.5,8.13-11.87,6.26Z"/>
        <path class="cls-5" d="M267.45,62.49c30.82-4.11-12.22,36.27-24.45,29.98-4.53-12.91,12.8-28.12,24.45-29.98Z"/>
        <path class="cls-6" d="M281.03,158.41c7.11-1.12,22.78.91,21.28,11.03-1.63,10.98-22.11,11.54-29.47,5.25-8.27-7.06-.02-14.99,8.2-16.28Z"/>
        <path class="cls-6" d="M367.25,174.08c-11.39-17.53,28.71-21.75,30.78-6.56,1.67,12.76-23.87,14.17-30.78,6.56Z"/>
        <path class="cls-9" d="M358.72,122.77c5.26-3.84,10.55,8.41,15.37,9.91,1.69-.3,8.5-9.54,10.74-10.58,3.33-1.54,5.17,2.57,3.79,5.53-1.02,2.19-10.03,8.57-9.69,10.51,2.1,3.63,12.57,9.48,9.71,14.13-4.14,5.25-10.59-7.28-14.56-9.28-2.2-.39-9.85,11.29-13.11,10.59-10.2-2.17,7.21-12.94,7.65-15.44-1.08-4.21-14.28-10.9-9.91-15.37Z"/>
        <path class="cls-9" d="M281.83,121.79c2.76-.73,9.88,9.29,12.69,10.89,3.93-.85,11.25-14.41,14.81-9.77,3.81,4.97-7.05,10.71-9.34,14.62,1.26,4.69,14.1,10.09,9.24,15.16-3.64,3.81-10.77-7.92-14.09-9.7-2.2-.38-9.89,11.32-13.12,10.6-9.96-2.21,7.25-13.12,7.65-15.45-1.11-3.8-11.89-9.95-10.36-13.63.36-.88,1.6-2.48,2.51-2.72Z"/>
        <path class="cls-11" d="M298.14,45.38c4.35,5.18-17.37,17.6-13.32,3.92,1.25-4.2,11.36-6.24,13.32-3.92Z"/>
        <path class="cls-7" d="M631.84,134.44c-16.25-45.54-80.78-58.55-122.42-45.6-56.52,16.71-77.14,72.56-116.11,110.11-105.78,88.5-141.19-63.45-219.28-103.71C104.01,56.23-11.56,120.33,45.9,202.07c-2.13,7.63-4.88,17.53-2.33,26.59,4.45-5.22,7.03-15.42,16.17-12.34,6.85,2.18,2.15,14.89,8.22,12.64,3.21-1.19,1.58-13.3,7.44-12.64,4.59.52,3.58,12.84,8.92,15.31,5.77,2.67,3.82-4.54,4.25-7.63.35-2.55,1.28-10.85,3.37-11.9,5.73-2.89,19.21,6.32,21.99,4.58,3.24-6.23-8.71-17.07-6.28-21.98,2.45-4.92,24.06,3.82,19.56-5.1-.52-1.03-8.21-6.11-9.85-7.13-3.32-2.07-11.86-3.57-8.34-8.48,2.13-2.98,7-.54,5.84-4.7-18.89-7.77-37.46,17.07-51.6-4.86-35.22-75.17,80.84-85.02,124.04-55.28,26.68,16.51,54.37,79.12,73.57,107.24,5.5,8.06,20.8,24.74,23.79,31.81,30.6,13.62,69.71,15.22,99.32-1.7,6.87-8.68,13.77-17.79,20.67-27.35,18.96-24.86,37.8-56.93,50.37-80.85,13.66-22.33,41.49-43.67,85.39-45.13,15.67-2.39,56.57,6.11,65.98,29.39,6.25,14.03,5.7,34.52-5.92,46.29-14.32,14.99-35.09-10.41-51.79,1.67,2.96,3.01,9.03.3,9.98,5.23.31,3.68-12.01,8.3-15.49,11.34-12.04,10.51,7.94,5.38,12.73,5.91,12.65,1.39-6.65,17.13-2.61,22.98,3.82,2.67,17.09-6.72,22.58-3.9,3.6,2.39,1.1,18.68,4.74,19.91,7.38,1.12,6.6-14.55,10.95-15.25,6.44-1.04,4.62,10.8,7.71,11.84,5.74,1.93,2.4-7.55,5.77-10.19,4.39-3.43,14.91,8.34,19.17,10.26,1.3-9.05.29-18.01-2.55-26.72,18.45-17.27,17.46-47.92,10.2-67.51Z"/>
        <path class="cls-3" d="M145.98,194.17c10.87-.48,8.47,10.3-1.65,7.99-6.49-1.75-4.44-8.11,1.65-7.99Z"/>
        <path class="cls-3" d="M126.17,208.55c2.97-3.48,12.81-1.4,11.49,3.38-1.81,6.54-16.6,2.59-11.49-3.38Z"/>
        <path class="cls-3" d="M545.99,207.55c2.63,8.71-12.85,7.01-9.67.73,1.39-2.75,7.18-1.85,9.67-.73Z"/>
        <path class="cls-3" d="M522.89,192.3c3.91-1.36,8.94-.07,6.71,5.01-3.19,2.75-13.25-.37-6.71-5.01Z"/>
        <path class="cls-1" d="M410.7,69.03c-4.55-.39-12.72,2.24-17.4,3.44-.63,3.16,5.6,8.25,7.64,11.88.34.53,2.02.92,1.7,2.55,3.93-1.27,16.07-4.33,18.67-6.37,4.02-3.16-6.45-11.14-10.61-11.49Z"/>
        <path class="cls-17" d="M393.3,74.17c.57,1.43,6.02,7.68,7.64,10.19.44,2.11-.99,1.79-2.31,2.32-5.41,1.9-12.45,4.24-18.07,4.47-1.84-3.86-6.07-7.41-5.94-11.88,6.13-1.94,12.33-3.92,18.68-5.09ZM392.31,78.53l-12.58,3.69,3.12,4.73c2.01-.33,11.83-2.48,12.15-3.89l-2.69-4.53Z"/>
        <path class="cls-14" d="M392.31,78.53l2.69,4.53c-.32,1.41-10.14,3.56-12.15,3.89l-3.12-4.73,12.58-3.69Z"/>
      </g>
    </g>
  </g>
</svg>