<?xml version="1.0" encoding="UTF-8"?>
<svg id="Layer_2" data-name="Layer 2" xmlns="http://www.w3.org/2000/svg" viewBox="0 0 457.64 384.05">
  <defs>
    <style>
      .cls-1 {
        fill: #efc837;
      }

      .cls-2 {
        fill: #383c59;
      }

      .cls-3 {
        fill: #f7c69c;
      }

      .cls-4 {
        fill: #080707;
      }

      .cls-5 {
        fill: #fefefe;
      }

      .cls-6 {
        fill: #535672;
      }

      .cls-7 {
        fill: #fff;
      }

      .cls-8 {
        fill: #3e2b13;
      }

      .cls-9 {
        fill: #f9ecdc;
      }

      .cls-10 {
        fill: #ca3428;
      }

      .cls-11 {
        fill: #d88d2f;
      }

      .cls-12 {
        fill: #312316;
      }

      .cls-13 {
        fill: #da8d2d;
      }

      .cls-14 {
        fill: #dadad9;
      }

      .cls-15 {
        fill: #f6f5f5;
      }

      .cls-16 {
        fill: #da8e2b;
      }

      .cls-17 {
        fill: #f7d03b;
      }

      .cls-18 {
        fill: #ecb734;
      }

      .cls-19 {
        fill: #f1c298;
      }

      .cls-20 {
        fill: #2d2b27;
      }

      .cls-21 {
        fill: #a12822;
      }

      .cls-22 {
        fill: #261e15;
      }

      .cls-23 {
        fill: #f2e5d4;
      }

      .cls-24 {
        fill: #d2892d;
      }

      .cls-25 {
        fill: #272b40;
      }
    </style>
  </defs>
  <g id="Layer_1-2" data-name="Layer 1">
    <g>
      <path class="cls-7" d="M457.18,365.37c-3.25-12.83-8.03-31.92-8.5-34.2-.87-4.32-6.96-21.49-7.02-21.65-2.21-6.05-3.83-12.82-5.56-19.98-2.88-11.96-5.85-24.33-12.05-36.05-.5-.95-1.1-1.84-1.79-2.66-5.26-6.24-11.5-18.42-17.53-30.2-10.24-20-20.83-40.68-34.66-50.16-6.3-4.32-13.71-6.42-22.65-6.42-4,0-7.89.41-11.31.77-2.87.3-5.57.58-7.83.58-.64,0-1.22-.02-1.74-.07-.43-.04-.98-.14-1.6-.29,1.38-5.31,2.25-11.94.08-21.31-2.16-9.31-17.34-34.89-26.15-46.8,3.14-3.48,4.49-8.27,3.57-12.95-.53-2.69-1.78-5.13-3.54-7.1,4.74-7.1,5.91-16.08,3.27-25.5-1.86-6.62-7.87-10.95-14.43-10.95-1.29,0-2.6.17-3.9.52-2.97.8-5.4,2.13-7.36,3.57-.66-2.68-1.6-5.52-3.12-8.3-.58-1.06-1.22-2.07-1.92-3.01,1.85-5.62,2.64-12.63-1.12-19.54-4.29-7.89-12.68-12.33-24.94-13.2-4.42-.31-8.86-.47-13.2-.47-20.75,0-49.82,3.64-70.46,21.01-6.45,5.43-12.45,11.56-18.25,17.5-6.82,6.98-13.27,13.58-20.3,19.03-2.75,2.13-6.67,3.31-11.04,3.31-5.01,0-10.07-1.6-13.53-4.29-2.72-2.11-5.96-3.15-9.19-3.15h0c-2.3-1.32-4.88-1.99-7.46-1.99-2.71,0-5.43.74-7.85,2.22-5.15,3.16-7.9,9.1-6.98,15.07,1.58,10.24,7.51,24.38,26.77,33.6,6.98,3.34,14.32,5.37,21.07,6.59.05.41.1.82.17,1.23.21,1.38.54,2.65.93,3.83-2.43-.14-5.07-.49-7.65-.83-2.18-.29-4.23-.55-6.27-.72-.41-.03-.82-.05-1.23-.05-4,0-7.86,1.6-10.69,4.48-3.41,3.46-5.1,8.26-4.66,13.17.95,10.47,11.58,18.2,12.79,19.05,2.47,1.73,5.48,3.03,9.04,4.34.38.49.78.94,1.18,1.35-.36.52-.68,1.05-.97,1.61-2.86.25-5.64,1.32-7.97,3.16-3.58,2.81-5.65,7.07-5.72,11.56-15.97,3.86-28.89,13.26-39.19,28.46-7.8,11.5-11.76,22.75-15.6,33.64-1.5,4.27-2.93,8.3-4.58,12.4-1.45,3.57-3.32,7.48-5.31,11.62-3.53,7.35-7.18,14.94-9.38,22.63-1.67,5.82-2.22,11.24-2.69,16.03-.38,3.79-.71,7.07-1.51,10.07-.78,2.91-2.32,6.25-3.94,9.78-1.97,4.27-4.2,9.11-5.66,14.47-1.31,4.77-1.85,9.36-2.33,13.4-.53,4.5-.99,8.38-2.29,11.14-2.32,4.95-1.77,10.77,1.44,15.19l4.99,6.87c2.81,3.87,7.31,6.17,12.1,6.18,0,0,422.68,1.1,422.69,1.1,4.62,0,8.98-2.13,11.82-5.77,2.85-3.65,3.85-8.42,2.72-12.91Z"/>
      <g>
        <path class="cls-16" d="M227.79,29.46c-6.97,4.26-15.32,15.59-23.06,21.39-9.67,7.24-24.69,17.17-34.88,23.56-3.91,2.45-21.85,11.59-25.6,11.94-3.17.3-12.31-2.68-8.36-5.47,1-.71,2.32-.23,2.99-.48l-.5,4c9.64,1.31,31.19-11.95,36.44-20.49-10.53,6.3-21.53,11.02-32.95,15.49-.08-2.26.5-3.78,2.07-5.42,8.13-8.5,20.78-8.86,30.9-21.54.33-.42.41-.69,1-1,3.55-1.85,6.76-3.87,9.98-6.5,2.04-1.67,2.12-4.2,5.99-4.49.82,7.17-14.17,15.98-14.99,20.46-.27,1.5.02,1.77,1.5,1.5l33.42-20.53c4.61-3.32,7.5-9.6,12.06-12.75,1.41-.97,3.09-1.37,3.99.32Z"/>
        <path class="cls-22" d="M227.79,29.46c.63-.39,5.13-2.3,5.99-1.5-17.7,19.85-37.77,38.76-63.93,46.45,10.19-6.38,25.21-16.32,34.88-23.56,7.75-5.8,16.09-17.13,23.06-21.39Z"/>
        <path class="cls-22" d="M141.87,79.4c11.41-4.48,22.41-9.19,32.95-15.49-5.24,8.54-26.8,21.81-36.44,20.49l.5-4c.99-.37,2.06-.63,3-1Z"/>
        <path class="cls-3" d="M183.83,96.38l-2.99,11.98c5.52.96,7.5-3.85,11.04-6.45,1.76-1.29,4.08-2.39,5.93-3.54-3.02,3.74-3.52,12.98,1,15.98-.82.41-1.6,3.59-4.55,4.02-4.46.66-5.7-4.16-9.43-2.03-2.35-2.55-5.38-2.2-7-3.49-2.04-1.64.96-8.95-.88-12.34,2.6-.87,4.56-2.82,6.88-4.15Z"/>
        <path class="cls-1" d="M199.82,84.39l4.99,1.99-.51-2.98c2.02,1.58,4.95,2.46,6.85,4.14,3.69,3.25-2.72,2.72-5.14,3.55-10.36,3.54-16.16,5.94-22.69,15.27l4.5-11.98c5.42-3.08,6.75-1.44,8.99-7.99.28-.81.07-1.89.94-2.51.73-.54,1.96.56,2.06.51Z"/>
        <path class="cls-12" d="M154.86,109.37c.72,2.84-.42,14.73-1.94,17.29-.7,1.19-10.42,7.87-12.01,8.18-.72.14-.98-.51-1.04-.5,2.26-4.44,10.08-7.18,11.54-11.93s-.12-11.16.45-16.04c.81.08,2.9,2.65,2.99,3Z"/>
        <path class="cls-11" d="M254.76,125.35c-.8,1.76-1.82,3.47-3,4.99-3.06,3.94-5.54,5.95-10.99,4.99-1.37-.24-6.55-2.92-7.99-4l9.3-.19,4.31-5.67c2.76-.49,5.61.11,8.37-.13Z"/>
        <path class="cls-9" d="M273.64,113.25l-3.75-.03c-5.51-16.36,8.39-15.25,3.75.03Z"/>
        <path class="cls-22" d="M254.65,84.49l.15,3.43c-5.37-.43-7.42,2.42-12.02,3.46.31-6.39,6.4-7.98,11.87-6.89Z"/>
        <path class="cls-17" d="M258.76,57.43c-2.16-.86-9.18-2.68-9.99-4.5l4.99-2.49c2.2,2.13,3.84,4.13,5,6.99Z"/>
        <path class="cls-20" d="M274.74,128.35c.15,1.87.24,2.92-1.02,4.47-.98,1.22-16.52,11.2-18.72,12.24-9.8,4.62-23.7,7.31-34.2,10.25-.73-2.4,3.05-3.12,4.72-3.76,8.74-3.32,19.11-5.14,27.62-9.35,7.72-3.82,13.54-11.01,21.6-13.86Z"/>
        <path class="cls-22" d="M200.81,114.36c.42-3.6-.9-6.2,1.97-9.51,3.69-4.25,15.28-4.92,20-1.96.47,2.46-1.95,1.38-3.49,1.47-3.18.18-5.65-.27-8.76,1.24-3.9,1.89-5.03,6.13-9.72,8.76Z"/>
        <path class="cls-12" d="M267.74,152.32c.31,3.48-3.49,2.45-5.46,4.02-2.68,2.13-3.98,8.27-7.51,9.96.33-6.64,5.24-15.29,12.97-13.98Z"/>
        <path class="cls-25" d="M399.62,253.2l-1-1c.03.07.77.2,1,1Z"/>
        <path class="cls-9" d="M274.74,121.35c3.98,1.47,6.47,5.07,7.99,8.99-.47.07-4.83,5.64-6.34,7.08-.58.55-.48,1.76-.65,1.91-9.38,8.1-54.67,27.95-66.48,27.02-6.37-.5-8.93-3.52-4.45-9.04.48,3,4.98,5.63,6.5,3,.66-1.14-3-3.11-3.51-5.99l32.97-18.98c5.45.95,7.93-1.05,10.99-4.99,3.65-.51,10.07-1.75,13.23-3.26s5.47-5.67,9.75-5.73ZM274.74,128.35c-8.06,2.85-13.88,10.04-21.6,13.86-8.51,4.21-18.88,6.02-27.62,9.35-1.67.64-5.45,1.35-4.72,3.76,10.5-2.94,24.4-5.63,34.2-10.25,2.21-1.04,17.74-11.02,18.72-12.24,1.25-1.55,1.17-2.6,1.02-4.47Z"/>
        <path class="cls-9" d="M222.79,90.39c-.54,2.37,1.97,2,2.78,3.68.53,1.09,4.3,12.61,4.21,13.3-.26,2.13-10.29,11.44-12.24,12.23-3.77,1.52-7.86.48-11.73.76-1.66-.95-2.91-1.94-5-2,.29-.91-.14-2.79,0-4,4.69-2.63,5.82-6.87,9.72-8.76,3.11-1.51,5.58-1.06,8.76-1.24,1.54-.09,3.96.98,3.49-1.47-4.71-2.97-16.31-2.29-20,1.96-2.88,3.31-1.55,5.91-1.97,9.51-.4.22-1.56-.22-2,0-4.52-3-4.02-12.24-1-15.98,12.69-7.86,10.72-3.37,22.28-6.02.18-.04,1.88-1.44,2.7-1.97Z"/>
        <path class="cls-13" d="M275.74,139.33c.91-.99,4.5-.8,5.33,1.22,2.37,5.78-1.36,12.45-4.33,17.33-4.08-.75-6.12-.38-10,.43-5.01,1.04-7.15,1.85-7.99,7.99-4.03,4.29-22.31,4.89-25.06,1.58-.75-.9-1.17-1.8-.88-3,4.03-4.44,10.8-1.04,15.35-3.68,1.95-1.13,2.48-3.46,4.24-4.75,7.45-5.47,16.33-6.7,22.23-13.78.83-.99.89-3.09,1.11-3.34ZM267.74,152.32c-7.73-1.31-12.64,7.34-12.97,13.98,3.53-1.69,4.83-7.83,7.51-9.96,1.97-1.57,5.77-.54,5.46-4.02Z"/>
        <path class="cls-22" d="M204.81,81.4c3.73-.09,16.74,7.08,17.86,2.42l-.88-9.41c3.3-.78,2.37,3.41,2.99,4.99,1.07,2.72,3.38,4.01,1.86,8.36-.44,1.26-2.65,1.83-3.86,2.62-.82.53-2.52,1.93-2.7,1.97-11.56,2.64-9.58-1.85-22.28,6.02-1.86,1.15-4.18,2.25-5.93,3.54-3.54,2.59-5.52,7.41-11.04,6.45l2.99-11.98c1.41-.81,2.86-1.35,4-2,.62-3.26,6.2-5.74,8.99-7.99-2.24,6.55-3.57,4.91-8.99,7.99l-4.5,11.98c6.53-9.33,12.33-11.73,22.69-15.27,2.42-.83,8.82-.3,5.14-3.55-1.9-1.68-4.83-2.56-6.85-4.14l.51,2.98-4.99-1.99c1.14-.6,1.65-2.91,5-3Z"/>
        <path class="cls-22" d="M244.77,100.38c5.15,7.03,10.33,8.18,15.51,12.96s1.07,11.44-5.52,12.01c-2.76.24-5.6-.36-8.37.13l-4.31,5.67-9.3.19c-2.88-2.15-4.42-4.14-4-7.99.3.12.77-.14,1,0,1.73,1.01,3.66,3.67,5,4,.84.21,5.37.19,5.86-.13l2.33-6.19,13.78-.68c.46-2.12-1.7-2.57-2.46-4.07-.57-1.14-.26-2.75-.81-3.64-.36-.58-2.32-1.22-3.25-2.22-4.59-4.88-10.68-9.39-11.42-16.69-.28-2.72.91-3.63.96-4.34.73,4.59,2.37,7.4,5,10.99Z"/>
        <path class="cls-11" d="M224.79,79.4c2.15-.47,2.16,1.15,2.99,2.45,3.5,5.49,9.43,23.59,10.78,30.24.43,2.11.73,3.84-1.28,5.24l-4.5-4.97c1.56-2.8.94-7.99-3-4.99.08-.69-3.68-12.21-4.21-13.3-.81-1.68-3.33-1.31-2.78-3.68,1.21-.79,3.42-1.37,3.86-2.62,1.52-4.36-.79-5.65-1.86-8.36Z"/>
        <path class="cls-19" d="M228.79,123.35c-.43,3.85,1.11,5.84,4,7.99,1.44,1.07,6.62,3.76,7.99,4l-32.97,18.98c-.15-.87-.24-3.21.17-3.81.37-.54,9.68-4.43,11.74-5.76,6.01-3.87,13.42-10.04,7.07-17.4.33-1.79,1.06-2.67,0-4.99,1.83-.56,1.77.9,2,.99Z"/>
        <path class="cls-12" d="M226.79,127.35c6.34,7.36-1.07,13.53-7.07,17.4-2.06,1.33-11.38,5.21-11.74,5.76-.41.61-.32,2.94-.17,3.81.51,2.89,4.17,4.85,3.51,5.99-1.52,2.64-6.02,0-6.5-3-2.72-17.07,12.82-9.73,19.09-18.43.95-1.32-.24-2.64.16-3.75,1.12-3.08,2.02-3.97,2.73-7.78Z"/>
        <path class="cls-22" d="M232.78,112.36c-.4.73-11.89,10.55-12.69,10.78-2.9.85-9.85.36-12.62-1-1.1-.54-1.44-1.66-1.67-1.79,3.87-.27,7.97.77,11.73-.76,1.96-.79,11.99-10.1,12.24-12.23,3.94-2.99,4.55,2.2,3,4.99Z"/>
        <path class="cls-9" d="M211.65,133.49l1.06,4.18c-1.09,4.04-14.52,2.9-17.88,1.65-1.53-2.1,6.78-4.97,8.17-5.3,2.88-.69,5.71-1.11,8.65-.53Z"/>
        <path class="cls-22" d="M277.74,118.36c3.16.52,6.73,5.23,7.99,7.99,3,6.56-1.18,3.71-3,4-1.52-3.92-4.01-7.52-7.99-8.99-4.58-1.69-10.93-.05-10.98-5.99,2.78.36,4.88,2.13,7.74,2.75,2.18.48,4.38-.07,6.24.24Z"/>
        <path class="cls-11" d="M198.82,120.35c3.38,5.02-.19,4.34-1,4.99v-2.99c-5.01.29-4.18,5.84-5,8.98-2.22,8.6-6.64,5.51-3.78-3.29,1.12-3.44.02-1.38-2.22-1.7,2.1-.87,3.33-1.51,5.99-1,.26-2.78-1.77-2.98-3.99-2.99.11-.48.53-.93,1-1,2.98-.41,5.97.81,8.99-1Z"/>
        <path class="cls-12" d="M200.81,114.36c-.14,1.2.29,3.09,0,4-.04.13-1.88,1.93-2,2-3.02,1.81-6.01.59-8.99,1-3.73-.81-3.97-3.88-5-4.99,3.73-2.13,4.97,2.68,9.43,2.03,2.96-.44,3.74-3.61,4.55-4.02.43-.22,1.6.22,2,0Z"/>
        <path class="cls-12" d="M188.83,122.35c2.22.01,4.25.21,3.99,2.99-2.66-.51-3.89.13-5.99,1-3.43,1.43-3.28,2.06-4.01,5.99h-.98c.01-.99-.07-2-.01-2.99.28-4.61,2.18-7.02,6.99-6.99Z"/>
        <path class="cls-12" d="M266.75,158.31c2.31,3.18-3.36,3.22-4.9,5.59-1.34,2.06-.53,5.63-3.08,6.4.1-1.29-.18-2.72,0-4,.84-6.14,2.98-6.95,7.99-7.99Z"/>
        <path class="cls-11" d="M229.79,123.35l5.99-3.99-.99,7.99c-1.33-.33-3.26-2.98-5-4Z"/>
        <path class="cls-8" d="M192.82,131.34c.81-3.14-.02-8.69,4.99-8.98v2.99c-2.64,2.13-1.82,6.44-4.99,5.99Z"/>
        <path class="cls-11" d="M274.99,169.04c2.87,1.72,4.79-1.08,5.65,5.86s-3.29,12.85-9.22,16.24c-3.98-1.53-6.13-4.58-7.65-8.36,4.29,2.26,6.79-.24,10.89-1.59l-1.93-14.38c1.02-1.38,1.66,1.88,2.25,2.23Z"/>
        <path class="cls-15" d="M250.76,281.17c3.94-.43,5.8-5.12,7.91-7.35.79-.84.69-.91,2.07-.64l10.01,14.98c-.85,9.18-3.12,18.12-5.49,26.96-5.69-10.01-12.49-22.52-14.49-33.96Z"/>
        <path class="cls-6" d="M428.59,363.07c-6.11-24.32-14.94-49.66-13.99-74.91,5.75,18.15,12.14,39.35,16.49,57.93.72,3.07,3.47,14.02,2.06,16.05-1.29,1.4-2.99.81-4.56.93Z"/>
        <path class="cls-23" d="M239.78,82.4c.08-.18,2.48-.91,3.4-2.07,1.95-2.44,6.15-11.63,10.55-9.46,6.34,3.12,3.99,10.93,5.46,15.59,1.23,3.88,6.8,5.42.58,11.44-7.61,3.78-14.06-6.29-16-4.5l3.99,6.99c-.95-.13-2.02.09-3,0-2.63-3.59-4.27-6.4-5-10.99.13-1.72-.4-6.1,0-6.99ZM254.65,84.49c-5.48-1.09-11.56.5-11.87,6.89,4.6-1.04,6.65-3.89,12.02-3.46l-.15-3.43Z"/>
        <path class="cls-15" d="M212.8,264.19c-1.38,1.67-7.64,12.97-9.49,12.97-7.91-8.81-12.99-19.59-18.48-29.95,9.88,4.36,19.35,10.45,27.97,16.98Z"/>
        <path class="cls-1" d="M158.86,98.38c2.11,6.44,3.28,12.99,5.07,19.52-2.39,4.41-4.3,8.74-6.07,13.44-.51.12-4.47,2.33-5.99,3,3.51-7.76,7.86-16.58,4.74-25.21-.71-1.98-2.14-2.96-1.74.24-.09-.34-2.18-2.92-2.99-3-.57,4.88.96,11.44-.45,16.04s-9.28,7.49-11.54,11.93c-1.09.07-5.11.73-4.99-.99,4.66-1.3,8.06-5.15,10.16-9.32,4.32-8.6,2.6-24.19,13.81-25.65Z"/>
        <path class="cls-19" d="M158.86,159.31c-1.78.68-3.32.96-4.92,1.56-2.02.75-3.61,4.65-7.66,1.52-2.84-2.19-3.81-14.58-4.47-18.4l11.05-4.66-3.98,11.98c4.76-6.67,8.83-.71,13.98-4.99.07.35,4.64,5.5,4,5.98-4.93-.63-6.72,2.91-7.99,7Z"/>
        <path class="cls-14" d="M184.83,247.21c-2.24-4.22-4.94-8.2-6.83-12.65-.39-.91-2.17-2.54-.67-3.32,3.95,3.35,7.92,6.84,12.18,9.8s17.85,13.07,21.31,14.65c2.83,1.29,6.9.17,9.97.53-1.51,3.25-6.01,5.57-7.99,7.98-8.62-6.53-18.09-12.62-27.97-16.98Z"/>
        <path class="cls-5" d="M207.81,293.15c4.84-3.28,7.89-8.41,11.7-12.7.59-.67-.06-1.92,2.28-1.27l2,37.95c-6.69-8.21-10.95-14.81-15.98-23.97Z"/>
        <path class="cls-6" d="M350.66,363.07c-5.29-14.52-9.75-29.06-13.33-44.12-.32-1.36-1.76-3.21.83-2.84l20.49,46.95c-2.66.02-5.33,0-7.99,0Z"/>
        <path class="cls-18" d="M120.89,179.29c6.62.27,14.84-1.58,19.63-6.35,1.3-1.29,2.38-5.11,3.93-5.48,5.68-1.35,9.8,5.62,4.9,10.81-7.16,7.58-20.94,7.97-28.46,1.01Z"/>
        <path class="cls-10" d="M252.76,258.19c-1.48,3.28-6.37,14.01-8.49,15.99-1.38,1.29-2.81,1.08-4.5.99-1.37-5.01-8.2-7.3-7.99-12.97,6.5-1.66,14-6.03,20.97-4.01Z"/>
        <path class="cls-13" d="M303.71,161.31c-3.92,12.6,3.46,23.84-13.55,25.92-2.33.29-1.31-1.2-1.43-2.95,12.31-7.85,8.73-23.54,11-35.96,3.54,2.6,3.31,8.95,3.99,12.98Z"/>
        <path class="cls-6" d="M31.98,343.09c-.79,6.22-3.2,13.33-3,19.98-1.99-.07-4.01.06-6,0-1.82-13.46,4.98-24.88,9-36.96,2.08,5.32.7,11.5,0,16.98Z"/>
        <path class="cls-19" d="M278.74,208.25c2.14-.61,4.13-2.8,6.99-1.99l-1.99,21.97c-3.14,3.77-6.11,7.38-10.98,8.99,1.99-9.64,6.76-18.84,5.98-28.97Z"/>
        <path class="cls-14" d="M270.74,288.16l-10.01-14.98c-1.38-.28-1.27-.21-2.07.64-2.11,2.24-3.97,6.92-7.91,7.35-.04-.22-.95-.74-.99-1.58l9.97-18.4,11.98,25.37c-.03.81-.96,1.39-.98,1.6Z"/>
        <path class="cls-21" d="M239.78,275.17c-5.48-.3-11.45-10.13-15.97-13.48l7.5-7.55c7.78,1.86,15.62,1.02,23.45.06.62,2.02-1.49,2.88-1.99,3.99-6.97-2.03-14.47,2.35-20.97,4.01-.21,5.67,6.62,7.96,7.99,12.97Z"/>
        <path class="cls-16" d="M253.76,50.43l-4.99,2.49c.81,1.82,7.82,3.64,9.99,4.5.18.07.22.71.5.98l.5-.98c.04.29.95,1.06,1.05,2.43.29,3.93-5.34-.02-6.67-.15-1.93-.19-3.81,1.13-6.64.53-3.4-.71-9.8-6.19-8.61-10.15,1.62-1.93,3.97-3.08,5.89-4.65.99,3.01,4.56,1.45,7.02,2.51,1.11.48,1.37,1.91,1.97,2.49Z"/>
        <path class="cls-2" d="M31.98,343.09c2.42-.53,2.07,1.23,2.82,2.63,3.02,5.6,6.1,11.31,8.17,17.35-4.64-.02-9.35.16-13.99,0-.2-6.65,2.2-13.76,3-19.98Z"/>
        <path class="cls-1" d="M255.76,65.42l6.54-2.96c3.11,6.55,15.28,6.44,20.41,2.44,1.63-1.27,1.41-3.26,3.01-3.47-1.3,12.96-15.47,11.26-25.28,10.8-1.54-.48-3.91-4.98-4.68-6.81l-8.99,5.98c.8-4.14,4.43-9.18,9.01-7.4.1.49-.16,1.07-.02,1.42Z"/>
        <path class="cls-15" d="M273.74,250.2c.29,2.56,1.09,4.84,1.09,7.49-.02,4.62-2.12,10.37-1.1,15.48l-8.98-13.98c1.1-3.51,5.43-7.86,8.99-8.99Z"/>
        <path class="cls-11" d="M291.72,122.35l-5.99,4c-1.26-2.76-4.83-7.47-7.99-7.99,2.73-2.86,3.75-6.05,4-9.99,3.87,4.68,6.7,8.92,9.99,13.98Z"/>
        <path class="cls-23" d="M259.76,57.43l-.5.98c-.27-.27-.31-.91-.5-.98-1.16-2.86-2.79-4.87-5-6.99-.6-.58-.86-2.01-1.97-2.49-2.46-1.06-6.03.5-7.02-2.51,1.87-1.52,3.6-3.15,5.47-4.65,8.87,2.03,8.46,9.33,9.52,16.64Z"/>
        <path class="cls-24" d="M265.58,75.6l9.15,11.79c-5.83-2.16-11.55-4.29-13.95-10.49,1.15-1.69,2.95-1.97,4.8-1.29Z"/>
        <path class="cls-24" d="M157.86,131.34c.82-.2,2.05.13,2.99,0,.42,4.77-.04,8.66-2.01,12.98l-3.7-8.5c1.55-1.58,1.96-2.47,2.72-4.48Z"/>
        <path class="cls-23" d="M133.88,97.38c7.23-1.58,4.52,7.93,5.05,12.43.34,2.91,2.67,3.65,1.54,7.62-.27.93-1.49,1.63-1.59,1.92-.96-7.98-7.16-12.87-5-21.97Z"/>
        <path class="cls-14" d="M273.74,250.2c-3.56,1.13-7.89,5.48-8.99,8.99-6.97-6.3,2.3-13.42,8.98-14.98.18,1.95-.21,4.07,0,5.99Z"/>
        <path class="cls-2" d="M93.92,192.27c.35,3.87,6.69,4.82,9.77,5.71,8.66,2.49,17.17,2.66,25.75,4.22,1.87,2.69-1.42,21.77-1.6,26.49-.28,7.38-1.13,24.57.07,30.98,1.52,8.13,14.37,2.9,14.95,3.53-.62,8.84-7.51,12.7-5.93,22.42,1,6.15,13.67,13.03,18.44,17.51,7.86,7.38,14.1,17.01,22.44,24.51,12.8,11.51,28.7,20.84,42.18,31.51.96.76,3.05,2.49,2.79,3.93-35.26.13-70.64.38-105.89,0-.23-2.44,1.37-4.53,1.77-6.73,5.75-32.05.26-74.56-1.72-107.68-.47-7.78-1.3-22.45-7.03-27.43v15.48c0,5.84-4.78,10.01-5.77,15.21s-.45,12.36-1.33,17.65c-.36,2.18-1.7,11.03-4.9,8.95-.54-.35-7.19-8.95-7.95-10.11-1.83-2.77-6.42-9.77-7.25-12.5-.66-2.16-.54-8.37-2.29-8.71-6.33.9-6.9,15.33-3.48,17.98.29,2.54.51,5.52,1,7.99-2.02-.75-3.46,3.77-3.7,4.79-1.63,6.79-1.94,15.65-3.53,22.45-2.94,12.57-8.11,24.81-9.76,37.69l-6.99-6c-1.57-10.91-4.73-28.7-4.03-39.49,1.27-19.58,11.03-45.82,18.83-64.07,3.31-7.76,8.41-15.21,11.35-22.6.49-1.23,2.16-4.68.82-5.68,5.14-5.18,5.85-5.88,12.99-7.99Z"/>
        <path class="cls-2" d="M304.71,186.28c4.83.04,7.42,5.15,10.72,6.77,12.61,6.16,27.66-10.17,37.23-1.27,3.03,2.81,15.74,18.95,17.46,22.49,3.69,7.6,4.54,15.86,9.32,23.65,5.58,9.09,10.27,9.09,11.23,21.74,1.14,15.02-3.04,32.7-.98,47.92.59,4.36,2.35,6.6,6.93,5.56-1.11,14.66-2.89,29.29-4,43.94-2.26.53-1.62-.33-2.29-1.24-9.34-12.82-14.63-51.89-18.14-68.71-2.38-11.41-6.33-23.41-8.27-34.68-2.75-15.94-.95-30.12-6.25-45.19-.33-.93.17-3.16,0-4.48-4.18-2.34-5.38,4.86-5.9,8.08-2.64,16.48-2,40.18-2.1,57.33-3.49-5.21-5.41-25.54-9.45-29.01-.83-.72-1.41-1.69-2.55-.47-4.16,15.79.27,34.43,3.49,50.47,5.01,24.91,13.03,49.12,18.49,73.9-.33,0-.67,0-1,0l-20.49-46.95c-2.58-.37-1.15,1.47-.83,2.84,3.57,15.05,8.03,29.6,13.33,44.12-23.61.08-47.32.27-70.93,0l17.25-31.22c6.54-16,14.99-31.98,21.58-47.52,1.59-3.76,6.8-14.74,7.07-17.77.54-6.02-5.18-10.91-8.88-15-.33-1.9,5.69-4.28,4.9-10.76-.45-3.66-8.4-23.44-10.46-27.56-1.9-3.8-5.63-11.73-10.49-7.99-.2-5.96,1.82-13.56,4-18.98Z"/>
        <path class="cls-3" d="M244.77,63.42c.41.26,2.07-.57,2.02.52l-3.02,10.47-3.98-1c-1.48,2.81,4.26,3.45,1.01,5.5-5.38,3.4-10.38-5.23-11-4.51-.26,4.93,5.86,7.71,9.98,7.99-.4.89.13,5.27,0,6.99-.06.72-1.24,1.62-.96,4.34.75,7.3,6.83,11.8,11.42,16.69.94.99,2.9,1.64,3.25,2.22.55.89.24,2.5.81,3.64.75,1.49,2.91,1.95,2.46,4.07l-13.78.68-2.33,6.19c-.49.32-5.02.34-5.86.13l.99-7.99-5.99,3.99c-.23-.14-.69.12-1,0-.22-.09-.16-1.55-2-.99,1.06,2.32.33,3.2,0,4.99-.71,3.81-1.61,4.7-2.73,7.78-.41,1.12.79,2.43-.16,3.75-6.27,8.71-21.81,1.36-19.09,18.43-4.48,5.52-1.93,8.53,4.45,9.04,11.81.93,57.1-18.92,66.48-27.02-.23.25-.29,2.34-1.11,3.34-5.89,7.08-14.77,8.31-22.23,13.78-1.76,1.29-2.29,3.62-4.24,4.75-4.55,2.64-11.31-.76-15.35,3.68-.29,1.2.13,2.1.88,3,2.75,3.3,21.03,2.71,25.06-1.58-.17,1.27.11,2.7,0,4,2.55-.76,1.74-4.34,3.08-6.4,1.54-2.37,7.21-2.41,4.9-5.59,3.87-.81,5.91-1.17,10-.43,2.97-4.88,6.7-11.55,4.33-17.33-.83-2.03-4.43-2.21-5.33-1.22.18-.15.07-1.36.65-1.91,1.51-1.44,5.87-7.01,6.34-7.08,1.82-.28,6,2.57,3-4l5.99-4c6.51,9.99,20.49,27.32,11.99,38.95-.67-4.03-.44-10.38-3.99-12.98-2.27,12.42,1.31,28.1-11,35.96-.56-8.28-.85-14.25-3-22.47-.36-1.38.03-3.11-1.99-3.5-.48,8.45,4.42,29.24-2.75,34.98-3.32,2.66-19.89,6.49-23.23,4.46-1.88-1.14-5.93-8.42-7.56-10.41-1.46-1.78-4.37-2.56-5.84-5.15-1.83-3.21-1.28-6.52-2.08-9.9-7.6,9.6,6.19,21.27,11.48,28.95-11.8,1.16-20.28-7.12-26.48-15.97-1.14,3.45,1.73,7.28,3.5,9.98,4.37,6.67,16.42,12.86,24.56,13.9,7.82,1,8.14-5.23,15.39-.89.2,1.05-.38,1.81-.78,2.69-1.21,2.61-13.26,21.85-14.77,23.19-9.56,8.49-34.77-1.07-42.43-9.37-1.76-1.9-8.01-12.46-9.6-15.37-.76-1.38-1.75-2.31-1.34-4.14,2.43-2.42,11.06,10,13.69,10.78,1.18.35,8.25,1.2,7.28-1.28-1.81-4.64-14.54-18.16-18.38-23.57-2.26-3.18-8.26-10.71-9.12-13.86-.63-2.32-1.97-13.52-1.32-15.39s9.39-2.76,7.79-8c-.56-1.84-10.1-3.57-11.89-6.19-1.64-.56-3.53.75-5.03.57-.33-.04-.67.04-1,0l-9.83-15.63,2.84-14.33,5.98,2.01c-3.32,3.67-5.34,8.03-5.99,12.97l4.99-3.99c-.06.99.02,2,.01,2.99h.98c.73-3.93.58-4.56,4.01-5.99,2.23.32,3.33-1.73,2.22,1.7-2.86,8.8,1.56,11.89,3.78,3.29,3.17.44,2.35-3.87,5-5.99.81-.65,4.38.03,1-4.99.12-.07,1.96-1.86,2-2,2.08.06,3.34,1.05,5,2,.23.13.57,1.25,1.67,1.79,2.76,1.36,9.72,1.85,12.62,1,.8-.23,12.29-10.05,12.69-10.78l4.5,4.97c2.01-1.4,1.71-3.14,1.28-5.24-1.35-6.65-7.28-24.75-10.78-30.24-.83-1.3-.84-2.92-2.99-2.45-.62-1.58.3-5.77-2.99-4.99l.88,9.41c-1.12,4.67-14.14-2.51-17.86-2.42,8.78-8.18,21.03-12.1,29.67-20.83l10.29,2.85ZM211.65,133.49c-2.94-.58-5.77-.16-8.65.53-1.39.33-9.69,3.2-8.17,5.3,3.36,1.25,16.78,2.39,17.88-1.65l-1.06-4.18ZM274.99,169.04c-.59-.36-1.23-3.61-2.25-2.23l1.93,14.38c-4.1,1.35-6.6,3.85-10.89,1.59,1.52,3.78,3.67,6.83,7.65,8.36,5.93-3.39,10.09-9.21,9.22-16.24s-2.78-4.13-5.65-5.86Z"/>
        <path class="cls-13" d="M162.85,146.32c-.22-1.18,1.54-4.24,1.01-6,1.94-1.94,12.06,7.81,14.07,9.4,5.35,4.25,10.09,4.13,11.4,12.59l2.51-.52c.61-5.21-5.25-8.97-7-13.48,1.5.18,3.39-1.13,5.03-.57,1.8,2.62,11.33,4.35,11.89,6.19,1.6,5.24-7.12,6.05-7.79,8s.69,13.07,1.32,15.39c.86,3.15,6.86,10.68,9.12,13.86,3.84,5.42,16.57,18.93,18.38,23.57.97,2.48-6.1,1.63-7.28,1.28-2.62-.78-11.26-13.2-13.69-10.78-.41,1.84.58,2.76,1.34,4.14,1.59,2.91,7.84,13.47,9.6,15.37,7.65,8.3,32.86,17.86,42.43,9.37,1.51-1.34,13.57-20.58,14.77-23.19.41-.88.98-1.64.78-2.69-7.25-4.34-7.57,1.89-15.39.89-8.15-1.04-20.2-7.22-24.56-13.9,11.81,12.51,31.8,11.48,46.94,5.48,5.05-2,9.53-4.24,9.03-10.45,3.06-.8,7.65,1.05,7.97,4.49.27,2.91-1.71,13.01-2.49,16.47-1.72,7.57-3.62,11.1-8.5,16.97l1.99-21.97c-2.85-.8-4.84,1.38-6.99,1.99-.06.02-.46-.98-.91-.99-6.24,12.1-8.06,38.42-24.65,40.86-12.34,1.82-24.23,0-36.4.69-17.26-12.88-31.24-29.15-36.46-50.54-2.45-10.07-2.83-29.85-7.64-37.31-.99-1.53-4.28-5.71-5.83-4.16,7.17,11.34,5.77,25.71,8.28,38.67,3.33,17.23,10.5,32.59,23.68,44.25-.93,1.6-2.24-.38-3.09-.9-7.11-4.39-19.48-14.22-23.7-21.25-3.36-5.6-5.43-13.26-7.44-19.53-2.08-6.47-7.3-22.53-7.47-28.53-.16-5.88,7.42-5.57,6.73-12.18-1.81.17-3.15,1.29-4.99,1.99,1.27-4.09,3.06-7.63,7.99-7,.65-.48-3.93-5.63-4-5.98Z"/>
        <path class="cls-25" d="M93.92,192.27c7.72-2.28,24.57-4.7,32.63-4.92,3.81-.1,8.17,1.78,12.32.93-3.25,16.71-4.5,33.51-4.95,50.48-.15,5.77-2.28,10.73.84,16.86,1.67,2.47,26.82-2.23,31.08-3.41,1.18,1.14-16.11,23.16-16.06,28.49,0,.96.2,1.6.59,2.45.95,2.07,14.46,11.71,17.49,14.49,21.4,19.7,38.31,33.82,61.68,51.15,6.09,4.51,11.92,9.49,18.23,13.8-8.24.92-16.68.46-24.97.49.26-1.44-1.83-3.17-2.79-3.93-13.48-10.67-29.38-20.01-42.18-31.51-8.34-7.5-14.58-17.13-22.44-24.51-4.77-4.48-17.44-11.36-18.44-17.51-1.58-9.72,5.3-13.58,5.93-22.42-.59-.62-13.43,4.6-14.95-3.53-1.2-6.41-.35-23.59-.07-30.98.18-4.72,3.47-23.8,1.6-26.49-8.59-1.56-17.09-1.73-25.75-4.22-3.09-.89-9.43-1.84-9.77-5.71Z"/>
        <path class="cls-25" d="M357.66,207.25c5.3,15.07,3.5,29.25,6.25,45.19,1.94,11.27,5.89,23.27,8.27,34.68,3.51,16.82,8.8,55.89,18.14,68.71.67.92.04,1.77,2.29,1.24,1.11-14.65,2.89-29.29,4-43.94,1.34-17.68,1.76-33.73,1.98-51.45.02-1.69-.64-4.44,1.02-5.48,2.32,10.08,4.07,21.17,4.99,31.47,1.2,13.5-.45,30.04,2.27,42.68.21.97.36,3,1.72,2.75l4.01-19.97c.02.32,1.66,2.16,1.07,3.38l-1.07,46.56c-9.28.11-18.73.33-27.98-.49-3.02-5.52-2.4-11.66-5.11-17.87-.69-1.58-5.51-9.85-6.41-10.66-1.52-1.36-3.08.27-3.94-.89-3.85-5.2-11.58-31.46-13.2-38.81-5.01-22.69-3.71-53.24-1.16-76.49.36-3.26.89-7.94,2.87-10.62Z"/>
        <path class="cls-25" d="M116.9,363.07c-4.32-.05-8.67.03-12.99,0,1.03-6.41-.97-13.48-1.05-19.45-.14-11.16,14.19-71.67,11.04-75.44-2.13-.41-2.32,1-3.05,2.43-2.4,4.74-5.24,18.64-6.47,24.5-3.23,15.39-4.11,31.3-7.42,46.51l-3.02,1.46c-2.15-1.52-2.3-30.78-3.24-36.22-.55-3.17-2.81-5.7-3.5-8.48-2.45-9.77-4.83-23.34-8.23-32.55-.48-1.29-1.76-.46-2.02-.66-3.42-2.65-2.85-17.08,3.48-17.98,1.75.34,1.63,6.55,2.29,8.71.84,2.73,5.43,9.73,7.25,12.5.76,1.16,7.41,9.76,7.95,10.11,3.2,2.08,4.54-6.77,4.9-8.95.88-5.29.34-12.42,1.33-17.65s5.77-9.37,5.77-15.21v-15.48c5.74,4.97,6.57,19.65,7.03,27.43,1.99,33.12,7.47,75.63,1.72,107.68-.39,2.2-1.99,4.29-1.77,6.73Z"/>
        <path class="cls-25" d="M77.94,273.18c5,25.15,7.2,38.46,8.95,64.47.59,8.76,2.55,17.39,6.03,25.42-16.63-.05-33.31.09-49.95,0-2.07-6.04-5.15-11.75-8.17-17.35-.75-1.39-.4-3.16-2.82-2.63.7-5.48,2.08-11.66,0-16.98,1.47-4.43,1.36-11.63,4.98-14.98,3.09,9.14,9.09,35.58,16.48,41.01,1.46,1.07,2.87.62,3.51.94.21.1,3.49,4.5,2.99.52-.53-4.27-4.68-9.52-5.75-14.24-.57-2.53.09-4.99-.24-7.25l6.99,6c1.65-12.89,6.82-25.13,9.76-37.69,1.59-6.79,1.9-15.66,3.53-22.45.24-1.02,1.68-5.54,3.7-4.79Z"/>
        <path class="cls-25" d="M300.71,205.25c4.86-3.74,8.59,4.19,10.49,7.99,2.07,4.12,10.02,23.9,10.46,27.56.79,6.48-5.23,8.86-4.9,10.76,3.7,4.09,9.42,8.97,8.88,15-.27,3.03-5.48,14.01-7.07,17.77-6.59,15.53-15.04,31.51-21.58,47.52l-17.25,31.22c-4.47-.05-10.32.56-14.5,0-1.38-.18-1.73.55-1.46-1.48,3.27-4.72,4.06-10.44,6.44-15.54,8.46-18.17,20.59-39.66,30.33-57.57,3.01-5.54,14.53-21.28,15.13-25.89,1.15-8.85-12.08-8.89-14.82-16.07-.62-2.21,8.47-6.26,9.57-7.59,5.74-6.95-9.43-25.75-9.7-33.68Z"/>
        <path class="cls-2" d="M142.87,208.25c6.83,3.68,11.02,11.15,16.97,16.49,3.63,3.26,7.41,5.14,11,7.48,4.35,2.84,22.15,46.22,26.11,54.3,11.67,23.77,34.48,47.71,52.14,67.74.78.88,1.04,2.01,2.66,1.83.21,1.92-1.91.7-2.72.23-14.16-8.29-26.65-19.85-39.23-30.2-3.07-10.32-13.5-17.17-20.49-24.96-6.61-7.36-12.14-15.88-20.01-22.01,1.13-6.63,9.33-27.32,5.61-32.51-4.1-5.72-21.72-2.09-27.96-1.49-3.81-11.97-1.93-24.92-4.08-36.88Z"/>
        <path class="cls-17" d="M250.76,31.46l-11.49,9.98,5.48-10.49c-4.43,1.74-11.56,15.14-6.98,1.51-1.7-1.64-6.84,4.19-7.97,5.51-10.15,11.94-10.19,18.05-25.62,26.33-18.03,9.67-38.77,18.99-57.91,26.04-14.56-2.66-27.64-3.7-41.73-9.12-.89-.34-3.67-.68-1.65-1.82,6.98,1.29,15.61.99,22.42-1.05,8.33-2.5,12.96-9.94,21.52-11.95l-2.98-1.97c15.65-7.73,24.46-25.82,38.63-34.79,10.48-6.63,20.32-8.04,32.29-9.17-3.05.97-9.08,7.78-10.93,8.45-1.1.4-3.49-.7-6.07-.03-3.41.89-24.42,17.49-26.4,20.59-.99,1.56-1.82,3-1.54,4.94l4.98-2c-10.12,12.69-22.77,13.05-30.9,21.54-1.57,1.64-2.15,3.16-2.07,5.42-.94.37-2,.63-3,1-.66.25-1.99-.23-2.99.48-3.95,2.79,5.19,5.77,8.36,5.47,3.74-.35,21.68-9.49,25.6-11.94,26.16-7.69,46.23-26.6,63.93-46.45-.85-.79-5.36,1.12-5.99,1.5-.89-1.7-2.58-1.29-3.99-.32-4.56,3.14-7.45,9.42-12.06,12.75l-33.42,20.53c-1.48.27-1.77,0-1.5-1.5.82-4.48,15.81-13.29,14.99-20.46-3.87.29-3.95,2.82-5.99,4.49-3.23,2.63-6.43,4.64-9.98,6.5l20.49-16.96c-1.03,3.19-7.4,11.21.74,9.78,9.04-1.59,14.95-9,22.2-13.82,6.22-4.13,13.18-7.03,19.51-10.96,4.32.15,10.15-.78,13.44,3.04s.26,5.81-1.45,8.95Z"/>
        <path class="cls-6" d="M398.62,252.2l1,1c.23.79-.2,2.13,0,3-1.66,1.04-1,3.79-1.02,5.48-.22,17.73-.64,33.77-1.98,51.45-4.59,1.05-6.35-1.2-6.93-5.56-2.05-15.23,2.12-32.91.98-47.92-.96-12.64-5.65-12.65-11.23-21.74-4.78-7.79-5.62-16.05-9.32-23.65-1.72-3.54-14.44-19.68-17.46-22.49-9.58-8.9-24.62,7.43-37.23,1.27-3.3-1.61-5.89-6.73-10.72-6.77.76-1.9.49-4.52,2.49-5.97,5.01,3.07,13.22,5.93,19.04,6,6.72.09,14.84-2.8,21.85-1.94,23.4,2.89,33.99,41.42,44.33,58.55,2.57,4.26,4.05,3.76,6.2,9.28Z"/>
        <path class="cls-25" d="M349.67,268.18c-.02,3.15.12,6.35,0,9.5-.05,1.21.75,3.71-.99,3.48-1.49-6.33-3.82-13.21-6.24-19.24-.77-1.93-2.03-5.62-3.75-6.72,2.77,23.99,12.56,49.88,22.5,71.88,5.44,12.04,13.07,22.59,16.44,35.5-5.89.93-12.02.44-17.97.49-5.46-24.78-13.48-48.99-18.49-73.9-3.23-16.04-7.65-34.68-3.49-50.47,1.14-1.22,1.72-.25,2.55.47,4.04,3.47,5.95,23.8,9.45,29.01Z"/>
        <path class="cls-2" d="M295.72,221.24l5.99,10.97c-5.36.64-6.08,7.3-8.53,9.96-1.72,1.87-5.19,1.65-5.43,4.47.14,6.02,10.4,14.43,9.97,18.94-8.74,15.95-15.33,31.17-20.32,48.7-.73,2.55-.23,5.03-.66,6.83-1.03,4.3-3.88,8.62-5.99,12.5-1.75,1.37-1.08-4.63-1.05-5.05,2.14-25.76,9.54-50.8,10.12-76.87.07-3.06-1.55-6.2-1.11-8.93s7.75-8.29,9.99-11.07c1.86-2.31,5.65-7.92,7.02-10.46Z"/>
        <path class="cls-16" d="M102.91,79.4c-2.02,1.14.76,1.48,1.65,1.82,14.08,5.42,27.16,6.45,41.73,9.12,19.14-7.05,39.87-16.37,57.91-26.04,15.42-8.27,15.47-14.39,25.62-26.33,1.12-1.32,6.26-7.15,7.97-5.51-4.58,13.62,2.55.23,6.98-1.51l-5.48,10.49,11.49-9.98c-10.6,19.41-26.96,28.35-46,37.41-7.15,3.4-14.41,11.32-21.62,15.34-21.17,11.78-65.05,10.68-85.92-1.61-1.01-.6-8.43-6.26-7.3-7.18,4.14,1.39,8.2,2.15,12.47,3,.69.14.46.97.51.98Z"/>
        <path class="cls-13" d="M244.77,63.42l-10.29-2.85c-8.64,8.73-20.89,12.65-29.67,20.83-3.34.08-3.86,2.39-5,3-.09.05-1.33-1.05-2.06-.51-.87.62-.66,1.7-.94,2.51-2.79,2.25-8.37,4.73-8.99,7.99-1.13.64-2.59,1.19-4,2-2.31,1.32-4.27,3.28-6.88,4.15,1.84,3.38-1.16,10.69.88,12.34,1.61,1.3,4.64.94,7,3.49,1.03,1.11,1.27,4.18,5,4.99-.47.06-.89.52-1,1-4.81-.03-6.71,2.38-6.99,6.99l-4.99,3.99c.65-4.94,2.67-9.3,5.99-12.97l-5.98-2.01-2.84,14.33,9.83,15.63c-7.76-1.04-10.74-10.67-18.87-11.1.63-3.15-1.06-9-.7-11.42.17-1.16,2.54-2.55,3.15-4.39,2.88-8.8-3.93-17.8-4.15-26.08,26.82-6.75,48.18-25.62,71.5-39.52,2.76-.75,7.09,5.78,10.01,7.61Z"/>
        <path class="cls-6" d="M140.87,205.25h1.99c.15.96-.16,2.1,0,3,2.15,11.96.27,24.92,4.08,36.88,6.23-.59,23.86-4.23,27.96,1.49,3.72,5.2-4.48,25.89-5.61,32.51,7.87,6.13,13.4,14.66,20.01,22.01,6.99,7.79,17.42,14.63,20.49,24.96-18.39-15.13-35.74-31.14-53.88-46.55,1.3-5.33,20.49-28.68,16.92-32.36-11.24-1.94-22.96,7.4-33.51,2.04-1.86-2.82.71-38.1,1.54-43.99Z"/>
        <path class="cls-6" d="M53.96,332.11c.33,2.27-.33,4.72.24,7.25,1.07,4.73,5.22,9.97,5.75,14.24.5,3.98-2.79-.42-2.99-.52-3.61-13.34-10.12-25.19-13.49-38.95-6.77-27.55-3.13-27.73,6.69-51.26,9.03-21.63,13.59-45.31,30.78-62.61,1.33,1-.33,4.45-.82,5.68-2.94,7.4-8.04,14.85-11.35,22.6-7.8,18.25-17.56,44.49-18.83,64.07-.7,10.79,2.45,28.58,4.03,39.49Z"/>
        <path class="cls-10" d="M260.75,353.08c-10.06-13.8-16.96-31.8-19.72-48.7-.19-1.17-1.2-5.32.73-5.23.6,3.74,3.55,7.91,7.91,6.89,3.34-2.35-4.94-14.81-1.9-18.88,2.29,6.13,4.41,12.38,7.14,18.34,1.76,3.85,9.39,15.92,9.8,18.17,1.29,6.96-1.58,22.48-3.95,29.42Z"/>
        <path class="cls-16" d="M133.88,97.38l24.43-2.03c1.22.29.29,2.24.55,3.03-11.21,1.46-9.48,17.05-13.81,25.65-2.1,4.17-5.5,8.02-10.16,9.32-.13,1.72,3.89,1.05,4.99.99.06,0,.33.64,1.04.5,1.59-.31,11.3-6.99,12.01-8.18,1.52-2.56,2.66-14.45,1.94-17.29-.4-3.2,1.02-2.22,1.74-.24,3.12,8.64-1.23,17.45-4.74,25.21-6.54,2.87-13.54,8.43-20.97,6.5l4.99-4.49c-7.92.94-18.45,3.28-24.97-2.51,8.03-.96,22.35-.7,26.84-9.12,1.26-2.37.64-3.8,1.13-5.36.09-.3,1.32-1,1.59-1.92,1.14-3.97-1.19-4.71-1.54-7.62-.53-4.5,2.18-14.01-5.05-12.43Z"/>
        <path class="cls-21" d="M260.75,353.08c-.37,1.09-1.05,2.08-1,3.32l-1.98.67c-3.25-7.15-14.48-15.33-16.76-22.71-2.49-8.09-7.05-39.62-6.12-47.58.22-1.85,1.01-3.66.93-5.56l9.28-.1c.84.2,2.21,4.85,2.66,6.04-3.03,4.08,5.25,16.53,1.9,18.88-4.36,1.02-7.31-3.15-7.91-6.89-1.93-.09-.92,4.06-.73,5.23,2.77,16.9,9.66,34.9,19.72,48.7Z"/>
        <path class="cls-25" d="M140.87,205.25c.43-3.06,3.28-17.24,4.54-18.93.79-1.06,9.73-5.77,10.44-5.04,1.67,17.9,8.57,34.45,14.99,50.94-3.59-2.34-7.37-4.22-11-7.48-5.95-5.35-10.15-12.81-16.97-16.49-.16-.9.15-2.03,0-3h-1.99Z"/>
        <path class="cls-14" d="M207.81,293.15c-.79-1.43-4.76-3.76-3.28-6.69l15.24-19.81c1.78-1.13,8.04,5.54,8.5,6.55,1.52,3.36.13,12.09.53,16.45,1.18,12.84,4.94,25.56,4.97,38.47-3.93-2.96-6.9-7.21-9.98-10.99l-2-37.95c-2.34-.65-1.69.61-2.28,1.27-3.82,4.3-6.86,9.42-11.7,12.7Z"/>
        <path class="cls-9" d="M238.78,19.47c-6.32,3.93-13.29,6.83-19.51,10.96-7.25,4.82-13.16,12.23-22.2,13.82-8.14,1.43-1.77-6.59-.74-9.78l-20.49,16.96c-.59.31-.67.58-1,1l-4.98,2c-.28-1.94.55-3.39,1.54-4.94,1.98-3.1,22.99-19.7,26.4-20.59,2.58-.67,4.97.43,6.07.03,1.85-.67,7.88-7.48,10.93-8.45,8.19-.77,15.68-1.28,23.98-1Z"/>
        <path class="cls-2" d="M414.6,288.16c-.96,25.25,7.87,50.6,13.99,74.91-5.1.38-10.78-.06-15.98,0l1.07-46.56c.59-1.22-1.05-3.05-1.07-3.38-.18-3.14.2-6.33-.01-9.48-.53-7.86-3.67-15.63-.49-23.47,2.28,2,1.73,5.55,2.5,7.99Z"/>
        <path class="cls-6" d="M295.72,221.24c.73-1.37-.35-5.87,2.98-4.99.21,6.46,11.78,14.72,5.51,19.98-3.11,2.61-13.74,5.93-12.36,11.27,1.11,1.85,2.83,3.25,4.39,4.67,3.6,3.28,11.91,6.48,11.45,11.42l-30.96,57.53c.43-1.81-.07-4.28.66-6.83,4.99-17.54,11.58-32.76,20.32-48.7.43-4.52-9.83-12.92-9.97-18.94.24-2.83,3.71-2.6,5.43-4.47,2.44-2.66,3.17-9.32,8.53-9.96l-5.99-10.97Z"/>
        <path class="cls-3" d="M281.73,108.37c-.24,3.94-1.26,7.13-4,9.99-1.86-.31-4.06.24-6.24-.24-2.86-.62-4.96-2.39-7.74-2.75.06,5.94,6.41,4.3,10.98,5.99-4.28.06-6.71,4.29-9.75,5.73s-9.58,2.74-13.23,3.26c1.18-1.52,2.2-3.24,3-4.99,6.58-.57,10.64-7.28,5.52-12.01s-10.36-5.93-15.51-12.96c.97.09,2.04-.13,3,0,4.42.62,6.33,3.15,12.28,1.78,3.97-.91,4.22-5.61,7-5.59,7.77,1.56,10.37,6.59,14.69,11.8ZM273.64,113.25c4.64-15.28-9.26-16.39-3.75-.03l3.75.03Z"/>
        <path class="cls-4" d="M433.97,334.12c-.45-2.25-4.9-15.34-6.41-19.47-6.26-17.17-7.93-37.42-16.77-54.15-15.31-18.15-30.9-65.11-49.2-77.66-10.77-7.38-24.76-1.53-36.39-2.58-5.85-.53-12.24-3.83-18.41-4.06,1.21-12.21,6.7-15.83,3.62-29.09-1.76-7.57-20.61-38.89-26.28-44.64-5.1-5.16-19.59-10.14-22.36-16.6-1.68-3.93,5.22,1.69,5.97,2.03,6.03,2.66,14.74,3.47,19.99-1.02-7.03-2.31-14.78-4.91-18.98-11.47,12.75.59,22.85-6.18,18.98-19.98-4.84,1.3-6.11,7.5-11.69,8.77-19.84,4.52-7-23.72-23.27-25.77-1.24-1.68,17.08-21.19-8.45-23-24.05-1.71-54.03,1.14-72.94,17.05-13.08,11-24.72,25.82-39.01,36.9-11.98,9.29-31.14,8.19-42.96-.98l-1.93,1.98-5.53-3.97c3.34,21.65,29.67,28.27,48.3,29.1l1.61,1.35c-1.99,3.11-2.47,7.31-1.91,10.94.93,5.99,8.35,10.09,2.38,16.49-7.22,7.74-22.34,3.8-31.41,3.05-2.09,2.12,4.27,8.17,6.06,9.42,2.75,1.93,11.3,4.35,11.73,4.81.46.49-.18,2.09.81,2.86,1.93,1.5,14.42,2.09,17.36,1.89l1.88,14.29c-4.56,5.94-11.59,3.28-17.85,2.68.39,5.78,7.07,6.92,9.98,10.97-7.93,2.55-14.65-.29-21.97-2.98.67,5.77,5.97,8.65,8.99,12.97-22.38-1.58-38.21,5.17-50.76,23.67-9.49,14-12.61,28.22-18.69,43.24-4.23,10.45-11.17,22.25-14.18,32.76-2.52,8.77-1.82,17.21-4.13,25.83-2.21,8.26-7.34,15.96-9.63,24.33-2.47,9.03-1.57,18.58-5.51,26.96l4.99,6.87,422.65,1.1s-8.02-31.69-8.67-34.93ZM259.77,97.89c-7.61,3.78-14.06-6.29-16-4.5l3.99,6.99c4.42.62,6.33,3.15,12.28,1.78,3.97-.91,4.22-5.61,7-5.59,7.77,1.56,10.37,6.59,14.69,11.8,3.87,4.68,6.7,8.92,9.99,13.98,6.51,9.99,20.49,27.32,11.99,38.95-3.92,12.6,3.46,23.84-13.55,25.92-2.33.29-1.31-1.2-1.43-2.95-.56-8.28-.85-14.25-3-22.47-.36-1.38.03-3.11-1.99-3.5-.48,8.45,4.42,29.24-2.75,34.98-3.32,2.66-19.89,6.49-23.23,4.46-1.88-1.14-5.93-8.42-7.56-10.41-1.46-1.78-4.37-2.56-5.84-5.15-1.83-3.21-1.28-6.52-2.08-9.9-7.6,9.6,6.19,21.27,11.48,28.95-11.8,1.16-20.28-7.12-26.48-15.97-1.14,3.45,1.73,7.28,3.5,9.98,11.81,12.51,31.8,11.48,46.94,5.48,5.05-2,9.53-4.24,9.03-10.45,3.06-.8,7.65,1.05,7.97,4.49.27,2.91-1.71,13.01-2.49,16.47-1.72,7.57-3.62,11.1-8.5,16.97-3.14,3.77-6.11,7.38-10.98,8.99,1.99-9.64,6.76-18.84,5.98-28.97-.06.02-.46-.98-.91-.99-6.24,12.1-8.06,38.42-24.65,40.86-12.34,1.82-24.23,0-36.4.69-17.26-12.88-31.24-29.15-36.46-50.54-2.45-10.07-2.83-29.85-7.64-37.31-.99-1.53-4.28-5.71-5.83-4.16,7.17,11.34,5.77,25.71,8.28,38.67,3.33,17.23,10.5,32.59,23.68,44.25-.93,1.6-2.24-.38-3.09-.9-7.11-4.39-19.48-14.22-23.7-21.25-3.36-5.6-5.43-13.26-7.44-19.53-2.08-6.47-7.3-22.53-7.47-28.53-.16-5.88,7.42-5.57,6.73-12.18-1.81.17-3.15,1.29-4.99,1.99-1.78.68-3.32.96-4.92,1.56-2.02.75-3.61,4.65-7.66,1.52-2.84-2.19-3.81-14.58-4.47-18.4l11.05-4.66-3.98,11.98c4.76-6.67,8.83-.71,13.98-4.99-.22-1.18,1.54-4.24,1.01-6,1.94-1.94,12.06,7.81,14.07,9.4,5.35,4.25,10.09,4.13,11.4,12.59l2.51-.52c.61-5.21-5.25-8.97-7-13.48-.33-.04-.67.04-1,0-7.76-1.04-10.74-10.67-18.87-11.1.63-3.15-1.06-9-.7-11.42.17-1.16,2.54-2.55,3.15-4.39,2.88-8.8-3.93-17.8-4.15-26.08,26.82-6.76,48.18-25.62,71.5-39.52,2.76-.75,7.09,5.78,10.01,7.61.41.26,2.07-.57,2.02.52l-3.02,10.47-3.98-1c-1.48,2.81,4.26,3.45,1.01,5.51-5.38,3.4-10.38-5.23-11-4.51-.26,4.93,5.86,7.71,9.98,7.99.08-.18,2.48-.91,3.4-2.07,1.95-2.44,6.15-11.63,10.55-9.46,6.34,3.12,3.99,10.93,5.46,15.59,1.23,3.88,6.8,5.42.58,11.44ZM291.86,247.5c1.11,1.85,2.83,3.25,4.39,4.67,3.6,3.28,11.91,6.48,11.45,11.42l-30.96,57.53c-1.03,4.3-3.88,8.62-5.99,12.5-1.75,1.37-1.08-4.63-1.05-5.05,2.14-25.76,9.54-50.8,10.12-76.87.07-3.06-1.55-6.2-1.11-8.93.44-2.74,7.75-8.29,9.99-11.07,1.86-2.31,5.65-7.92,7.02-10.46.73-1.37-.35-5.87,2.98-4.99.21,6.46,11.78,14.72,5.51,19.98-3.11,2.61-13.74,5.93-12.36,11.27ZM204.53,286.46l15.24-19.81c1.78-1.13,8.04,5.54,8.5,6.55,1.52,3.36.13,12.09.53,16.45,1.18,12.84,4.94,25.56,4.97,38.47-3.93-2.96-6.9-7.21-9.98-10.99-6.69-8.21-10.95-14.81-15.98-23.97-.79-1.43-4.76-3.76-3.28-6.69ZM203.31,277.15c-7.91-8.81-12.99-19.59-18.48-29.95-2.24-4.22-4.94-8.2-6.83-12.65-.39-.91-2.17-2.54-.67-3.32,3.95,3.35,7.92,6.84,12.18,9.8,4.3,2.99,17.85,13.07,21.31,14.65,2.83,1.29,6.9.17,9.97.53-1.51,3.25-6.01,5.57-7.99,7.98-1.38,1.67-7.64,12.97-9.49,12.97ZM223.81,261.69l7.5-7.55c7.78,1.86,15.62,1.02,23.45.06.62,2.02-1.49,2.88-1.99,3.99-1.48,3.28-6.37,14.01-8.49,15.99-1.38,1.29-2.81,1.08-4.5.99-5.48-.3-11.45-10.13-15.97-13.48ZM259.74,261.19l11.98,25.37c-.03.81-.96,1.39-.98,1.6-.85,9.18-3.12,18.12-5.49,26.96-5.69-10.01-12.49-22.52-14.49-33.96-.04-.22-.95-.74-.99-1.58l9.97-18.4ZM273.74,250.2c.29,2.56,1.09,4.84,1.09,7.49-.02,4.62-2.12,10.37-1.1,15.48l-8.98-13.98c-6.97-6.3,2.3-13.42,8.98-14.98.18,1.95-.21,4.07,0,5.99ZM274.73,87.39c-5.83-2.16-11.55-4.29-13.95-10.49,1.15-1.69,2.95-1.97,4.8-1.29l9.15,11.79ZM282.71,64.9c1.63-1.27,1.41-3.26,3.01-3.47-1.3,12.96-15.47,11.26-25.28,10.8-1.54-.48-3.91-4.98-4.68-6.81l-8.99,5.98c.8-4.14,4.43-9.18,9.01-7.4.1.49-.16,1.07-.02,1.42l6.54-2.96c3.11,6.55,15.28,6.44,20.41,2.44ZM259.76,57.43c.04.29.95,1.06,1.05,2.43.29,3.93-5.34-.02-6.67-.15-1.93-.19-3.81,1.13-6.64.53-3.4-.71-9.8-6.19-8.61-10.15,1.62-1.93,3.97-3.08,5.89-4.65,1.87-1.52,3.6-3.15,5.47-4.65,8.87,2.03,8.46,9.33,9.52,16.64ZM97.22,82.6c-1.01-.6-8.43-6.26-7.3-7.18,4.14,1.39,8.2,2.15,12.47,3,.69.14.46.97.51.98,6.98,1.29,15.61.99,22.42-1.05,8.33-2.5,12.96-9.94,21.52-11.95l-2.98-1.97c15.65-7.73,24.46-25.82,38.63-34.79,10.48-6.63,20.32-8.04,32.29-9.17,8.19-.77,15.68-1.28,23.98-1,4.32.15,10.15-.78,13.44,3.04,3.31,3.84.26,5.81-1.45,8.95-10.6,19.41-26.96,28.35-46,37.41-7.15,3.4-14.41,11.32-21.62,15.34-21.17,11.78-65.05,10.68-85.92-1.61ZM130.89,140.83l4.99-4.49c-7.92.94-18.45,3.28-24.97-2.51,8.03-.96,22.35-.7,26.84-9.12,1.26-2.37.64-3.8,1.13-5.36-.96-7.98-7.16-12.87-4.99-21.97l24.43-2.03c1.22.29.29,2.24.55,3.03,2.11,6.44,3.28,12.99,5.07,19.52-2.39,4.41-4.3,8.74-6.07,13.44.82-.2,2.05.13,2.99,0,.42,4.77-.04,8.66-2.01,12.98l-3.7-8.5c1.55-1.58,1.96-2.47,2.72-4.48-.51.12-4.47,2.33-5.99,3-6.54,2.87-13.54,8.43-20.97,6.5ZM140.53,172.95c1.3-1.29,2.38-5.11,3.93-5.48,5.68-1.35,9.8,5.62,4.9,10.81-7.16,7.58-20.94,7.97-28.46,1.01,6.62.27,14.84-1.58,19.63-6.35ZM222.79,363.07c-35.26.13-70.64.38-105.89,0-4.32-.05-8.67.03-12.99,0,1.03-6.41-.97-13.48-1.05-19.45-.14-11.16,14.19-71.67,11.04-75.44-2.13-.41-2.32,1-3.05,2.43-2.4,4.74-5.24,18.64-6.47,24.5-3.23,15.39-4.11,31.3-7.42,46.51l-3.02,1.46c-2.15-1.52-2.3-30.78-3.24-36.22-.55-3.17-2.81-5.7-3.5-8.48-2.45-9.77-4.83-23.34-8.23-32.55-.48-1.29-1.76-.46-2.02-.66.29,2.54.51,5.52,1,7.99,5,25.15,7.2,38.46,8.95,64.47.59,8.76,2.55,17.39,6.03,25.42-16.63-.05-33.31.09-49.95,0-4.64-.02-9.35.16-13.99,0-1.99-.07-4.01.06-6,0-1.82-13.46,4.98-24.88,9-36.96,1.47-4.43,1.36-11.63,4.98-14.98,3.09,9.14,9.09,35.58,16.48,41.01,1.46,1.07,2.87.62,3.51.94-3.61-13.34-10.12-25.19-13.49-38.95-6.77-27.55-3.13-27.73,6.69-51.26,9.03-21.63,13.59-45.31,30.78-62.61,5.14-5.18,5.85-5.88,12.99-7.99,7.72-2.28,24.57-4.7,32.63-4.92,3.81-.1,8.17,1.78,12.32.93-3.25,16.71-4.5,33.51-4.95,50.48-.15,5.77-2.28,10.73.84,16.86,1.67,2.47,26.82-2.23,31.08-3.41,1.18,1.14-16.11,23.16-16.06,28.49,0,.96.2,1.6.59,2.45.95,2.07,14.46,11.71,17.49,14.49,21.4,19.7,38.31,33.82,61.67,51.15,6.09,4.51,11.92,9.49,18.23,13.8-8.24.92-16.68.46-24.97.49ZM249.03,356.32c-14.16-8.29-26.65-19.85-39.23-30.2-18.39-15.13-35.74-31.14-53.88-46.55,1.3-5.33,20.49-28.68,16.92-32.36-11.24-1.94-22.96,7.4-33.51,2.04-1.86-2.82.71-38.1,1.54-43.99.43-3.06,3.28-17.24,4.54-18.93.79-1.06,9.73-5.77,10.44-5.04,1.67,17.9,8.57,34.45,14.99,50.94,4.35,2.84,22.15,46.22,26.11,54.3,11.67,23.77,34.48,47.71,52.14,67.74.78.88,1.04,2.01,2.66,1.83.21,1.92-1.91.7-2.72.23ZM259.76,356.4l-1.98.67c-3.25-7.15-14.48-15.33-16.76-22.71-2.49-8.09-7.05-39.62-6.12-47.58.22-1.85,1.01-3.66.93-5.56l9.28-.1c.84.2,2.21,4.85,2.66,6.04,2.29,6.13,4.41,12.38,7.14,18.34,1.76,3.85,9.39,15.92,9.8,18.17,1.29,6.96-1.58,22.48-3.95,29.42-.37,1.09-1.05,2.08-1,3.32ZM433.14,362.14c-1.29,1.4-2.99.81-4.56.93-5.1.38-10.78-.06-15.98,0-9.28.11-18.73.33-27.98-.49-3.02-5.52-2.4-11.66-5.11-17.87-.69-1.58-5.51-9.85-6.41-10.66-1.52-1.36-3.08.27-3.94-.89-3.85-5.2-11.58-31.46-13.2-38.81-5.01-22.69-3.71-53.24-1.16-76.49.36-3.26.89-7.94,2.87-10.62-.33-.93.17-3.16,0-4.48-4.18-2.34-5.38,4.86-5.9,8.08-2.64,16.48-2,40.18-2.1,57.33-.02,3.15.12,6.35,0,9.5-.05,1.21.75,3.71-.99,3.48-1.49-6.33-3.82-13.21-6.24-19.24-.77-1.93-2.03-5.62-3.75-6.72,2.77,23.99,12.56,49.88,22.5,71.88,5.44,12.04,13.07,22.59,16.44,35.5-5.89.93-12.02.44-17.97.49-.33,0-.67,0-1,0-2.66.02-5.33,0-7.99,0-23.61.08-47.32.27-70.93,0-4.47-.05-10.32.56-14.5,0-1.38-.18-1.73.55-1.46-1.48,3.27-4.72,4.06-10.44,6.44-15.54,8.46-18.17,20.59-39.66,30.33-57.57,3.01-5.54,14.53-21.28,15.13-25.89,1.15-8.85-12.08-8.89-14.82-16.07-.62-2.21,8.47-6.26,9.57-7.59,5.74-6.95-9.43-25.75-9.7-33.68-.2-5.96,1.82-13.56,4-18.98.76-1.9.49-4.52,2.49-5.97,5.01,3.07,13.22,5.93,19.04,6,6.72.09,14.84-2.8,21.85-1.94,23.4,2.89,33.99,41.42,44.33,58.55,2.57,4.26,4.05,3.76,6.2,9.28.03.07.77.2,1,1,.23.79-.2,2.13,0,3,2.32,10.08,4.07,21.17,4.99,31.47,1.2,13.5-.45,30.04,2.27,42.68.21.97.36,3,1.72,2.75l4.01-19.97c-.18-3.14.2-6.33-.01-9.48-.53-7.86-3.67-15.63-.49-23.47,2.28,2,1.73,5.55,2.5,7.99,5.75,18.15,12.14,39.35,16.49,57.93.72,3.07,3.47,14.02,2.06,16.05Z"/>
      </g>
    </g>
  </g>
</svg>