<?xml version="1.0" encoding="UTF-8"?>
<svg id="Layer_2" data-name="Layer 2" xmlns="http://www.w3.org/2000/svg" viewBox="0 0 1236.17 1179.67">
  <defs>
    <style>
      .cls-1 {
        fill: #519040;
      }

      .cls-2 {
        fill: none;
        stroke: #b7d434;
        stroke-linecap: round;
        stroke-miterlimit: 10;
        stroke-width: 15px;
      }
    </style>
  </defs>
  <g id="Layer_1-2" data-name="Layer 1">
    <g>
      <g>
        <path class="cls-1" d="M662.45,477.81c2.33,1.93,5.45-5.45,8.92-6.55,9.51-2.99,11.96,6.06,14.04,13.08.42,1.44-.61,1.76,2.01,1.46,15.65-38.74,35.26-23.67,23.02,12,4.7.27,9.65-5.34,13.07-.57,2.6,3.62.39,10.78-1.08,14.56,7.34.97,8.93,5.03,7.99,12.02,7.46.29,13.45-.37,17.64-1.06,10.29-1.69,18.57-5.02,20.72-1.94.61.88.47,1.9.45,2.01-.43,2.64-5.07,4.08-12.6,5.59-9.46,1.89-15.91,2.37-22.74,3.26-3.64.48-8.97,1.28-15.44,2.66-1.28.44-2.71-.07-3.42-1.23-.71-1.16-.5-2.67.49-3.6,1.36-.99,2.66-2.99,4.83-4.7,1.73-1.36,3.17-2.84,3.13-5.39-12.13-3.16-8.32-7.07-6.08-16.61l-11.5,8.62c-1.46.88-3.26.73-4.37-.3-1.21-1.13-1.05-2.79-1.02-2.99,1.5-5.51,2.57-11.76,3.96-18.52,1.28-6.18,2.22-12.42,1.93-18.81-1.96-.51-1.93.8-2.81,1.68-5.17,5.13-11.66,23.79-16.21,25.83-9.34,4.18-7.34-15.7-11.95-20.06-2.63-1.87-7.8,10.6-13.05,9.15-7.72-3.64-7.4-13.44-12.96-18.6.04,7.16.46,24.38-10.99,19.48-1.79-.77-14.9-15.59-17.01-13.47l13.52,30.96.5,5.32c-5.67,5.86-13.3-2.65-20.76-4.04-1.82-.34-5.43-1.38-5.3,1.28.37,7.23,27.89,22.37,11.59,28.52l-52.5-4.1c-.77-4.35,1.5-5.52,5.43-5.97l40.51,2.01c.45-1.72-.7-2-1.48-3.01-4.43-5.69-17.16-15.89-9.98-23.97,6.26-7.05,20.65.74,21.47-.03-2.5-8.7-13.53-24.32-10.8-33.3,2.6-8.54,14.46.38,18.27,3.34,1.62,1.26,7.64,8.89,9.52,6.97-1.9-13.87,5.95-28.35,16.84-11.33,1.58,2.46,3.75,9.98,4.18,10.34Z"/>
        <path class="cls-1" d="M107.94,690.81c1.14-.06,2.52-1.2,4.49,0,.09-.8.04-1.49-.2-2.28-1.63-5.24-9.55-15.27-11.98-22.03-1.32-3.68-3.49-9.16.11-12.27,6.03-5.23,14.7,7.06,16.08,5.58-2.06-8.03-13.31-39.37-5.01-44.51.81-.5,1.56-.55,2.48-.56,9.47-.1,19.3,26.22,21.54,34.08l4.01-20.22c.51-.98,3.42-2.69,4.48-2.72,6.35-.21,15.25,20.24,16.51,25.95,3.26-2.32,3.82-7.03,6.59-9.89,9.61-9.93,11.8,9.88,13.9,9.88,5.84-6.26,11.36-18.1,21.78-15.77,7.28,1.63,5.48,10.59,5.72,15.79,4.02-.33,6.31-3.4,10.59-3.92,11.19-1.37,13.57,6.55,11.4,15.91,6.08-.74,11.95,3.7,10.56,9.99-1.15,5.18-5.68,8.45-7.54,13l44.49,2.01,2.5,2.98c-14.87,2.77-31.38,4.12-46.53,3.05-24.77-1.76-7.07-12.43.52-22.54-3.53-4-9.66,2.67-12.47-3.53-2.13-4.7,2.26-7.09,2.49-10.56.63-9.41-14.42,2.86-16.72,3.38-12.12,2.75-4.56-12.19-6.29-18.8-12.16,1.31-13.19,17.74-22.53,21.98-4.83-.12-5.73-13.1-6.48-16.98-4.49,3.51-6.3,17.46-14.56,12.07-2.37-1.55-8.5-18.59-11.19-22.78-.63-.99.1-1.79-2.24-1.28-.83,6.27,1.79,29.69-9.34,25.83-4.21-1.46-13.22-34.14-19.66-37.84l12.58,52.01c-3.25,11.05-15.97-11.71-20.58-13.01,1.62,9.57,8.51,17.91,13.54,25.96,1.82,5.01-1.39,7.54-6.03,8.06-3.96.45-16.46-.6-21.03-1.02-6.85-.63-5.02-5-1.99-5,5.26,0,10.78.29,16,0Z"/>
        <path class="cls-1" d="M531.12,896.12c1.95,2.17,3.23,7.47,4.31,10.21.46,1.18-.76,1.88,1.99,1.48,1.42-5.65,11.65-21.84,17.02-22.61,15.38-2.2,8.05,27.65,6,35.61.94,1,7.93-7.14,13-.51,3.62,4.73.76,8.3-.99,12.96,6.24,3.02,9.01,6.15,7.97,13.56,12.62-.54,24.81-3.87,37.5-3.01,1.72,1.35-.72,2.63-1.79,3.21-8.84,4.85-36.04,9.76-46.23,9.8-3.94.02-6.26-2.13-3.97-6,1.26-2.13,6.56-2.33,7.49-7.54-.17-2.64-4.8-2.29-6.98-3.99-5.03-3.89,1.45-8.49.97-13.48-1.71-1.91-8.67,10.69-15,7.51-1.12-.57-1.86-1.83-2.02-3.07-.71-5.73,9.53-34.46,6.01-37.44-1.65-1.4-1.83.74-2.28,1.27-6.18,7.18-9.77,17.8-15.19,25.74-12.56,5.49-7.96-13.28-14.04-19.01-3.12-.7-6.14,11.03-13.75,8.83-4.9-1.41-7.02-14.88-11.71-17.83-2.22,7.24,2.09,16.9-6.55,20.03-6.05.62-15.17-13.37-21.46-15.03-1.88,2,12.43,26.99,13.52,30.96,4.39,16.02-13.83,3.23-18.25,2.26-10.96-2.4-7.41,2.46-2.81,7.84.9,1.05,2.49,1.46,3.18,2.29,1.15,1.38,7.58,9.1,7.83,9.66,3.68,8.17-2.08,10.26-9.02,10.03-11.65-.38-29.31-1.77-40.84-3.16-2.63-.32-10.64-2.63-5.62-6.39,5.52-4.14,36.6,1.53,45,.5l-10.3-12.25c-7.87-11.25-1.03-18.43,11.72-16.65,3.26.45,5.51,2.44,8.59,2.9-2.74-10.06-13.01-22.84-10.97-33.47.26-1.34.73-2.34,1.96-3.03,7.2-3.52,19.74,8.53,24.52,13.49,2.25.42,1.39-.98,1.49-2.47.31-4.6-.46-15.34,5.53-16.51,9.89-1.93,12.21,12.13,16.97,17.97,3.61-4.96,11.79-10.68,17.19-4.67Z"/>
        <path class="cls-1" d="M325.3,268.66c1.14-.06,2.52-1.2,4.49,0,.09-.8.04-1.49-.2-2.28-1.63-5.24-9.55-15.27-11.98-22.03-1.32-3.68-3.49-9.16.11-12.27,6.03-5.23,14.7,7.06,16.08,5.58-2.06-8.03-13.31-39.37-5.01-44.51.81-.5,1.56-.55,2.48-.56,9.47-.1,19.3,26.22,21.54,34.08l4.01-20.22c.51-.98,3.42-2.69,4.48-2.72,6.35-.21,15.25,20.24,16.51,25.95,3.26-2.32,3.82-7.03,6.59-9.89,9.61-9.93,11.8,9.88,13.9,9.88,5.84-6.26,11.36-18.1,21.78-15.77,7.28,1.63,5.48,10.59,5.72,15.79,4.02-.33,6.31-3.4,10.59-3.92,11.19-1.37,13.57,6.55,11.4,15.91,6.08-.74,11.95,3.7,10.56,9.99-1.15,5.18-5.68,8.45-7.54,13l44.49,2.01,2.5,2.98c-14.87,2.77-31.38,4.12-46.53,3.05-24.77-1.76-7.07-12.43.52-22.54-3.53-4-9.66,2.67-12.47-3.53-2.13-4.7,2.26-7.09,2.49-10.56.63-9.41-14.42,2.86-16.72,3.38-12.12,2.75-4.56-12.19-6.29-18.8-12.16,1.31-13.19,17.74-22.53,21.98-4.83-.12-5.73-13.1-6.48-16.98-4.49,3.51-6.3,17.46-14.56,12.07-2.37-1.55-8.5-18.59-11.19-22.78-.63-.99.1-1.79-2.24-1.28-.83,6.27,1.79,29.69-9.34,25.83-4.21-1.46-13.22-34.14-19.66-37.84l12.58,52.01c-3.25,11.05-15.97-11.71-20.58-13.01,1.62,9.57,8.51,17.91,13.54,25.96,1.82,5.01-1.39,7.54-6.03,8.06-3.96.45-16.46-.6-21.03-1.02-6.85-.63-5.02-5-1.99-5,5.26,0,10.78.29,16,0Z"/>
        <path class="cls-1" d="M898.35,100.5c-1.86-3.4-34.28-2.71-40.56-1.8-.24.02-.21-.16.1-.57,5.8-7.11,11.16-18.13-.38-20.92-2.83-.44-1.44-1.41-.62-3.13,5.66-9.82,4.11-22.31-11.68-17.13-6.37,2.1-14.36,6.42-18.37,11.94-.58,1.17-2.55.73-2.57-.65-.62-15.3-11.75-24.04-24.45-12.26-1.08.93-2.03,2.15-2.53,3.35-.55,1.2-1.12,2.32-2.21,2.4-.41.03-.8-.18-.92-.57-1.43-6.48-7.92-25.78-14.52-27.24-8.74-.94-8.45,16.89-8.56,22.4-6.14-6.38-14.07-18.64-23.23-17.49-3.25.53-6.57,2.68-7.04,6.2-.81,8.16,4.76,17.81,8.23,25,1.8,3.63,3.07,5.66,3.42,7.49.02.19-.19.19-.74-.03-.55-.22-1.23-.52-1.88-.78-5.62-2.32-14.41-5-18.2,1.52-6.54,11.12,8.11,20.98,15.05,27.85.19.19.36.36.47.48.4.4-.04.2-.29.27-5.94.32-61.88,3.36-64.4,3.49-.04,0-.08.02-.16.07-.21.13-.99.79-1.46,1.43-.48.66-.58,1.27-.13,1.81.92.95,2.66,1.16,3.83,1.32,11.23,1.44,38.81.56,52.89,1.02,6.09.04,13.51,1.39,18.7-1.9,1.94-1.3,3.1-3.97,2.95-6.21-.33-3.66-4.67-5.97-7.82-8.62-1.24-.94-2.04-2.24-3.34-3.04-1.26-.76-2.3-1.61-3.44-2.69-1.77-1.65-9.61-10.61-4.77-11.45,3.25-.14,6.31,1.35,8.7,2.44,2.96,1.5,5.12,3.36,6.59,4.88.93,1.06,2.16,2.14,3.59,2.43,3.41.95,6.75-2.03,6.33-5.5-.02-1.55-1.17-2.85-1.74-4.16-.66-1.92-1.65-4.54-3.13-7.45-2.77-5.35-7.84-13.01-10.11-17.85-.78-1.94-1.94-5.32-2.44-7.65-.43-1.59-.15-2.61,1.57-2.31,9.22,1.55,16.55,20.98,24.26,20.97,1.57.07,3.12.33,4.24-1.19,2.18-2.99.83-8.23,1.73-18.22.1-1.13.29-2.87.81-2.93.63-.08,1.4,2.36,1.96,4.08,4.44,13.78,6.27,16.56,8.35,18.47,1.28,1.18,2.75,2.49,4.81,2.58,3.26.15,6.23-2.87,9.02-6.48,3.05-4.04,8.14-10.94,10.36-2.39,1.28,4.51,1.25,10.63,3.74,14.74,3.8,4.76,6.23.43,13.88-4.52,3.6-2.45,7.03-4.52,10.88-6.57,2.42-1.17,5.35-2.9,7.87-2.9,1.82.31.97,3.1.54,4.47-1.06,3.03-2.51,5.58-4.28,8.04-1.65,2.13-2.82,4.39-2.45,7.3.37,6.72,13.77-.21,12.49,3.86-2.6,6.87-14.46,11.88-11.25,19.48.3.65.89.97,1.6.97,16.07.06,33.61-.42,49.14-4.43.13-.01.71-.08,1.15-.58.42-.48.43-1.03.43-1.16Z"/>
        <path class="cls-1" d="M1007.53,777.84c-1.86-3.4-34.28-2.71-40.56-1.8-.24.02-.21-.16.1-.57,5.8-7.11,11.16-18.13-.38-20.92-2.83-.44-1.44-1.41-.62-3.13,5.66-9.82,4.11-22.31-11.68-17.13-6.37,2.1-14.36,6.42-18.37,11.94-.58,1.17-2.55.73-2.57-.65-.62-15.3-11.75-24.04-24.45-12.26-1.08.93-2.03,2.15-2.53,3.35-.55,1.2-1.12,2.32-2.21,2.4-.41.03-.8-.18-.92-.57-1.43-6.48-7.92-25.78-14.52-27.24-8.74-.94-8.45,16.89-8.56,22.4-6.14-6.38-14.07-18.64-23.23-17.49-3.25.53-6.57,2.68-7.04,6.2-.81,8.16,4.76,17.81,8.23,25,1.8,3.63,3.07,5.66,3.42,7.49.02.19-.19.19-.74-.03-.55-.22-1.23-.52-1.88-.78-5.62-2.32-14.41-5-18.2,1.52-6.54,11.12,8.11,20.98,15.05,27.85.19.19.36.36.47.48.4.4-.04.2-.29.27-5.94.32-61.88,3.36-64.4,3.49-.04,0-.08.02-.16.07-.21.13-.99.79-1.46,1.43-.48.66-.58,1.27-.13,1.81.92.95,2.66,1.16,3.83,1.32,11.23,1.44,38.81.56,52.89,1.02,6.09.04,13.51,1.39,18.7-1.9,1.94-1.3,3.1-3.97,2.95-6.21-.33-3.66-4.67-5.97-7.82-8.62-1.24-.94-2.04-2.24-3.34-3.04-1.26-.76-2.3-1.61-3.44-2.69-1.77-1.65-9.61-10.61-4.77-11.45,3.25-.14,6.31,1.35,8.7,2.44,2.96,1.5,5.12,3.36,6.59,4.88.93,1.06,2.16,2.14,3.59,2.43,3.41.95,6.75-2.03,6.33-5.5-.02-1.55-1.17-2.85-1.74-4.16-.66-1.92-1.65-4.54-3.13-7.45-2.77-5.35-7.84-13.01-10.11-17.85-.78-1.94-1.94-5.32-2.44-7.65-.43-1.59-.15-2.61,1.57-2.31,9.22,1.55,16.55,20.98,24.26,20.97,1.57.07,3.12.33,4.24-1.19,2.18-2.99.83-8.23,1.73-18.22.1-1.13.29-2.87.81-2.93.63-.08,1.4,2.36,1.96,4.08,4.44,13.78,6.27,16.56,8.35,18.47,1.28,1.18,2.75,2.49,4.81,2.58,3.26.15,6.23-2.87,9.02-6.48,3.05-4.04,8.14-10.94,10.36-2.39,1.28,4.51,1.25,10.63,3.74,14.74,3.8,4.76,6.23.43,13.88-4.52,3.6-2.45,7.03-4.52,10.88-6.57,2.42-1.17,5.35-2.9,7.87-2.9,1.82.31.97,3.1.54,4.47-1.06,3.03-2.51,5.58-4.28,8.04-1.65,2.13-2.82,4.39-2.45,7.3.37,6.72,13.77-.21,12.49,3.86-2.6,6.87-14.46,11.88-11.25,19.48.3.65.89.97,1.6.97,16.07.06,33.61-.42,49.14-4.43.13-.01.71-.08,1.15-.58.42-.48.43-1.03.43-1.16Z"/>
      </g>
      <g>
        <path class="cls-2" d="M51.03,526.7c11.73,1.39,23.45,2.78,35.18,4.17"/>
        <path class="cls-2" d="M161.93,534.46c7.63-1.89,15.26-3.78,22.89-5.66"/>
        <path class="cls-2" d="M110.06,563.08c11.13,2.78,22.26,5.57,33.39,8.35"/>
        <path class="cls-2" d="M82.63,407.45h-31.6"/>
        <path class="cls-2" d="M27.18,655.83c-6.56,1.68-13.12,3.35-19.68,5.03"/>
        <path class="cls-2" d="M294.9,327.55h-28.02"/>
        <path class="cls-2" d="M309.21,359.75h-22.06"/>
        <path class="cls-2" d="M535.2,671h-37.4"/>
        <path class="cls-2" d="M584.1,705.59h-23.85"/>
        <path class="cls-2" d="M778.48,311.45c-13.32,2.08-26.63,4.15-39.95,6.23"/>
        <path class="cls-2" d="M830.95,301.31h-19.08"/>
        <path class="cls-2" d="M811.87,334.7l-16.7,8.35"/>
        <path class="cls-2" d="M898.57,911.3c-6.84,1.59-13.67,3.18-20.51,4.77"/>
        <path class="cls-2" d="M457.69,1040.1c-12.12.8-24.25,1.59-36.37,2.39"/>
        <path class="cls-2" d="M1172.93,756.27h-18.8"/>
        <path class="cls-2" d="M1228.67,501.66c-7.95-1.12-15.9-2.23-23.85-3.35"/>
        <path class="cls-2" d="M1169.04,466.48h-44.72"/>
        <path class="cls-2" d="M698.28,1144.44c-6.11-2.53-12.22-5.07-18.34-7.6"/>
        <path class="cls-2" d="M655.8,1166.8l-38.01,5.37"/>
        <path class="cls-2" d="M526.04,66.53h-19.08"/>
        <path class="cls-2" d="M760.44,7.5h-15.65"/>
      </g>
    </g>
  </g>
</svg>